<?xml version="1.0" encoding="utf-8"?>
<!-- Generator: Adobe Illustrator 22.1.0, SVG Export Plug-In . SVG Version: 6.00 Build 0)  -->
<svg version="1.1" id="Layer_1" xmlns="http://www.w3.org/2000/svg" xmlns:xlink="http://www.w3.org/1999/xlink" x="0px" y="0px"
	 viewBox="0 0 200 70" style="enable-background:new 0 0 200 70;" xml:space="preserve">
<style type="text/css">
	.st0{fill:none;}
	.st1{fill:#ED1F24;}
	.st2{fill:#FFFFFF;}
	.st3{fill-rule:evenodd;clip-rule:evenodd;}
	.st4{fill-rule:evenodd;clip-rule:evenodd;fill:#FFFFFF;}
	.st5{fill:#0E0D0F;}
	.st6{fill:#0F0E10;}
	.st7{fill:#3660B0;}
	.st8{fill:#3567B4;}
	.st9{fill:#356BB7;}
	.st10{fill:#2B99D9;}
	.st11{fill:#375BAD;}
	.st12{fill:#70AA43;}
	.st13{fill:#394EA6;}
	.st14{fill:#3372BC;}
	.st15{fill:#3756AA;}
	.st16{fill:#2C93D4;}
	.st17{fill:#3853A8;}
	.st18{fill:#6BA443;}
	.st19{fill:#7AB444;}
	.st20{fill:#2E8DD0;}
	.st21{fill:#7EB845;}
	.st22{fill:#75AF44;}
	.st23{fill:#3278C1;}
	.st24{fill:#2F86CB;}
	.st25{fill:#4EB9A8;}
	.st26{fill:#82BD46;}
	.st27{fill:#3082C8;}
	.st28{fill:#317DC4;}
	.st29{fill:#54BDAC;}
	.st30{fill:#2CA1DF;}
	.st31{fill:#368E86;}
	.st32{fill:#2D7E7A;}
	.st33{fill:#31857F;}
	.st34{fill:#3A968D;}
	.st35{fill:#639D41;}
	.st36{fill:#57933F;}
	.st37{fill:#5D9840;}
	.st38{fill:#45AA9C;}
	.st39{fill:#4C8A3D;}
	.st40{fill:#3E9D92;}
	.st41{fill:#3C7C3A;}
	.st42{fill:#46853C;}
	.st43{fill:#518E3E;}
	.st44{fill:#41803B;}
	.st45{fill:#236737;}
	.st46{fill:#41A397;}
	.st47{fill:#4AB2A3;}
	.st48{fill:#36773A;}
	.st49{fill:#307238;}
	.st50{fill:#2A6C38;}
	.st51{fill:#29A4E1;}
	.st52{fill:#070707;}
	.st53{fill:#050505;}
	.st54{fill:#030303;}
	.st55{fill:#FEFEFE;}
	.st56{fill:#F9F9F9;}
	.st57{fill:#FBFBFB;}
	.st58{fill:#0D5B3C;}
	.st59{fill:#045033;}
	.st60{fill:#FCFCFC;}
	.st61{fill:#F3F5F3;}
	.st62{fill:#237851;}
	.st63{fill:#166D48;}
	.st64{fill:#29875B;}
	.st65{fill:#1C754E;}
	.st66{fill:#339866;}
	.st67{fill:#319263;}
</style>
<g>
	<path class="st0" d="M89,57C89,57,89,57.1,89,57C89,57.1,89,57,89,57z"/>
	<path class="st0" d="M88.9,57.2c-0.1,0.1-0.1,0.1-0.2,0.2C88.8,57.4,88.8,57.3,88.9,57.2z"/>
	<path class="st0" d="M89.1,56.8c0,0,0,0.1-0.1,0.1C89.1,56.9,89.1,56.9,89.1,56.8z"/>
	<path d="M55.1,48.6c-0.1,0.2-0.2,0.4-0.4,0.6c0.2,0,0.4,0,0.5,0c4.4,0,8.9,0,13.3,0c0.3,0,0.5-0.1,0.7-0.4
		c2.4-3.4,4.8-6.9,7.2-10.3c0.2-0.2,0.3-0.3,0.6-0.3c3.1,0,6.2,0,9.4,0c0.3,0,0.4-0.1,0.6-0.3c2.3-3.3,4.6-6.6,6.9-9.9
		c0.1-0.1,0.1-0.2,0.2-0.3c-3.4,0-6.7,0-10,0c0.1-0.1,0.1-0.2,0.1-0.2c1.6-2.3,3.2-4.5,4.8-6.8c0.1-0.1,0.4-0.2,0.5-0.2
		c2.4,0,4.8-0.5,7.1-1.3c4.9-1.8,8.8-5,12.4-8.7c-9.1,0-18.1,0-27.2,0c-0.1,0.1-0.1,0.2-0.2,0.3C72.8,23.4,64,36,55.1,48.6z"/>
	<path class="st1" d="M140.5,11.3c-3.8-0.2-7.6-0.3-11.4-0.5c-2.4-0.1-4.9-0.2-7.3-0.3c-0.3,0-0.5-0.1-0.8-0.1c-0.2,0-0.4,0-0.6,0
		c-0.1,0.1-0.1,0.2-0.2,0.3c-6.3,9-12.6,18-18.9,27c-0.1,0.1-0.2,0.2-0.3,0.4c11.3-0.5,22.5-1,33.8-1.6c0,0,0,0,0-0.1
		c-9.6-0.4-19.3-0.8-28.9-1.2c0-0.1,0-0.1,0-0.2c10.3-0.5,20.6-0.9,30.9-1.4c0,0,0,0,0-0.1c-9.7-0.4-19.3-0.8-29-1.2
		c0,0,0-0.1,0-0.1c10.3-0.5,20.6-0.9,30.8-1.4c0,0,0,0,0-0.1c-9.6-0.4-19.3-0.8-28.9-1.1c0,0,0-0.1,0-0.1
		c10.3-0.5,20.6-0.9,30.9-1.4c0,0,0,0,0-0.1c-9.7-0.4-19.3-0.8-29-1.2c0,0,0-0.1,0-0.1c10.3-0.5,20.6-0.9,30.9-1.4c0,0,0,0,0-0.1
		c-9.7-0.4-19.3-0.8-29-1.2c0,0,0-0.1,0-0.1c10.2-0.5,20.4-0.9,30.7-1.4c0,0,0-0.1,0-0.1c-9.6-0.4-19.2-0.8-28.7-1.1
		c0,0,0-0.1,0-0.1c10.3-0.5,20.6-0.9,30.9-1.4c0,0,0,0,0-0.1c-9.7-0.4-19.3-0.8-29-1.2c0,0,0-0.1,0-0.1c10.3-0.5,20.6-0.9,30.9-1.4
		c0,0,0,0,0-0.1c-9.7-0.4-19.3-0.8-29-1.1c0,0,0-0.1,0-0.1c10.3-0.5,20.5-0.9,30.8-1.4c0,0,0,0,0-0.1c-9.6-0.4-19.2-0.8-28.9-1.1
		c0,0,0-0.1,0-0.1c0.1,0,0.3,0,0.4,0c2.6-0.1,5.2-0.2,7.7-0.4c3.4-0.2,6.8-0.3,10.3-0.5c2.1-0.1,4.2-0.2,6.3-0.3
		c2.1-0.1,4.2-0.2,6.3-0.3c0,0,0-0.1,0-0.1c-1.6-0.1-3.3-0.1-4.9-0.2C145.2,11.5,142.8,11.4,140.5,11.3z"/>
	<path class="st1" d="M132.9,39.4c-0.3-0.1-0.6-0.1-0.9-0.1c-2.4-0.2-4.7-0.3-7.1-0.5c-1.9-0.1-3.8-0.2-5.6-0.4
		c-2.3-0.2-4.7-0.3-7-0.5c-0.3,0-0.5,0.1-0.7,0.3c-2.4,3.4-4.7,6.8-7.1,10.1c-0.2,0.2-0.3,0.4-0.5,0.7c7.8-0.5,15.5-1,23.2-1.5
		c0,0,0,0,0-0.1c-6.1-0.4-12.3-0.8-18.4-1.2c0,0,0-0.1,0-0.1c6.8-0.4,13.6-0.9,20.4-1.3c0,0,0-0.1,0-0.1c-6.1-0.4-12.3-0.8-18.4-1.2
		c0,0,0-0.1,0-0.1c6.8-0.4,13.5-0.9,20.3-1.3c0,0,0,0,0-0.1c-6.1-0.4-12.3-0.8-18.4-1.2c0,0,0-0.1,0-0.1
		C119.4,40.3,126.1,39.9,132.9,39.4z"/>
	<path d="M75.1,55.1c-0.4-0.5-0.9-0.5-1.4-0.3c-0.3,0.1-0.6,0.3-0.9,0.4c-0.1,0-0.2,0.1-0.2,0.1c-0.9-1.1-1.7-0.3-2.6,0
		c0.1-0.2,0.2-0.3,0.3-0.5c-0.6,0-1.1,0-1.6,0c-0.3,0-0.4,0.1-0.6,0.3c-0.9,1.3-1.8,2.6-2.7,3.9c-0.1,0.1-0.1,0.2-0.2,0.4
		c0.6,0,1.1,0,1.7,0c0.2,0,0.4-0.1,0.5-0.2c0.6-0.8,1.1-1.6,1.7-2.4c0.1-0.2,0.3-0.4,0.5-0.5c0.2-0.1,0.4,0,0.6,0
		c0,0.2,0,0.4-0.1,0.5c-0.6,0.8-1.2,1.7-1.8,2.6c0.6,0,1.1,0,1.6,0c0.3,0,0.4-0.1,0.6-0.3c0.5-0.8,1.1-1.6,1.6-2.3
		c0.1-0.2,0.3-0.4,0.5-0.5c0.1-0.1,0.3,0,0.5,0c0,0.1,0,0.3-0.1,0.4c-0.5,0.8-1,1.5-1.6,2.2c-0.1,0.1-0.2,0.2-0.3,0.4
		c0.6,0,1.2,0,1.7,0c0.2,0,0.4-0.1,0.5-0.3c0.6-0.9,1.2-1.7,1.8-2.6C75.1,56.1,75.4,55.6,75.1,55.1z"/>
	<path d="M53.1,54.7c0.2-0.3,0.4-0.4,0.8-0.4c1.2,0,1.9-0.7,2.7-1.6c-0.2,0-0.3,0-0.4,0c-1.2,0-2.3,0-3.5,0c-0.3,0-0.4,0.1-0.6,0.3
		c-1.4,2-2.8,4-4.2,6c-0.1,0.1-0.1,0.2-0.3,0.4c0.3,0,0.5,0,0.7,0c0.5,0,1.1,0.1,1.6-0.1c0.4-0.2,0.7-0.8,0.9-1.2
		c0.3-0.6,0.8-0.9,1.5-0.8c0.2,0,0.5,0,0.7,0c0.1,0,0.2,0,0.3-0.1c0.4-0.5,0.7-1,1.1-1.6c-0.7,0-1.2,0-1.9,0
		C52.8,55.3,53,55,53.1,54.7z"/>
	<path d="M91.1,54.8c-0.3,0-0.6,0.1-0.9,0.2c-0.3-0.3-0.4-0.3-0.9-0.4c-1.8,0-3.8,1.6-4.1,3.4c-0.2,1,0.5,1.7,1.5,1.4
		c0.4-0.1,0.7-0.2,1.1-0.4c0,0.1-0.1,0.1-0.1,0.3c0.5,0,1,0,1.4,0c0.3,0,0.4-0.1,0.6-0.3c0.9-1.3,1.9-2.7,2.8-4
		c0.1-0.1,0.1-0.2,0.2-0.3C92.1,54.8,91.6,54.8,91.1,54.8z M89.1,56.8c0,0,0,0.1-0.1,0.1c0,0,0,0,0,0.1c0,0,0,0,0,0
		c0,0.1-0.1,0.1-0.1,0.2c-0.1,0.1-0.1,0.1-0.2,0.2c-0.3,0.3-0.7,0.6-1,0.6c-0.2,0-0.4-0.1-0.4-0.3c0-0.1,0-0.1,0-0.2
		c0-0.6,1-1.6,1.6-1.6c0.3,0,0.4,0.1,0.4,0.4C89.3,56.5,89.2,56.7,89.1,56.8z"/>
	<path d="M99.6,53.1c-0.2,0-0.4,0.1-0.6,0.2c-0.6,0.6-1.3,1-2.2,1c-0.1,0-0.2,0-0.2,0.1c-0.3,0.4-0.6,0.8-0.9,1.3c0.5,0,1,0,1.5,0
		c-0.4,0.6-0.8,1.1-1.1,1.6c-0.2,0.4-0.5,0.5-0.9,0.5c-0.2,0-0.6-0.1-0.7,0.1c-0.4,0.5-0.7,1-1.1,1.5c0.1,0,0.1,0.1,0.1,0.1
		c1.5,0,3,0,4.5,0c0.1,0,0.2,0,0.3-0.1c0.4-0.5,0.7-1,1.1-1.6c-0.5,0-0.9,0-1.4,0c1.1-1.6,2.2-3.1,3.2-4.7
		C100.6,53.1,100.1,53,99.6,53.1z"/>
	<path d="M82.2,54.8c-0.5,0-1,0-1.6,0c-0.3,0-0.5,0.1-0.7,0.4c-0.6,0.8-1.2,1.7-1.8,2.5c-0.2,0.3-0.5,0.5-0.8,0.3
		c-0.3-0.3,0-0.5,0.1-0.7c0.5-0.8,1.1-1.6,1.7-2.5c-0.7,0-1.3,0-1.9,0c-0.1,0-0.3,0.1-0.3,0.1c-0.6,0.9-1.2,1.7-1.8,2.6
		c-0.5,0.9-0.1,1.7,0.9,1.9c1.5,0.3,2.8,0,3.7-1.3c0.8-1,1.5-2.1,2.2-3.2C82.2,54.9,82.2,54.9,82.2,54.8z"/>
	<path d="M59.2,54.7c-1.8-0.4-4,1-4.7,2.8c-0.4,1.2,0.2,2,1.5,2c1.9,0,3.8-1.6,4.2-3.3C60.4,55.4,60,54.9,59.2,54.7z M56.7,58
		c-0.3,0-0.5-0.1-0.4-0.4c0.2-0.7,0.7-1.3,1.4-1.6c0.4-0.1,0.6,0,0.6,0.4C58.3,56.9,57.3,58,56.7,58z"/>
	<path d="M66.9,55.1c-0.9-0.8-1.6-0.1-2.4,0.3c0.1-0.2,0.2-0.3,0.3-0.5c-0.6,0-1.1,0-1.7,0c-0.3,0-0.4,0.1-0.6,0.3
		c-0.9,1.3-1.8,2.6-2.8,4c-0.1,0.1-0.1,0.2-0.2,0.4c0.6,0,1.1,0,1.7,0c0.2,0,0.4-0.1,0.5-0.3c0.5-0.7,0.9-1.3,1.4-2
		c0.3-0.4,0.7-0.7,1.2-0.8c0.3,0,0.7,0.2,1,0.3C65.8,56.1,66.3,55.6,66.9,55.1z"/>
	<path d="M85.1,53.4c-0.3,0-0.4,0.1-0.6,0.3c-1.2,1.8-2.5,3.6-3.7,5.4c-0.1,0.1-0.1,0.2-0.2,0.4c0.6,0,1.1,0,1.7,0
		c0.3,0,0.4-0.1,0.6-0.3c0.6-0.9,1.3-1.9,1.9-2.8c0.7-0.9,1.3-1.9,2-2.9C86.2,53.4,85.6,53.4,85.1,53.4z"/>
	<path class="st2" d="M89.1,57C89.1,57,89.1,57,89.1,57C89.1,57,89.1,57,89.1,57z"/>
	<path class="st2" d="M87.2,57.8c0,0.2,0.2,0.2,0.4,0.3c0.3,0,0.7-0.3,1-0.6c-0.3,0.3-0.7,0.6-1,0.6C87.4,58.1,87.3,58,87.2,57.8z"
		/>
	<path class="st2" d="M89,57.1c0,0.1-0.1,0.1-0.1,0.2C88.9,57.2,89,57.1,89,57.1z"/>
</g>
</svg>
