<?xml version="1.0" encoding="utf-8"?>
<!-- Generator: Adobe Illustrator 22.1.0, SVG Export Plug-In . SVG Version: 6.00 Build 0)  -->
<svg version="1.1" id="Layer_1" xmlns="http://www.w3.org/2000/svg" xmlns:xlink="http://www.w3.org/1999/xlink" x="0px" y="0px"
	 viewBox="0 0 200 70" style="enable-background:new 0 0 200 70;" xml:space="preserve">
<style type="text/css">
	.st0{fill:none;}
	.st1{fill:#ED1F24;}
	.st2{fill:#FFFFFF;}
	.st3{fill-rule:evenodd;clip-rule:evenodd;}
	.st4{fill-rule:evenodd;clip-rule:evenodd;fill:#FFFFFF;}
	.st5{fill:#0E0D0F;}
	.st6{fill:#0F0E10;}
	.st7{fill:#3660B0;}
	.st8{fill:#3567B4;}
	.st9{fill:#356BB7;}
	.st10{fill:#2B99D9;}
	.st11{fill:#375BAD;}
	.st12{fill:#70AA43;}
	.st13{fill:#394EA6;}
	.st14{fill:#3372BC;}
	.st15{fill:#3756AA;}
	.st16{fill:#2C93D4;}
	.st17{fill:#3853A8;}
	.st18{fill:#6BA443;}
	.st19{fill:#7AB444;}
	.st20{fill:#2E8DD0;}
	.st21{fill:#7EB845;}
	.st22{fill:#75AF44;}
	.st23{fill:#3278C1;}
	.st24{fill:#2F86CB;}
	.st25{fill:#4EB9A8;}
	.st26{fill:#82BD46;}
	.st27{fill:#3082C8;}
	.st28{fill:#317DC4;}
	.st29{fill:#54BDAC;}
	.st30{fill:#2CA1DF;}
	.st31{fill:#368E86;}
	.st32{fill:#2D7E7A;}
	.st33{fill:#31857F;}
	.st34{fill:#3A968D;}
	.st35{fill:#639D41;}
	.st36{fill:#57933F;}
	.st37{fill:#5D9840;}
	.st38{fill:#45AA9C;}
	.st39{fill:#4C8A3D;}
	.st40{fill:#3E9D92;}
	.st41{fill:#3C7C3A;}
	.st42{fill:#46853C;}
	.st43{fill:#518E3E;}
	.st44{fill:#41803B;}
	.st45{fill:#236737;}
	.st46{fill:#41A397;}
	.st47{fill:#4AB2A3;}
	.st48{fill:#36773A;}
	.st49{fill:#307238;}
	.st50{fill:#2A6C38;}
	.st51{fill:#29A4E1;}
	.st52{fill:#070707;}
	.st53{fill:#050505;}
	.st54{fill:#030303;}
	.st55{fill:#FEFEFE;}
	.st56{fill:#F9F9F9;}
	.st57{fill:#FBFBFB;}
	.st58{fill:#0D5B3C;}
	.st59{fill:#045033;}
	.st60{fill:#FCFCFC;}
	.st61{fill:#F3F5F3;}
	.st62{fill:#237851;}
	.st63{fill:#166D48;}
	.st64{fill:#29875B;}
	.st65{fill:#1C754E;}
	.st66{fill:#339866;}
	.st67{fill:#319263;}
</style>
<g>
	<path d="M140,40.8c0.1,0,0.8,0,0.8,0.7c0,0.3-0.3,0.5-0.5,0.6v0c0.1,0,0.2,0.1,0.3,0.3l0.4,1h-0.4l-0.4-0.9
		c-0.1-0.1-0.1-0.2-0.3-0.2h-0.3v1.1h-0.3v-2.5H140L140,40.8z M139.6,41.9L139.6,41.9h0.3c0.4,0,0.5-0.2,0.5-0.4
		c0-0.1,0-0.4-0.5-0.4h-0.4V41.9L139.6,41.9z M140,40L140,40c1.2,0,2.1,0.9,2.1,2.1s-0.9,2.1-2.1,2.1c-1.2,0-2.1-0.9-2.1-2.1
		S138.9,40,140,40L140,40z M140,43.9L140,43.9c1,0,1.8-0.8,1.8-1.8s-0.8-1.8-1.8-1.8c-1,0-1.8,0.8-1.8,1.8S139,43.9,140,43.9
		L140,43.9z"/>
	<path class="st3" d="M68,24.5c-0.3-0.3-0.5-0.7-0.6-1c-0.1-0.3-0.2-0.7-0.2-1c0-1.5,0.9-2.5,1.8-3c0.4-0.2,0.6-0.4,0.6-0.5
		c0,0-0.1,0-0.1,0c-1.2,0-1.9-0.5-2.2-0.9c-0.3-0.4-0.4-0.9-0.4-1.4c0-0.3,0-0.5,0.1-0.8c0.4-0.6,0.7-0.4,0.9-0.1
		c0.1,0.2,1,0.8,2.1,0.9c0.8,0.1,1.2,0.5,1.5,0.8c0.3,0.4,0.4,0.8,0.4,1.2c0,0.2,0,0.3,0,0.4c-0.1,0.5-0.6,0.9-1.4,1.5l-0.4,0.3
		C69.3,21.4,69,22,69,22.5c0,0.1,0,0.2,0.1,0.4c0,0,0,0.1,0.1,0.1c0.3,0.5,1,0.7,2.1,0.4c0.5-0.2,1.5-0.8,2.1-1.4
		c0.7-0.7,1.6-0.9,2.5-0.9c0.8-0.1,1.3-0.2,1.6-0.6c1-1.1,2-1.3,2.9-1.3c0.3,0,0.4-0.1,0.4-0.1c0.5-0.7,1-1,1.5-1.2
		c0.3-0.2,0.7-0.2,0.9-0.3l0.3-0.1l0.1,0c0.5-0.2,0.9-0.3,1.9-1l0,0l0,0l0,0l0,0l0,0l0,0l0,0l0,0l0,0l0,0l0,0l0,0l0,0l0,0l0,0l0,0
		l0,0l0,0l0,0l0,0l0,0l0,0l0,0l0,0l0,0l0,0l0,0l0,0l0,0l0,0l0,0l0,0l0,0l0,0l0,0l0,0l0,0l0,0l0,0l0,0l0,0l0,0l0,0l0,0l0,0l0,0l0,0
		l0,0l0,0l0,0l0,0l0,0l0,0l0,0l0,0h0l0,0h0h0l0,0l0,0h0c0,0,0.1,0,0.1,0l0,0l0,0l0,0l0,0l0,0l0,0l0,0l0,0l0,0l0,0l0,0l0,0l0,0l0,0
		l0,0l0,0l0,0l0,0l0,0l0,0c0.1,0,0.1,0,0.2,0l0,0l0,0c0.1,0,0.1,0,0.2,0l0,0l0,0c0.1,0,0.2,0.1,0.3,0.1l0,0l0,0
		c2.2-3,5.6-4.9,9.5-5.1v0c0.1,0,0.1,0,0.2,0c0.1,0,0.1,0,0.2,0c0.1,0,0.1,0,0.2,0c0.1,0,0.1,0,0.2,0c0.1,0,0.1,0,0.2,0
		c0.1,0,0.1,0,0.2,0h0c0.1,0,0.1,0,0.2,0l0,0c3.8,0.2,7.1,2.1,9.3,5c0.3-0.1,0.6-0.2,1-0.2l0,0l0,0l0,0l0,0l0,0l0,0l0,0l0,0l0,0l0,0
		h0l0,0h0l0,0l0,0l0,0l0,0l0,0l0,0l0,0l0,0l0,0l0,0l0,0c0.1,0,0.2,0,0.2,0l0,0l0,0l0,0l0,0l0,0l0,0l0,0l0,0l0,0l0,0l0,0l0,0l0,0l0,0
		l0,0l0,0l0,0l0,0l0,0l0,0l0,0c0.1,0,0.1,0.1,0.2,0.1l0,0l0,0l0,0l0,0l0,0l0,0l0,0l0,0v0l0,0c0.7,0.5,1.1,0.7,1.5,0.8
		c0.2,0.1,0.3,0.1,0.5,0.2l0.1,0l0.3,0.1c0.2,0,0.4,0.1,0.6,0.2c0.5,0.2,1.2,0.5,1.8,1.3c0,0.1,0.1,0.1,0.4,0.1
		c0.9,0.1,1.9,0.2,2.9,1.3c0.3,0.4,0.8,0.6,1.6,0.6c0.9,0.1,1.8,0.2,2.5,0.9c0.6,0.6,1.6,1.2,2.1,1.4c1.1,0.4,1.9,0.1,2.1-0.4
		c0.1-0.1,0.1-0.2,0.1-0.3c0-0.1,0-0.1,0-0.2c0-0.5-0.3-1.1-0.9-1.6l-0.1-0.1l-0.3-0.3c-0.7-0.6-1.2-1-1.4-1.5c0-0.1,0-0.3,0-0.4
		c0-0.4,0.1-0.8,0.4-1.2c0.2-0.3,0.7-0.7,1.5-0.8c1.1-0.1,2-0.7,2.1-0.9c0.2-0.3,0.5-0.5,0.9,0.1c0.1,0.3,0.1,0.6,0.1,0.8
		c0,0.5-0.2,1-0.4,1.4c-0.3,0.4-1,0.9-2.2,0.9c0,0-0.1,0-0.1,0c0.1,0.1,0.2,0.2,0.6,0.5c0.9,0.5,1.8,1.6,1.8,3c0,0.3-0.1,0.7-0.2,1
		c-0.1,0.3-0.3,0.6-0.5,0.9c0,0-0.1,0.1-0.1,0.1c-0.5,0.5-1.4,0.9-2.8,0.8c-0.1,0-0.3,0-0.5,0c0,0.7-0.2,1.6-0.5,2
		c-0.1,0.1-0.1,0.2-0.1,0.3c0,0,0,0,0,0c0,0,0.6,0.4,0.6,0.4l0.1,0.1c0,0,0.1,0,0.1,0c0,0,0.2,0,0.2,0l0,0l0,0c0.4,0,1-0.2,1.2,0.5
		c0.1,0.2,0.1,0.4,0.1,0.5c0.1,0.3,0.1,0.5,0.4,0.7c0,0,0.1-0.1,0.3-0.2c0.1-0.1,0.2-0.2,0.3-0.3c0.2-0.2,0.5-0.1,0.8,0
		c0.2,0.1,0.5,0.3,0.8,0.4c0.2,0.1,0.3,0.3,0.4,0.5c0.1,0.2,0.2,0.3,0.4,0.4c0.2,0.1,0.5,0.5,0.5,1.1c0,0.1,0,0.2,0,0.2
		c0,0,0,0.1,0.1,0.2c0.3,0.6,0.1,0.9-0.1,1.1c-0.2,0.2-0.7,0.3-1.1,0.2l0,0.1l-0.6-0.1c-0.2,0-0.5,0-0.7,0.1l0,0
		c-0.4,0.1-1-0.1-1.3-0.6c0,0,0,0,0-0.1c-0.2-0.3-0.4-0.5-0.5-0.6c-0.2,0-0.4,0.1-0.8,0.1c-0.3,0-0.6-0.1-1-0.4
		c-0.1,0-0.1-0.1-0.2-0.2c-0.5-0.5-1.2-0.6-1.6-0.6l-0.3,0c-0.5,0.1-1.2,0.2-1.8-0.2c-0.2-0.1-0.4-0.2-0.6-0.3
		c-0.5-0.2-1.1-0.5-1.2-1c0-0.1-0.1-0.3-0.2-0.4c-0.1-0.1-0.2-0.2-0.2-0.4c-0.1-0.1-0.1-0.3-0.1-0.4c-0.2,0-0.4,0.1-0.5,0.1
		c-0.1,0-0.1,0-0.2,0l-0.2,0c-0.4-0.1-1.2-0.2-1.5-0.1c-0.5,0.2-2.2,0.3-2.7,0.2c0,0-0.2,0-0.3-0.1c-0.2,0.2-0.3,0.3-0.5,0.4
		c0.3,0,0.6,0,0.8,0L114,29c0.1,0,0.5,0,0.7,0l0.5,0l0.6,0.1c0.3,0.1,0.6,0.2,0.5,0.7c0,0.2-0.1,0.4-0.2,0.5
		c-0.1,0.1-0.4,0.5-0.4,0.6l0,0c-0.1,0.2-0.3,0.5-0.8,0.5c-0.1,0-0.1,0-0.2,0c0,0-0.1,0.1-0.1,0.1c-0.1,0.3-0.3,0.6-0.6,0.8
		l-0.1,0.1c-0.2,0.2-0.7,0.5-1.3,0.2l-0.2-0.1c-0.6-0.2-1.4-0.5-1.8-0.7l-0.1,0c-0.4-0.2-0.5-0.3-0.6-0.2l-0.1,0
		c-0.3,0-0.9,0.1-1.3-0.5l0-0.1c-1.9,2.5-4.6,4.4-7.9,5l0,0c-0.1,0-0.2,0-0.3,0.1l0,0l-0.2,0c-0.1,0-0.1,0-0.2,0l-0.1,0l-0.2,0
		l-0.1,0c-0.1,0-0.2,0-0.2,0l-0.1,0c-0.1,0-0.1,0-0.2,0l-0.1,0c-0.1,0-0.2,0-0.2,0l-0.1,0c-0.1,0-0.2,0-0.3,0c-0.1,0-0.2,0-0.3,0
		l-0.1,0c-0.1,0-0.2,0-0.2,0l-0.1,0c-0.1,0-0.1,0-0.2,0l-0.1,0c-0.1,0-0.2,0-0.2,0l-0.1,0l-0.2,0l-0.1,0c-0.1,0-0.2,0-0.2,0l-0.1,0
		l-0.2,0l-0.1,0c-0.1,0-0.1,0-0.2,0l-0.1,0l-0.1,0c-0.1,0-0.2,0-0.3-0.1l0,0l-0.2,0l-0.1,0c-0.1,0-0.2-0.1-0.3-0.1l0,0
		c-2.8-0.8-5.2-2.6-6.9-4.9l-0.2,0.3c-0.4,0.6-1,0.6-1.3,0.5l-0.1,0c-0.1,0-0.2,0-0.6,0.2l-0.1,0c-0.4,0.2-1.2,0.5-1.8,0.7l-0.2,0.1
		c-0.6,0.2-1-0.1-1.3-0.2l-0.1-0.1c-0.3-0.2-0.5-0.6-0.6-0.8c0,0,0-0.1-0.1-0.1c0,0-0.1,0-0.2,0c-0.5,0-0.7-0.2-0.8-0.5l0,0
		c-0.1-0.1-0.4-0.6-0.4-0.6c-0.1-0.1-0.2-0.4-0.2-0.5c-0.1-0.5,0.2-0.7,0.5-0.7l0.6-0.1l0.5,0c0.2,0,0.5,0,0.6,0l0.4-0.1
		c0.2-0.1,0.5,0,0.8,0c-0.2-0.1-0.3-0.3-0.5-0.4c-0.2,0-0.3,0.1-0.3,0.1c-0.5,0.1-2.1,0-2.7-0.2c-0.3-0.1-1.1,0-1.5,0.1l-0.2,0
		c-0.3,0-0.5,0-0.7,0c0,0.3-0.2,0.6-0.3,0.8c-0.1,0.1-0.2,0.3-0.2,0.4c-0.1,0.5-0.6,0.8-1.2,1c-0.2,0.1-0.4,0.2-0.6,0.3
		c-0.6,0.4-1.3,0.2-1.8,0.2l-0.3,0c-0.4-0.1-1.1,0-1.6,0.6c-0.8,0.8-1.6,0.6-1.9,0.5c-0.1,0.1-0.4,0.3-0.5,0.6
		c-0.3,0.5-0.9,0.7-1.3,0.6l0,0c-0.2,0-0.5-0.1-0.7-0.1l-0.6,0.1l0-0.1c-0.4,0.1-0.8,0-1.1-0.2c-0.2-0.1-0.4-0.4-0.1-1.1
		c0.1-0.1,0.1-0.3,0.1-0.4c0-0.5,0.3-0.9,0.5-1.1c0.2-0.1,0.4-0.2,0.4-0.4c0.1-0.2,0.2-0.3,0.4-0.5c0.2-0.1,0.5-0.3,0.8-0.4
		c0.2-0.1,0.6-0.2,0.8,0c0.2,0.2,0.6,0.5,0.6,0.5c0.4-0.3,0.4-0.6,0.6-1.2c0.3-0.7,0.9-0.5,1.2-0.5l0,0c0,0,0.2,0,0.2,0
		c0,0,0.1,0,0.1,0l0.1-0.1c0,0,0.6-0.4,0.6-0.4c0,0,0,0,0,0c0,0,0-0.1-0.1-0.3c-0.3-0.4-0.5-1.3-0.5-2c-0.1,0-0.2,0-0.3,0
		C69.4,25.4,68.5,25,68,24.5L68,24.5z M125.5,28L125.5,28L125.5,28L125.5,28z M110.1,16c-0.1,0-0.2,0-0.2,0L110.1,16L110.1,16z
		 M110.8,16.2c-0.1,0-0.1-0.1-0.2-0.1L110.8,16.2L110.8,16.2z M99.9,36.1c0.1,0,0.1,0,0.2,0L99.9,36.1L99.9,36.1z M99.3,36.2
		c0.1,0,0.2,0,0.2,0L99.3,36.2L99.3,36.2z M99,36.2c0.1,0,0.1,0,0.2,0L99,36.2L99,36.2z M98.7,36.2c0.1,0,0.2,0,0.2,0L98.7,36.2
		L98.7,36.2z M98.1,36.2c0.1,0,0.2,0,0.3,0c0.1,0,0.2,0,0.3,0L98.1,36.2L98.1,36.2z M97.8,36.2c0.1,0,0.2,0,0.2,0L97.8,36.2
		L97.8,36.2z M97.5,36.2c0.1,0,0.1,0,0.2,0L97.5,36.2L97.5,36.2z M97.1,36.2c0.1,0,0.2,0,0.2,0L97.1,36.2L97.1,36.2z M96.5,36.1
		c0.1,0,0.2,0,0.2,0L96.5,36.1L96.5,36.1z M96,36c0.1,0,0.1,0,0.2,0L96,36L96,36z"/>
	<path class="st4" d="M87.2,20.4c-0.1-0.2-0.1-0.3,0-0.5c0.2-0.3,0.4,0,0.4,0c0.7,1,0.2,2.4,0.2,2.4C87.8,21.1,87.2,20.4,87.2,20.4
		L87.2,20.4z M93.2,26.8c0-0.3,0-0.9-0.3-1.1c-0.1-0.1-0.5-0.5-0.5-0.5C92.4,25,92.3,25,92.3,25c-0.1,0-0.2,0.2-0.2,0.2
		c-0.3,0.6-0.6,0.5-0.6,0.5c0-0.1,0.1-0.2,0.1-0.2c0.1-0.2,0.4-0.8,0.4-0.8c0-0.1,0.1-0.2,0.1-0.2c0.3-0.4,0.6-0.1,0.6-0.1
		c0.1,0.2,0.8,1,0.8,1c0.1,0.2,0.2,0.4,0.2,0.4C93.8,26.8,93.2,26.8,93.2,26.8L93.2,26.8L93.2,26.8z M91.5,29.6
		c-0.1,0-0.2,0-0.1-0.2c0.1-0.4,0.4-0.5,0.4-0.5c0.6-0.3,0.6,0,0.6,0c0.1,0.6-0.4,0.7-0.4,0.7C91.9,29.5,91.5,29.6,91.5,29.6
		L91.5,29.6L91.5,29.6z M66.8,31.3c0,0,0.1,0.1,0.1,0.3c0,0-0.3,0.9-0.3,1.2c0,0-0.7,0.1-0.8-0.2c0,0,0-0.1,0.1-0.3
		c0,0,0.1-0.2,0.1-0.5c0,0,0-0.8,0.5-0.6C66.6,31.1,66.7,31.2,66.8,31.3L66.8,31.3L66.8,31.3z M67.6,29.9c0.1-0.1,0.3-0.2,0.4-0.1
		c0.3,0.1,0.1,0.4,0.1,0.4c-0.1,0.3-0.6,0.7-0.6,0.7c-0.4,0.3-0.7-0.1-0.7-0.1c-0.3-0.3,0.1-0.4,0.1-0.4
		C67.2,30.3,67.6,29.9,67.6,29.9L67.6,29.9L67.6,29.9z M71.7,24.7c0,0-0.1,1.2,0.4,2.3c0,0,0.4,0.6,0,1l-0.9,0.5
		c0,0-0.1,0.1-0.5,0.1c0,0-0.5-0.1-0.7,0.1c0,0-0.2,0.4-0.3,0.8c0,0-0.4,0.9-1,1.2c0,0-0.5,0.1-0.7,0.6c0,0-0.2,0.3-0.5,0.3
		c0,0-0.2,0.1-0.4,0.6c0,0-0.1,0.4-0.1,0.6c0,0,0.4-0.1,0.7,0c0,0,0.7,0.2,1-0.3c0,0,0.6-1,1-0.8c0,0,0.9,0.3,1.5-0.3
		c0,0,0.8-0.9,2-0.7c0,0,1.3,0.3,1.8,0c0,0,0.8-0.4,1.2-0.5c0,0,0.4-0.1,0.4-0.5c0,0,0.2-0.6,0.4-0.8l-0.6,0c0,0-0.6,1-1.6,1.3
		c0,0-0.5,0.2-1.6,0c0,0-1.5-0.3-2.9,1.1c0,0-0.2,0.3-0.4,0.2c0,0,0.7-1.3,2.4-1.6c0,0,0.5-0.1,1,0c0,0,2.2,0.1,3.2-2.1
		c0,0-0.1-1.9,0.4-2.3c0,0,0.2-0.1,0.2,0.3c0,0-0.3,1.9,0.3,2.3c0,0,0.4,0.3,1,0.2c0,0,1-0.2,1.9-0.1c0,0,1.3,0.3,2.4,0.2
		c0,0-0.3-0.4-0.2-1c0,0,0.2-0.4,0.3-0.1c0,0,0.4,1.4,1.6,1.8c0,0,1,0.4,1,1.7c0,0-0.2,0.2-1.5,0.7c0,0-0.5,0.2-0.7-0.2
		c0,0-0.7-1.4-1.2-1.4l-1.1,0.1c0,0-0.4,0.1-0.1,0.4c0,0,0.4,0.5,0.5,0.8c0,0,0,0.3,0.4,0.2c0,0,0.5-0.2,0.8,0.7
		c0,0,0.3,0.5,0.7,0.6c0,0,0.4,0.1,0.8-0.1c0,0,1.8-0.7,2.1-0.9c0,0,0.4-0.2,0.7-0.1c0,0,0.5,0.1,0.8-0.3l0.6-0.9
		c0,0,0.1-0.2,0.1-0.5c0,0,0.1-0.3-0.2-0.5c0,0-0.2-0.2-0.2-0.4l-0.4-0.9c0,0-0.2-0.2-0.3-0.4l-0.5,0c0,0,0.4,0.9,0.6,1.3
		c0,0,0.4,0.6,0.3,0.9c0,0,0,0.2-0.1,0.3c0,0-0.1,0.2-0.2,0.3c0,0-0.2,0.3-0.3,0.4c0,0-0.2,0.1-0.3,0.1c0,0-0.1,0,0-0.1
		c0,0,0.3-0.6,0.3-1c0,0,0.1-0.3-0.2-0.6c0,0-0.6-0.9-0.7-1.2c0,0-0.2-0.4-0.3-0.4c0,0-0.2-0.3,0.1-0.4c0,0,0.8-0.2,1-0.3
		c0,0,0.4-0.1,0.6-0.9c0,0,0.3-0.9,0.3-1.5c0,0,0.7,1.3-0.4,2.7c0,0,0.9,0.3,1.2,0c0,0,1.1-0.2,1.3-0.2c0,0,0.3-0.1,0.1,0.1
		c0,0-0.3,0.5-0.4,0.8c0,0,0,0.2-0.2,0.4c0,0-0.6,0.4-0.7,0.8c0,0-0.1,0.4,0.1,0.3c0,0,0.4-0.2,0.5,0c0,0,0,0-0.1,0.2
		c0,0-0.4,0.3-0.4,0.7c0,0,0.1,0.5,0.2,0.7c0,0,0.2,0.2,0.4,0.2c0,0,0.1-0.1,0.2,0c0,0,0.1,0,0.5-0.1c0,0,0.5-0.1,0.7-0.2
		c0,0,0.7-0.2,1-0.2c0,0,0.2,0,0.5,0c0,0,0.8,0.1,1.4-0.5c0,0,0.4-0.3,0.6,0c0,0,1,1.3,2.6,1c0,0-1.3-0.5-1.6-1.2c0,0,0-0.6-0.7-1.4
		c0,0-0.2-0.3,0-0.4c0,0,0.1-0.1,0.4,0.2c0,0,0.6,0.6,0.9,1.2c0,0,0.8,1.2,1.9,0.8c0,0-0.9-0.3-1.3-1c0,0-0.3-0.9-1.1-1.5
		c0,0,0-1-0.4-1.5c0,0-0.2-0.9-0.3-1.1c0,0-0.2-0.8-0.2-1c0,0,0.1-1.1-0.6-1.9c0,0-0.5-0.9-1.2-1.5c0,0-0.5-0.7-0.9-1.1
		c0,0-0.5-0.6-1.7-1.4c0,0-0.5-0.4-0.9-0.8c0,0-2-1.5-3.5-0.3c0,0-1,0.7-1.9,0.9c0,0-1.7,0.2-2.5,1.4c0,0-0.1,0.2-0.8,0.3
		c0,0-1.5-0.2-2.7,1.3c0,0-0.5,0.5-1.6,0.6c0,0-1.7-0.2-2.8,1.1c0,0-2.8,2.4-4.4,0.9c0,0-0.9-0.8,0.1-2.3c0,0,0.6-0.8,1.7-1.5
		c0,0,0.9-0.6,0.5-1.6c0,0-0.2-0.9-1.5-0.9c0,0-1.6-0.3-2.3-1.1c0,0-0.7,2.6,2.1,2.5c0,0,0.7,0.1,0.5,0.7c0,0-0.4,0.5-0.9,0.7
		c0,0-0.9,0.4-1.3,1.6c0,0-0.9,2.2,1.3,3.1C69.9,25,70.9,24.9,71.7,24.7L71.7,24.7L71.7,24.7z"/>
	<path class="st4" d="M109.1,20.4c0.1-0.2,0.1-0.3,0-0.5c-0.2-0.3-0.4,0-0.4,0c-0.7,1-0.2,2.4-0.2,2.4
		C108.6,21.1,109.1,20.4,109.1,20.4L109.1,20.4z M103.1,26.8c0-0.3,0-0.9,0.3-1.1c0.1-0.1,0.5-0.5,0.5-0.5C103.9,25,104,25,104,25
		c0.1,0,0.2,0.2,0.2,0.2c0.3,0.6,0.6,0.5,0.6,0.5c0-0.1-0.1-0.2-0.1-0.2c-0.1-0.2-0.4-0.8-0.4-0.8c0-0.1-0.1-0.2-0.1-0.2
		c-0.3-0.4-0.6-0.1-0.6-0.1c-0.1,0.2-0.8,1-0.8,1c-0.1,0.2-0.2,0.4-0.2,0.4C102.6,26.8,103.1,26.8,103.1,26.8L103.1,26.8L103.1,26.8
		z M104.8,29.6c0.1,0,0.2,0,0.1-0.2c-0.1-0.4-0.4-0.5-0.4-0.5c-0.6-0.3-0.6,0-0.6,0c-0.1,0.6,0.4,0.7,0.4,0.7
		C104.4,29.5,104.8,29.6,104.8,29.6L104.8,29.6L104.8,29.6z M129.5,31.3c0,0-0.1,0.1-0.1,0.3c0,0,0.3,0.9,0.3,1.2
		c0,0,0.7,0.1,0.8-0.2c0,0,0-0.1-0.1-0.3c0,0-0.1-0.2-0.1-0.5c0,0,0-0.8-0.5-0.6C129.7,31.1,129.6,31.2,129.5,31.3L129.5,31.3
		L129.5,31.3z M128.7,29.9c-0.1-0.1-0.3-0.2-0.4-0.1c-0.3,0.1-0.1,0.4-0.1,0.4c0.1,0.3,0.6,0.7,0.6,0.7c0.4,0.3,0.7-0.1,0.7-0.1
		c0.3-0.3-0.1-0.4-0.1-0.4C129.1,30.3,128.7,29.9,128.7,29.9L128.7,29.9L128.7,29.9z M124.6,24.7c0,0,0.1,1.2-0.4,2.3
		c0,0-0.4,0.6,0,1l0.9,0.5c0,0,0.1,0.1,0.5,0.1c0,0,0.5-0.1,0.7,0.1c0,0,0.2,0.4,0.3,0.8c0,0,0.4,0.9,1,1.2c0,0,0.5,0.1,0.7,0.6
		c0,0,0.2,0.3,0.5,0.3c0,0,0.2,0.1,0.4,0.6c0,0,0.1,0.4,0.1,0.6c0,0-0.4-0.1-0.7,0c0,0-0.7,0.2-1-0.3c0,0-0.6-1-1-0.8
		c0,0-0.9,0.3-1.5-0.3c0,0-0.8-0.9-2-0.7c0,0-1.3,0.3-1.8,0c0,0-0.8-0.4-1.2-0.5c0,0-0.4-0.1-0.4-0.5c0,0-0.2-0.6-0.4-0.8l0.6,0
		c0,0,0.6,1,1.6,1.3c0,0,0.5,0.2,1.6,0c0,0,1.5-0.3,2.9,1.1c0,0,0.2,0.3,0.4,0.2c0,0-0.7-1.3-2.4-1.6c0,0-0.5-0.1-1,0
		c0,0-2.2,0.1-3.2-2.1c0,0,0.1-1.9-0.4-2.3c0,0-0.2-0.1-0.2,0.3c0,0,0.3,1.9-0.3,2.3c0,0-0.4,0.3-1,0.2c0,0-1-0.2-1.9-0.1
		c0,0-1.3,0.3-2.4,0.2c0,0,0.3-0.4,0.2-1c0,0-0.2-0.4-0.3-0.1c0,0-0.4,1.4-1.6,1.8c0,0-1,0.4-1,1.7c0,0,0.2,0.2,1.5,0.7
		c0,0,0.5,0.2,0.7-0.2c0,0,0.7-1.4,1.2-1.4l1.1,0.1c0,0,0.4,0.1,0.1,0.4c0,0-0.4,0.5-0.5,0.8c0,0,0,0.3-0.4,0.2c0,0-0.5-0.2-0.8,0.7
		c0,0-0.2,0.5-0.7,0.6c0,0-0.4,0.1-0.8-0.1c0,0-1.8-0.7-2.1-0.9c0,0-0.4-0.2-0.7-0.1c0,0-0.5,0.1-0.8-0.3l-0.6-0.9
		c0,0-0.1-0.2-0.1-0.5c0,0-0.1-0.3,0.2-0.5c0,0,0.2-0.2,0.2-0.4l0.4-0.9c0,0,0.2-0.2,0.3-0.4l0.5,0c0,0-0.4,0.9-0.6,1.3
		c0,0-0.4,0.6-0.3,0.9c0,0,0,0.2,0.1,0.3c0,0,0.1,0.2,0.2,0.3c0,0,0.2,0.3,0.3,0.4c0,0,0.2,0.1,0.3,0.1c0,0,0.1,0,0-0.1
		c0,0-0.3-0.6-0.3-1c0,0-0.1-0.3,0.2-0.6c0,0,0.6-0.9,0.7-1.2c0,0,0.2-0.4,0.3-0.4c0,0,0.2-0.3-0.1-0.4c0,0-0.8-0.2-1-0.3
		c0,0-0.4-0.1-0.6-0.9c0,0-0.3-0.9-0.3-1.5c0,0-0.7,1.3,0.4,2.7c0,0-0.9,0.3-1.2,0c0,0-1.1-0.2-1.3-0.2c0,0-0.3-0.1-0.1,0.1
		c0,0,0.3,0.5,0.4,0.8c0,0,0,0.2,0.2,0.4c0,0,0.6,0.4,0.7,0.8c0,0,0.1,0.4-0.1,0.3c0,0-0.4-0.2-0.5,0c0,0,0,0,0.1,0.2
		c0,0,0.4,0.3,0.4,0.7c0,0-0.1,0.5-0.2,0.7c0,0-0.2,0.2-0.4,0.2c0,0-0.1-0.1-0.2,0c0,0-0.1,0-0.5-0.1c0,0-0.5-0.1-0.7-0.2
		c0,0-0.7-0.2-1-0.2c0,0-0.2,0-0.5,0c0,0-0.8,0.1-1.4-0.5c0,0-0.4-0.3-0.6,0c0,0-1,1.3-2.6,1c0,0,1.3-0.5,1.6-1.2c0,0,0-0.6,0.7-1.4
		c0,0,0.2-0.3,0-0.4c0,0-0.1-0.1-0.4,0.2c0,0-0.6,0.6-0.9,1.2c0,0-0.8,1.2-1.9,0.8c0,0,0.9-0.3,1.3-1c0,0,0.3-0.9,1.1-1.5
		c0,0,0-1,0.4-1.5c0,0,0.2-0.9,0.3-1.1c0,0,0.2-0.8,0.2-1c0,0-0.1-1.1,0.6-1.9c0,0,0.5-0.9,1.2-1.5c0,0,0.5-0.7,0.9-1.1
		c0,0,0.5-0.6,1.7-1.4c0,0,0.5-0.4,0.9-0.8c0,0,2-1.5,3.5-0.3c0,0,1,0.7,1.9,0.9c0,0,1.7,0.2,2.5,1.4c0,0,0.1,0.2,0.8,0.3
		c0,0,1.5-0.2,2.7,1.3c0,0,0.5,0.5,1.6,0.6c0,0,1.7-0.2,2.8,1.1c0,0,2.8,2.4,4.4,0.9c0,0,0.9-0.8-0.1-2.3c0,0-0.6-0.8-1.7-1.5
		c0,0-0.9-0.6-0.5-1.6c0,0,0.2-0.9,1.5-0.9c0,0,1.6-0.3,2.3-1.1c0,0,0.7,2.6-2.1,2.5c0,0-0.7,0.1-0.5,0.7c0,0,0.4,0.5,0.9,0.7
		c0,0,0.9,0.4,1.3,1.6c0,0,0.9,2.2-1.3,3.1C126.4,25,125.4,24.9,124.6,24.7L124.6,24.7L124.6,24.7z"/>
	<path class="st3" d="M73.8,51.6h4.3c0,0-0.2-2-2.1-2S73.8,51.6,73.8,51.6L73.8,51.6L73.8,51.6z M76,47.1c5.8,0,5.5,5.6,5.5,5.6v0.9
		h-7.8c0,1.3,1.1,2.4,2.5,2.4c1.5,0,2.2-1.4,2.2-1.4l2.8,1.4c-1.3,1.9-3,2.7-4.9,2.7c-6,0-6.1-5-6.1-5.6
		C70.2,52.4,70.3,47.1,76,47.1L76,47.1L76,47.1z M88.8,55.5L88.8,55.5c-0.2,0-2.4,0-2.4-2.7c0-2.7,2.4-2.8,2.4-2.8s2.7,0.1,2.7,2.8
		C91.6,55.4,89,55.5,88.8,55.5L88.8,55.5L88.8,55.5z M91.4,40.2v8.2c0,0-1.7-1.3-3.6-1.3c-1.9,0-5.1,1.3-5.1,5.5
		c0,4.2,2.7,5.8,5.1,5.8c2.3,0,3.6-1.5,3.6-1.5v1.4h3.4V40.2H91.4L91.4,40.2z M114.3,47.7h3.4v6.1c0,0,0.1,2,2,2c1.9,0,1.9-2,1.9-2
		v-6.1h3.5V54c0,0,0.4,4.9-5.3,4.9c-5.7,0-5.6-4.3-5.6-5.1C114.3,53,114.3,47.7,114.3,47.7L114.3,47.7L114.3,47.7z M127.1,40.2h3.4
		v18.1h-3.4V40.2L127.1,40.2z M132.9,40.2h3.4v18.1h-3.4V40.2L132.9,40.2z M107.4,55.3L107.4,55.3h-3.2V43.9h1.7
		c0,0,2.3-0.2,2.3,1.9c0,2-1.9,1.9-1.9,1.9h-1.1v3.1c0,0,1.5,0,2.1,0c0.5,0,2.3,0.3,2.3,2.3C109.6,55,107.4,55.3,107.4,55.3
		L107.4,55.3L107.4,55.3z M110.2,48.8c0,0,1.6-1.2,1.6-3.5c0-2.3-1.7-4.4-5.3-4.4c-3.6,0-6,0-6,0l0,17.4h7.4c0,0,5.3-0.1,5.3-4.9
		C113.2,50.7,112.2,49.6,110.2,48.8L110.2,48.8L110.2,48.8z M57.8,40.5v17.8h3.6V43.9H63c0,0,2.6-0.1,2.6,2.3c0,2.4-2.3,2.3-2.3,2.3
		h-0.9v4.1l3.6,5.7h4.2l-5-7.3c0,0,4.1-0.4,4.1-4.8c0-4.5-3.1-5.7-7.3-5.7C58,40.5,57.8,40.5,57.8,40.5L57.8,40.5L57.8,40.5z"/>
</g>
</svg>
