<?xml version="1.0" encoding="utf-8"?>
<!-- Generator: Adobe Illustrator 22.1.0, SVG Export Plug-In . SVG Version: 6.00 Build 0)  -->
<svg version="1.1" id="Layer_1" xmlns="http://www.w3.org/2000/svg" xmlns:xlink="http://www.w3.org/1999/xlink" x="0px" y="0px"
	 viewBox="0 0 200 70" style="enable-background:new 0 0 200 70;" xml:space="preserve">
<style type="text/css">
	.st0{fill:none;}
	.st1{fill:#ED1F24;}
	.st2{fill:#FFFFFF;}
	.st3{fill-rule:evenodd;clip-rule:evenodd;}
	.st4{fill-rule:evenodd;clip-rule:evenodd;fill:#FFFFFF;}
	.st5{fill:#0E0D0F;}
	.st6{fill:#0F0E10;}
	.st7{fill:#3660B0;}
	.st8{fill:#3567B4;}
	.st9{fill:#356BB7;}
	.st10{fill:#2B99D9;}
	.st11{fill:#375BAD;}
	.st12{fill:#70AA43;}
	.st13{fill:#394EA6;}
	.st14{fill:#3372BC;}
	.st15{fill:#3756AA;}
	.st16{fill:#2C93D4;}
	.st17{fill:#3853A8;}
	.st18{fill:#6BA443;}
	.st19{fill:#7AB444;}
	.st20{fill:#2E8DD0;}
	.st21{fill:#7EB845;}
	.st22{fill:#75AF44;}
	.st23{fill:#3278C1;}
	.st24{fill:#2F86CB;}
	.st25{fill:#4EB9A8;}
	.st26{fill:#82BD46;}
	.st27{fill:#3082C8;}
	.st28{fill:#317DC4;}
	.st29{fill:#54BDAC;}
	.st30{fill:#2CA1DF;}
	.st31{fill:#368E86;}
	.st32{fill:#2D7E7A;}
	.st33{fill:#31857F;}
	.st34{fill:#3A968D;}
	.st35{fill:#639D41;}
	.st36{fill:#57933F;}
	.st37{fill:#5D9840;}
	.st38{fill:#45AA9C;}
	.st39{fill:#4C8A3D;}
	.st40{fill:#3E9D92;}
	.st41{fill:#3C7C3A;}
	.st42{fill:#46853C;}
	.st43{fill:#518E3E;}
	.st44{fill:#41803B;}
	.st45{fill:#236737;}
	.st46{fill:#41A397;}
	.st47{fill:#4AB2A3;}
	.st48{fill:#36773A;}
	.st49{fill:#307238;}
	.st50{fill:#2A6C38;}
	.st51{fill:#29A4E1;}
	.st52{fill:#070707;}
	.st53{fill:#050505;}
	.st54{fill:#030303;}
	.st55{fill:#FEFEFE;}
	.st56{fill:#F9F9F9;}
	.st57{fill:#FBFBFB;}
	.st58{fill:#0D5B3C;}
	.st59{fill:#045033;}
	.st60{fill:#FCFCFC;}
	.st61{fill:#F3F5F3;}
	.st62{fill:#237851;}
	.st63{fill:#166D48;}
	.st64{fill:#29875B;}
	.st65{fill:#1C754E;}
	.st66{fill:#339866;}
	.st67{fill:#319263;}
</style>
<g>
	<path class="st2" d="M132.4,55.3c0-0.1,0-0.3,0-0.4c0-2.5,0-5,0-7.6c0-0.1,0-0.2,0-0.3c0-0.3,0.2-0.4,0.5-0.3
		c0.2,0.1,0.3,0.2,0.5,0.3c0.5,0.5,1.1,0.9,1.7,1.1c1.6,0.7,3.3,0.9,5,0.7c2.3-0.2,4.2-1.2,5.7-3c1.1-1.4,1.8-3,2.3-4.7
		c0.4-1.7,0.6-3.3,0.5-5c0-1.4-0.2-2.7-0.6-4.1c-0.5-1.7-1.3-3.3-2.6-4.6c-2.4-2.3-5.2-3.1-8.4-2.4c-1.4,0.3-2.6,0.9-3.5,2.1
		c-0.1,0.1-0.2,0.2-0.2,0.3c-0.2,0.1-0.3,0.3-0.5,0.2c-0.2-0.1-0.2-0.3-0.2-0.5c0-0.4,0-0.9,0-1.3c0-0.1,0-0.2,0-0.3
		c-2.5,0-4.9,0-7.4,0c-0.1,0.5,0,29.6,0,29.9C127.4,55.3,129.9,55.3,132.4,55.3z M67.2,15.8c0,0.2,0,0.3,0,0.5c0,6.8,0,13.7,0,20.5
		c0,0.3,0,0.5,0,0.8c-0.2,1.7-1,2.9-2.6,3.5c-0.9,0.4-1.9,0.4-2.9,0.3c-1.4-0.2-2.5-0.9-3.2-2.2c-0.4-0.7-0.6-1.5-0.6-2.3
		c0-1.1,0-2.3,0-3.4c0-0.1,0-0.2,0-0.3c-0.6-0.1-7.5,0-7.8,0c0,0.1,0,0.2,0,0.3c0,1.3,0,2.7,0,4c0,1.1,0.1,2.2,0.4,3.2
		c0.8,2.9,2.5,5,5.3,6.3c1.6,0.7,3.3,1,5,1.1c1.3,0.1,2.6,0.1,4-0.1c1.5-0.2,3-0.5,4.4-1.1c2-0.9,3.5-2.2,4.6-4.1
		c1-1.8,1.5-3.7,1.5-5.7c0-2.3,0-4.6,0-7c0-4.7,0-9.3,0-14c0-0.1,0-0.3,0-0.4C72.5,15.8,69.9,15.8,67.2,15.8z M108.2,38.2
		c5,0,10,0,15,0c0-0.2,0-0.3,0-0.4c0-1.1-0.1-2.2-0.2-3.3c-0.2-1.3-0.5-2.6-1-3.8c-1.2-2.9-3.3-4.8-6.4-5.6
		c-1.6-0.4-3.2-0.5-4.8-0.5c-1.4,0.1-2.7,0.4-3.9,1c-2,1-3.4,2.5-4.4,4.4c-1,1.9-1.5,3.9-1.7,6c-0.2,1.9,0.1,3.8,0.7,5.6
		c1.2,3.2,3.4,5.4,6.6,6.4c1.6,0.5,3.2,0.6,4.9,0.6c1.7-0.1,3.4-0.5,4.9-1.2c1.5-0.7,2.8-1.6,3.9-3c0.6-0.8,1.1-1.7,1.3-2.7
		c0-0.2,0.1-0.4,0-0.6c-0.1,0-0.2,0-0.2,0c-2.3,0-4.5,0-6.8,0c-0.2,0-0.3,0.1-0.4,0.2c-0.5,0.9-1.3,1.5-2.4,1.8
		c-0.8,0.2-1.6,0.1-2.4-0.1c-0.9-0.3-1.6-0.8-2-1.7c-0.2-0.4-0.3-0.8-0.4-1.2C108.2,39.5,108.2,38.9,108.2,38.2z M99.2,38.2
		c0-0.2,0-0.3,0-0.5c-0.1-1-0.1-2-0.2-2.9c-0.2-1.4-0.5-2.8-1-4.2c-1.1-2.8-3.1-4.6-6-5.5c-1.3-0.4-2.6-0.5-3.9-0.6
		c-1.1,0-2.2,0-3.2,0.3c-2.5,0.6-4.4,2-5.8,4c-1.8,2.7-2.5,5.6-2.4,8.8c0,1.4,0.3,2.7,0.8,4c1.1,2.8,3,4.9,5.8,6
		c1.3,0.5,2.6,0.8,4,0.8c1.6,0.1,3.1,0,4.6-0.5c2.1-0.6,3.9-1.6,5.4-3.1c0.8-0.8,1.4-1.7,1.6-2.8c0.1-0.3,0.2-0.7,0.1-1
		c-0.1,0-0.2,0-0.3,0c-2.3,0-4.5,0-6.8,0c-0.2,0-0.3,0.1-0.4,0.3c-0.5,0.9-1.3,1.5-2.3,1.7c-0.6,0.2-1.2,0.2-1.8,0.1
		c-1.5-0.2-2.5-0.9-3-2.3c-0.3-0.8-0.4-1.6-0.4-2.4c0-0.1,0-0.1,0-0.2C89.2,38.2,94.2,38.2,99.2,38.2z"/>
	<path d="M132.4,55.3c-2.5,0-5,0-7.5,0c-0.1-0.2-0.1-29.4,0-29.9c2.4,0,4.9,0,7.4,0c0,0.1,0,0.2,0,0.3c0,0.4,0,0.9,0,1.3
		c0,0.2,0,0.4,0.2,0.5c0.2,0.1,0.4-0.1,0.5-0.2c0.1-0.1,0.2-0.2,0.2-0.3c0.9-1.1,2.1-1.8,3.5-2.1c3.2-0.7,6,0.1,8.4,2.4
		c1.3,1.3,2.1,2.8,2.6,4.6c0.4,1.3,0.5,2.7,0.6,4.1c0,1.7-0.1,3.4-0.5,5c-0.4,1.7-1.1,3.3-2.3,4.7c-1.5,1.8-3.4,2.8-5.7,3
		c-1.7,0.2-3.4-0.1-5-0.7c-0.6-0.3-1.2-0.6-1.7-1.1c-0.1-0.1-0.3-0.2-0.5-0.3c-0.3-0.1-0.4,0-0.5,0.3c0,0.1,0,0.2,0,0.3
		c0,2.5,0,5,0,7.6C132.4,55.1,132.4,55.2,132.4,55.3z M132.2,37.4c0,0.6,0,1.1,0.1,1.7c0.1,0.8,0.2,1.6,0.5,2.3
		c0.4,0.8,0.9,1.5,1.8,1.9c0.9,0.4,1.9,0.5,2.8,0.3c1.2-0.2,2-0.8,2.6-1.8c0.4-0.7,0.6-1.6,0.8-2.4c0.2-1.4,0.3-2.9,0.1-4.3
		c-0.1-0.7-0.2-1.3-0.4-1.9c-0.5-1.2-1.4-2-2.7-2.4c-0.5-0.1-1-0.1-1.5-0.1c-0.9,0-1.6,0.3-2.2,0.9c-0.7,0.6-1.1,1.5-1.3,2.4
		C132.3,35.1,132.2,36.2,132.2,37.4z"/>
	<path d="M67.2,15.8c2.7,0,5.4,0,8,0c0,0.1,0,0.3,0,0.4c0,4.7,0,9.3,0,14c0,2.3,0,4.6,0,7c0,2-0.5,4-1.5,5.7
		c-1.1,1.9-2.6,3.2-4.6,4.1c-1.4,0.6-2.9,1-4.4,1.1c-1.3,0.1-2.6,0.2-4,0.1c-1.7-0.1-3.4-0.4-5-1.1c-2.8-1.2-4.5-3.3-5.3-6.3
		c-0.3-1.1-0.4-2.1-0.4-3.2c0-1.3,0-2.7,0-4c0-0.1,0-0.2,0-0.3c0.2-0.1,7.1-0.1,7.8,0c0,0.1,0,0.2,0,0.3c0,1.1,0,2.3,0,3.4
		c0,0.8,0.2,1.6,0.6,2.3c0.7,1.3,1.8,2,3.2,2.2c1,0.1,2,0,2.9-0.3c1.6-0.6,2.4-1.8,2.6-3.5c0-0.3,0-0.5,0-0.8c0-6.8,0-13.7,0-20.5
		C67.2,16.1,67.2,16,67.2,15.8z"/>
	<path d="M108.2,38.2c0,0.7,0,1.3,0.2,1.9c0.1,0.4,0.2,0.9,0.4,1.2c0.4,0.9,1.1,1.4,2,1.7c0.8,0.2,1.6,0.3,2.4,0.1
		c1-0.2,1.8-0.8,2.4-1.8c0.1-0.2,0.2-0.2,0.4-0.2c2.3,0,4.5,0,6.8,0c0.1,0,0.1,0,0.2,0c0,0.2,0,0.4,0,0.6c-0.2,1-0.6,1.9-1.3,2.7
		c-1,1.3-2.4,2.3-3.9,3c-1.6,0.7-3.2,1.1-4.9,1.2c-1.7,0.1-3.3,0-4.9-0.6c-3.3-1.1-5.4-3.2-6.6-6.4c-0.7-1.8-0.9-3.7-0.7-5.6
		c0.2-2.1,0.7-4.1,1.7-6c1-1.9,2.5-3.4,4.4-4.4c1.2-0.6,2.5-0.9,3.9-1c1.6-0.1,3.3,0.1,4.8,0.5c3.1,0.8,5.2,2.7,6.4,5.6
		c0.5,1.2,0.8,2.5,1,3.8c0.2,1.1,0.2,2.2,0.2,3.3c0,0.1,0,0.3,0,0.4C118.2,38.2,113.2,38.2,108.2,38.2z M116.1,33.7
		c0-0.5-0.1-0.9-0.2-1.4c-0.4-1.4-1.2-2.3-2.7-2.7c-0.6-0.2-1.3-0.2-1.9-0.1c-1.3,0.2-2.1,0.9-2.5,2.1c-0.1,0.4-0.2,0.9-0.3,1.4
		c0,0.2,0,0.5,0,0.7C111,33.7,113.5,33.7,116.1,33.7z"/>
	<path d="M99.2,38.2c-5,0-10,0-15,0c0,0.1,0,0.1,0,0.2c0,0.8,0.1,1.7,0.4,2.4c0.5,1.4,1.5,2.2,3,2.3c0.6,0.1,1.2,0.1,1.8-0.1
		c1-0.3,1.8-0.8,2.3-1.7c0.1-0.2,0.2-0.3,0.4-0.3c2.3,0,4.5,0,6.8,0c0.1,0,0.2,0,0.3,0c0,0.4,0,0.7-0.1,1c-0.3,1.1-0.9,2-1.6,2.8
		c-1.5,1.6-3.3,2.6-5.4,3.1c-1.5,0.4-3.1,0.5-4.6,0.5c-1.4-0.1-2.7-0.3-4-0.8c-2.8-1.2-4.8-3.2-5.8-6c-0.5-1.3-0.8-2.6-0.8-4
		c-0.1-3.2,0.6-6.1,2.4-8.8c1.4-2.1,3.3-3.5,5.8-4c1.1-0.2,2.1-0.3,3.2-0.3c1.3,0,2.6,0.2,3.9,0.6c2.9,0.9,4.9,2.7,6,5.5
		c0.5,1.3,0.9,2.7,1,4.2c0.1,1,0.1,2,0.2,2.9C99.2,37.9,99.2,38,99.2,38.2z M92.1,33.7c0-0.5-0.1-1-0.2-1.4
		c-0.4-1.3-1.1-2.2-2.4-2.6c-0.7-0.2-1.4-0.2-2.1-0.1c-0.7,0.1-1.3,0.4-1.8,0.9c-0.5,0.5-0.7,1.2-0.9,1.8c-0.1,0.5-0.2,0.9-0.1,1.4
		C87,33.7,89.5,33.7,92.1,33.7z"/>
	<path class="st2" d="M132.2,37.4c0-1.2,0.1-2.3,0.4-3.5c0.2-0.9,0.6-1.7,1.3-2.4c0.6-0.6,1.4-0.9,2.2-0.9c0.5,0,1,0,1.5,0.1
		c1.3,0.3,2.2,1.1,2.7,2.4c0.2,0.6,0.4,1.3,0.4,1.9c0.1,1.4,0.1,2.9-0.1,4.3c-0.1,0.8-0.4,1.6-0.8,2.4c-0.6,1-1.4,1.7-2.6,1.8
		c-1,0.1-1.9,0-2.8-0.3c-0.9-0.4-1.4-1-1.8-1.9c-0.3-0.7-0.4-1.5-0.5-2.3C132.2,38.5,132.2,38,132.2,37.4z"/>
	<path class="st2" d="M116.1,33.7c-2.5,0-5.1,0-7.6,0c0-0.2,0-0.5,0-0.7c0.1-0.5,0.1-0.9,0.3-1.4c0.4-1.2,1.3-1.9,2.5-2.1
		c0.6-0.1,1.3-0.1,1.9,0.1c1.4,0.4,2.3,1.3,2.7,2.7C116,32.7,116.1,33.2,116.1,33.7z"/>
	<path class="st2" d="M92.1,33.7c-2.6,0-5.1,0-7.6,0c-0.1-0.5,0-0.9,0.1-1.4c0.1-0.7,0.4-1.3,0.9-1.8c0.5-0.5,1.1-0.8,1.8-0.9
		c0.7-0.1,1.4-0.1,2.1,0.1c1.3,0.4,2.1,1.3,2.4,2.6C92,32.7,92.1,33.2,92.1,33.7z"/>
</g>
</svg>
