<?xml version="1.0" encoding="utf-8"?>
<!-- Generator: Adobe Illustrator 22.1.0, SVG Export Plug-In . SVG Version: 6.00 Build 0)  -->
<svg version="1.1" id="Layer_1" xmlns="http://www.w3.org/2000/svg" xmlns:xlink="http://www.w3.org/1999/xlink" x="0px" y="0px"
	 viewBox="0 0 200 70" style="enable-background:new 0 0 200 70;" xml:space="preserve">
<style type="text/css">
	.st0{fill:none;}
	.st1{fill:#ED1F24;}
	.st2{fill:#FFFFFF;}
	.st3{fill-rule:evenodd;clip-rule:evenodd;}
	.st4{fill-rule:evenodd;clip-rule:evenodd;fill:#FFFFFF;}
	.st5{fill:#0E0D0F;}
	.st6{fill:#0F0E10;}
	.st7{fill:#3660B0;}
	.st8{fill:#3567B4;}
	.st9{fill:#356BB7;}
	.st10{fill:#2B99D9;}
	.st11{fill:#375BAD;}
	.st12{fill:#70AA43;}
	.st13{fill:#394EA6;}
	.st14{fill:#3372BC;}
	.st15{fill:#3756AA;}
	.st16{fill:#2C93D4;}
	.st17{fill:#3853A8;}
	.st18{fill:#6BA443;}
	.st19{fill:#7AB444;}
	.st20{fill:#2E8DD0;}
	.st21{fill:#7EB845;}
	.st22{fill:#75AF44;}
	.st23{fill:#3278C1;}
	.st24{fill:#2F86CB;}
	.st25{fill:#4EB9A8;}
	.st26{fill:#82BD46;}
	.st27{fill:#3082C8;}
	.st28{fill:#317DC4;}
	.st29{fill:#54BDAC;}
	.st30{fill:#2CA1DF;}
	.st31{fill:#368E86;}
	.st32{fill:#2D7E7A;}
	.st33{fill:#31857F;}
	.st34{fill:#3A968D;}
	.st35{fill:#639D41;}
	.st36{fill:#57933F;}
	.st37{fill:#5D9840;}
	.st38{fill:#45AA9C;}
	.st39{fill:#4C8A3D;}
	.st40{fill:#3E9D92;}
	.st41{fill:#3C7C3A;}
	.st42{fill:#46853C;}
	.st43{fill:#518E3E;}
	.st44{fill:#41803B;}
	.st45{fill:#236737;}
	.st46{fill:#41A397;}
	.st47{fill:#4AB2A3;}
	.st48{fill:#36773A;}
	.st49{fill:#307238;}
	.st50{fill:#2A6C38;}
	.st51{fill:#29A4E1;}
	.st52{fill:#070707;}
	.st53{fill:#050505;}
	.st54{fill:#030303;}
	.st55{fill:#FEFEFE;}
	.st56{fill:#F9F9F9;}
	.st57{fill:#FBFBFB;}
	.st58{fill:#0D5B3C;}
	.st59{fill:#045033;}
	.st60{fill:#FCFCFC;}
	.st61{fill:#F3F5F3;}
	.st62{fill:#237851;}
	.st63{fill:#166D48;}
	.st64{fill:#29875B;}
	.st65{fill:#1C754E;}
	.st66{fill:#339866;}
	.st67{fill:#319263;}
</style>
<g>
	<path class="st0" d="M109.8,24.6c-0.3-0.7-0.5-1.3-0.8-2l0,0C109.3,23.3,109.5,23.9,109.8,24.6z"/>
	<path class="st0" d="M105.2,18.8C105.2,18.9,105.2,18.9,105.2,18.8C105.2,18.9,105.2,18.9,105.2,18.8z"/>
	<path class="st0" d="M100.4,23.3c0-0.1,0-0.1,0-0.2l0,0c0,0,0,0,0,0C100.4,23.1,100.4,23.2,100.4,23.3z"/>
	<path class="st0" d="M90.5,24.7c0,0.1,0,0.1,0,0.2C90.5,24.8,90.5,24.8,90.5,24.7z"/>
	<path class="st0" d="M105.1,19c0,0-0.1,0.1-0.1,0.1C105.1,19.1,105.1,19,105.1,19z"/>
	<path class="st0" d="M100.3,24.3c0,0.1,0,0.1,0,0.2C100.3,24.4,100.3,24.4,100.3,24.3c0-0.1,0-0.1,0-0.2
		C100.2,24.1,100.2,24.2,100.3,24.3z"/>
	<path class="st0" d="M111.5,18.8c-2.1,0-4.2,0-6.3,0v0C107.3,18.8,109.4,18.8,111.5,18.8z"/>
	<path class="st0" d="M119.6,24.6c0.1,0.1,0.2,0.1,0.4,0c0,0,0,0,0,0C119.8,24.7,119.6,24.7,119.6,24.6z"/>
	<path class="st0" d="M111.5,18.8C111.5,18.8,111.5,18.8,111.5,18.8C111.5,18.8,111.5,18.8,111.5,18.8c0.7,0,1.4,0,2,0
		C112.9,18.8,112.2,18.8,111.5,18.8z"/>
	<path class="st0" d="M115,25.3c-0.2,0.2-0.2,0.3-0.1,0.5c-0.2,0-0.3,0-0.5,0c0.2,0,0.3,0,0.5,0c3.3,0,6.6,0,9.9,0
		c-3.3,0-6.6,0-9.9,0C114.8,25.6,114.8,25.4,115,25.3z"/>
	<path class="st0" d="M113.6,18.8c1.7,0,3.4,0,5.1,0C117,18.8,115.3,18.8,113.6,18.8L113.6,18.8z"/>
	<path class="st0" d="M85.3,25.7C85.3,25.7,85.3,25.7,85.3,25.7c-0.8,0-1.5,0-2.3,0C83.8,25.7,84.6,25.7,85.3,25.7z"/>
	<path class="st0" d="M111.5,18.7c2.7,0,5.5,0,8.2,0C117,18.7,114.2,18.7,111.5,18.7c-0.1,0-0.2,0-0.3,0
		C111.3,18.7,111.4,18.7,111.5,18.7C111.5,18.7,111.5,18.7,111.5,18.7z"/>
	<path class="st0" d="M113.4,19c0,0.1-0.1,0.1-0.2,0.2C113.3,19.2,113.4,19.1,113.4,19z"/>
	<path class="st0" d="M96.7,24.7c0.1,0,0.1,0,0.2-0.1v0C96.9,24.7,96.8,24.7,96.7,24.7z"/>
	<path class="st0" d="M96.9,24.6C97,24.5,97,24.5,96.9,24.6c0-0.1,0.1-0.1,0.1-0.1C97,24.5,97,24.5,96.9,24.6
		C97,24.5,97,24.5,96.9,24.6z"/>
	<path class="st0" d="M96.9,20C96.9,20,96.9,20,96.9,20L96.9,20C96.9,20,96.9,20,96.9,20z"/>
	<path class="st0" d="M88.6,18.8c-0.2,0-0.4,0-0.6,0c0,0,0,0,0-0.1l0,0c0,0,0,0,0,0.1C88.2,18.8,88.4,18.8,88.6,18.8L88.6,18.8z"/>
	<path class="st0" d="M76.9,25.7c-0.6,0-1.2,0-1.8,0C75.7,25.7,76.3,25.7,76.9,25.7c0-0.1,0-0.2,0.1-0.3
		C77,25.5,76.9,25.6,76.9,25.7z"/>
	<path class="st0" d="M81.2,20c-0.2,0.1-0.4,0.3-0.5,0.5C80.8,20.3,81,20.1,81.2,20z"/>
	<path class="st0" d="M97,24.1c0-0.8,0-1.6,0-2.4c0.1,0,0.1,0,0.2-0.1c0,0-0.1,0-0.2,0.1C97,22.5,97,23.3,97,24.1z"/>
	<path class="st0" d="M97,20.7c0,0.1,0,0.1,0,0.2C97,20.8,97,20.7,97,20.7z"/>
	<path class="st0" d="M90.9,20.7C90.9,20.7,90.9,20.7,90.9,20.7C90.9,20.7,90.9,20.7,90.9,20.7z"/>
	<path class="st0" d="M93.8,25.7C93.8,25.7,93.8,25.7,93.8,25.7c-1.3,0.1-2.7,0.1-4,0.1C91.1,25.7,92.4,25.7,93.8,25.7
		c0.7,0.1,1.4,0.1,2.1,0.1C95.2,25.7,94.5,25.7,93.8,25.7C93.8,25.7,93.8,25.7,93.8,25.7z"/>
	<path class="st0" d="M90.5,24.7C90.5,24.7,90.5,24.7,90.5,24.7L90.5,24.7C90.5,24.7,90.5,24.7,90.5,24.7z"/>
	<path class="st0" d="M93.4,24.6C93.4,24.6,93.4,24.6,93.4,24.6c0,0-0.1,0-0.1,0C93.3,24.6,93.3,24.6,93.4,24.6z"/>
	<polygon class="st0" points="96.5,19.9 96.5,19.9 96.5,19.9 	"/>
	<path class="st0" d="M96.5,19.8C96.5,19.8,96.5,19.8,96.5,19.8C96.5,19.8,96.5,19.8,96.5,19.8z"/>
	<path class="st0" d="M80.1,22.4c0.2-0.1,0.3-0.3,0.4-0.5C80.4,22.1,80.3,22.3,80.1,22.4z"/>
	<path class="st52" d="M161.4,13.9c-0.1,0-0.2,0-0.3,0c-17,0-33.9,0-50.9,0c-2.3,0-4,1.2-4.6,3.5c-0.1,0.3-0.2,0.4-0.6,0.4
		c-0.2,0-0.5,0-0.7,0c-3.1,0-6.1,0-9.2,0c-0.3,0-0.6,0-0.7-0.4c-0.7-2.3-2.2-3.5-4.6-3.5c-16.8,0-33.6,0-50.4,0c-1,0-1.8,0.1-2.3,1
		c0,0.4,0,0.7,0,1.1c0.4,0.6,0.7,1.2,1.1,1.8c0.4,0.7,0.9,1.1,1.7,1.2c0.4,0,0.7,0.3,0.9,0.6c0.3,0.5,0.6,0.9,0.8,1.4
		c0.5,1,1.3,1.5,2.3,1.7c0.4,0.1,0.7,0.3,0.9,0.6c0.3,0.5,0.7,1.1,0.9,1.6c0.4,0.9,1.1,1.3,2,1.6c7,2,14,4.1,21,6.1
		c0.6,0.2,1,0.5,1.2,1.1c0.5,1.5,1.6,2.3,3,2.9c1.6,0.6,3.3,1,4.9,1.5c4.7,1.3,9.4,2.6,14.1,3.8c1.5,0.4,2.8,0.2,3.9-0.9
		c1.2-1.2,2.5-2.4,3.8-3.6c0.4-0.4,0.6-0.4,1.1,0c1.2,1.2,2.5,2.3,3.7,3.5c1.2,1.2,2.5,1.5,4.1,1c4-1.1,8-2.2,12.1-3.3
		c2.2-0.6,4.4-1.1,6.5-1.9c1.5-0.6,2.8-1.4,3.3-3.1c0.2-0.6,0.6-0.9,1.2-1c4.4-1.3,8.9-2.6,13.3-3.9c2.5-0.7,5.1-1.5,7.6-2.2
		c0.9-0.3,1.6-0.7,2-1.6c0.2-0.5,0.5-0.9,0.7-1.3c0.3-0.6,0.7-0.9,1.3-1c0.9-0.1,1.5-0.6,1.9-1.4c0.3-0.5,0.6-1,0.8-1.5
		c0.3-0.5,0.7-0.8,1.3-0.9c0.4,0,0.9-0.2,1.1-0.6c0.5-0.7,1-1.4,1.3-2.2C163.3,15,162.6,13.9,161.4,13.9z M106.5,17.5
		c0.5-1.7,1.7-2.7,3.7-2.7c7.8,0,15.5,0,23.3,0c0,0,0.1,0,0.2,0c-1,0.7-1.4,1.8-2,2.8c-0.2,0.3-0.3,0.4-0.6,0.4c-8,0-16.1,0-24.1,0
		C106.4,18,106.4,17.8,106.5,17.5z M126.4,23.5c-0.3-0.1-0.5-0.2-0.5-0.6c0-0.7,0-0.7,0.7-0.6c0.5,0.1,1,0.1,1.6,0.2
		c-0.2,0.2-0.3,0.3-0.4,0.5C127.5,23.6,127.1,23.7,126.4,23.5z M126.7,24.3c-0.2,0.3-0.5,0.5-0.7,0.8c0-0.3-0.1-0.7,0-0.8
		C126.1,24,126.4,24.2,126.7,24.3z M126.4,21.5c-0.4,0-0.5-0.2-0.5-0.6c0-0.4,0.1-0.6,0.5-0.5c0.5,0.1,1,0.1,1.5,0.1
		c0.5,0,1,0.1,1.6,0.1c-0.3,0.4-0.5,0.7-0.7,1c-0.1,0.1-0.2,0.2-0.4,0.1C127.8,21.7,127.1,21.6,126.4,21.5z M126.2,19.7
		c-0.5,0-0.3-0.4-0.3-0.6c0-0.2-0.1-0.4,0.3-0.4c1.5,0,3.1,0,4.7,0c-0.3,0.4-0.5,0.8-0.7,1.1c-0.1,0.1-0.2,0.1-0.4,0.1
		C128.6,19.9,127.4,19.8,126.2,19.7z M66.8,14.8c7.6,0,15.2,0,22.8,0c0.7,0,1.5,0.1,2.2,0.5c1,0.5,1.5,1.4,1.8,2.5
		c0,0.1,0,0.2-0.1,0.2c-0.1,0-0.2,0-0.3,0c-8,0-16.1,0-24.1,0c-0.4,0-0.5-0.1-0.7-0.4c-0.5-1-1-2-1.9-2.8
		C66.5,14.8,66.6,14.8,66.8,14.8z M74,23.1c0,0.1,0,0.3-0.2,0.3c0,0-0.1,0-0.1,0c-1.1,0.3-1.3,0.2-1.9-0.9c0.7-0.1,1.3-0.2,2-0.3
		c0,0,0.1,0,0.1,0C74.1,22.5,74,22.8,74,23.1z M74,25c-0.2-0.2-0.4-0.4-0.7-0.7C74.1,24,74.1,24.1,74,25z M73.3,21.6
		c-0.6,0.1-1.2,0.1-1.8,0.2c-0.2,0-0.3,0-0.5-0.2c-0.2-0.3-0.4-0.6-0.7-0.9c1.2-0.1,2.3-0.2,3.4-0.2c0.1,0,0.2,0,0.2,0.2
		C74.1,21.4,74,21.5,73.3,21.6z M70.2,19.9c-0.3,0-0.4,0-0.5-0.2c-0.2-0.3-0.4-0.6-0.6-1c1.6,0,3.1,0,4.7,0c0.2,0,0.3,0.1,0.3,0.3
		c0,0.7,0,0.7-0.6,0.7C72.3,19.8,71.3,19.8,70.2,19.9z M40.3,18c-0.7,0-1.2-0.2-1.5-0.9c-0.2-0.4-0.5-0.8-0.7-1.2
		c-0.3-0.6-0.1-1,0.6-1.1c0.2,0,0.3,0,0.5,0c8.2,0,16.4,0,24.6,0c1.1,0,2,0.4,2.7,1.1c0.5,0.6,0.8,1.3,1.3,2c-0.3,0-0.4,0-0.6,0
		C58.2,18,49.2,18,40.3,18z M44.1,21.6c-0.7,0-1.2-0.3-1.6-0.9c-0.3-0.7-0.7-1.3-1.1-2c8.9,0,17.7,0,26.5,0c0.2,0,0.4,0.1,0.5,0.3
		c0.2,0.3,0.4,0.6,0.6,1c-0.7,0.2-1.4,0.1-2.1,0.2c-4.1,0.3-8.3,0.6-12.4,0.8c-3,0.2-6,0.4-8.9,0.6C45.1,21.6,44.6,21.6,44.1,21.6z
		 M46.4,24.3c-0.3-0.6-0.6-1.1-0.9-1.6c-0.2-0.3-0.1-0.3,0.2-0.4c1.5-0.1,3-0.2,4.5-0.3c3.6-0.2,7.2-0.5,10.8-0.7
		c2.8-0.2,5.6-0.4,8.3-0.6c0.2,0,0.3,0,0.4,0.2c0.2,0.3,0.4,0.6,0.7,1c-1.7,0.2-3.3,0.4-4.8,0.7c-3.1,0.4-6.2,0.8-9.4,1.3
		c-2.8,0.4-5.6,0.8-8.5,1.1C47.1,25.1,46.7,24.9,46.4,24.3z M52.3,26.9c-1.3-0.4-2.6-0.8-3.9-1.2c0,0,0-0.1,0-0.1
		c0.9-0.1,1.8-0.2,2.6-0.4c3.3-0.4,6.7-0.9,10-1.3c3.2-0.4,6.3-0.8,9.5-1.3c0.3,0,0.5,0,0.7,0.3c0.2,0.3,0.4,0.5,0.7,0.8
		c-0.6,0.2-1.1,0.3-1.7,0.4c-4.6,1-9.3,1.9-13.9,2.9C55,27.3,53.6,27.3,52.3,26.9z M60.4,29.2c-1.3-0.4-2.6-0.8-4-1.2
		C56.2,28,56,28,55.9,27.8c5.4-1.1,10.9-2.2,16.3-3.3c0.2,0,0.3-0.1,0.5,0.1c0.4,0.5,0.9,0.9,1.3,1.4c-1.4,0.4-2.7,0.8-4.1,1.3
		c-2.1,0.6-4.2,1.3-6.3,1.9C62.5,29.5,61.4,29.6,60.4,29.2z M68.5,31.6c-1.7-0.5-3.5-1-5.3-1.6c1.6-0.5,3.1-1,4.6-1.4
		c2.1-0.7,4.2-1.3,6.3-2c0.3-0.1,0.5,0,0.7,0.2c0.6,0.6,1.2,1.1,1.9,1.7c0.2,0.2,0.2,0.2,0,0.4c-1.8,0.9-3.7,1.7-5.5,2.6
		C70.3,31.8,69.4,31.9,68.5,31.6z M92.8,29.9c-0.9,1.5-1.8,3-2.6,4.5c-0.2,0.3-0.3,0.4-0.7,0.3c-1.1-0.3-2.2-0.7-3.4-1.2
		c0.5-0.6,1-1.1,1.5-1.6c1.6-1.7,3.2-3.3,4.8-5c0.2-0.2,0.3-0.2,0.6-0.2c0.6,0,1.1,0,1.8,0C94,27.7,93.4,28.8,92.8,29.9z M94.8,27.8
		C94.9,27.7,94.9,27.7,94.8,27.8c0.8-1.3,0.8-1.3,2.2-1.2c0.2,0,0.3,0,0.2,0.3c-0.8,2.8-1.6,5.7-2.4,8.6c-0.1,0.3-0.2,0.3-0.5,0.3
		c-1.3-0.2-2.5-0.4-3.8-0.8C92,32.5,93.4,30.1,94.8,27.8z M89.3,28.9c-1.3,1.3-2.5,2.6-3.8,3.9c-0.1,0.1-0.2,0.2-0.4,0.1
		c-1-0.5-1.9-0.9-2.8-1.5c0-0.2,0.2-0.2,0.3-0.3c2.1-1.5,4.2-3,6.2-4.5c0.2-0.2,0.4-0.2,0.7-0.2c0.6,0,1.3,0,2.1,0
		C90.8,27.4,90.1,28.2,89.3,28.9z M87.5,26.8c-1.9,1.4-3.8,2.7-5.7,4c-0.2,0.2-0.4,0.2-0.6,0c-1-0.6-2-1.3-2.9-2
		c0.6-0.3,1.1-0.5,1.6-0.8c0.2-0.1,0.4-0.2,0.6-0.3c1.8-1.1,3.8-1.5,5.9-1.3c0.4,0,0.9,0,1.4,0C87.7,26.7,87.6,26.8,87.5,26.8z
		 M80.6,27c-0.9,0.4-1.8,0.8-2.6,1.2c-0.1,0.1-0.3,0.2-0.5,0c-0.6-0.5-1.3-1.1-2-1.7c2.1,0,4,0,5.9,0c0,0,0,0,0,0.1
		C81.1,26.8,80.9,26.9,80.6,27z M73.1,35.7c-1.1-0.5-2-1.2-2.4-2.4c-0.1-0.3-0.5-0.5-0.4-0.8c0.1-0.2,0.5-0.2,0.8-0.3
		c2-0.9,3.9-1.8,5.9-2.8c0.4-0.2,0.6-0.2,0.9,0.1c0.9,0.7,1.9,1.4,2.9,2c-1.4,1-2.8,2-4.2,3c-0.4,0.3-0.9,0.6-1.3,0.9
		C74.6,36,73.9,36,73.1,35.7z M79.4,37.5c-1.3-0.4-2.7-0.7-4-1.1c1.2-0.8,2.3-1.7,3.5-2.5c0.8-0.6,1.7-1.2,2.5-1.8
		c0.1-0.1,0.2-0.2,0.4-0.1c1,0.6,2,1.1,3,1.6c-1.1,1.1-2.1,2.2-3.2,3.3C81,37.6,80.3,37.8,79.4,37.5z M85.9,39.3
		c-1.5-0.5-2.9-0.8-4.5-1.2c1.4-1.2,2.6-2.6,3.8-3.9c0.2-0.2,0.3-0.2,0.5-0.1c1.1,0.5,2.2,0.9,3.4,1.2c0.3,0.1,0.3,0.2,0.1,0.4
		c-0.5,0.9-1.1,1.8-1.6,2.7c-0.1,0.2-0.2,0.3-0.3,0.5C87,39.3,86.6,39.5,85.9,39.3z M91.6,40.8c-1.3-0.4-2.7-0.7-4.1-1.1
		c1.1-1.2,1.7-2.6,2.5-3.9c0.1-0.2,0.2-0.3,0.4-0.2c1.3,0.4,2.7,0.6,4.1,0.8c-0.3,1.1-0.6,2.2-0.9,3.3
		C93.3,40.8,92.7,41.1,91.6,40.8z M94,40.9c0.6-1.3,0.8-2.8,1.3-4.1c0.1-0.2,0.1-0.3,0.3-0.3c1,0.1,2,0.2,3.1,0.3
		C97,38.2,95.7,39.8,94,40.9z M99.6,31.3c0,1.4,0,2.8,0,4.3c0,0.3-0.1,0.5-0.4,0.5c-1.1,0-2.3-0.1-3.4-0.2c-0.3,0-0.3-0.1-0.2-0.3
		c0.8-2.9,1.6-5.8,2.4-8.7c0-0.1,0-0.2,0.1-0.2c0.5,0,0.9,0,1.4,0c0.2,0,0.1,0.2,0.1,0.4C99.6,28.4,99.6,29.9,99.6,31.3z M85.8,25.8
		c-0.2,0-0.3,0-0.5,0c-3.4,0-6.8,0-10.2,0c-0.3,0-0.4-0.1-0.4-0.4c0-2.1,0-4.2,0-6.4c0-0.3,0.1-0.4,0.4-0.4c2.1,0,4.3,0,6.4,0
		c2.1,0,4.3,0,6.4,0c0.1,0,0.2,0,0.4,0c7.6,0,15.2,0,22.8,0c0.1,0,0.2,0,0.3,0c2.7,0,5.5,0,8.2,0c1.7,0,3.4,0,5.1,0
		c0.3,0,0.5,0.1,0.5,0.4c0,2.1,0,4.2,0,6.3c0,0.3-0.1,0.4-0.4,0.4c-3.3,0-6.6,0-9.9,0c-0.2,0-0.3,0-0.5,0
		C104.9,25.8,95.3,25.8,85.8,25.8z M105.7,27.4c-0.1-0.2-0.3-0.5-0.5-0.8c0.7,0,1.3,0,2,0c0.2,0,0.2,0.1,0.3,0.2
		c2.1,2.2,4.2,4.4,6.3,6.5c0,0,0,0.1,0,0.1c-1.2,0.5-2.4,0.9-3.6,1.3c-0.3,0.1-0.3-0.2-0.4-0.3C108.5,32,107.1,29.7,105.7,27.4z
		 M109.4,34.9c-1.3,0.3-2.6,0.6-3.9,0.8c-0.2,0-0.3-0.1-0.4-0.3c-0.8-2.9-1.6-5.7-2.4-8.6c-0.1-0.3,0-0.3,0.2-0.3c0,0,0,0,0,0
		c1-0.2,1.6,0.2,2.1,1.1c1.2,2.3,2.6,4.5,4,6.8C109.2,34.6,109.3,34.8,109.4,34.9z M108.5,26.6C108.5,26.6,108.5,26.6,108.5,26.6
		c0.8-0.1,1.5-0.1,2.3-0.1c0.1,0,0.2,0.1,0.3,0.1c2.2,1.6,4.4,3.2,6.6,4.7c0,0,0,0,0.1,0.1c-1,0.6-1.9,1-2.9,1.5
		c-0.1,0.1-0.2,0-0.3-0.1C112.5,30.8,110.5,28.7,108.5,26.6z M112.2,26.6c0.1-0.2,0.2-0.1,0.3-0.1c1.3,0,2.5,0,3.8,0
		c0.1,0,0.3,0,0.4,0c1.6,0.7,3.2,1.5,4.9,2.3c-1,0.8-2,1.5-3,2.1c-0.2,0.1-0.3,0.1-0.4,0C116.2,29.5,114.2,28.1,112.2,26.6z
		 M118.6,26.6C118.6,26.6,118.6,26.6,118.6,26.6c1.9-0.1,3.8-0.1,5.8-0.1c-0.7,0.6-1.3,1.2-2,1.7c-0.1,0.1-0.2,0.1-0.3,0
		C121,27.8,119.8,27.2,118.6,26.6z M100.4,35c0-2.7,0-5.4,0-8c0-0.4,0.1-0.5,0.5-0.5c1.1,0,1.1,0,1.4,1c0.7,2.6,1.4,5.2,2.2,7.8
		c0.1,0.3,0,0.4-0.3,0.5c-0.9,0-1.8,0.1-2.2,0.2C100.4,36.1,100.4,36.1,100.4,35z M105.2,40.4c-1.3-1.2-2.5-2.4-3.8-3.6
		c1.1-0.1,2.1-0.2,3.1-0.3c0.2,0,0.2,0.1,0.3,0.3c0.2,0.7,0.4,1.4,0.6,2.1c0.2,0.7,0.3,1.4,0.8,2C105.7,40.9,105.4,40.7,105.2,40.4z
		 M107.9,40.9c-0.5,0.1-0.8-0.1-1.2-0.4c-0.2-0.3-0.4-0.6-0.5-0.9c-0.3-1-0.6-2-0.9-3.1c1.4-0.2,2.7-0.4,4-0.8
		c0.3-0.1,0.4,0,0.5,0.2c0.4,0.7,0.8,1.3,1.2,2c0.4,0.6,0.7,1.3,1.4,1.9C110.9,40.2,109.4,40.6,107.9,40.9z M113.7,39.4
		c-0.3,0.1-0.5,0-0.7-0.2c-0.3-0.2-0.5-0.5-0.7-0.8c-0.6-0.9-1.1-1.9-1.7-2.8c-0.1-0.2-0.1-0.3,0.1-0.4c1.2-0.3,2.3-0.7,3.4-1.2
		c0.3-0.1,0.4,0,0.5,0.1c0.9,0.9,1.8,1.9,2.7,2.8c0.4,0.4,0.7,0.7,1.2,1.1C116.9,38.5,115.3,39,113.7,39.4z M120.5,37.5
		c-0.8,0.2-1.5,0.1-2-0.4c-1.1-1.1-2.2-2.3-3.4-3.4c1.1-0.5,2.1-1,3.1-1.6c0.2-0.1,0.3,0,0.5,0.1c1.7,1.2,3.4,2.4,5.1,3.6
		c0.3,0.2,0.6,0.4,0.9,0.6C123.3,36.8,121.9,37.1,120.5,37.5z M129.6,32.7c-0.1,0.2-0.3,0.4-0.4,0.7c-0.5,1.4-1.6,2-2.9,2.5
		c-0.6,0.2-1.2,0-1.7-0.4c-1.8-1.3-3.7-2.6-5.5-3.9c1.1-0.7,2.1-1.4,3.1-2.2c0.2-0.2,0.4-0.1,0.5,0c1.8,0.8,3.6,1.7,5.4,2.6
		c0.4,0.2,0.8,0.4,1.3,0.5C129.7,32.5,129.7,32.5,129.6,32.7z M131,31.7c-0.7,0.2-1.4,0-2-0.3c-1.9-0.9-3.7-1.7-5.6-2.6
		c-0.2-0.1-0.3-0.2-0.1-0.3c0.7-0.6,1.4-1.2,2-1.8c0.1-0.1,0.2-0.2,0.4-0.1c3.6,1.1,7.3,2.3,11.1,3.4
		C134.8,30.6,132.9,31.2,131,31.7z M143.8,28c-1.5,0.4-2.9,0.8-4.4,1.3c-0.8,0.3-1.6,0.3-2.4,0c-3.6-1.1-7.2-2.2-10.9-3.3
		c0.5-0.5,0.9-1,1.3-1.4c0.1-0.2,0.3-0.1,0.4-0.1c4.2,0.9,8.4,1.7,12.6,2.6c1.2,0.3,2.5,0.5,3.7,0.8C144,28,143.9,28,143.8,28z
		 M148,26.8c-1.6,0.6-3.1,0.5-4.7,0.2c-4.9-1-9.9-2-14.8-3.1c-0.1,0-0.2-0.1-0.3-0.1c0.3-0.4,0.6-0.7,0.8-1c0.1-0.2,0.3-0.1,0.4-0.1
		c2.5,0.3,5,0.7,7.4,1c3.1,0.4,6.3,0.8,9.4,1.3c1.7,0.2,3.4,0.4,5.1,0.7c0.1,0,0.2,0.1,0.4,0.1C150.4,26.1,149.1,26.4,148,26.8z
		 M153.3,24.7c-0.2,0.3-0.7,0.3-1,0.2c-1-0.1-2-0.3-3-0.4c-2.9-0.4-5.8-0.8-8.6-1.2c-2.9-0.4-5.8-0.8-8.7-1.2
		c-0.8-0.1-1.5-0.2-2.3-0.3c0.3-0.4,0.5-0.7,0.8-1.1c0.1-0.1,0.2-0.1,0.4-0.1c3.4,0.2,6.7,0.5,10.1,0.7c3,0.2,6,0.4,8.9,0.6
		c1.6,0.1,3.3,0.2,5,0.3C154.2,23.2,153.8,24,153.3,24.7z M157.2,21.2c-0.3,0.4-0.8,0.5-1.3,0.5c-1.7-0.1-3.3-0.2-5-0.3
		c-2.5-0.2-5.1-0.3-7.6-0.5c-3.6-0.2-7.2-0.5-10.8-0.7c-0.5,0-1,0-1.5-0.1c0.2-0.4,0.5-0.7,0.7-1.1c0.1-0.2,0.3-0.2,0.4-0.2
		c1.6,0,3.3,0,4.9,0c7,0,14,0,21,0c0.2,0,0.3,0,0.6,0C158.1,19.6,157.8,20.4,157.2,21.2z M162,15.6c-0.3,0.8-0.8,1.4-1.2,2.1
		c-0.1,0.1-0.3,0.2-0.4,0.2c-0.2,0-0.4,0-0.6,0c-9,0-18.1,0-27.1,0c-0.1,0-0.2,0-0.5,0c0.5-0.9,0.9-1.8,1.6-2.4
		c0.6-0.5,1.3-0.8,2.1-0.8c8.3,0,16.7,0,25,0c0.2,0,0.4,0,0.6,0.1C162,15,162.1,15.3,162,15.6z"/>
	<path class="st52" d="M109.4,47.2c0-0.1,0-0.4-0.2-0.4c-0.3-0.1-0.3,0.2-0.4,0.3c-1.1,2.1-2.3,4.1-3.4,6.2
		c-0.1,0.2-0.1,0.3-0.3,0.4c-0.3-0.5-0.5-0.9-0.8-1.3c-1-1.8-1.9-3.6-2.8-5.4c-0.1-0.1-0.1-0.3-0.4-0.3c-0.3,0-0.2,0.3-0.2,0.4
		c-0.2,1.2-0.3,2.4-0.5,3.6c-0.2,1.7-0.5,3.3-0.7,5c0,0.2,0,0.3,0.2,0.3c0.2,0,0.3,0,0.5,0c0.2,0,0.3-0.1,0.3-0.3
		c0-1.6,0.2-3.1,0.4-4.7c0.1-0.6,0.1-1.2,0.2-1.9c0.1,0.3,0.2,0.4,0.3,0.5c1,1.9,2.1,3.9,3,5.9c0.1,0.1,0.1,0.3,0.2,0.3
		c0.2,0,0.2-0.2,0.2-0.3c0.9-2.1,2.1-4.1,3.2-6.1c0.1-0.1,0.1-0.3,0.3-0.2c0.2,1.9,0.4,3.8,0.5,5.7c0.1,1.1,0.1,1.1,1.2,1
		c0.2,0,0.2-0.1,0.2-0.3C110.1,52.8,109.7,50,109.4,47.2z"/>
	<path class="st52" d="M79.8,46.6c-0.2,0-0.5,0-0.7,0c-0.2,0-0.3,0-0.5,0.1c-1.9,0.4-3.2,1.5-3.6,3.4c-0.5,1.9-0.2,3.7,1.5,5
		c1.5,1.2,3.2,1.3,5,0.9c1.7-0.5,2.9-1.6,3.3-3.3c0.4-1.7,0.2-3.4-1.2-4.7C82.5,46.9,81.2,46.5,79.8,46.6z M82.8,53.9
		c-0.8,1.3-2,1.9-3.4,1.7c-1.5-0.2-2.5-1-3-2.4c-0.5-1.5-0.4-2.9,0.3-4.3c0.7-1.4,2.2-2.1,3.8-1.9c1.5,0.3,2.7,1.4,3,2.9
		c0.1,0.4,0.1,0.8,0.1,1.3C83.6,52.2,83.3,53.1,82.8,53.9z"/>
	<path class="st53" d="M125.6,50.6c0.8-0.6,1-1.4,0.8-2.4c-0.2-0.9-0.9-1.3-1.8-1.4c-1.2-0.2-2.4-0.1-3.6-0.1
		c-0.4,0-0.5,0.1-0.5,0.4c0,2.6,0,5.3,0,7.9c0,0.8,0,0.8,0.8,0.8c0.3,0,0.4-0.1,0.4-0.4c0-1.3,0-2.5,0-3.8c0-0.1-0.1-0.3,0.1-0.3
		c0.2,0,0.3-0.1,0.5,0.1c0.1,0.1,0.1,0.1,0.2,0.2c1.1,1.2,2.1,2.5,3,3.9c0.1,0.1,0.1,0.3,0.4,0.3c0.5,0,0.9,0,1.5,0
		c-1.3-1.5-2.5-3-3.7-4.6C124.5,51.2,125.1,51,125.6,50.6z M121.9,50.9c-0.2,0-0.1-0.2-0.1-0.3c0-0.3,0-0.5,0-0.8c0-0.3,0-0.5,0-0.8
		c0-0.2,0-0.5,0-0.7c0-0.2,0-0.5,0-0.7c0-0.2,0-0.4,0.3-0.4c0.6,0,1.1-0.1,1.7,0c0.6,0.1,1.1,0.4,1.3,1c0.2,0.7,0.1,1.4-0.4,1.9
		C123.9,51,122.9,51,121.9,50.9z"/>
	<path class="st52" d="M146.8,47.1c0-0.2,0-0.4-0.3-0.4c-0.3,0-0.5,0-0.5,0.4c0,2,0,4,0,6c0,0.2,0.1,0.4-0.1,0.5
		c-0.2,0.1-0.2-0.2-0.3-0.3c0,0-0.1-0.1-0.1-0.1c-1.9-2.1-3.8-4.2-5.8-6.2c-0.2-0.2-0.4-0.3-0.7-0.3c-0.3,0.1-0.1,0.4-0.1,0.6
		c0,2.7,0,5.5,0,8.2c0,0.4,0.2,0.4,0.5,0.4c0.4,0,0.3-0.2,0.3-0.4c0-2.3,0-4.5,0-6.8c0.2,0,0.2,0.1,0.3,0.2c2.1,2.3,4.1,4.5,6.2,6.8
		c0.1,0.2,0.3,0.3,0.5,0.2c0.2-0.1,0.1-0.3,0.1-0.4C146.8,52.7,146.8,49.9,146.8,47.1z"/>
	<path class="st54" d="M94.2,47.1c0-0.4-0.2-0.3-0.4-0.3c-0.3,0-0.4,0-0.4,0.3c0,1.3,0,2.6,0,3.9c0,0.9,0,1.8,0,2.6c0,0-0.1,0-0.1,0
		c-0.1-0.2-0.3-0.3-0.4-0.5c-1.9-2.1-3.8-4.2-5.8-6.2c-0.2-0.2-0.4-0.3-0.6-0.2c-0.3,0.1-0.1,0.3-0.1,0.5c0,2.8,0,5.5,0,8.3
		c0,0.3,0,0.4,0.4,0.4c0.4,0,0.4-0.2,0.4-0.4c0-2.1,0-4.2,0-6.3c0-0.2-0.1-0.3,0.1-0.5c0.1,0.1,0.1,0.1,0.2,0.2
		c2.1,2.3,4.1,4.6,6.2,6.9c0.1,0.2,0.3,0.3,0.5,0.2c0.2-0.1,0.1-0.3,0.1-0.4C94.2,52.7,94.1,49.9,94.2,47.1z"/>
	<path class="st53" d="M57.4,46.9c-0.1-0.1-0.1-0.3-0.3-0.4c-0.3,0-0.3,0.2-0.4,0.4c-0.7,1.6-1.4,3.2-2.2,4.8
		c-0.6,1.4-1.3,2.8-1.9,4.2c0.2,0,0.4,0,0.5,0c0.4,0.1,0.5-0.1,0.7-0.5c0.3-0.9,0.7-1.8,1-2.8c0.1-0.3,0.3-0.4,0.6-0.4
		c0.9,0,1.7,0,2.6,0c0.3,0,0.4,0.1,0.5,0.4c0.4,1,0.8,1.9,1.1,2.9c0.1,0.2,0.1,0.4,0.3,0.3c0.4,0,0.8,0,1.2,0
		c-0.1-0.1-0.1-0.2-0.1-0.3C59.9,52.7,58.6,49.8,57.4,46.9z M55.3,51.7c0.5-1.1,0.9-2.2,1.4-3.4c0.5,1.2,1,2.3,1.5,3.4
		C57.2,51.7,56.3,51.7,55.3,51.7z"/>
	<path class="st53" d="M115.8,46.9c-0.1-0.2-0.1-0.4-0.3-0.4c-0.2,0-0.2,0.2-0.3,0.3c-1,2.2-2,4.4-2.9,6.6c-0.4,0.8-0.7,1.6-1.1,2.5
		c0.2,0,0.4,0,0.5,0c0.4,0.1,0.5-0.1,0.6-0.4c0.3-1,0.7-1.9,1-2.9c0.1-0.2,0.2-0.3,0.5-0.3c0.9,0,1.8,0,2.7,0c0.3,0,0.4,0.1,0.5,0.3
		c0.3,0.8,0.6,1.5,0.9,2.3c0.1,0.3,0.1,0.7,0.4,0.9c0.2,0.2,0.6,0,1,0.1c0.4,0.1,0.4-0.1,0.3-0.4C118.3,52.6,117,49.8,115.8,46.9z
		 M115.7,51.7c-0.6,0-1.1,0-1.7,0c-0.2,0-0.3,0-0.2-0.3c0.4-1,0.9-2,1.3-3.1c0.4,0.9,0.8,1.7,1.1,2.6
		C116.6,51.7,116.6,51.7,115.7,51.7z"/>
	<path class="st52" d="M65.7,50.9c-0.1-0.1-0.3-0.1-0.4-0.2c-0.5-0.2-0.9-0.3-1.3-0.6c-0.7-0.5-1-1.3-0.7-2c0.3-0.7,1.1-1.1,2-0.9
		c0.7,0.1,1,0.6,1.4,1.3c0.1-0.4,0.2-0.7,0.3-0.9c0.1-0.3,0-0.4-0.2-0.5c-1-0.6-2.8-0.5-3.7,0.2c-0.4,0.3-0.6,0.6-0.8,1.1
		c-0.4,1.3,0,2.4,1.2,3c0.6,0.3,1.3,0.5,1.9,0.8c0.9,0.4,1.2,1.2,0.9,2c-0.2,0.9-0.9,1.4-1.9,1.4c-0.8,0-1.4-0.4-1.9-1
		c-0.1-0.1-0.1-0.3-0.3-0.4c-0.2,0.2-0.1,0.5-0.2,0.8c-0.2,0.4,0,0.6,0.3,0.7c1.2,0.6,2.5,0.7,3.7,0c1.1-0.6,1.5-1.6,1.5-2.7
		C67.3,51.8,66.6,51.3,65.7,50.9z"/>
	<path class="st54" d="M74.9,47.4c-0.1-0.2,0.3-0.6-0.2-0.7c-2.2,0-4.3,0-6.5,0c-0.5,0-0.1,0.5-0.2,0.7c-0.1,0.2,0.2,0.1,0.3,0.1
		c0.7,0,1.5-0.1,2.2-0.1c0.4,0,0.4,0.1,0.4,0.4c0,1.3,0,2.6,0,3.9c0,1.1,0,2.3,0,3.4c0,0.3-0.1,0.6,0,0.8c0.1,0.2,0.5,0,0.7,0
		c0.4,0.1,0.4-0.1,0.4-0.4c0-2.6,0-5.2,0-7.8c0-0.3,0.1-0.4,0.4-0.4c0.7,0.1,1.4,0.1,2.1,0.1C74.8,47.5,75,47.6,74.9,47.4z"/>
	<path class="st53" d="M134.1,46.7c-0.5,0-1,0-1.5,0c-1.6,0-3.3,0-4.9,0c-0.6,0-0.2,0.4-0.3,0.6c-0.1,0.3,0.2,0.2,0.3,0.2
		c0.7,0,1.5-0.1,2.2-0.1c0.3,0,0.4,0.1,0.4,0.4c0,2.4,0,4.9,0,7.3c0,0.3-0.1,0.6,0.1,0.8c0.1,0.2,0.5,0,0.7,0c0,0,0.1,0,0.1,0
		c0.3,0.1,0.4-0.1,0.4-0.4c0-1.3,0-2.6,0-3.9c0-1.3,0-2.7,0-4c0-0.3,0.1-0.4,0.3-0.3c0.7,0.1,1.4,0.1,2.2,0.1c0.1,0,0.4,0.1,0.3-0.2
		C134.3,47.1,134.6,46.8,134.1,46.7z"/>
	<path class="st54" d="M137.1,47.6c0-0.9,0-0.8-0.9-0.9c-0.3,0-0.4,0.1-0.4,0.4c0,1.4,0,2.8,0,4.2c0,1.3,0,2.5,0,3.8
		c0,0.8,0,0.8,0.8,0.9c0.4,0,0.4-0.1,0.4-0.4C137.1,52.9,137.1,50.3,137.1,47.6z"/>
	<path class="st55" d="M161.6,14.9c-0.2-0.1-0.4-0.1-0.6-0.1c-8.3,0-16.7,0-25,0c-0.8,0-1.5,0.3-2.1,0.8c-0.7,0.6-1.1,1.5-1.6,2.4
		c0.2,0,0.3,0,0.5,0c9,0,18.1,0,27.1,0c0.2,0,0.4,0,0.6,0c0.2,0,0.4-0.1,0.4-0.2c0.4-0.7,0.9-1.3,1.2-2.1
		C162.1,15.3,162,15,161.6,14.9z"/>
	<path class="st55" d="M67.1,18c0.2,0,0.3,0,0.6,0c-0.5-0.7-0.8-1.5-1.3-2c-0.7-0.8-1.6-1.1-2.7-1.1c-8.2,0-16.4,0-24.6,0
		c-0.2,0-0.3,0-0.5,0c-0.7,0.1-0.9,0.5-0.6,1.1c0.2,0.4,0.5,0.8,0.7,1.2c0.3,0.7,0.8,0.9,1.5,0.9C49.2,18,58.2,18,67.1,18z"/>
	<path class="st55" d="M106.8,18c8,0,16.1,0,24.1,0c0.3,0,0.5-0.1,0.6-0.4c0.6-1,1-2,2-2.8c-0.1,0-0.2,0-0.2,0c-7.8,0-15.5,0-23.3,0
		c-1.9,0-3.2,1-3.7,2.7C106.4,17.8,106.4,18,106.8,18z"/>
	<path class="st55" d="M68.3,17.6c0.2,0.3,0.4,0.4,0.7,0.4c8,0,16.1,0,24.1,0c0.1,0,0.2,0,0.3,0c0.1,0,0.2-0.1,0.1-0.2
		c-0.3-1.1-0.8-2-1.8-2.5c-0.7-0.4-1.4-0.5-2.2-0.5c-7.6,0-15.2,0-22.8,0c-0.1,0-0.2,0-0.4,0C67.3,15.5,67.8,16.6,68.3,17.6z"/>
	<path class="st56" d="M54.5,21c4.1-0.3,8.3-0.5,12.4-0.8c0.7,0,1.4,0,2.1-0.2c-0.2-0.4-0.4-0.7-0.6-1c-0.1-0.2-0.3-0.3-0.5-0.3
		c-8.8,0-17.6,0-26.5,0c0.4,0.7,0.8,1.4,1.1,2c0.3,0.7,0.9,0.9,1.6,0.9c0.5,0,1,0,1.5-0.1C48.5,21.4,51.5,21.2,54.5,21z"/>
	<path class="st56" d="M137.1,18.7c-1.6,0-3.3,0-4.9,0c-0.2,0-0.3,0-0.4,0.2c-0.2,0.4-0.5,0.7-0.7,1.1c0.5,0.1,1,0.1,1.5,0.1
		c3.6,0.2,7.2,0.5,10.8,0.7c2.5,0.2,5.1,0.3,7.6,0.5c1.6,0.1,3.3,0.2,5,0.3c0.5,0,1-0.1,1.3-0.5c0.6-0.7,1-1.6,1.5-2.5
		c-0.3,0-0.4,0-0.6,0C151.1,18.7,144.1,18.7,137.1,18.7z"/>
	<path class="st57" d="M140.8,21.4c-3.4-0.2-6.7-0.5-10.1-0.7c-0.1,0-0.3,0-0.4,0.1c-0.2,0.3-0.5,0.7-0.8,1.1
		c0.8,0.1,1.6,0.2,2.3,0.3c2.9,0.4,5.8,0.8,8.7,1.2c2.9,0.4,5.8,0.8,8.6,1.2c1,0.1,2,0.3,3,0.4c0.4,0,0.8,0.1,1-0.2
		c0.5-0.8,0.9-1.6,1.4-2.4c-1.7-0.1-3.3-0.2-5-0.3C146.7,21.8,143.8,21.6,140.8,21.4z"/>
	<path class="st57" d="M65.6,22.6c1.6-0.2,3.2-0.4,4.8-0.7c-0.3-0.4-0.5-0.7-0.7-1c-0.1-0.2-0.2-0.2-0.4-0.2
		c-2.8,0.2-5.6,0.4-8.3,0.6c-3.6,0.2-7.2,0.5-10.8,0.7c-1.5,0.1-3,0.2-4.5,0.3c-0.3,0-0.4,0.1-0.2,0.4c0.3,0.5,0.7,1.1,0.9,1.6
		c0.3,0.6,0.7,0.8,1.4,0.7c2.8-0.4,5.6-0.8,8.5-1.1C59.3,23.4,62.4,23,65.6,22.6z"/>
	<path class="st58" d="M114.9,25.8c-0.1-0.2-0.1-0.4,0.1-0.5c0,0,0,0,0.1-0.1c0.2-0.1,0.4-0.2,0.4-0.5c-0.3,0-0.4-0.1-0.4-0.4
		c0-1.2,0-2.4,0-3.6c0-0.3-0.1-0.4-0.4-0.4c-0.3,0-0.6,0-0.8,0.1c-0.2,0-0.3,0-0.3-0.2c0-0.2,0-0.3,0.3-0.3c1,0,2.1,0,3.1,0
		c0.2,0,0.3,0.1,0.3,0.3c0,0.3-0.2,0.2-0.3,0.2c-1.1-0.1-1.1-0.1-1.1,1.1c0,1.1,0.1,2.2,0,3.2c0.4-0.8,1.2-1.2,1.7-1.9
		c0.1-0.2,0.2,0,0.2,0.2c0,0.4,0,0.8,0,1.2c0,0.6,0.2,0.7,0.7,0.4c-0.7,0.1-0.7,0.1-0.7-0.5c0-1.3,0-2.5,0-3.8c0-0.2,0-0.4,0.3-0.4
		c0.3,0,0.4,0.1,0.4,0.4c0,0.5,0,1,0,1.4c0.3,0,0.4-0.3,0.5-0.5c0.1-0.1,0.2-0.2,0.3-0.1c0.1,0.1,0.1,0.2,0.1,0.3c0,1,0,1.9,0,2.9
		c0,0.3,0,0.4,0.2,0.4c0.1,0,0.2,0,0.4-0.1c-0.2,0.1-0.3,0.1-0.4,0c-0.1-0.1-0.1-0.2-0.1-0.4c0-1.3,0-2.5,0-3.8
		c0-0.2-0.1-0.4,0.1-0.4c0.2-0.1,0.3,0.1,0.5,0.2c0,0,0.1,0.1,0.1,0.1c0.1-0.5,0.6-0.7,0.9-1c0-0.1,0.1-0.1,0.2-0.1
		c0.1-0.1,0.2-0.1,0.2-0.3c-0.1-0.1-0.2-0.1-0.3-0.1c-0.8,0-1.6,0-2.4,0c-1.7,0-3.4,0-5.1,0c0,0.1-0.1,0.2-0.1,0.3
		c0,0.1-0.1,0.1-0.2,0.2c-0.1,0.1-0.1,0.1-0.2,0.2c-0.1,0.1-0.1,0.1-0.2,0.2c-0.1,0.1-0.2,0.3-0.3,0.4h0c0.1,0,0.2,0.1,0.3,0.2
		c0.3,0.2,0.5,0.5,0.4,0.9c0,0.8-0.6,1.1-1.3,1.3c0.6,0.7,1.2,1.5,1.8,2.2c-0.5,0.1-0.8,0.2-1.2-0.3c-0.4-0.6-0.8-1.1-1.3-1.6
		c-0.1-0.1-0.2-0.3-0.3-0.2c-0.2,0.1-0.1,0.3-0.1,0.4c0,0.5,0,1,0,1.4c0,0.3,0,0.4-0.4,0.4c-0.3,0-0.4-0.1-0.4-0.4
		c0-0.9,0-1.8,0-2.7c-0.3,0.1-0.5,0.2-0.7,0.4c-0.1,0.1-0.2,0.2-0.3,0.3c-0.1,0.1-0.2,0.2-0.3,0.3c0.3,0.7,0.5,1.3,0.8,2
		c-0.8,0.2-0.8,0.2-1-0.6c-0.1-0.3-0.2-0.5-0.3-0.8c-0.4,0.5-0.8,1-1.3,1.5c-0.3,0.2-0.6,0.4-0.8,0.8c-0.1,0.2-0.3,0.2-0.5,0.2
		c-2.6,0-5.2,0-7.8,0c-0.7,0-1.4,0-2.1,0c-0.7,0-1.4,0-2.1,0c-1.3,0-2.7,0-4,0c-1.5,0-3,0-4.5,0c0,0,0,0,0,0h0c0,0,0,0,0,0.1h0
		c0.2,0,0.3,0,0.5,0c9.6,0,19.1,0,28.7,0C114.6,25.8,114.8,25.8,114.9,25.8z"/>
	<path class="st58" d="M85.3,25.8C85.3,25.8,85.3,25.8,85.3,25.8c0.2,0,0.3,0,0.5,0C85.6,25.8,85.5,25.8,85.3,25.8L85.3,25.8z"/>
	<path class="st59" d="M111.5,18.8C111.5,18.8,111.5,18.8,111.5,18.8c0.7,0,1.4,0,2,0c1.7,0,3.4,0,5.1,0c0.8,0,1.6,0,2.4,0
		c0.1,0,0.2-0.1,0.3,0.1c0.1,0.1-0.1,0.2-0.2,0.3c-0.1,0.1-0.1,0.1-0.2,0.1c-0.3,0.3-0.8,0.5-0.9,1c0.9,1,1.8,2,2.8,3.1
		c0.1-0.4,0.1-0.7,0.1-1c0-0.7,0-1.4,0-2c0-0.2-0.1-0.4,0.2-0.4c0.4,0,0.2,0.2,0.2,0.4c0,1.3,0,2.6,0,3.9c0,0.1,0.1,0.3-0.1,0.4
		c-0.2,0.1-0.3-0.1-0.4-0.2c-0.9-1-1.9-2.1-2.8-3.1c0-0.1-0.1-0.1-0.2-0.2c0,1.2,0,2.4,0,3.5c0,0,0,0,0,0c0,0,0,0,0,0
		c-0.2,0.1-0.3,0.1-0.4,0.1c-0.1,0-0.2-0.1-0.2-0.4c0-1,0-1.9,0-2.9c0-0.1,0-0.2-0.1-0.3c-0.1-0.1-0.2,0.1-0.3,0.1
		c-0.1,0.2-0.2,0.4-0.5,0.5c0,1,0,1.9,0,2.9c-0.5,0.3-0.7,0.2-0.7-0.4c0-0.4,0-0.8,0-1.2c0-0.2-0.1-0.3-0.2-0.2
		c-0.5,0.7-1.3,1.1-1.7,1.9c-0.1,0-0.2,0-0.3,0c0,0.3-0.3,0.4-0.4,0.5c0,0-0.1,0-0.1,0.1c-0.2,0.2-0.2,0.3-0.1,0.5
		c3.3,0,6.6,0,9.9,0c0.3,0,0.4-0.2,0.4-0.4c0-2.1,0-4.2,0-6.3c0-0.4-0.1-0.4-0.5-0.4c-1.7,0-3.4,0-5.1,0
		C117,18.7,114.2,18.7,111.5,18.8C111.5,18.7,111.5,18.7,111.5,18.8z"/>
	<path class="st59" d="M120,24.6c-0.2,0.1-0.3,0.1-0.4,0.1C119.7,24.7,119.8,24.7,120,24.6C120,24.6,120,24.6,120,24.6z"/>
	<path class="st57" d="M146.2,24.9c-3.1-0.4-6.3-0.8-9.4-1.3c-2.5-0.3-5-0.7-7.4-1c-0.2,0-0.3-0.1-0.4,0.1c-0.3,0.3-0.5,0.7-0.8,1
		c0.1,0,0.2,0.1,0.3,0.1c4.9,1,9.9,2,14.8,3.1c1.6,0.3,3.1,0.4,4.7-0.2c1.2-0.4,2.4-0.7,3.7-1.1c-0.2-0.1-0.3-0.1-0.4-0.1
		C149.5,25.3,147.9,25.1,146.2,24.9z"/>
	<path class="st57" d="M70.2,24.1c0.5-0.1,1.1-0.2,1.7-0.4c-0.2-0.3-0.5-0.6-0.7-0.8c-0.2-0.2-0.3-0.3-0.7-0.3
		c-3.2,0.4-6.3,0.9-9.5,1.3c-3.3,0.4-6.7,0.9-10,1.3c-0.9,0.1-1.8,0.2-2.6,0.4c0,0,0,0.1,0,0.1c1.3,0.4,2.6,0.7,3.9,1.2
		c1.3,0.5,2.6,0.4,4,0.1C60.9,26.1,65.6,25.1,70.2,24.1z"/>
	<path class="st57" d="M69.8,27.3c1.4-0.4,2.7-0.8,4.1-1.3c-0.5-0.5-0.9-1-1.3-1.4c-0.1-0.2-0.3-0.1-0.5-0.1
		c-5.4,1.1-10.9,2.2-16.3,3.3c0.2,0.2,0.4,0.2,0.6,0.2c1.3,0.4,2.6,0.7,4,1.2c1.1,0.4,2.1,0.3,3.1,0C65.6,28.6,67.7,27.9,69.8,27.3z
		"/>
	<path class="st57" d="M127.8,24.5c-0.2,0-0.3,0-0.4,0.1c-0.4,0.5-0.8,0.9-1.3,1.4c3.7,1.1,7.3,2.2,10.9,3.3c0.8,0.2,1.6,0.2,2.4,0
		c1.5-0.5,2.9-0.9,4.4-1.3c0.1,0,0.3,0,0.3-0.2c-1.2-0.3-2.5-0.5-3.7-0.8C136.2,26.2,132,25.4,127.8,24.5z"/>
	<path class="st60" d="M76.7,34.6c1.4-1,2.8-2,4.2-3c-1-0.6-2-1.3-2.9-2c-0.3-0.3-0.6-0.2-0.9-0.1c-2,0.9-3.9,1.8-5.9,2.8
		c-0.3,0.1-0.7,0.1-0.8,0.3c-0.1,0.2,0.3,0.5,0.4,0.8c0.4,1.2,1.3,1.9,2.4,2.4c0.8,0.4,1.6,0.3,2.3-0.2
		C75.8,35.2,76.2,34.9,76.7,34.6z"/>
	<path class="st60" d="M129.5,32.4c-0.5-0.1-0.9-0.3-1.3-0.5c-1.8-0.9-3.6-1.7-5.4-2.6c-0.2-0.1-0.3-0.2-0.5,0c-1,0.8-2,1.5-3.1,2.2
		c1.9,1.3,3.7,2.6,5.5,3.9c0.5,0.3,1.1,0.6,1.7,0.4c1.3-0.4,2.4-1,2.9-2.5c0.1-0.2,0.2-0.5,0.4-0.7
		C129.7,32.5,129.7,32.5,129.5,32.4z"/>
	<path class="st57" d="M76.6,28.9c0.3-0.1,0.2-0.2,0-0.4c-0.6-0.5-1.3-1.1-1.9-1.7c-0.2-0.2-0.4-0.3-0.7-0.2c-2.1,0.7-4.2,1.3-6.3,2
		c-1.5,0.5-3,0.9-4.6,1.4c1.8,0.5,3.5,1,5.3,1.6c0.9,0.3,1.8,0.2,2.6-0.2C73,30.6,74.8,29.7,76.6,28.9z"/>
	<path class="st57" d="M125.3,26.7c-0.6,0.6-1.3,1.2-2,1.8c-0.2,0.2-0.2,0.2,0.1,0.3c1.9,0.9,3.7,1.8,5.6,2.6c0.6,0.3,1.3,0.5,2,0.3
		c1.9-0.5,3.8-1.1,5.8-1.7c-3.8-1.2-7.4-2.3-11.1-3.4C125.5,26.6,125.4,26.6,125.3,26.7z"/>
	<path class="st60" d="M94.4,35.7c0.2,0,0.4,0,0.5-0.3c0.8-2.9,1.6-5.7,2.4-8.6c0.1-0.3,0-0.3-0.2-0.3c-1.4-0.1-1.4-0.1-2.1,1.1
		c0,0,0,0.1,0,0.1c-1.4,2.4-2.8,4.8-4.2,7.2C91.9,35.3,93.2,35.5,94.4,35.7z"/>
	<path class="st60" d="M103,26.5C103,26.6,103,26.6,103,26.5c-0.3,0-0.4,0-0.3,0.3c0.8,2.9,1.6,5.7,2.4,8.6c0.1,0.2,0.1,0.3,0.4,0.3
		c1.3-0.2,2.6-0.4,3.9-0.8c-0.1-0.2-0.2-0.3-0.2-0.4c-1.3-2.3-2.7-4.5-4-6.8C104.6,26.7,104,26.4,103,26.5z"/>
	<path class="st60" d="M99.5,26.6c-0.5,0-0.9,0-1.4,0c-0.1,0-0.1,0.1-0.1,0.2c-0.8,2.9-1.6,5.8-2.4,8.7c-0.1,0.2,0,0.3,0.2,0.3
		c1.1,0.1,2.2,0.2,3.4,0.2c0.4,0,0.4-0.1,0.4-0.5c0-1.4,0-2.8,0-4.3c0-1.5,0-2.9,0-4.4C99.6,26.8,99.7,26.6,99.5,26.6z"/>
	<path class="st60" d="M99.6,35.6c0-1.4,0-2.8,0-4.3c0-1.5,0-2.9,0-4.4c0,1.5,0,2.9,0,4.4C99.6,32.8,99.6,34.2,99.6,35.6z"/>
	<path class="st60" d="M104,35.9c0.4,0,0.4-0.1,0.3-0.5c-0.7-2.6-1.5-5.2-2.2-7.8c-0.3-1-0.3-1-1.4-1c-0.4,0-0.5,0.1-0.5,0.5
		c0,2.7,0,5.4,0,8c0,1.1,0,1.1,1.5,1C102.3,36,103.2,35.9,104,35.9z"/>
	<path class="st57" d="M84.8,33.7c-1.1-0.5-2.1-1-3-1.6c-0.2-0.1-0.3,0-0.4,0.1c-0.8,0.6-1.7,1.2-2.5,1.8c-1.2,0.8-2.3,1.6-3.5,2.5
		c1.3,0.4,2.7,0.7,4,1.1c0.9,0.3,1.6,0,2.3-0.6C82.7,35.9,83.7,34.8,84.8,33.7z"/>
	<path class="st57" d="M118.7,32.2c-0.1-0.1-0.2-0.3-0.5-0.1c-1,0.6-2,1.1-3.1,1.6c1.1,1.2,2.2,2.3,3.4,3.4c0.6,0.5,1.2,0.7,2,0.4
		c1.4-0.4,2.7-0.8,4.1-1.1c-0.3-0.2-0.6-0.4-0.9-0.6C122.1,34.6,120.4,33.4,118.7,32.2z"/>
	<path class="st57" d="M92.9,26.5c-0.2,0-0.4,0.1-0.6,0.2c-1.6,1.7-3.2,3.3-4.8,5c-0.5,0.5-1,1.1-1.5,1.6c1.2,0.5,2.3,0.9,3.4,1.2
		c0.4,0.1,0.5,0.1,0.7-0.3c0.9-1.5,1.8-3,2.6-4.5c0.6-1.1,1.3-2.2,2-3.3C94.1,26.5,93.5,26.6,92.9,26.5z"/>
	<path class="st57" d="M110.3,34.7c1.2-0.4,2.4-0.8,3.6-1.3c0-0.1,0-0.1,0-0.1c-2.1-2.2-4.2-4.4-6.3-6.5c-0.1-0.1-0.2-0.2-0.3-0.2
		c-0.6,0-1.3,0-2,0c0.2,0.3,0.3,0.6,0.5,0.8c1.4,2.3,2.8,4.7,4.2,7C110,34.5,110,34.8,110.3,34.7z"/>
	<path class="st57" d="M89.3,35.6c0.1-0.2,0.1-0.3-0.1-0.4c-1.2-0.3-2.3-0.7-3.4-1.2c-0.2-0.1-0.4-0.1-0.5,0.1
		c-1.3,1.3-2.4,2.7-3.8,3.9c1.5,0.4,3,0.8,4.5,1.2c0.7,0.2,1.1,0,1.5-0.5c0.1-0.1,0.2-0.3,0.3-0.5C88.3,37.5,88.8,36.5,89.3,35.6z"
		/>
	<path class="st57" d="M117.4,37c-0.9-0.9-1.8-1.8-2.7-2.8c-0.2-0.2-0.3-0.2-0.5-0.1c-1.1,0.5-2.2,0.9-3.4,1.2
		c-0.3,0.1-0.3,0.2-0.1,0.4c0.6,0.9,1.1,1.9,1.7,2.8c0.2,0.3,0.4,0.6,0.7,0.8c0.2,0.2,0.4,0.2,0.7,0.2c1.6-0.4,3.2-0.9,4.9-1.3
		C118.1,37.7,117.7,37.4,117.4,37z"/>
	<path class="st60" d="M111.1,37.8c-0.4-0.6-0.8-1.3-1.2-2c-0.1-0.2-0.2-0.3-0.5-0.2c-1.3,0.3-2.6,0.6-4,0.8
		c0.3,1.1,0.6,2.1,0.9,3.1c0.1,0.3,0.2,0.7,0.5,0.9c0.3,0.4,0.7,0.6,1.2,0.4c1.5-0.4,3-0.8,4.6-1.2
		C111.8,39.2,111.5,38.5,111.1,37.8z"/>
	<path class="st57" d="M90.5,35.6c-0.2-0.1-0.3,0-0.4,0.2c-0.8,1.3-1.4,2.7-2.5,3.9c1.4,0.4,2.7,0.7,4.1,1.1c1,0.3,1.7,0,2-1.1
		c0.3-1.1,0.6-2.2,0.9-3.3C93.2,36.2,91.8,36,90.5,35.6z"/>
	<path class="st57" d="M89.5,26.5c-0.3,0-0.5,0.1-0.7,0.2c-2.1,1.5-4.2,3-6.2,4.5c-0.1,0.1-0.3,0.1-0.3,0.3c0.9,0.5,1.9,1,2.8,1.5
		c0.2,0.1,0.3,0,0.4-0.1c1.3-1.3,2.5-2.6,3.8-3.9c0.7-0.8,1.5-1.5,2.3-2.4C90.8,26.5,90.2,26.6,89.5,26.5z"/>
	<path class="st57" d="M114.8,33c1-0.5,2-0.9,2.9-1.5c0-0.1,0-0.1-0.1-0.1c-2.2-1.6-4.4-3.2-6.6-4.7c-0.1-0.1-0.2-0.1-0.3-0.1
		c-0.7,0-1.5,0-2.2,0c0,0.1,0,0.1,0,0.1c2,2.1,4,4.2,6,6.3C114.6,33,114.6,33.1,114.8,33z"/>
	<path class="st57" d="M118.6,31c1-0.6,2-1.3,3-2.1c-1.7-0.8-3.3-1.6-4.9-2.3c-0.1-0.1-0.3,0-0.4,0c-1.3,0-2.5,0-3.8,0
		c-0.1,0-0.2-0.1-0.3,0.1c2,1.4,4,2.9,6,4.3C118.4,31.1,118.5,31.1,118.6,31z"/>
	<path class="st57" d="M86.4,26.5c-2.1-0.2-4.1,0.2-5.9,1.3c-0.2,0.1-0.4,0.2-0.6,0.3c-0.5,0.2-1.1,0.5-1.6,0.8c1,0.8,2,1.4,2.9,2
		c0.2,0.2,0.4,0.1,0.6,0c1.9-1.4,3.8-2.7,5.7-4c0.1-0.1,0.2-0.1,0.3-0.3C87.3,26.5,86.8,26.6,86.4,26.5z"/>
	<path class="st56" d="M104.7,36.8c0-0.1,0-0.3-0.3-0.3c-1,0.1-2,0.2-3.1,0.3c1.3,1.2,2.6,2.4,3.8,3.6c0.3,0.2,0.5,0.5,1,0.5
		c-0.5-0.6-0.6-1.3-0.8-2C105.1,38.2,104.9,37.5,104.7,36.8z"/>
	<path class="st56" d="M95.2,36.8c-0.4,1.4-0.6,2.8-1.3,4.1c1.7-1.1,3.1-2.7,4.7-4.1c-1.1-0.1-2.1-0.2-3.1-0.3
		C95.3,36.5,95.3,36.7,95.2,36.8z"/>
	<path class="st57" d="M122.4,28.3c0.7-0.5,1.3-1.1,2-1.7c-2,0-3.9,0-5.8,0c0,0,0,0,0,0.1c1.2,0.6,2.4,1.1,3.6,1.7
		C122.3,28.4,122.3,28.4,122.4,28.3z"/>
	<path class="st57" d="M75.5,26.6c0.7,0.6,1.4,1.2,2,1.7c0.2,0.2,0.3,0,0.5,0c0.9-0.4,1.8-0.8,2.6-1.2c0.3-0.1,0.5-0.3,0.8-0.4
		c0,0,0,0,0-0.1C79.5,26.6,77.6,26.6,75.5,26.6z"/>
	<path class="st61" d="M130.2,19.8c0.2-0.3,0.5-0.7,0.7-1.1c-1.6,0-3.2,0-4.7,0c-0.4,0-0.3,0.2-0.3,0.4c0,0.2-0.2,0.6,0.3,0.6
		c1.2,0.1,2.4,0.2,3.6,0.2C130,20,130.1,20,130.2,19.8z"/>
	<path class="st61" d="M74,19c0-0.2-0.1-0.3-0.3-0.3c-1.5,0-3,0-4.7,0c0.3,0.4,0.5,0.7,0.6,1c0.1,0.2,0.3,0.3,0.5,0.2
		c1.1-0.1,2.1-0.2,3.2-0.2C74,19.7,74,19.7,74,19z"/>
	<path class="st61" d="M128.9,21.7c0.2-0.3,0.5-0.6,0.7-1c-0.6,0-1.1-0.1-1.6-0.1c-0.5,0-1,0-1.5-0.1c-0.4-0.1-0.5,0.1-0.5,0.5
		c0,0.4,0.1,0.5,0.5,0.6c0.7,0.1,1.4,0.2,2.1,0.3C128.7,21.8,128.8,21.8,128.9,21.7z"/>
	<path class="st56" d="M74,20.6c0-0.2-0.1-0.2-0.2-0.2c-1.1,0.1-2.2,0.2-3.4,0.2c0.3,0.4,0.5,0.6,0.7,0.9c0.1,0.2,0.3,0.2,0.5,0.2
		c0.6-0.1,1.2-0.2,1.8-0.2C74,21.5,74.1,21.4,74,20.6z"/>
	<path class="st62" d="M85.3,25.7c-0.8,0-1.5,0-2.3,0c-0.4,0-0.8,0-1.1,0c-1.6,0-3.3,0-4.9,0c-0.6,0-1.2,0-1.8,0
		c-0.2,0-0.3-0.1-0.3-0.3c0-2.1,0-4.2,0-6.3c0-0.3,0.1-0.4,0.4-0.4c1.2,0,2.5,0,3.7,0c1.5,0,3.1,0,4.6,0c1.5,0,3,0,4.5,0
		c0,0,0,0,0-0.1c-2.1,0-4.3,0-6.4,0c-2.1,0-4.3,0-6.4,0c-0.3,0-0.4,0.1-0.4,0.4c0,2.1,0,4.2,0,6.4c0,0.3,0.1,0.4,0.4,0.4
		C78.5,25.8,81.9,25.8,85.3,25.7C85.3,25.8,85.3,25.8,85.3,25.7z"/>
	<path class="st62" d="M88,18.7c-2.1,0-4.3,0-6.4,0C83.7,18.7,85.9,18.7,88,18.7C88,18.7,88,18.7,88,18.7z"/>
	<path class="st62" d="M75.1,25.8c3.4,0,6.8,0,10.2,0c0,0,0,0,0,0C81.9,25.8,78.5,25.8,75.1,25.8z"/>
	<path class="st62" d="M85.3,25.8C85.3,25.8,85.3,25.8,85.3,25.8L85.3,25.8C85.3,25.8,85.3,25.8,85.3,25.8L85.3,25.8z"/>
	<path class="st61" d="M127.8,23c0.1-0.1,0.2-0.3,0.4-0.5c-0.6-0.1-1.1-0.1-1.6-0.2c-0.7-0.1-0.7-0.1-0.7,0.6c0,0.4,0.1,0.5,0.5,0.6
		C127.1,23.7,127.5,23.6,127.8,23z"/>
	<path class="st58" d="M88,18.7C88,18.7,88,18.7,88,18.7c0.2,0.1,0.4,0.1,0.6,0.1c0,0,0,0,0,0c2.8,0,5.7,0,8.5,0c1,0,1.9,0,2.9,0
		c1.7,0,3.5,0,5.2,0c2.1,0,4.2,0,6.3,0c0,0,0,0,0,0c0,0,0,0,0-0.1l0,0c0,0,0,0,0,0c-0.1,0-0.2,0-0.3,0c-7.6,0-15.2,0-22.8,0
		C88.3,18.7,88.1,18.7,88,18.7L88,18.7z"/>
	<path class="st58" d="M88,18.7c0.1,0,0.2,0,0.4,0C88.3,18.7,88.1,18.7,88,18.7C88,18.7,88,18.7,88,18.7L88,18.7z"/>
	<path class="st58" d="M111.5,18.7C111.5,18.7,111.5,18.7,111.5,18.7C111.5,18.7,111.5,18.7,111.5,18.7L111.5,18.7z"/>
	<path class="st56" d="M73.9,22.2c0,0-0.1,0-0.1,0c-0.6,0.1-1.3,0.2-2,0.3c0.7,1.1,0.8,1.2,1.9,0.9c0,0,0.1,0,0.1,0
		c0.2,0,0.2-0.2,0.2-0.3C74,22.8,74.1,22.5,73.9,22.2z"/>
	<path class="st61" d="M126,24.2c-0.1,0.2,0,0.5,0,0.8c0.3-0.3,0.5-0.5,0.7-0.8C126.4,24.2,126.1,24,126,24.2z"/>
	<path class="st61" d="M73.3,24.3c0.2,0.2,0.4,0.5,0.7,0.7C74.1,24.1,74.1,24,73.3,24.3z"/>
	<path class="st63" d="M111.5,18.8c-2.1,0-4.2,0-6.3,0c0,0,0,0,0,0.1c0,0,0,0,0,0.1c0,0,0,0.1,0,0.1c0,0-0.1,0.1-0.1,0.1
		c-0.1,0.1-0.2,0.1-0.3,0.2c-0.2,0.2-0.4,0.3-0.4,0.6c0.3,0,0.2,0.3,0.2,0.5c0.2,1.3,0.3,2.6,0.5,3.9c0,0.2,0.1,0.4-0.2,0.4
		c-0.2,0-0.5,0.1-0.5-0.3c-0.1-0.9-0.2-1.8-0.3-2.7c0-0.1,0-0.1,0-0.3c-0.6,1-1.1,1.9-1.5,2.9c-0.1,0.1-0.1,0.4-0.2,0.4
		c-0.2,0-0.2-0.2-0.3-0.3c-0.3-0.5-0.5-1-0.8-1.6c-0.4-0.1-0.5,0.3-0.9,0.4l0,0l0,0c0,0.1,0,0.1,0,0.2c0,0,0,0.1,0,0.1
		c0,0,0,0.1-0.1,0.1c0,0,0,0.1,0,0.1c0,0.2-0.1,0.4-0.1,0.5c0,0.1,0,0.1,0,0.2c0,0.1,0,0.1,0,0.2c0,0,0,0.1,0,0.1c0,0,0,0.1-0.1,0.1
		c-0.3,0-0.6,0.2-0.6-0.3c-0.1-0.1-0.1-0.1-0.2-0.1c-0.5,0.4-0.8,1-1.3,1.3c0,0,0,0.1,0,0.2c2.6,0,5.2,0,7.8,0
		c0.2,0,0.4,0.1,0.5-0.2c0.2-0.3,0.5-0.5,0.8-0.8c0.5-0.5,0.9-1,1.3-1.5c0-0.3-0.2-0.5-0.5-0.5c-1.3,0-1.3,0-1.8,1.4
		c-0.1,0.2-0.1,0.5-0.5,0.5c-0.2,0-0.3-0.1-0.2-0.3c0.3-0.5,0.5-1,0.7-1.6c0.4-0.9,0.8-1.8,1.2-2.7c0.1-0.1,0.1-0.3,0.3-0.3
		c0.2,0,0.2,0.2,0.2,0.3c0.4,0.8,0.7,1.7,1.1,2.5l0,0v0c0.1-0.1,0.2-0.2,0.3-0.3c0.1-0.1,0.2-0.2,0.3-0.3c0.2-0.2,0.4-0.4,0.7-0.4
		c0-0.4,0-0.9,0-1.3c0-0.2,0.1-0.3,0.3-0.3c0.3,0,0.7,0,1,0c0.3,0,0.7,0,1,0.1c0.1-0.1,0.2-0.3,0.3-0.4c0.1-0.1,0.1-0.1,0.2-0.2
		c0.1-0.1,0.1-0.1,0.2-0.2c0.1-0.1,0.1-0.1,0.2-0.2c0.1-0.1,0.1-0.2,0.1-0.3h0v0C112.9,18.8,112.2,18.8,111.5,18.8z"/>
	<path class="st63" d="M113.3,19.2c-0.1,0.1-0.1,0.1-0.2,0.2C113.1,19.3,113.2,19.3,113.3,19.2z"/>
	<path class="st63" d="M98,25.7c2.6,0,5.2,0,7.8,0C103.2,25.7,100.6,25.7,98,25.7L98,25.7z"/>
	<path class="st63" d="M109.5,22c-0.1,0.1-0.2,0.2-0.3,0.3C109.3,22.2,109.4,22.1,109.5,22z"/>
	<path class="st63" d="M113.4,19c0.1-0.1,0.1-0.2,0.1-0.3h0C113.5,18.9,113.5,19,113.4,19z"/>
	<path class="st63" d="M109,22.6c0.1-0.1,0.2-0.2,0.3-0.3C109.2,22.4,109.1,22.5,109,22.6L109,22.6z"/>
	<path class="st64" d="M90.2,25.2c0.1-0.1,0.2-0.2,0.3-0.3c0,0,0-0.1,0-0.2c0,0,0-0.1,0-0.1c-0.1,0-0.3,0-0.4,0.1
		c-0.3,0-0.5,0-0.8,0c-0.1,0-0.3,0-0.4,0c-1-0.1-1.9-1.2-1.9-1.9c-0.1-1.1,0.2-1.9,0.9-2.4c0.3-0.2,0.7-0.4,1.2-0.5
		c0.1,0,0.2,0,0.3-0.1c0.3,0,0.6,0,0.8,0.1c1.8,0.5,2.3,1.5,1.9,3.4c0.2-0.1,0.3-0.2,0.5-0.3c0.1-0.1,0.1-0.1,0.2-0.1
		c0.1,0,0.1,0.1,0.1,0.2c0,0.4,0,0.9,0,1.3c0,0.3,0.1,0.5,0.3,0.4c0.1,0,0.2-0.1,0.3-0.1c0,0-0.1,0-0.1,0c-0.3,0.1-0.4,0-0.4-0.4
		c0-1.3,0-2.6,0-3.9c0-0.1-0.1-0.3,0.1-0.4c0.2,0,0.3,0.1,0.4,0.2c0.4,0.5,0.8,0.9,1.3,1.3c0.7-0.4,1-1.3,1.8-1.6l0,0l0,0
		c0,0,0-0.1,0-0.1c0,0,0,0,0,0c0-0.1,0-0.1,0.1-0.2c0.1-0.1,0.2-0.2,0.3-0.3c0.1-0.2,0.4-0.3,0.3-0.6c-2.8,0-5.7,0-8.5,0
		c-0.2,0.3-0.4,0.5-0.6,0.8c-0.2,0.2-0.5,0.4-0.8,0.6c0,0.1,0,0.2-0.1,0.2s-0.1,0.1-0.2,0.1c-0.2,0.4-0.6,0.7-0.9,1
		c-0.2,0.2-0.2,0.3-0.2,0.6c0,0.8,0,1.5,0,2.3c0,0.2,0.1,0.3-0.1,0.5c-0.6,0-0.6,0-0.6-0.6c0-0.5,0-1,0-1.5c-0.1,0-0.2,0.1-0.3,0.2
		c-0.9,0.9-1.8,1.8-2.7,2.7c-0.1,0.1-0.1,0.2-0.1,0.3c0.4,0,0.8,0,1.1,0c0.8,0,1.5,0,2.3,0c1.5,0,3,0,4.5,0
		C89.8,25.5,90,25.4,90.2,25.2z"/>
	<path class="st64" d="M81.9,25.7c0.4,0,0.8,0,1.1,0C82.6,25.7,82.3,25.7,81.9,25.7C81.9,25.7,81.9,25.7,81.9,25.7z"/>
	<path class="st64" d="M97.1,18.8c-2.8,0-5.7,0-8.5,0c0,0,0,0,0,0l0,0C91.4,18.8,94.3,18.8,97.1,18.8z"/>
	<path class="st65" d="M98,25.7c0-0.1,0-0.2,0-0.2c0.5-0.3,0.9-0.9,1.3-1.3c0.1-0.1,0.2,0,0.2,0.1c0.3-1.3,0.4-2.7,0.6-4
		c0-0.1-0.1-0.3,0.2-0.3c0.2,0,0.2,0.2,0.3,0.3c0.5,0.9,1,1.8,1.5,2.8c0.1,0.1,0.1,0.3,0.3,0.4c0.6-1.2,1.3-2.3,1.9-3.4
		c0-0.3,0.2-0.5,0.4-0.6c0.1-0.1,0.2-0.1,0.3-0.2c0,0,0.1-0.1,0.1-0.1c0,0,0,0,0-0.1c0,0,0,0,0-0.1c0,0,0,0,0-0.1h0v0
		c-1.7,0-3.5,0-5.2,0c-0.1,0.4-0.5,0.5-0.7,0.8c-0.7,0.7-1.4,1.4-2.1,2c0,0-0.1,0-0.2,0.1c0,0.8,0,1.6,0,2.4c0,0.1,0,0.2,0,0.3
		c0,0,0,0.1-0.1,0.1c0,0,0,0,0,0c0,0,0,0.1,0,0.1c0,0,0,0,0,0v0c-0.1,0.1-0.1,0.1-0.2,0.1c0,0,0,0-0.1-0.1c-0.3-0.3-0.6-0.6-0.9-1
		c-0.2,0-0.3,0.1-0.4,0.3c-0.4,0.4-0.9,0.9-1.3,1.3c-0.1,0.1-0.1,0.1-0.2,0.2c0,0.1-0.1,0.1-0.1,0.2c0,0,0,0,0,0.1
		c0.7,0,1.4,0,2.1,0C96.6,25.7,97.3,25.7,98,25.7L98,25.7z"/>
	<path class="st65" d="M98,25.7c-0.7,0-1.4,0-2.1,0C96.6,25.7,97.3,25.7,98,25.7L98,25.7L98,25.7z"/>
	<path class="st65" d="M105.2,18.9C105.2,18.9,105.1,19,105.2,18.9C105.1,19,105.2,18.9,105.2,18.9z"/>
	<path class="st65" d="M105.2,18.8C105.2,18.8,105.2,18.8,105.2,18.8L105.2,18.8C105.2,18.8,105.2,18.8,105.2,18.8z"/>
	<path class="st62" d="M93.8,25.7c0-0.1,0-0.1,0.1-0.2c0-0.1,0.1-0.1,0.2-0.2c0.4-0.4,0.9-0.9,1.3-1.3c0.1-0.1,0.2-0.3,0.4-0.3
		C95,22.8,94.2,22,93.4,21c0,1.3,0,2.4,0,3.6c0,0,0,0,0,0c0,0,0,0,0,0c-0.1,0.1-0.2,0.1-0.3,0.1c-0.2,0.1-0.3-0.1-0.3-0.4
		c0-0.4,0-0.9,0-1.3c0-0.1,0-0.2-0.1-0.2c-0.1,0-0.2,0-0.2,0.1c-0.1,0.1-0.3,0.3-0.5,0.3c-0.3,0.7-0.8,1.1-1.5,1.4c0,0,0,0.1,0,0.1
		c0,0.1,0,0.1,0,0.2c-0.1,0.1-0.2,0.2-0.3,0.3c-0.2,0.2-0.4,0.3-0.4,0.5C91.1,25.7,92.4,25.7,93.8,25.7
		C93.8,25.7,93.8,25.7,93.8,25.7z"/>
	<path class="st62" d="M93.4,24.6C93.4,24.6,93.4,24.6,93.4,24.6c-0.1,0.1-0.2,0.1-0.3,0.1C93.2,24.7,93.3,24.7,93.4,24.6z"/>
	<path class="st62" d="M93.8,25.7c0-0.1,0-0.1,0.1-0.2C93.8,25.5,93.8,25.6,93.8,25.7z"/>
	<path class="st61" d="M111.5,19.9c-0.3,0-0.7,0-1,0c-0.3,0-0.3,0.1-0.3,0.3c0,0.4,0,0.9,0,1.3c0,0.9,0,1.8,0,2.7
		c0,0.3,0.1,0.4,0.4,0.4c0.3,0,0.4-0.1,0.4-0.4c0-0.5,0-1,0-1.4c0-0.1-0.1-0.3,0.1-0.4c0.1,0,0.2,0.1,0.3,0.2c0.4,0.5,0.9,1,1.3,1.6
		c0.3,0.5,0.7,0.4,1.2,0.3c-0.6-0.8-1.2-1.5-1.8-2.2c0.7-0.2,1.3-0.5,1.3-1.3c0-0.4-0.2-0.7-0.4-0.9c-0.1-0.1-0.2-0.1-0.3-0.2
		C112.2,20,111.9,19.9,111.5,19.9z M111.9,22c-0.8,0.3-1,0.2-1-0.9c0,0,0,0,0,0c0.1-0.2-0.3-0.7,0.3-0.8c0.8-0.1,1.2,0.1,1.4,0.6
		C112.7,21.3,112.4,21.8,111.9,22z"/>
	<path class="st61" d="M112.8,20.2c-0.1-0.1-0.2-0.1-0.3-0.2h0l0,0C112.6,20.1,112.7,20.1,112.8,20.2z"/>
	<path class="st61" d="M112.5,20L112.5,20c-0.3,0-0.7-0.1-1-0.1C111.9,19.9,112.2,20,112.5,20z"/>
	<path class="st56" d="M120,24.6c0-1.1,0-2.3,0-3.5c0.1,0.1,0.2,0.2,0.2,0.2c0.9,1,1.9,2.1,2.8,3.1c0.1,0.1,0.2,0.3,0.4,0.2
		c0.2-0.1,0.1-0.3,0.1-0.4c0-1.3,0-2.6,0-3.9c0-0.2,0.1-0.4-0.2-0.4c-0.3,0-0.2,0.2-0.2,0.4c0,0.7,0,1.4,0,2c0,0.3,0.1,0.6-0.1,1
		c-1-1.1-1.9-2.1-2.8-3.1c0,0-0.1,0-0.1-0.1c-0.1-0.1-0.2-0.3-0.5-0.2c-0.2,0.1-0.1,0.3-0.1,0.4c0,1.3,0,2.5,0,3.8
		c0,0.2,0,0.3,0.1,0.4C119.6,24.7,119.8,24.7,120,24.6z"/>
	<path class="st61" d="M107.9,20.1c0-0.1-0.1-0.3-0.2-0.3c-0.2,0-0.2,0.2-0.3,0.3c-0.4,0.9-0.8,1.8-1.2,2.7c-0.2,0.5-0.5,1-0.7,1.6
		c-0.1,0.2,0,0.3,0.2,0.3c0.4,0,0.4-0.2,0.5-0.5c0.5-1.4,0.5-1.4,1.8-1.4c0.4,0,0.5,0.1,0.5,0.5c0.1,0.3,0.2,0.5,0.3,0.8
		c0.3,0.7,0.3,0.7,1,0.6c-0.3-0.7-0.5-1.3-0.8-2C108.6,21.8,108.2,21,107.9,20.1z M107.1,22.5c-0.2,0-0.2-0.1-0.1-0.2
		c0.2-0.4,0.4-0.8,0.6-1.3c0.2,0.6,0.4,1,0.7,1.6C107.8,22.5,107.4,22.5,107.1,22.5z"/>
	<path class="st60" d="M115.8,21.5c0-1.1,0-1.1,1.1-1.1c0.1,0,0.3,0.1,0.3-0.2c0-0.2,0-0.3-0.3-0.3c-1,0-2.1,0-3.1,0
		c-0.2,0-0.3,0.1-0.3,0.3c0,0.2,0.1,0.2,0.3,0.2c0.3,0,0.6,0,0.8-0.1c0.3,0,0.4,0.1,0.4,0.4c0,1.2,0,2.4,0,3.6
		c0,0.3,0.1,0.4,0.4,0.4c0.1,0,0.2,0,0.3,0C115.9,23.6,115.8,22.6,115.8,21.5z"/>
	<path class="st61" d="M118.5,20.3c0-0.3-0.1-0.4-0.4-0.4c-0.3,0-0.3,0.2-0.3,0.4c0,1.3,0,2.5,0,3.8c0,0.6,0,0.6,0.7,0.5
		c0-1,0-1.9,0-2.9C118.5,21.3,118.5,20.8,118.5,20.3z"/>
	<path class="st66" d="M76.9,25.7c0-0.1,0-0.2,0.1-0.3c0,0,0-0.1,0.1-0.1c0.7-0.5,1.2-1.2,1.8-1.9c-0.1-0.5-0.3-0.7-0.9-0.7
		c-1,0-1,0-1.4,1c-0.1,0.2-0.2,0.4-0.2,0.6c-0.1,0.4-0.4,0.3-0.6,0.2c-0.2-0.1,0-0.3,0-0.4c0.6-1.4,1.2-2.7,1.8-4.1
		c0.1-0.1,0.1-0.4,0.3-0.4c0.2,0,0.2,0.2,0.3,0.4c0.4,0.9,0.8,1.7,1.2,2.6c0.2-0.1,0.5-0.3,0.7-0.5c0.2-0.1,0.3-0.3,0.4-0.5
		c0-0.1,0.1-0.1,0.1-0.2c-0.1-0.5,0-0.8,0.1-1.1c0.1-0.2,0.3-0.4,0.5-0.5c0.3-0.2,0.7-0.2,1.2-0.1c0.1,0,0.2,0,0.3,0
		c0.2-0.4,0.7-0.6,0.9-1.1l0,0c-1.5,0-3.1,0-4.6,0c-1.2,0-2.5,0-3.7,0c-0.3,0-0.4,0-0.4,0.4c0,2.1,0,4.2,0,6.3
		c0,0.2,0.1,0.3,0.3,0.3C75.7,25.7,76.3,25.7,76.9,25.7z"/>
	<path class="st66" d="M83.5,18.8C83.5,18.8,83.5,18.8,83.5,18.8c-1.5,0-3.1,0-4.6,0C80.5,18.8,82,18.8,83.5,18.8L83.5,18.8z"/>
	<path class="st67" d="M81.9,25.7c0-0.1,0.1-0.2,0.1-0.3c0.9-0.9,1.8-1.8,2.7-2.7c0.1-0.1,0.2-0.2,0.3-0.2c0-0.6,0-1.3,0-1.9
		c0-0.3-0.1-0.3-0.4-0.3c-0.3,0-0.6,0-0.9,0.1c-0.2,0-0.3,0-0.3-0.2c0-0.2,0-0.3,0.2-0.3c1,0,2.1,0,3.1,0c0.2,0,0.3,0,0.3,0.2v0
		c0.3-0.2,0.5-0.4,0.8-0.6c0.2-0.2,0.4-0.5,0.6-0.8c-0.2,0-0.4,0-0.6,0c-1.5,0-3,0-4.5,0c-0.1,0.5-0.6,0.7-0.9,1.1
		c0.1,0.1,0.3,0.1,0.4,0.3c0.1,0.2,0,0.5-0.1,0.6c-0.2,0.2-0.2-0.1-0.3-0.2c-0.3-0.3-0.6-0.3-0.9-0.3c-0.3,0.1-0.5,0.3-0.5,0.6
		c0,0.3,0.1,0.6,0.4,0.8c0.3,0.1,0.6,0.3,0.8,0.4c0.5,0.2,0.9,0.5,0.9,1.1c0,0.6-0.3,1.1-0.8,1.4c-0.5,0.3-1,0.3-1.6,0.1
		c-0.5-0.2-0.6-0.4-0.3-1c0.2,0.1,0.2,0.3,0.4,0.4c0.3,0.3,0.7,0.4,1.2,0.2c0.4-0.2,0.5-0.5,0.5-0.9c0-0.4-0.4-0.6-0.7-0.8
		c-0.5-0.2-1-0.4-1.3-0.9c0,0.1-0.1,0.1-0.1,0.2c-0.1,0.2-0.2,0.3-0.4,0.5c-0.2,0.2-0.4,0.3-0.7,0.5c0.2,0.6,0.5,1.1,0.7,1.7
		c-0.8,0.2-0.8,0.1-1-0.5c-0.1-0.2-0.1-0.3-0.2-0.5c-0.6,0.6-1.1,1.4-1.8,1.9c0,0-0.1,0-0.1,0.1c-0.1,0.1-0.1,0.2-0.1,0.3
		C78.6,25.7,80.2,25.7,81.9,25.7L81.9,25.7z"/>
	<path class="st67" d="M81.9,25.7c-1.6,0-3.3,0-4.9,0C78.6,25.7,80.2,25.7,81.9,25.7C81.9,25.7,81.9,25.7,81.9,25.7L81.9,25.7z"/>
	<path class="st67" d="M88,18.8c-1.5,0-3,0-4.5,0c0,0,0,0,0,0C85,18.8,86.5,18.8,88,18.8z"/>
	<path class="st67" d="M87.2,20.2L87.2,20.2c0.3-0.2,0.5-0.4,0.8-0.6C87.7,19.8,87.5,20,87.2,20.2L87.2,20.2z"/>
	<path class="st67" d="M88,19.6c0.2-0.2,0.4-0.5,0.6-0.8l0,0C88.4,19.1,88.2,19.3,88,19.6z"/>
	<path class="st67" d="M80.5,21.9c0-0.1,0.1-0.1,0.1-0.2l0,0C80.6,21.8,80.5,21.8,80.5,21.9z"/>
	<path class="st62" d="M96.8,19.3c-0.1,0.1-0.2,0.2-0.3,0.3c0,0,0,0.1-0.1,0.2c0,0,0,0,0,0c0,0,0,0.1,0,0.1l0,0
		c0.2,0,0.3-0.1,0.5,0.1c0,0,0,0,0,0c0,0,0,0,0,0c0,0,0,0,0,0c0,0,0,0,0,0.1c0,0,0,0,0,0.1c0.1,0.2,0.1,0.4,0.1,0.6
		c0,0.1,0,0.1,0,0.2c0,0.3,0,0.5,0,0.8c0.1,0,0.1,0,0.2-0.1c0.7-0.7,1.5-1.3,2.1-2c0.2-0.3,0.6-0.4,0.7-0.8c-1,0-1.9,0-2.9,0
		C97.1,19,96.9,19.2,96.8,19.3z"/>
	<path class="st62" d="M96.5,19.9L96.5,19.9C96.5,19.9,96.5,19.8,96.5,19.9C96.5,19.8,96.5,19.9,96.5,19.9z"/>
	<path class="st62" d="M96.5,19.8c0-0.1,0-0.1,0.1-0.2C96.5,19.7,96.5,19.7,96.5,19.8z"/>
	<path class="st56" d="M102.2,23c-0.5-0.9-1-1.8-1.5-2.8c-0.1-0.1-0.1-0.3-0.3-0.3c-0.2,0-0.1,0.2-0.2,0.3c-0.2,1.3-0.3,2.7-0.6,4
		c-0.1,0.6,0.3,0.4,0.6,0.3c0-0.1,0-0.2,0.1-0.3c0-0.1,0-0.1,0-0.2c0-0.2,0-0.4,0.1-0.5c0,0,0-0.1,0-0.1c0-0.1,0-0.2,0.1-0.3
		c0,0,0,0,0,0l0,0c0-0.5,0.1-1.1,0.2-1.7c0.3,0.5,0.5,0.9,0.7,1.3c0.3,0.5,0.5,1,0.8,1.6c0.1,0.1,0.1,0.4,0.3,0.3
		c0.2,0,0.2-0.2,0.2-0.4c0.5-1,1-1.9,1.5-2.9c0,0.1,0,0.2,0,0.3c0.1,0.9,0.2,1.8,0.3,2.7c0,0.4,0.3,0.3,0.5,0.3
		c0.3,0,0.2-0.2,0.2-0.4c-0.1-1.3-0.3-2.6-0.5-3.9c0-0.2,0.1-0.4-0.2-0.5c-0.6,1.1-1.3,2.3-1.9,3.4C102.3,23.3,102.2,23.1,102.2,23z
		"/>
	<path class="st56" d="M100.2,24.1c0-0.2,0-0.4,0.1-0.5C100.3,23.7,100.2,23.9,100.2,24.1z"/>
	<path class="st65" d="M100.3,23c0.3,0,0.5-0.4,0.9-0.4c-0.2-0.4-0.4-0.8-0.7-1.3C100.4,22,100.4,22.5,100.3,23z"/>
	<path class="st65" d="M100.3,23.4C100.3,23.4,100.3,23.4,100.3,23.4c0.1-0.1,0.1-0.1,0.1-0.2c0-0.1,0-0.1,0-0.2
		C100.3,23.2,100.3,23.3,100.3,23.4z"/>
	<path class="st65" d="M100.4,23.3C100.4,23.3,100.4,23.3,100.4,23.3C100.4,23.3,100.4,23.3,100.4,23.3z"/>
	<path class="st65" d="M100.2,24.6C100.2,24.6,100.2,24.6,100.2,24.6c0.1-0.1,0.1-0.1,0.1-0.2c0-0.1,0-0.1,0-0.2
		C100.2,24.4,100.2,24.5,100.2,24.6z"/>
	<path class="st65" d="M100.3,24.5C100.3,24.5,100.3,24.5,100.3,24.5C100.3,24.5,100.3,24.5,100.3,24.5z"/>
	<path class="st56" d="M90.1,19.9c-0.4,0-0.7,0-1.1,0c-0.5,0.1-0.9,0.3-1.2,0.5c-0.7,0.5-0.9,1.3-0.9,2.4c0.1,0.8,1,1.9,1.9,1.9
		c0.1,0,0.3,0,0.4,0c0.3,0,0.5,0,0.8,0c0.1,0,0.3,0,0.4-0.1l0,0h0c0.7-0.3,1.2-0.7,1.5-1.4C92.4,21.4,91.9,20.4,90.1,19.9z M91,23.6
		c0,0.1-0.1,0.1-0.1,0.2c-0.7,0.9-2.1,0.8-2.8-0.1c-0.5-0.8-0.5-2.2,0.1-2.9c0.5-0.6,1.3-0.8,2-0.6c0.1,0,0.2,0.1,0.3,0.1
		c0.2,0.1,0.3,0.2,0.4,0.3c0,0,0,0,0,0c0.3,0.4,0.5,0.9,0.5,1.5C91.4,22.8,91.3,23.2,91,23.6z"/>
	<path class="st56" d="M90.1,24.7c0.1,0,0.3,0,0.4-0.1l0,0C90.4,24.7,90.3,24.7,90.1,24.7z"/>
	<path class="st56" d="M89,19.9c-0.5,0.1-0.9,0.3-1.2,0.5C88.2,20.2,88.6,20,89,19.9L89,19.9z"/>
	<path class="st56" d="M90.1,24.7c-0.3,0-0.5,0-0.8,0C89.6,24.7,89.9,24.7,90.1,24.7z"/>
	<path class="st56" d="M97,20.1C97,20.1,96.9,20,97,20.1c0-0.1,0-0.1,0-0.1c-0.2,0-0.3,0-0.5,0c0,1.1,0,2.2,0,3.4
		c-0.7-0.6-1.2-1.3-1.8-1.9c-0.4-0.4-0.9-0.9-1.3-1.3C93.3,20,93.2,19.9,93,20c-0.2,0.1-0.1,0.3-0.1,0.4c0,1.3,0,2.6,0,3.9
		c0,0.4,0.1,0.5,0.4,0.4c0,0,0.1,0,0.1,0c0-1.2,0-2.3,0-3.6c0.8,1,1.6,1.8,2.4,2.7c0.3,0.3,0.6,0.6,0.9,1c0.1,0,0.2,0,0.3,0
		c0,0,0-0.1,0-0.1c0,0,0,0,0,0C97,23,97,21.6,97,20.1z"/>
	<path class="st56" d="M96.9,24.6C96.9,24.6,96.9,24.6,96.9,24.6C96.9,24.6,96.9,24.6,96.9,24.6L96.9,24.6z"/>
	<path class="st56" d="M97,20.1C97,20.1,96.9,20,97,20.1C96.9,20,97,20.1,97,20.1C97,20.1,97,20.1,97,20.1z"/>
	<polygon class="st56" points="96.9,20 96.9,20 96.9,20 	"/>
	<path class="st60" d="M86.9,19.9c-1,0-2.1,0-3.1,0c-0.2,0-0.2,0.1-0.2,0.3c0,0.2,0.1,0.2,0.3,0.2c0.3,0,0.6,0,0.9-0.1
		c0.2,0,0.4,0,0.4,0.3c0,0.6,0,1.3,0,1.9c0,0.5,0,1,0,1.5c0,0.6,0,0.6,0.6,0.6c0.1-0.6,0-1.3,0.1-1.9c0-0.7,0-1.4,0-2.1
		c0-0.3,0.1-0.4,0.4-0.4c0.3,0,0.5,0.1,0.8,0.1c0.1,0,0.2,0,0.2-0.1s0.1-0.1,0.1-0.2C87.2,20,87.1,19.9,86.9,19.9z"/>
	<path class="st60" d="M87.1,20.4c0-0.1,0.1-0.1,0.1-0.2l0,0C87.2,20.3,87.2,20.3,87.1,20.4z"/>
	<path class="st62" d="M96.5,23.4c0-1.2,0-2.3,0-3.4c0,0,0-0.1,0-0.1c0,0,0,0,0,0c-0.8,0.3-1.1,1.2-1.8,1.6
		C95.2,22.1,95.8,22.7,96.5,23.4z"/>
	<path class="st67" d="M85.7,20.7c0,0.7,0,1.4,0,2.1c0,0.6,0.1,1.3-0.1,1.9c0.2-0.1,0.1-0.3,0.1-0.5c0-0.8,0-1.5,0-2.3
		c0-0.2,0.1-0.4,0.2-0.6c0.3-0.3,0.7-0.5,0.9-1c-0.3,0-0.5-0.1-0.8-0.1C85.8,20.3,85.7,20.4,85.7,20.7z"/>
	<path class="st67" d="M89,19.9c0.4,0,0.7,0,1.1,0c-0.3-0.1-0.6-0.1-0.8-0.1C89.2,19.8,89.1,19.8,89,19.9L89,19.9z"/>
	<path class="st67" d="M89,19.9c0.1,0,0.2,0,0.3-0.1C89.2,19.8,89.1,19.8,89,19.9L89,19.9L89,19.9z"/>
	<path class="st66" d="M97,20.9c0-0.1,0-0.1,0-0.2c0-0.2,0-0.4-0.1-0.6l0,0c0,1.5,0,3,0,4.4c0,0,0-0.1,0.1-0.1c0-0.1,0-0.2,0-0.3
		c0-0.8,0-1.6,0-2.4C97,21.4,97,21.1,97,20.9z"/>
	<path class="st66" d="M97,20.1c0.1,0.2,0.1,0.4,0.1,0.6C97,20.5,97,20.3,97,20.1C97,20.1,97,20.1,97,20.1L97,20.1z"/>
	<path class="st66" d="M96.7,24.7C96.7,24.7,96.7,24.7,96.7,24.7c0.1,0.1,0.2,0.1,0.3,0c0,0,0,0,0,0C96.8,24.7,96.7,24.7,96.7,24.7z
		"/>
	<polygon class="st66" points="96.9,24.6 96.9,24.6 96.9,24.6 	"/>
	<path class="st63" d="M111.2,20.3c-0.5,0.1-0.1,0.5-0.3,0.8c0,0,0,0,0,0c0,1,0.2,1.2,1,0.9c0.5-0.2,0.7-0.6,0.6-1.1
		C112.4,20.4,112,20.2,111.2,20.3z"/>
	<path class="st65" d="M106.9,22.3c-0.1,0.2,0,0.2,0.1,0.2c0.3,0,0.7,0,1.1,0c-0.2-0.5-0.4-1-0.7-1.6
		C107.3,21.4,107.1,21.8,106.9,22.3z"/>
	<path class="st56" d="M78,19.9c-0.2,0-0.2,0.2-0.3,0.4c-0.6,1.4-1.2,2.7-1.8,4.1c-0.1,0.1-0.2,0.3,0,0.4c0.2,0.1,0.5,0.1,0.6-0.2
		c0-0.2,0.1-0.4,0.2-0.6c0.4-1,0.4-0.9,1.4-1c0.5,0,0.8,0.2,0.9,0.7c0.1,0.2,0.2,0.3,0.2,0.5c0.2,0.7,0.3,0.7,1,0.5
		c-0.2-0.6-0.5-1.1-0.7-1.7c-0.4-0.9-0.8-1.7-1.2-2.6C78.2,20.1,78.2,19.9,78,19.9z M77.5,22.5c-0.2,0-0.3-0.1-0.2-0.3
		c0.2-0.4,0.3-0.8,0.6-1.3c0.2,0.5,0.4,1,0.7,1.5C78.1,22.5,77.8,22.5,77.5,22.5z"/>
	<path class="st56" d="M81.2,20c-0.2,0.1-0.4,0.3-0.5,0.5c-0.1,0.3-0.2,0.7-0.1,1.1c0,0,0,0,0,0c0.3,0.5,0.8,0.7,1.3,0.9
		c0.4,0.1,0.7,0.3,0.7,0.8c0,0.4-0.1,0.7-0.5,0.9c-0.4,0.2-0.8,0.1-1.2-0.2c-0.1-0.1-0.2-0.3-0.4-0.4c-0.3,0.6-0.3,0.8,0.3,1
		c0.5,0.2,1.1,0.2,1.6-0.1c0.6-0.3,0.8-0.8,0.8-1.4c0-0.6-0.4-0.9-0.9-1.1c-0.3-0.1-0.6-0.2-0.8-0.4c-0.3-0.2-0.5-0.4-0.4-0.8
		c0-0.3,0.2-0.5,0.5-0.6c0.3-0.1,0.6,0,0.9,0.3c0.1,0.1,0.1,0.4,0.3,0.2c0.1-0.1,0.3-0.4,0.1-0.6C83,20,82.8,20,82.7,19.9
		c-0.1,0-0.2,0-0.3,0C81.9,19.8,81.5,19.9,81.2,20z"/>
	<path class="st56" d="M80.7,20.6c-0.1,0.3-0.2,0.7-0.1,1.1l0,0c0,0,0,0,0,0C80.5,21.2,80.6,20.9,80.7,20.6z"/>
	<path class="st66" d="M96.9,20c-0.1-0.1-0.3-0.1-0.5-0.1c0,0,0,0.1,0,0.1C96.6,20,96.8,20,96.9,20z"/>
	<path class="st66" d="M96.9,20L96.9,20C96.9,20,96.9,20,96.9,20c-0.2,0-0.3,0-0.5,0C96.6,20,96.8,20,96.9,20z"/>
	<path class="st64" d="M90.9,20.7C90.9,20.7,90.9,20.7,90.9,20.7c-0.1-0.1-0.3-0.3-0.5-0.4c-0.1,0-0.2-0.1-0.3-0.1
		c-0.7-0.3-1.5,0-2,0.6c-0.6,0.7-0.6,2.1-0.1,2.9c0.6,0.9,2.1,1,2.8,0.1c0-0.1,0.1-0.1,0.1-0.2c0.3-0.4,0.4-0.9,0.4-1.4
		C91.4,21.6,91.2,21.1,90.9,20.7z"/>
	<path class="st64" d="M90.9,20.7c0.3,0.4,0.5,0.9,0.5,1.5c0,0.5-0.1,1-0.4,1.4c0.3-0.4,0.4-0.9,0.4-1.4
		C91.4,21.6,91.2,21.1,90.9,20.7z"/>
	<path class="st64" d="M90.5,20.4c0.2,0.1,0.3,0.2,0.4,0.3C90.8,20.6,90.6,20.5,90.5,20.4z"/>
	<path class="st66" d="M77.3,22.2c-0.1,0.2,0,0.3,0.2,0.3c0.3,0,0.6,0,1,0c-0.2-0.5-0.4-1-0.7-1.5C77.6,21.4,77.5,21.8,77.3,22.2z"
		/>
</g>
</svg>
