<?xml version="1.0" encoding="utf-8"?>
<!-- Generator: Adobe Illustrator 22.1.0, SVG Export Plug-In . SVG Version: 6.00 Build 0)  -->
<svg version="1.1" id="Layer_1" xmlns="http://www.w3.org/2000/svg" xmlns:xlink="http://www.w3.org/1999/xlink" x="0px" y="0px"
	 viewBox="0 0 200 200" style="enable-background:new 0 0 200 200;" xml:space="preserve">
<style type="text/css">
	.st0{fill:none;}
	.st1{fill:#ED1F24;}
	.st2{fill:#FFFFFF;}
	.st3{fill:#00DBFF;}
	.st4{fill-rule:evenodd;clip-rule:evenodd;}
	.st5{fill-rule:evenodd;clip-rule:evenodd;fill:#FFFFFF;}
	.st6{fill:#475E29;}
	.st7{fill:#0E0D0F;}
	.st8{fill:#0F0E10;}
	.st9{fill:#3660B0;}
	.st10{fill:#3567B4;}
	.st11{fill:#356BB7;}
	.st12{fill:#2B99D9;}
	.st13{fill:#375BAD;}
	.st14{fill:#70AA43;}
	.st15{fill:#394EA6;}
	.st16{fill:#3372BC;}
	.st17{fill:#3756AA;}
	.st18{fill:#2C93D4;}
	.st19{fill:#3853A8;}
	.st20{fill:#6BA443;}
	.st21{fill:#7AB444;}
	.st22{fill:#2E8DD0;}
	.st23{fill:#7EB845;}
	.st24{fill:#75AF44;}
	.st25{fill:#3278C1;}
	.st26{fill:#2F86CB;}
	.st27{fill:#4EB9A8;}
	.st28{fill:#82BD46;}
	.st29{fill:#3082C8;}
	.st30{fill:#317DC4;}
	.st31{fill:#54BDAC;}
	.st32{fill:#2CA1DF;}
	.st33{fill:#368E86;}
	.st34{fill:#2D7E7A;}
	.st35{fill:#31857F;}
	.st36{fill:#3A968D;}
	.st37{fill:#639D41;}
	.st38{fill:#57933F;}
	.st39{fill:#5D9840;}
	.st40{fill:#45AA9C;}
	.st41{fill:#4C8A3D;}
	.st42{fill:#3E9D92;}
	.st43{fill:#3C7C3A;}
	.st44{fill:#46853C;}
	.st45{fill:#518E3E;}
	.st46{fill:#41803B;}
	.st47{fill:#236737;}
	.st48{fill:#41A397;}
	.st49{fill:#4AB2A3;}
	.st50{fill:#36773A;}
	.st51{fill:#307238;}
	.st52{fill:#2A6C38;}
	.st53{fill:#29A4E1;}
	.st54{fill:#070707;}
	.st55{fill:#050505;}
	.st56{fill:#030303;}
	.st57{fill:#FEFEFE;}
	.st58{fill:#F9F9F9;}
	.st59{fill:#FBFBFB;}
	.st60{fill:#0D5B3C;}
	.st61{fill:#045033;}
	.st62{fill:#FCFCFC;}
	.st63{fill:#F3F5F3;}
	.st64{fill:#237851;}
	.st65{fill:#166D48;}
	.st66{fill:#29875B;}
	.st67{fill:#1C754E;}
	.st68{fill:#339866;}
	.st69{fill:#319263;}
	.st70{fill:#F9E803;}
	.st71{fill:#D93339;}
	.st72{fill:#9B9B9B;}
</style>
<path class="st3" d="M100,150.1c-16.5,0-33,0-49.5,0c-0.4,0-0.4-0.1-0.4-0.4c0-33,0-66.1,0-99.1c0-0.4,0.1-0.4,0.4-0.4
	c33,0,66.1,0,99.1,0c0.4,0,0.4,0.1,0.4,0.4c0,33,0,66.1,0,99.1c0,0.4-0.1,0.4-0.4,0.4C133.1,150.1,116.6,150.1,100,150.1z
	 M86.4,83.6c0.3,0,0.5,0,0.6,0c5.3,0,10.6,0,15.9,0c3.2,0,6.4,0,9.7,0c1.3,0,2,0.9,1.8,2.2c-0.2,1.1-1.3,2-2.4,2c-1.5,0-3.1,0-4.6,0
	c-9.5,0-19.1,0-28.6,0c-3.4,0-6.5,1-9.2,3c-1.2,0.8-2.2,1.8-3,3c0.2,0.1,0.3,0.1,0.5,0.1c14.6,0,29.2,0,43.8,0c0.7,0,1.3,0,1.9-0.2
	c3.7-0.9,6.2-3.1,7.5-6.7c0.8-2,0.8-4.1-0.3-6.1c-1.3-2.4-3.5-3.4-6.2-3.5c-4.8,0-9.7,0-14.5,0c-1.1,0-2.2,0.1-3.3,0.3
	C92,78.6,89,80.6,86.4,83.6z M83.9,98.1c1.7,3.7,5.4,6,9.7,6.1c8.8,0.1,17.6,0,26.4,0c0.7,0,1.5-0.1,2.2-0.2c3.6-0.7,6.6-2.4,9.1-5
	c0.3-0.3,0.5-0.5,0.8-0.9C115.9,98.1,99.9,98.1,83.9,98.1z M97.2,117.6c0.1,0.3,0.1,0.4,0.1,0.6c0,1.4,0,2.7,0,4.1
	c0,0.3,0.1,0.5,0.4,0.5c0.3,0,0.7,0,1,0c0.3,0,0.4-0.1,0.4-0.4c0-2.8,0-5.6,0-8.4c0-0.1,0-0.3-0.1-0.3c-0.3-0.2-1.2,0-1.4,0.3
	c-0.7,1-1.4,2-2.1,3c-0.4,0.5-0.6,0.5-0.9,0c-0.6-0.9-1.3-1.8-1.9-2.7c-0.3-0.5-0.7-0.6-1.2-0.6c-0.4,0-0.5,0.1-0.5,0.5
	c0,2.4,0,4.9,0,7.3c0,1.4,0,1.4,1.4,1.4c0.4,0,0.5-0.1,0.5-0.5c0-1.4,0-2.8,0-4.1c0-0.1-0.1-0.3,0.1-0.4c0.5,0.7,1,1.4,1.5,2.1
	c0.4,0.5,1,0.5,1.3,0C96.2,119,96.7,118.3,97.2,117.6z M89.4,122.7c-0.5-0.9-1-1.7-1.4-2.6c-0.2-0.3-0.2-0.6,0.1-0.9
	c0.5-0.6,0.9-1.2,1.3-1.9c0.2-0.2,0.2-0.4,0-0.7c-0.7-1-1.3-1.9-1.9-2.9c-0.1-0.2-0.3-0.3-0.6-0.3c-1.5,0-3,0-4.5,0
	c-0.3,0-0.4,0.1-0.4,0.4c0,2.8,0,5.6,0,8.4c0,0.3,0.1,0.4,0.4,0.4c0.4,0,0.7,0,1.1,0c0.3,0,0.4-0.1,0.4-0.4c0-0.5,0-1,0-1.6
	c0-0.4,0.1-0.5,0.5-0.4c0.4,0,0.7,0,1.1,0c0.3,0,0.5,0.1,0.7,0.4c0.3,0.6,0.6,1.1,0.9,1.7c0.1,0.2,0.2,0.3,0.4,0.3
	C88.1,122.7,88.7,122.7,89.4,122.7z M80,118.1C80,118.1,80,118.1,80,118.1c0-0.9,0-1.9,0-2.8c0-1.2-0.6-1.8-1.8-1.8c-1,0-2,0-3,0
	c-1.3,0-1.9,0.6-1.9,1.9c0,1.8,0,3.6,0,5.5c0,1.3,0.6,1.8,1.8,1.9c1,0,2,0,3.1,0c1.1,0,1.7-0.6,1.7-1.7C80,120,80,119.1,80,118.1z
	 M120.1,113.5c-0.1,0-0.3,0-0.4,0c-0.5-0.1-0.8,0.1-0.9,0.6c-0.3,0.8-0.6,1.6-0.9,2.4c-0.7,1.9-1.4,3.8-2.1,5.8
	c-0.1,0.3-0.1,0.4,0.3,0.4c0.3,0,0.5,0,0.8,0c0.8,0,0.8,0,1.1-0.7c0.1-0.2,0.2-0.3,0.4-0.3c1.1,0,2.2,0,3.3,0c0.2,0,0.3,0.1,0.4,0.3
	c0.3,0.8,0.3,0.8,1.2,0.8c0.2,0,0.3,0,0.5,0c0.6,0,0.6,0,0.4-0.5c-0.9-2.6-1.8-5.1-2.7-7.7C121,113.3,121.3,113.5,120.1,113.5z
	 M101.2,117.6c0,1.1,0,2.1,0,3.2c0,1.4,0.5,1.9,2,1.9c0.9,0,1.7,0,2.6,0c1.4,0,2-0.6,2-1.9c0-2,0-3.9,0-5.9c0-1.4,0-1.3-1.3-1.4
	c-0.4,0-0.6,0.1-0.6,0.5c0,2,0,4.1,0,6.1c0,0.5-0.2,0.7-0.6,0.6c-0.5,0-0.9,0-1.4,0c-0.6,0-0.7-0.1-0.7-0.7c0-0.1,0-0.3,0-0.4
	c0-1.9,0-3.8,0-5.7c0-0.4-0.1-0.5-0.5-0.5c-0.3,0-0.6,0-0.9,0c-0.4,0-0.5,0.1-0.5,0.5C101.2,115.2,101.2,116.4,101.2,117.6z
	 M128.1,118.1c0,1.4,0,2.7,0,4.1c0,0.5,0.2,0.6,0.6,0.6c1.3,0,2.7,0,4,0c1.4,0,1.4,0,1.4-1.4c0-0.3-0.1-0.4-0.5-0.4
	c-1.1,0-2.1,0-3.2,0c-0.4,0-0.5-0.1-0.5-0.5c0-0.4,0-0.7,0-1.1c0-0.3,0.1-0.4,0.4-0.4c0.4,0,0.9,0,1.3,0c1.4,0,1.3,0,1.8-1.3
	c0.1-0.4,0-0.5-0.4-0.5c-0.7,0-1.3,0-2,0c-1.2,0-1.2,0-1.2-1.2c0-0.3,0.1-0.5,0.5-0.4c0.8,0,1.5,0,2.3,0c0.4,0,1,0.2,1.3-0.1
	c0.3-0.3,0.1-0.9,0.1-1.3c0-0.4-0.1-0.4-0.5-0.4c-1.7,0-3.4,0-5.1,0c-0.4,0-0.5,0.1-0.5,0.5C128.1,115.3,128.1,116.7,128.1,118.1z
	 M66.1,118.1c0,1.1,0,2.1,0,3.2c0,0.4-0.2,1,0.1,1.3c0.3,0.3,0.9,0,1.3,0.1c0.4,0,0.5-0.1,0.5-0.5c0-0.6,0-1.3,0-1.9
	c0-1.3,0-1.3,1.3-1.3c1.4,0,1.4,0,1.8-1.3c0,0,0,0,0,0c0.1-0.2,0-0.4-0.2-0.4c-0.5,0-1,0-1.5,0c-1.4,0-1.4,0-1.4-1.4
	c0-0.4,0.1-0.5,0.5-0.5c1,0,2,0,2.9,0c0.3,0,0.4-0.1,0.4-0.4c0-0.3,0-0.7,0-1c0-0.3-0.1-0.5-0.4-0.5c-1.6,0-3.2,0-4.8,0
	c-0.4,0-0.5,0.1-0.5,0.5C66.1,115.3,66.1,116.7,66.1,118.1z M109.7,118.1c0,1.3,0,2.6,0,4c0,0.7,0,0.7,0.6,0.7c0.8,0,1.6,0,2.4,0
	c1.5,0,1.5,0,2-1.5c0.1-0.3,0.1-0.4-0.3-0.4c-0.8,0-1.6,0-2.4,0c-0.4,0-0.6-0.1-0.6-0.5c0-1.8,0-3.6,0-5.5c0-1.3,0-1.3-1.3-1.3
	c-0.4,0-0.6,0.1-0.6,0.6C109.7,115.4,109.7,116.7,109.7,118.1z M125.7,117c-0.3,0-0.6,0-0.9,0c-0.3,0-0.4,0.1-0.4,0.4
	c0,0.3,0,0.7,0,1c0,0.3,0.1,0.3,0.3,0.3c0.4,0,0.8,0,1.3,0c0.2,0,0.3,0,0.4-0.2c0.1-0.4,0.3-0.8,0.4-1.2c0.1-0.2,0-0.3-0.2-0.3
	C126.3,117,126,117,125.7,117z"/>
<g>
	<path class="st2" d="M86.4,83.6c2.6-3,5.6-5,9.4-5.8c1.1-0.2,2.2-0.3,3.3-0.3c4.8,0,9.7,0,14.5,0c2.7,0,4.8,1,6.2,3.5
		c1.1,2,1.1,4,0.3,6.1c-1.3,3.5-3.8,5.8-7.5,6.7c-0.6,0.2-1.3,0.2-1.9,0.2c-14.6,0-29.2,0-43.8,0c-0.2,0-0.3,0.1-0.5-0.1
		c0.9-1.2,1.9-2.2,3-3c2.7-2,5.8-3,9.2-3c9.5,0,19.1,0,28.6,0c1.5,0,3.1,0,4.6,0c1.2,0,2.2-0.9,2.4-2c0.3-1.2-0.5-2.2-1.8-2.2
		c-3.2,0-6.4,0-9.7,0c-5.3,0-10.6,0-15.9,0C86.9,83.6,86.7,83.6,86.4,83.6z"/>
	<path class="st2" d="M83.9,98.1c16,0,32,0,48.1,0c-0.3,0.3-0.5,0.6-0.8,0.9c-2.5,2.6-5.5,4.4-9.1,5c-0.7,0.1-1.4,0.2-2.2,0.2
		c-8.8,0-17.6,0-26.4,0C89.3,104.1,85.6,101.8,83.9,98.1z"/>
	<path class="st2" d="M97.2,117.6c-0.5,0.7-1,1.4-1.5,2.1c-0.4,0.5-1,0.5-1.3,0c-0.5-0.7-1-1.4-1.5-2.1c-0.2,0.1-0.1,0.3-0.1,0.4
		c0,1.4,0,2.8,0,4.1c0,0.4-0.1,0.5-0.5,0.5c-1.4,0-1.4,0-1.4-1.4c0-2.4,0-4.9,0-7.3c0-0.4,0.1-0.5,0.5-0.5c0.5,0,0.9,0.1,1.2,0.6
		c0.6,0.9,1.3,1.8,1.9,2.7c0.4,0.5,0.6,0.5,0.9,0c0.7-1,1.4-2,2.1-3c0.2-0.3,1.1-0.4,1.4-0.3c0.1,0.1,0.1,0.2,0.1,0.3
		c0,2.8,0,5.6,0,8.4c0,0.3-0.1,0.4-0.4,0.4c-0.3,0-0.7,0-1,0c-0.4,0-0.4-0.1-0.4-0.5c0-1.4,0-2.7,0-4.1
		C97.3,118,97.4,117.8,97.2,117.6z"/>
	<path class="st2" d="M89.4,122.7c-0.7,0-1.3,0-1.9,0c-0.2,0-0.3-0.1-0.4-0.3c-0.3-0.6-0.6-1.1-0.9-1.7c-0.1-0.3-0.3-0.4-0.7-0.4
		c-0.4,0-0.7,0-1.1,0c-0.3,0-0.5,0.1-0.5,0.4c0,0.5,0,1,0,1.6c0,0.3-0.1,0.4-0.4,0.4c-0.4,0-0.7,0-1.1,0c-0.3,0-0.4-0.1-0.4-0.4
		c0-2.8,0-5.6,0-8.4c0-0.3,0.1-0.4,0.4-0.4c1.5,0,3,0,4.5,0c0.3,0,0.4,0.1,0.6,0.3c0.6,1,1.3,2,1.9,2.9c0.2,0.2,0.1,0.4,0,0.7
		c-0.5,0.6-0.9,1.3-1.3,1.9c-0.2,0.3-0.2,0.6-0.1,0.9C88.4,120.9,88.9,121.8,89.4,122.7z M83.9,116.9c0,0.3,0,0.7,0,1
		c0,0.3,0.1,0.5,0.4,0.5c0.5,0,1,0,1.5,0c0.4,0,0.6-0.1,0.8-0.4c0.8-1.1,0.8-0.8,0-2c-0.1-0.1-0.1-0.2-0.2-0.3
		c-0.1-0.2-0.3-0.3-0.5-0.3c-0.6,0-1.2,0-1.8,0c-0.3,0-0.4,0.1-0.3,0.3C83.9,116.1,83.9,116.5,83.9,116.9z"/>
	<path class="st2" d="M80,118.1c0,1,0,1.9,0,2.9c0,1.1-0.6,1.7-1.7,1.7c-1,0-2,0-3.1,0c-1.3,0-1.8-0.6-1.8-1.9c0-1.8,0-3.6,0-5.5
		c0-1.3,0.6-1.9,1.9-1.9c1,0,2,0,3,0c1.2,0,1.8,0.6,1.8,1.8C80,116.2,80,117.2,80,118.1C80,118.1,80,118.1,80,118.1z M78.1,118.1
		C78.1,118.1,78.1,118.1,78.1,118.1c0-0.7,0-1.5,0-2.2c0-0.4-0.2-0.5-0.5-0.5c-0.6,0-1.2,0-1.8,0c-0.4,0-0.6,0.2-0.6,0.6
		c0,1.4,0,2.8,0,4.2c0,0.5,0.2,0.7,0.6,0.6c0.5,0,1,0,1.6,0c0.6,0,0.7-0.1,0.7-0.6C78.1,119.5,78.1,118.8,78.1,118.1z"/>
	<path class="st2" d="M120.1,113.5c1.2,0,1-0.2,1.4,1c0.9,2.5,1.8,5.1,2.7,7.7c0.2,0.5,0.2,0.5-0.4,0.5c-0.2,0-0.3,0-0.5,0
		c-0.9,0-0.9,0-1.2-0.8c-0.1-0.2-0.2-0.3-0.4-0.3c-1.1,0-2.2,0-3.3,0c-0.3,0-0.4,0.1-0.4,0.3c-0.3,0.7-0.3,0.7-1.1,0.7
		c-0.3,0-0.5,0-0.8,0c-0.3,0-0.4-0.1-0.3-0.4c0.7-1.9,1.4-3.8,2.1-5.8c0.3-0.8,0.6-1.6,0.9-2.4c0.1-0.5,0.4-0.7,0.9-0.6
		C119.8,113.5,119.9,113.5,120.1,113.5z M121.4,119.9c-0.4-1.2-0.8-2.3-1.2-3.5c0-0.1,0-0.2-0.2-0.2c-0.1,0-0.1,0.1-0.2,0.2
		c-0.4,1-0.7,2.1-1.1,3.1c-0.1,0.2,0,0.3,0.2,0.3C119.8,119.9,120.5,119.9,121.4,119.9z"/>
	<path class="st2" d="M101.2,117.6c0-1.2,0-2.4,0-3.6c0-0.4,0.1-0.5,0.5-0.5c0.3,0,0.6,0,0.9,0c0.4,0,0.5,0.1,0.5,0.5
		c0,1.9,0,3.8,0,5.7c0,0.1,0,0.3,0,0.4c0,0.6,0.1,0.7,0.7,0.7c0.5,0,0.9,0,1.4,0c0.5,0,0.6-0.2,0.6-0.6c0-2,0-4.1,0-6.1
		c0-0.4,0.1-0.5,0.6-0.5c1.3,0,1.3,0,1.3,1.4c0,2,0,3.9,0,5.9c0,1.4-0.6,1.9-2,1.9c-0.9,0-1.7,0-2.6,0c-1.4,0-1.9-0.5-2-1.9
		C101.2,119.7,101.2,118.6,101.2,117.6z"/>
	<path class="st2" d="M128.1,118.1c0-1.4,0-2.7,0-4.1c0-0.4,0.1-0.5,0.5-0.5c1.7,0,3.4,0,5.1,0c0.3,0,0.5,0.1,0.5,0.4
		c0,0.5,0.2,1-0.1,1.3c-0.3,0.3-0.8,0.1-1.3,0.1c-0.8,0-1.5,0-2.3,0c-0.3,0-0.5,0.1-0.5,0.4c0,1.2,0,1.2,1.2,1.2c0.7,0,1.3,0,2,0
		c0.4,0,0.5,0,0.4,0.5c-0.5,1.3-0.4,1.3-1.8,1.3c-0.4,0-0.9,0-1.3,0c-0.3,0-0.4,0.1-0.4,0.4c0,0.4,0,0.7,0,1.1
		c0,0.4,0.1,0.5,0.5,0.5c1.1,0,2.1,0,3.2,0c0.3,0,0.5,0.1,0.5,0.4c0,1.4,0,1.4-1.4,1.4c-1.3,0-2.7,0-4,0c-0.5,0-0.6-0.1-0.6-0.6
		C128.1,120.8,128.1,119.4,128.1,118.1z"/>
	<path class="st2" d="M66.1,118.1c0-1.4,0-2.7,0-4.1c0-0.4,0.1-0.5,0.5-0.5c1.6,0,3.2,0,4.8,0c0.3,0,0.5,0.1,0.4,0.5
		c0,0.3,0,0.7,0,1c0,0.3-0.1,0.4-0.4,0.4c-1,0-2,0-2.9,0c-0.4,0-0.5,0.1-0.5,0.5c0,1.4,0,1.4,1.4,1.4c0.5,0,1,0,1.5,0
		c0.3,0,0.3,0.1,0.2,0.4c0,0,0,0,0,0c-0.4,1.3-0.4,1.3-1.8,1.3c-1.3,0-1.3,0-1.3,1.3c0,0.6,0,1.3,0,1.9c0,0.3-0.1,0.5-0.5,0.5
		c-0.4,0-1,0.2-1.3-0.1c-0.3-0.3-0.1-0.9-0.1-1.3C66.1,120.2,66.1,119.1,66.1,118.1z"/>
	<path class="st2" d="M109.7,118.1c0-1.3,0-2.7,0-4c0-0.4,0.1-0.6,0.6-0.6c1.3,0,1.3,0,1.3,1.3c0,1.8,0,3.6,0,5.5
		c0,0.4,0.1,0.6,0.6,0.5c0.8,0,1.6,0,2.4,0c0.3,0,0.4,0.1,0.3,0.4c-0.5,1.5-0.5,1.5-2,1.5c-0.8,0-1.6,0-2.4,0c-0.6,0-0.6,0-0.6-0.7
		C109.7,120.7,109.7,119.4,109.7,118.1z"/>
	<path class="st2" d="M125.7,117c0.3,0,0.6,0,0.9,0c0.2,0,0.3,0.1,0.2,0.3c-0.1,0.4-0.3,0.8-0.4,1.2c-0.1,0.2-0.2,0.2-0.4,0.2
		c-0.4,0-0.8,0-1.3,0c-0.2,0-0.4-0.1-0.3-0.3c0-0.3,0-0.7,0-1c0-0.3,0.1-0.4,0.4-0.4C125.1,117,125.4,117,125.7,117z"/>
</g>
<path class="st3" d="M83.9,116.9c0-0.4,0-0.7,0-1.1c0-0.2,0.1-0.3,0.3-0.3c0.6,0,1.2,0,1.8,0c0.2,0,0.4,0.1,0.5,0.3
	c0.1,0.1,0.1,0.2,0.2,0.3c0.8,1.2,0.8,0.8,0,2c-0.2,0.3-0.5,0.5-0.8,0.4c-0.5,0-1,0-1.5,0c-0.3,0-0.5-0.1-0.4-0.5
	C83.9,117.6,83.9,117.2,83.9,116.9z"/>
<path class="st3" d="M78.1,118.1c0,0.7,0,1.4,0,2c0,0.5-0.1,0.6-0.7,0.6c-0.5,0-1,0-1.6,0c-0.5,0-0.6-0.2-0.6-0.6c0-1.4,0-2.8,0-4.2
	c0-0.4,0.2-0.6,0.6-0.6c0.6,0,1.2,0,1.8,0c0.3,0,0.5,0.2,0.5,0.5C78.1,116.6,78.1,117.4,78.1,118.1
	C78.1,118.1,78.1,118.1,78.1,118.1z"/>
<path class="st3" d="M121.4,119.9c-0.9,0-1.6,0-2.4,0c-0.3,0-0.3-0.1-0.2-0.3c0.4-1,0.7-2.1,1.1-3.1c0-0.1,0-0.2,0.2-0.2
	c0.1,0,0.1,0.1,0.2,0.2C120.6,117.6,121,118.7,121.4,119.9z"/>
</svg>
