<svg id="Layer_1" data-name="Layer 1" xmlns="http://www.w3.org/2000/svg" viewBox="0 0 130 130"><title>Artboard 1</title><path d="M9.17,73.42V57.07l.22,0c1.84,0,3.67,0,5.5,0a10.59,10.59,0,0,1,6.24,2A7,7,0,0,1,24,64.32a7.49,7.49,0,0,1-1.46,5.28,8.65,8.65,0,0,1-4.49,3,13.65,13.65,0,0,1-4.63.5s-.05,0-.09-.09a.9.9,0,0,1,.22-.06c.51,0,1,0,1.53-.07A5.2,5.2,0,0,0,19.26,70a8.38,8.38,0,0,0,.91-3.93,15.18,15.18,0,0,0-.45-4.46,6.14,6.14,0,0,0-2.3-3.48,5.32,5.32,0,0,0-2.94-.92c-.58,0-1.16,0-1.79,0V71.07a.45.45,0,0,1-.26.46L9.35,73.32a1.06,1.06,0,0,0-.12.1Z"/><path d="M42.05,73.42l-.24-.11a3.09,3.09,0,0,1-2-1.57l-.06-.09-.06,0v1.5H36.59v-.31q0-7.08,0-14.14a.43.43,0,0,1,.26-.43l2.65-1.54.22-.13V64.2a1.42,1.42,0,0,0,.16-.19,3.52,3.52,0,0,1,5-1.33,5.07,5.07,0,0,1,2.5,3.84,7.31,7.31,0,0,1-.12,3.09,4.88,4.88,0,0,1-3.56,3.72,2.18,2.18,0,0,0-.23.09Zm1.89-5.52c-.11-.79-.18-1.59-.34-2.36a3.16,3.16,0,0,0-1.1-2,1.52,1.52,0,0,0-1.43-.32,2,2,0,0,0-1.36,1.86c0,1.83,0,3.67,0,5.51a1.93,1.93,0,0,0,.11.62,1.71,1.71,0,0,0,3,.54,4.13,4.13,0,0,0,.5-.8A9.08,9.08,0,0,0,43.94,67.9Z"/><path d="M85.6,73.42,85,73.2a2.67,2.67,0,0,1-1.82-2.29,2.64,2.64,0,0,1,1.27-2.71c.86-.52,1.8-.91,2.68-1.41a14.92,14.92,0,0,0,1.61-1.12A2.39,2.39,0,0,0,89,62.91a1.57,1.57,0,0,0-1.64-.49,1.75,1.75,0,0,0-1.18.76c-.56.76-1.14,1.52-1.69,2.28a.42.42,0,0,1-.54.19c.07-.72.19-1.46.19-2.19,0-.5.24-.62.63-.75a11.65,11.65,0,0,1,4.8-.47A2.88,2.88,0,0,1,92,63.69a3.22,3.22,0,0,1,.37,1.55c0,2.58,0,5.16,0,7.74,0,0,0,.09,0,.15H89.48l-.2-1.78h-.06l-.15.38a2.59,2.59,0,0,1-1.85,1.62l-.17.08Zm3.65-8c-.63.58-1.25,1.11-1.81,1.69a3.7,3.7,0,0,0-1.06,3.29A2.42,2.42,0,0,0,87.14,72a1.08,1.08,0,0,0,1.63-.17,2.61,2.61,0,0,0,.46-1.58c0-.43,0-.87,0-1.3C89.25,67.79,89.25,66.65,89.25,65.44Z"/><path d="M29.38,73.42c-.48-.15-1-.25-1.42-.44a5,5,0,0,1-3.16-4.15,5.66,5.66,0,0,1,1-4.35,5.38,5.38,0,0,1,5.25-2.26,4.64,4.64,0,0,1,3,1.42,4.82,4.82,0,0,1,1.07,2H28c-.26,0-.33.08-.33.33a6.58,6.58,0,0,0,.64,3.18,3.83,3.83,0,0,0,6.22.84,4.47,4.47,0,0,0,.87-1.76.46.46,0,0,1,.15-.22c-.08,2.07-1,4.36-3.22,5.1-.36.12-.74.21-1.12.31Zm-1.69-7.94c1.14,0,2.23-.06,3.32-.14a.88.88,0,0,0,.81-.74,2,2,0,0,0-.89-2,1.84,1.84,0,0,0-2,.15A4,4,0,0,0,27.69,65.48Z"/><path d="M53.05,73.42c-.37-.11-.75-.19-1.11-.32a5,5,0,0,1-3.47-4.3,5.56,5.56,0,0,1,1-4.34,5.38,5.38,0,0,1,5.2-2.25A4.57,4.57,0,0,1,58,64a4.7,4.7,0,0,1,.79,1.69H51.66c-.27,0-.33.09-.33.33a6.53,6.53,0,0,0,.74,3.3,3.77,3.77,0,0,0,7-1,2.5,2.5,0,0,1,.09-.25l.12,0c0,.23-.06.45-.1.68a6.32,6.32,0,0,1-1.29,3.11,4.43,4.43,0,0,1-2.63,1.5l-.38.11Zm-1.68-8h.26c.89,0,1.77,0,2.65,0a2.21,2.21,0,0,0,.62-.13.82.82,0,0,0,.55-.52,1.92,1.92,0,0,0-.79-2.14,1.8,1.8,0,0,0-2.23.25A3.9,3.9,0,0,0,51.37,65.43Z"/><path d="M115,73.42c-.4-.08-.8-.18-1.2-.23-.6-.08-1-.28-1-1a14,14,0,0,0-.23-2,.38.38,0,0,1,.48.15c.62.78,1.25,1.54,1.86,2.33a1.36,1.36,0,0,0,1,.57,3.25,3.25,0,0,0,1.92-.3,1.74,1.74,0,0,0-.13-3.21c-.7-.29-1.44-.47-2.17-.69a5.63,5.63,0,0,1-2.1-1.09,2.86,2.86,0,0,1-1-2.12,3.24,3.24,0,0,1,2.7-3.42,8.13,8.13,0,0,1,4.21.11c.67.17.54,0,.63.73s.16,1.26.25,1.9c0,.1,0,.2,0,.29a.38.38,0,0,1-.5-.18c-.6-.77-1.22-1.52-1.8-2.3a1.09,1.09,0,0,0-.91-.51,8.17,8.17,0,0,0-1.49.09,1.42,1.42,0,0,0-1.26,1.27,1.53,1.53,0,0,0,.83,1.65,11.59,11.59,0,0,0,1.81.68,9.73,9.73,0,0,1,2.35.92A3,3,0,0,1,120.76,69a1,1,0,0,0,.07.18v1.39s-.06.06-.06.09A3.63,3.63,0,0,1,118,73.19c-.29.09-.59.16-.89.23Z"/><path d="M104.44,64.66a.75.75,0,0,0,.08-.14,2.93,2.93,0,0,1,2.81-2.33,3.68,3.68,0,0,1,2.3.41A3.25,3.25,0,0,1,111.05,65a6,6,0,0,1,.07.94c0,2.33,0,4.66,0,7a1.42,1.42,0,0,1,0,.19H108v-.31c0-2.37,0-4.74,0-7.1a5.65,5.65,0,0,0-.27-1.52,1.34,1.34,0,0,0-1.41-1,1.52,1.52,0,0,0-1.5,1.08,5.46,5.46,0,0,0-.27,1.88v7h-3.12v-.32c0-2.4,0-4.8,0-7.2A3.48,3.48,0,0,0,101,63.9a1.52,1.52,0,0,0-2.61,0,3.68,3.68,0,0,0-.44,1.93v7.3H94.81V72.8c0-2.23,0-4.45,0-6.68a.51.51,0,0,0-.26-.49c-.43-.27-.84-.57-1.32-.9L97.94,62v2.26c.07-.12.11-.16.13-.21a3,3,0,0,1,2.62-1.86,3.8,3.8,0,0,1,2.13.28,3,3,0,0,1,1.53,1.92C104.38,64.47,104.4,64.55,104.44,64.66Z"/><path d="M82,73.14H78.85V72.8c0-2.38,0-4.77,0-7.15a4.88,4.88,0,0,0-.26-1.41,1.39,1.39,0,0,0-1.48-1.07,1.48,1.48,0,0,0-1.47,1.14,7.21,7.21,0,0,0-.25,1.78c0,2.24,0,4.47,0,6.71v.34H72.22V58.64c0-.09,0-.24.1-.28l3-1.78v7.68h.06l.06-.14A2.92,2.92,0,0,1,78,62.21a3.83,3.83,0,0,1,2.24.27,3.14,3.14,0,0,1,1.68,2.65A13.31,13.31,0,0,1,82,66.54v6.6Z"/><path d="M64.05,73.13H60.93V66.07a.42.42,0,0,0-.23-.42c-.37-.23-.72-.49-1.08-.74l-.26-.19L64,62v2.17l.06,0a1,1,0,0,0,.08-.14,2.89,2.89,0,0,1,2.62-1.86,5,5,0,0,1,1.73.13,2.8,2.8,0,0,1,2,2.41,6.37,6.37,0,0,1,.13,1.3q0,3.42,0,6.85a2.15,2.15,0,0,1,0,.23H67.51v-.32c0-2.4,0-4.79,0-7.18a3.3,3.3,0,0,0-.42-1.74,1.51,1.51,0,0,0-2.59,0,3.52,3.52,0,0,0-.44,1.79c0,2.37,0,4.75,0,7.12Z"/></svg>