<?xml version="1.0" encoding="utf-8"?>
<!-- Generator: Adobe Illustrator 22.1.0, SVG Export Plug-In . SVG Version: 6.00 Build 0)  -->
<svg version="1.1" id="Layer_1" xmlns="http://www.w3.org/2000/svg" xmlns:xlink="http://www.w3.org/1999/xlink" x="0px" y="0px"
	 viewBox="0 0 200 200" style="enable-background:new 0 0 200 200;" xml:space="preserve">
<style type="text/css">
	.st0{fill:none;}
	.st1{fill:#ED1F24;}
	.st2{fill:#FFFFFF;}
	.st3{fill:#00DBFF;}
	.st4{fill-rule:evenodd;clip-rule:evenodd;}
	.st5{fill-rule:evenodd;clip-rule:evenodd;fill:#FFFFFF;}
	.st6{fill:#475E29;}
	.st7{fill:#0E0D0F;}
	.st8{fill:#0F0E10;}
	.st9{fill:#3660B0;}
	.st10{fill:#3567B4;}
	.st11{fill:#356BB7;}
	.st12{fill:#2B99D9;}
	.st13{fill:#375BAD;}
	.st14{fill:#70AA43;}
	.st15{fill:#394EA6;}
	.st16{fill:#3372BC;}
	.st17{fill:#3756AA;}
	.st18{fill:#2C93D4;}
	.st19{fill:#3853A8;}
	.st20{fill:#6BA443;}
	.st21{fill:#7AB444;}
	.st22{fill:#2E8DD0;}
	.st23{fill:#7EB845;}
	.st24{fill:#75AF44;}
	.st25{fill:#3278C1;}
	.st26{fill:#2F86CB;}
	.st27{fill:#4EB9A8;}
	.st28{fill:#82BD46;}
	.st29{fill:#3082C8;}
	.st30{fill:#317DC4;}
	.st31{fill:#54BDAC;}
	.st32{fill:#2CA1DF;}
	.st33{fill:#368E86;}
	.st34{fill:#2D7E7A;}
	.st35{fill:#31857F;}
	.st36{fill:#3A968D;}
	.st37{fill:#639D41;}
	.st38{fill:#57933F;}
	.st39{fill:#5D9840;}
	.st40{fill:#45AA9C;}
	.st41{fill:#4C8A3D;}
	.st42{fill:#3E9D92;}
	.st43{fill:#3C7C3A;}
	.st44{fill:#46853C;}
	.st45{fill:#518E3E;}
	.st46{fill:#41803B;}
	.st47{fill:#236737;}
	.st48{fill:#41A397;}
	.st49{fill:#4AB2A3;}
	.st50{fill:#36773A;}
	.st51{fill:#307238;}
	.st52{fill:#2A6C38;}
	.st53{fill:#29A4E1;}
	.st54{fill:#070707;}
	.st55{fill:#050505;}
	.st56{fill:#030303;}
	.st57{fill:#FEFEFE;}
	.st58{fill:#F9F9F9;}
	.st59{fill:#FBFBFB;}
	.st60{fill:#0D5B3C;}
	.st61{fill:#045033;}
	.st62{fill:#FCFCFC;}
	.st63{fill:#F3F5F3;}
	.st64{fill:#237851;}
	.st65{fill:#166D48;}
	.st66{fill:#29875B;}
	.st67{fill:#1C754E;}
	.st68{fill:#339866;}
	.st69{fill:#319263;}
	.st70{fill:#F9E803;}
	.st71{fill:#D93339;}
	.st72{fill:#9B9B9B;}
</style>
<g>
	<path class="st72" d="M75.5,124.9c1.2,0.7,2.3,1.5,3.2,2.4c0.2,0.3,0.4,0.1,0.7,0c1.8-0.6,3.7-1.1,5.6-1c1.5,0.1,2.9,0.5,3.9,1.8
		c0.4,0.5,0.6,1.1,0.7,1.8c0,0.4,0.2,0.6,0.6,0.7c1.6,0.6,2.9,1.7,3.1,3.5c0.2,1.9-0.6,3.3-2.1,4.4c-2,1.4-4.3,1.7-6.6,1.6
		c-0.7,0-1.5-0.1-2.2-0.2c-0.3,0-0.5,0-0.6,0.4c-1.9,4.8-5.7,7-10.5,7.7c-2.6,0.4-5.1,0.2-7.5-0.7c-2.2-0.9-3.9-2.3-4.4-4.8
		c-0.1-0.3-0.1-0.7-0.1-1c0.2-0.9-0.2-1.2-1.1-1.4c-0.9-0.2-1.8-0.7-2.5-1.4c-0.4-0.4-0.7-0.4-1.2-0.3c-2.4,0.5-4.8,0.8-7.3,0.2
		c-1.9-0.4-3.5-1.2-4.5-3c-1.3-2.4-0.4-5.4,2-6.9c0.9-0.5,1.8-0.9,2.8-1.1c0.2-0.1,0.5-0.1,0.7-0.4c1.1-2.2,3.1-3.1,5.4-3.6
		c2.3-0.4,4.6-0.1,6.8,0.6c0.4,0.1,0.8,0.1,1.2,0c4.3-1.5,8.5-1.4,12.7,0.3c0.5,0.2,0.9,0.2,1.3,0c3.5-1.5,7.1-2.8,10.9-3.3
		c2.6-0.4,5.1-0.3,7.4,1.2c1.6,1,2.8,2.5,3.9,4c0.8,1,1.5,2.1,2.4,2.9c1.7,1.5,3.5,0.9,4-1.3c0.4-2,0.2-3.9,0.2-5.9
		c0-6.6,0-13.1,0-19.7c0-1.7,0.6-3.1,1.7-4.3c0.1-0.1,0.1-0.2,0.2-0.2c0,0,0,0,0-0.1c-1.7,0-3.3-0.8-5-1.3c-0.7-0.2-1.5-0.3-2.3-0.3
		c-1,0-1.7,0.5-2.3,1.2c-0.1,0.1-0.1,0.5-0.5,0.3c-0.3-0.2-0.1-0.4,0-0.6c1.2-3.6,4.4-5.2,8.3-4.2c1.2,0.3,2.5,0.8,3.7,1.2
		c1.5,0.5,3.1,0.5,4.6,0.1c0.5-0.1,0.7,0,0.9,0.4c0.2,0.4-0.2,0.4-0.4,0.5c-2.4,1.3-3.4,3.3-3.4,5.9c0,6.9,0,13.8,0,20.7
		c0,3.3-1,6.2-3.5,8.5c-2.9,2.6-6.8,3.2-9.8,1.6c-1.4-0.8-2.5-2-3.4-3.2c-0.8-1.1-1.6-2.2-2.5-3.3c-1.8-2.2-4.2-3-7-2.6
		C80.8,122.8,78.2,123.8,75.5,124.9z M69,147.6c1.5,0,2.9-0.2,4.3-0.7c3.4-1.1,5.8-3.3,6.9-6.8c0.1-0.3,0.2-0.6-0.3-0.7
		c-2.6-0.6-5.1-1.5-7.6-2.5c-0.4-0.1-0.6-0.1-0.9,0.1c-0.9,0.5-1.8,1-2.8,1.4c-0.4,0.2-0.6,0.3-0.4,0.8c0.3,0.9,0.1,1.8-0.7,2.5
		c-0.6,0.5-1.7,0.5-2,0c-0.2-0.3-0.2-0.5,0.1-0.7c0.3-0.1,0.5,0,0.6,0.2c0.4,0.6,0.9,0.5,1.2-0.1c0.2-0.4,0.2-0.9,0-1.4
		c-0.2-0.5-0.4-0.7-1-0.4c-2.1,0.8-4.2,1.4-6.5,1.2c-0.4,0-0.4,0.1-0.5,0.5c-0.2,2,0.9,4.1,3,5.2C64.6,147.3,66.8,147.6,69,147.6z
		 M50.1,138.3c0.9,0,1.8-0.1,2.7-0.2c0.5-0.1,0.9-0.2,1.4-0.3c0.5-0.1,0.5-0.2,0.2-0.5c-0.5-0.9-0.9-1.8-0.9-2.9
		c0-0.8-0.3-0.9-1-0.9c-3.1-0.1-4.4-1.3-4.9-4.5c0-0.2-0.1-0.3-0.3-0.3c-1.7,0.2-3.2,0.8-4.2,2.3c-1.4,2.2-0.3,5.3,2.3,6.4
		C46.9,138.1,48.4,138.3,50.1,138.3z M82.3,136.2C82.3,136.2,82.3,136.2,82.3,136.2c0,0.5,0,0.9-0.1,1.4c-0.1,0.3,0,0.4,0.4,0.5
		c0.6,0.1,1.2,0.2,1.8,0.2c2.2,0.2,4.3,0,6.3-1c1.5-0.8,2.2-2.1,1.9-3.6c-0.3-1.1-1-1.8-2-2.4c-1-0.5-1-0.5-1.4,0.4
		c-0.1,0.2-0.2,0.3-0.3,0.4c-1.2,1.7-3,2.1-4.9,2.3c-0.6,0-1.3-0.2-1.6,0.1C82.1,134.9,82.3,135.6,82.3,136.2z M65.2,133.8
		c-1.5-0.6-2.9-1.2-4.3-1.8c-0.4-0.2-0.7-0.2-1.1,0c-1.7,0.7-3.5,1.2-5.4,1.5c-0.4,0-0.5,0.2-0.5,0.6c0,1.1,0.3,2.2,0.9,3.2
		c0.2,0.3,0.4,0.4,0.8,0.3c0.7-0.3,1.5-0.5,2.3-0.7C60.4,135.9,62.7,134.9,65.2,133.8z M79.3,127.9c0.8,1,1.5,2,1.9,3.1
		c0.2,0.4,0.4,0.5,0.8,0.3c2.1-0.7,4.2-1.3,6.4-1.1c0.6,0,0.6-0.1,0.5-0.6c-0.3-1.4-1.5-2.4-3.2-2.7
		C83.5,126.6,81.5,127.2,79.3,127.9z M71.4,136.5c-1.8-0.8-3.4-1.5-5.1-2.2c-0.4-0.2-0.6-0.1-1,0c-1.4,0.6-2.9,1.3-4.4,1.9
		c-1.7,0.7-3.5,1.3-5.3,1.8c0.9,0.9,2,1.4,3.1,1.7c0.4,0.1,0.6,0,0.8-0.4c1.4-3.1,5.6-3.9,8-1.5c0.3,0.3,0.5,0.3,0.8,0.1
		C69.3,137.5,70.3,137,71.4,136.5z M66.8,128.3c-2.3-1-4.4-1.9-6.6-2.7c-0.1,0-0.2-0.1-0.3,0c-1.3,0.7-2.6,1.5-3.6,2.7
		c2,0.6,3.8,1.3,5.6,2c0.2,0.1,0.4,0.1,0.6,0C63.8,129.7,65.3,129,66.8,128.3z M58.9,125.2c-0.6-0.1-0.9-0.3-1.3-0.3
		c-2.1-0.5-4.2-0.6-6.2,0.1c-1.2,0.4-2.1,1.1-2.8,2.3c2.3-0.2,4.4,0.2,6.5,0.7c0.2,0.1,0.4,0.1,0.6-0.1
		C56.6,126.9,57.6,126.1,58.9,125.2z M77.6,133.2c-1.6-0.7-3.2-1.4-4.8-2.1c-0.2-0.1-0.4-0.2-0.6-0.1c-1.4,0.7-2.7,1.3-4.2,2
		c1.8,0.8,3.4,1.5,5.1,2.2c0.2,0.1,0.4,0.1,0.6,0C75,134.5,76.3,133.9,77.6,133.2z M49.1,128.7c-0.3,0.2-0.9-0.4-1,0.4
		c-0.1,1.3,0.4,2.3,1.5,3.1c1,0.7,2.2,0.9,3.5,0.9c0.3,0,0.4-0.2,0.4-0.5c0.1-0.9,0.4-1.7,0.8-2.5c0.2-0.3,0.1-0.4-0.2-0.5
		C52.5,129.1,50.8,128.8,49.1,128.7z M62.9,130.7c1.5,0.6,2.9,1.2,4.3,1.9c0.1,0.1,0.2,0.1,0.4,0.1c1.4-0.7,2.8-1.3,4.3-2.1
		c-1.4-0.7-2.7-1.2-4-1.8c-0.3-0.1-0.5-0.2-0.8,0C65.7,129.4,64.3,130,62.9,130.7z M73,125.4c-3.5-1.5-7-1.7-10.6-0.7
		c2.1,0.8,4.1,1.7,6.1,2.6c0.1,0.1,0.3,0.1,0.4,0C70.3,126.6,71.6,126,73,125.4z M74,135.6c1.4,0.5,2.6,0.9,3.9,1.3
		c0.8,0.3,1.6,0.4,2.3,0.7c0.4,0.1,0.6,0,0.6-0.4c0-0.7,0-1.4-0.1-2.1c-0.1-0.6-0.1-1.1-0.9-1.2c-0.6,0-1-0.6-1.6-0.3
		C76.8,134.2,75.5,134.8,74,135.6z M69.4,127.6c1.5,0.7,2.8,1.3,4.2,1.9c0.1,0.1,0.3,0.1,0.4,0c1-0.5,2-0.9,3.1-1.4
		c-1-1-2-1.7-3.2-2.3c-0.2-0.1-0.3-0.1-0.5,0C72.1,126.4,70.8,127,69.4,127.6z M59.9,139.8c1.6,0.4,5.2-0.3,6.8-1.3
		C65.2,136.8,60.8,137,59.9,139.8z M84.7,133c0.4,0,0.9-0.1,1.5-0.2c0.9-0.2,1.7-0.5,2.3-1.2c0.2-0.2,0.5-0.5,0.4-0.8
		c-0.1-0.3-0.5-0.2-0.8-0.2c-2,0-4,0.5-5.9,1.2c-0.2,0.1-0.5,0-0.4,0.4c0.1,0.3,0.2,0.4,0.5,0.5C83,132.9,83.7,133,84.7,133z
		 M59.7,131.5c-1-0.4-1.8-0.7-2.6-1c-0.7-0.2-1.4-1-2.1-0.4c-0.6,0.5-0.7,1.4-0.9,2.2c0,0,0,0,0,0.1c-0.1,0.4-0.1,0.6,0.4,0.5
		C56.3,132.7,57.9,132.2,59.7,131.5z M74.5,129.9c1.8,0.8,3.5,1.5,5.3,2.1c-0.5-1.2-1.2-2.1-1.9-3c-0.2-0.2-0.3-0.4-0.7-0.3
		C76.3,129.1,75.5,129.5,74.5,129.9z"/>
	<path class="st72" d="M46.5,97.8c-3.2-0.3-6.2,0-8.8,2c-1.6,1.3-2.4,2.9-2.1,5c0.2,1,0.6,1.9,1.4,2.5c0.1,0.1,0.4,0.2,0.2,0.4
		c-0.1,0.3-0.3,0.1-0.5,0c-2.5-0.9-4.1-3.6-3.8-6.5c0.4-3,2-5.1,4.5-6.5c6.2-3.5,16.6-2.6,21.9,4.7c6.1,8.3,1.2,19.8-9,21.2
		c-2.5,0.4-4.8-0.3-7-1.4c-1.2-0.6-2.3-1.2-3.5-1.7c-1-0.4-2-0.5-3-0.4c-1.1,0.2-2,0.7-2.5,1.7c-0.1,0.2-0.1,0.5-0.4,0.4
		c-0.3-0.1-0.1-0.3-0.1-0.5c0.5-3,2.7-5,5.8-5.1c0.2,0,0.4,0,0.6,0c1.4,0,1.6-0.1,1.6-1.6c0-2.6,0.1-5.2,0-7.8
		c-0.1-2.2,0.8-3.7,2.6-4.9C45.2,98.9,45.9,98.5,46.5,97.8z M43.4,114.2c1.5,0.5,2.9,1.3,4.4,2c1.2,0.6,2.3,1.2,3.7,1.4
		c3,0.5,5.1-0.9,5.9-3.9c0.3-1.1,0.3-2.2,0.3-3.3c-0.1-5.7-4.3-11.1-9.7-12.4c-0.6-0.1-0.7,0-0.7,0.6c0,3.3,0,6.6,0,10
		c0,2.4-1,4.1-3.1,5.2C43.8,113.9,43.5,113.9,43.4,114.2z"/>
	<path class="st72" d="M101.1,85.1c-8.5,0-17,0-25.4,0c-0.3,0-0.7,0.1-0.7-0.5c0-0.6,0.4-0.4,0.7-0.4c3.5,0,7,0,10.5,0
		c0.5,0,0.8-0.1,1-0.6c0.6-1.5,1.7-2.5,3.3-2.9c1.4-0.4,2.9-0.8,4.3-1c0.6-0.1,1-0.3,1.2-0.8c0.1-0.2,0.2-0.3,0.3-0.5
		c0.6-0.6,0.6-1,0-1.6c-0.1-0.1-0.2-0.3-0.2-0.5c-0.2-0.9-0.4-1.7-0.6-2.6c-0.1-0.2-0.2-0.6,0-0.7c0.5-0.8-0.1-0.8-0.6-1
		c-1.1-0.4-2.1-0.8-3.1-1.5c-0.3-0.2-0.6-0.4-0.9-0.7c-0.2-0.2-0.4-0.4-0.3-0.7c0.1-0.3,0.4-0.2,0.7-0.2c1.6-0.1,3.2-0.1,4.8-0.3
		c0.5-0.1,0.7-0.3,0.8-0.7c0.3-1.1,0.9-2.1,1.4-3.1c0.5-0.9,1-1.1,2-0.7c0.8,0.3,1.6,0.4,2.5,0.4c1.3,0.1,2.1,1.1,2.7,2.1
		c0.6,1.1,0.8,2.3,0.8,3.6c0,0.5,0.1,0.7,0.7,0.9c1.1,0.3,2.1,0.6,3.1,0.9c0.3,0.1,0.6,0.2,0.9,0.4c0.4,0.2,0.8,0.3,0.8,0.9
		c0,0.6-0.4,0.8-0.9,1c-1.5,0.6-3.1,0.8-4.7,0.6c-0.6-0.1-0.7,0.1-0.8,0.6c-0.2,1-0.4,1.9-0.7,2.9c-0.2,0.7,0.5,1.9,1.1,2.2
		c1.4,0.5,2.9,1,4.3,1.5c1.2,0.5,2.2,1,3.1,1.9c0.3,0.4,0.8,0.3,1.2,0.3c4,0,8,0,12,0c0.2,0,0.6-0.1,0.7,0.2
		c0.2,0.4-0.1,0.7-0.6,0.7c-4.1,0-8.2,0-12.3,0C109.9,85.1,105.5,85.1,101.1,85.1C101.1,85.1,101.1,85.1,101.1,85.1z"/>
	<path class="st72" d="M88.3,103.5c1.7-1,3.3-1.7,5.2-1.8c0.8-0.1,1.5,0,2.3,0.2c2,0.5,2.9,1.7,2.9,3.8c0,3.1,0,6.1,0,9.2
		c0,1.6,0.1,1.8,1.7,2.2c0.6,0.2,0.3,0.6,0.3,0.9c0,0.4-0.3,0.3-0.5,0.3c-2.5,0-5.1,0-7.6,0c-0.3,0-0.6,0.1-0.5-0.4
		c0-0.3-0.2-0.7,0.4-0.8c1.2-0.3,1.3-0.6,1.3-1.8c0-3,0-6.1,0-9.1c0-1.2-0.6-1.8-1.8-2c-1.2-0.2-2.3,0.3-3.3,0.8
		c-0.2,0.1-0.3,0.3-0.3,0.6c0,3.4,0,6.8,0,10.2c0,0.8,0.4,1.2,1.3,1.4c0.6,0.1,0.4,0.5,0.5,0.8c0,0.5-0.3,0.4-0.6,0.4
		c-2.5,0-5.1,0-7.6,0c-0.3,0-0.5,0.1-0.5-0.3c0-0.3-0.2-0.7,0.4-0.9c1.5-0.3,1.6-0.6,1.6-2.1c0-2.7,0-5.5,0-8.2c0-0.2,0-0.4,0-0.7
		c-0.1-1.4-0.4-1.8-1.7-1.9c-0.6-0.1-0.5-0.3-0.5-0.7c-0.1-0.5,0.2-0.5,0.6-0.5c1.9-0.1,3.7-0.5,5.4-1.1c0.8-0.2,1,0,1,0.8
		C88.4,102.9,88.4,103.2,88.3,103.5z"/>
	<path class="st72" d="M124.5,117.3c-1.7,1.1-3.4,1.7-5.3,1.8c-1.3,0.1-2.5-0.1-3.5-0.9c-1-0.8-1.5-1.8-1.5-3.1c0-3.1,0-6.1,0-9.2
		c0-1.4-0.2-1.6-1.5-1.6c-0.3,0-0.7,0.1-0.7-0.5c0-0.5,0.1-0.7,0.7-0.7c1.9-0.1,3.7-0.4,5.6-0.9c0.7-0.2,1,0,0.9,0.7
		c-0.1,2.5-0.1,5-0.1,7.5c0,1.3,0,2.6,0,3.9c0,1.1,0.5,1.7,1.6,2c1.3,0.3,2.4-0.1,3.5-0.7c0.2-0.1,0.3-0.3,0.3-0.6
		c0-3.3,0-6.6,0-9.9c0-0.9-0.3-1.1-1.2-1.2c-0.4,0-0.6-0.1-0.6-0.6c0-0.4,0.1-0.6,0.6-0.6c1.8-0.1,3.5-0.4,5.3-0.9
		c0.6-0.2,1,0.1,0.9,0.8c-0.2,2.9-0.1,5.7-0.1,8.6c0,1.2,0,2.4,0,3.6c0,1.2,0.4,1.7,1.6,1.9c0.6,0.1,0.5,0.4,0.6,0.8
		c0,0.5-0.4,0.4-0.7,0.4c-1.9,0.1-3.7,0.2-5.5,0.6c-0.5,0.1-0.5,0-0.5-0.4C124.5,118.1,124.5,117.8,124.5,117.3z"/>
	<path class="st72" d="M64.1,110.2c0-4.9,3.4-8.3,8.3-8.3c4.9,0,8.2,3.3,8.2,8c0,4.9-3.4,8.4-8.1,8.5
		C67.4,118.4,64.1,115.2,64.1,110.2z M76.1,111.3c-0.1-2.5-0.4-4.7-1.6-6.6c-0.7-1.1-1.6-1.8-3-1.6c-1.3,0.2-2,1-2.5,2.2
		c-0.7,1.9-0.6,3.9-0.4,5.9c0.2,1.7,0.7,3.3,1.7,4.6c0.7,0.9,1.6,1.5,2.8,1.4c1.2-0.1,2-0.9,2.5-2C76.1,113.9,76.2,112.5,76.1,111.3
		z"/>
	<path class="st72" d="M167,110.2c0.3,4.1-2.7,8.3-8,8.3c-5.1,0-8.4-3.2-8.4-8.1c0-4.9,3.4-8.2,8.5-8.2
		C164,102.2,167.3,105.8,167,110.2z M162.6,111.8c0-0.2,0-0.3,0-0.5c-0.1-2.1-0.4-4.1-1.5-6c-0.5-0.9-1.1-1.6-2.1-1.8
		c-1.5-0.4-2.9,0.4-3.5,2c-0.8,2-0.7,4-0.4,6c0.2,1.6,0.6,3.3,1.7,4.6c1.6,2,4.3,1.6,5.2-0.8C162.6,114.1,162.6,112.9,162.6,111.8z"
		/>
	<path class="st72" d="M138.6,104.4c0,4,0,7.2,0,10.4c0,1.7,0.1,1.9,1.7,2.3c0.5,0.1,0.3,0.5,0.3,0.8c0,0.3-0.1,0.4-0.4,0.4
		c-2.6,0-5.3,0-7.9,0c-0.3,0-0.5,0-0.4-0.4c0-0.3-0.2-0.7,0.4-0.8c1.5-0.3,1.7-0.6,1.7-2.1c0-5.4,0-10.8,0-16.2c0-0.2,0-0.5,0-0.7
		c-0.1-1.2-0.4-1.5-1.6-1.7c-0.5-0.1-0.6-0.3-0.6-0.7c0-0.5,0.3-0.5,0.6-0.5c1.9-0.2,3.7-0.5,5.5-1.1c0.5-0.2,0.9,0.2,0.8,0.8
		C138.5,98.3,138.6,101.7,138.6,104.4z"/>
	<path class="st72" d="M147.9,108.5c0,2.6,0,4.6,0,6.7c0,1.2,0.3,1.7,1.6,1.9c0.6,0.1,0.5,0.5,0.5,0.9c0,0.5-0.3,0.4-0.6,0.4
		c-2.6,0-5.1,0-7.7,0c-0.3,0-0.6,0-0.6-0.4c0-0.4-0.1-0.7,0.5-0.8c1.1-0.1,1.5-0.6,1.5-1.7c0-3.1,0-6.3,0-9.4c0-1.3-0.4-1.7-1.7-1.9
		c-0.5-0.1-0.4-0.3-0.5-0.6c0-0.4,0-0.6,0.5-0.6c2-0.1,3.9-0.5,5.7-1.1c0.5-0.2,0.8,0.3,0.8,0.9C147.9,104.8,148,106.9,147.9,108.5z
		"/>
	<path class="st72" d="M101,86.1c8.5,0,17,0,25.5,0c0.4,0,0.7,0,0.7,0.5c0,0.6-0.4,0.4-0.7,0.4c-16.8,0-33.6,0-50.4,0
		c-0.1,0-0.3,0-0.4,0c-0.3,0-0.7,0.2-0.7-0.4c0-0.6,0.4-0.5,0.7-0.5c2.3,0,4.6,0,6.8,0C88.7,86.1,94.9,86.1,101,86.1
		C101,86.1,101,86.1,101,86.1z"/>
	<path class="st72" d="M148.1,96.3c0,1.5-1.2,2.8-2.7,2.8c-1.5,0-2.7-1.2-2.7-2.7c0-1.5,1.1-2.8,2.7-2.8
		C146.9,93.6,148.1,94.8,148.1,96.3z"/>
	<path class="st72" d="M116.4,76.4c0.1,0.4-0.2,1.1,0.5,1.5c0.2,0.1,0.3,0.8-0.2,1c-0.4,0.2-0.2,0.5-0.2,0.7
		c0.1,0.6-0.3,0.6-0.7,0.6c-0.4,0-0.8,0-0.7-0.6c0.1-0.5-0.1-0.7-0.6-0.7c-0.5,0-1,0-1.5,0c-0.3,0-0.6,0.1-0.7-0.2
		c-0.1-0.4-0.2-0.9,0.1-1.2c0.8-0.9,1.6-1.8,2.5-2.6c0.5-0.4,1-0.2,1.5-0.1c0.2,0,0.2,0.3,0.2,0.4C116.4,75.6,116.4,75.9,116.4,76.4
		z M113.7,77.6c1.3,0.2,1.5,0.1,1.1-1.2C114.5,76.8,114.1,77.2,113.7,77.6z"/>
	<path class="st72" d="M123.3,80.2c-0.5,0-1,0-1.5,0c-0.2,0-0.4,0-0.5-0.2c-0.1-0.2,0.1-0.3,0.2-0.5c0.6-0.8,1.3-1.6,1.9-2.4
		c0.3-0.4,0.5-0.8,0-1.1c-0.4-0.3-0.8-0.1-1,0.3c-0.3,0.5-0.8,0.2-1.1,0.2c-0.3-0.1-0.1-0.4,0-0.6c0.2-0.7,0.9-1.2,1.7-1.3
		c0.8,0,1.5,0.3,1.9,1.1c0.4,0.7,0.4,1.4-0.2,2c0,0-0.1,0.1-0.1,0.1c-0.2,0.3-0.7,0.6-0.6,0.9c0.1,0.3,0.7,0.1,1,0.1
		c0.6,0.1,0.2,0.5,0.3,0.8c0.1,0.3,0,0.5-0.4,0.5C124.3,80.2,123.8,80.2,123.3,80.2z"/>
	<path class="st72" d="M85.8,74.7c1.5,0,2.5,1.5,1.9,2.8c-0.4,0.9-1,1.6-1.5,2.4c-0.4,0.6-1,0.2-1.5,0.3c-0.1,0-0.2-0.2-0.1-0.3
		c0.1-0.2,0.2-0.3,0.3-0.4c0.4-0.5,0.6-0.9-0.2-1.2c-0.7-0.3-1-1.2-0.8-2C84,75.4,84.9,74.7,85.8,74.7z M86.6,76.7
		c-0.1-0.5-0.3-0.8-0.8-0.8c-0.5,0-0.8,0.3-0.7,0.8c0,0.4,0.3,0.7,0.7,0.7C86.3,77.4,86.5,77.1,86.6,76.7z"/>
	<path class="st72" d="M78.7,77.4c0,0.7,0,1.4,0,2.1c0,0.5-0.3,0.5-0.6,0.5c-0.3,0-0.8,0.2-0.8-0.5c0-1.4,0-2.8-0.1-4.2
		c0-0.6,0.3-0.6,0.7-0.6c0.4,0,0.7,0,0.7,0.6C78.6,76.1,78.6,76.8,78.7,77.4C78.6,77.4,78.7,77.4,78.7,77.4z"/>
</g>
</svg>
