<svg id="Layer_1" data-name="Layer 1" xmlns="http://www.w3.org/2000/svg" viewBox="0 0 130 130"><defs><style>.cls-1{fill:#006d33;}.cls-2{fill:#231f20;}.cls-3{fill:#6e6f70;}</style></defs><title>Artboard 1 copy</title><path class="cls-1" d="M33.61,70.19a15,15,0,0,0,2.11-4h1.71a22,22,0,0,1-3,5.39v2.7H32.87V71.61a23.56,23.56,0,0,1-3-5.39h1.72a12.94,12.94,0,0,0,2.07,4"/><path class="cls-1" d="M49.26,69.53A5.13,5.13,0,0,1,47.81,69a.63.63,0,0,1-.36-.59.77.77,0,0,1,.48-.71,2.3,2.3,0,0,1,1-.18,5.54,5.54,0,0,1,1.74.33l.51-1.19a5,5,0,0,0-2.25-.5,3.32,3.32,0,0,0-2,.56,2,2,0,0,0-1,1.72c0,1.39,1.19,1.93,2.34,2.31.48.18,1,.3,1.34.47a.92.92,0,0,1,.53.81.87.87,0,0,1-.47.77,2.58,2.58,0,0,1-1.22.23,4.07,4.07,0,0,1-2.4-.8l-.53,1.22a5.2,5.2,0,0,0,3,.92c1.78,0,3.11-1,3.11-2.46,0-1.31-1.06-2-2.37-2.35"/><path class="cls-1" d="M40.93,72.88H39.84V67.61h.94a2.64,2.64,0,1,1,.15,5.27m-.15-6.66H38.35v8.09h2.58a4,4,0,0,0,4.15-4.12c0-2.37-1.69-4-4.3-4"/><path class="cls-1" d="M59.13,73.09h-1.3V70.75h1.33c1.16,0,1.75.33,1.75,1.13,0,1.06-1,1.21-1.78,1.21m-1.3-5.66H59c1.07,0,1.57.27,1.57.95s-.5,1.1-1.45,1.1H57.83ZM60.61,70h0A1.86,1.86,0,0,0,62,68.2c0-1.42-1.25-2-2.46-2H56.4v8.06h2.94c1.51,0,3-.63,3-2.31A1.9,1.9,0,0,0,60.61,70"/><polygon class="cls-1" points="78.25 66.22 76.83 66.22 76.83 72.05 76.8 72.05 73.39 66.22 71.55 66.22 71.55 74.31 72.94 74.31 72.94 68.26 72.97 68.26 76.44 74.31 78.25 74.31 78.25 66.22"/><polygon class="cls-1" points="82.93 70.1 86.67 66.22 84.77 66.22 81.42 69.83 81.36 69.83 81.36 66.22 79.97 66.22 79.97 74.31 81.36 74.31 81.36 70.39 81.42 70.39 85.01 74.31 86.99 74.31 82.93 70.1"/><polygon class="cls-1" points="16.42 74.31 20.95 74.31 21.43 72.86 17.87 72.86 17.87 66.22 16.42 66.22 16.42 74.31"/><polygon class="cls-1" points="10.17 74.31 14.7 74.31 15.21 72.86 11.65 72.86 11.65 66.22 10.17 66.22 10.17 74.31"/><path class="cls-1" d="M25.79,73a2.73,2.73,0,0,1,0-5.45,2.73,2.73,0,0,1,0,5.45m0-6.87a4,4,0,0,0-4.12,4.12,3.94,3.94,0,0,0,4.09,4.12,4.12,4.12,0,0,0,0-8.24"/><path class="cls-1" d="M66.69,72.59a7.49,7.49,0,0,0,1.69-.18l.74,1.93h1.69l-3.5-8.07H66.1l-3.5,8.07h1.69L65,72.41a7,7,0,0,0,1.66.18m0-1.25a5.7,5.7,0,0,1-1.25-.12L66.69,68l1.24,3.2a5.61,5.61,0,0,1-1.24.12"/><path class="cls-2" d="M118.71,65.56c.56.42,1.12.71,1.12,1.34,0,.17-.23.38-.77.38a1.34,1.34,0,0,1-1.06-.41c-.18-.21.06-.54-.06-.74s-.36-.09-.54-.18-.2-.18-.35-.48A7.41,7.41,0,0,0,115.8,64a2.13,2.13,0,0,0-1.27-.74,1.71,1.71,0,0,1-.39,0c-.44,0-.8.42-1.42.68a3.85,3.85,0,0,1-1,.33l-.09.12.57,0c.53,0,1.21-.06,1.72-.06s.8.47,1,1a29.83,29.83,0,0,0,1.75,3.7,2.79,2.79,0,0,1,.65,1.66c0,.21,0,.53-.32.53s-1.45-.44-1.45-.88.29-.51.29-.86-.32-.18-.41-.39a6.55,6.55,0,0,0-1.19-2.82c-.32-.32-.35-.47-.68-.47a2.06,2.06,0,0,0-.47.09,25.67,25.67,0,0,1-3.38,1.69c-.54.18-.63-.15-1.19-.06h.06c-.44.09-.8.36-1.42.53a9.38,9.38,0,0,1-3.5.18,17.81,17.81,0,0,0-2.37-.27,5.09,5.09,0,0,1-2.22,2.88.94.94,0,0,0-.6,1.3c.21.83,1,1.46,1.34,2.17a5.62,5.62,0,0,0,1.54,1.89c.59.33,1,.77,1,1.19,0,.18-.06.3-.27.3h-1.22a.38.38,0,0,1-.32-.18c-.18-.33-.06-.59-.3-.89s-.29-.15-.5-.33c-.36-.35-.09-.56-.36-1a28,28,0,0,0-1.75-2.41c-.35-.44-.83-.71-.83-1.3s.74-.86.71-1.6a3.79,3.79,0,0,1-1.89.74,1.53,1.53,0,0,0-.54.39,1.46,1.46,0,0,0-.44,1,14.69,14.69,0,0,0-.18,3,1.65,1.65,0,0,0,.83,1.21,1.51,1.51,0,0,1,.77,1c0,.12-.06.3-.21.3H94.55a.4.4,0,0,1-.3-.18c-.14-.27,0-.45-.11-.74-.12-.6-.83-.57-.83-1.22a8.18,8.18,0,0,0,.11-.83,15.7,15.7,0,0,0,.06-3.88c-.11-1,.89-1,1.43-1.84.32-.47.2-.29.41-.62a1.26,1.26,0,0,0,.12-.83,5.22,5.22,0,0,1-.09-2.08,3.13,3.13,0,0,1,.71-1.54s0-.09-.12-.09c-.53.06-.53-.08-.86-.08a.8.8,0,0,0-.65.44.39.39,0,0,1-.23-.36.8.8,0,0,1,.2-.53c.06-.06,0-.12-.09-.12-.41,0-.8.51-.89.83-.23-.06-.26-.35-.35-.35s-.18.17-.18.32c0,1.19,1.93,1.45,1.93,3,0,1.8-2.17,1.42-2.17,2.07,0,.12.09.24.27.33a.45.45,0,0,1-.44.23.8.8,0,0,1-.83-.83c0-1,1.33-1,1.33-1.74,0-.36-.21-.45-.44-.63a3.75,3.75,0,0,1-2-3.23,2.62,2.62,0,0,1,2.52-2.78c2.07,0,2.13,2.4,4,2.6a4.35,4.35,0,0,1,2.34-.77c1.22,0,1.75.33,3,.33a4.35,4.35,0,0,0,2.44-.86c.38-.27.56-.33.91-.62A4.73,4.73,0,0,0,107.41,58v.06c0-.32,0-.5-.2-.5-.45,0-.83.42-1.28.83-.29.3.15.44-.47.77-.21.12-.48-.09-.71-.09-.51,0-.71-.59-.71-1.09,0-.27.17-.33.32-.57.27-.5.24-.71.48-1.18s.41-.57.38-.8-.06-.15-.06-.24c0-.5.68-.83.68-1.33,0-.3-.32-.42-.38-.63a.54.54,0,0,1,0-.29c0-.06.06-.06.09-.06.26,0,.35.29.59.44,0-.32-.09-.41-.09-.65s0-.33.12-.33.15.21.3.33.35.12.56.27.41.44.5.44c.27.06.33-.3.18-.44.3,0,.59.2,1,.2a1.4,1.4,0,0,1,1,.27c.38.33.44.59.89.59a.49.49,0,0,0,.38-.26c.3.2.33.77,0,1.24.12.39.68.45,1,.62s.21.3.42.39a.35.35,0,0,0,.38,0,.94.94,0,0,1-.86,1.07c0,.68.71,1.06,1,1.24a1,1,0,0,1-.83.59c.09.42.53,1,.33,1.55a.35.35,0,0,0-.51.29c0,.33.45.51,0,.74-.18.12-.24.42.12.71a6.45,6.45,0,0,1,1.48-.11c.33,0,.77-.09,1.07-.09a1.54,1.54,0,0,1,1.3.68,38.64,38.64,0,0,0,3,2.9"/><path class="cls-3" d="M91.2,62.6c.21,0,.62-1.22,1.45-1.22.24,0,.3.09.3.18s-.3.33-.3.54c0,0,0,.08.09.08s.36-.44,1.19-.44a3.57,3.57,0,0,1,.59.06c.09,0,.3.12.18-.15A1.77,1.77,0,0,0,93,60.55a2.06,2.06,0,0,0-1.93,1.75c.06.18.06.3.15.3"/><path class="cls-3" d="M106.58,55c-.23-.09-.29-.21-.17-.53s.06-.45-.06-.48-.3.06-.45.21a2.41,2.41,0,0,0-.44.65c-.06.27.24.21,0,.66a12.14,12.14,0,0,0-.68,1.33,2.91,2.91,0,0,1-.39.77c-.12.15.15.18.45.06s.32.27.2.53,0,.27.24.06-.12-.32-.06-1a3,3,0,0,1,.53-1.36c.3-.44.54-.8,1-.62.15.12.06-.21-.21-.33"/><path class="cls-3" d="M116.87,70.69c.09,0,.12-.12.12-.24a1.26,1.26,0,0,0-.36-.83c-.06.39-.23.66-.23.83s.35.24.47.24"/><path class="cls-3" d="M119.18,67c.15,0,.36-.06.36-.18a1.11,1.11,0,0,0-.62-.71c.2.38,0,.89.26.89"/><path class="cls-3" d="M109,61.92c2.1.95,2,2.72,2.13,2.28a1.86,1.86,0,0,0-.39-1.9c-.56-.68-.8-.5-.56-1.06.92-2.23,1.48-5.55-1.24-6.7-.33-.12-.57-.12-.57-.06s.3.15.66.38c1.83,1.22,1.24,4.51-.42,6.08-.53.53-.27.65.39,1"/><path class="cls-3" d="M101.84,77.27c.15,0,.06-.21,0-.33a1.22,1.22,0,0,0-.56-.44c.06.21.06.77.3.77h.23"/><path class="cls-3" d="M95.53,77.27c.15,0,.06-.21,0-.33a1.35,1.35,0,0,0-.59-.44c.06.21.09.77.32.77h.3"/><path class="cls-3" d="M103.18,64.73c1.15-.12,1.33-.38,1.54-1.24a2.4,2.4,0,0,1,.65-1.1,3,3,0,0,0,.5-.59c.06-.12.09-.18,0-.18l-.71.48a5.62,5.62,0,0,1-2.55.83c-1.06,0-2-.33-2.93-.33a3.51,3.51,0,0,0-3.82,3.59c0,.2,0,.2.11.2s.39-.77,1.1-1.45a5.24,5.24,0,0,1,3.85-1.57c1.19,0,1.69.39,1.69.53,0,.3-.5.33-.44.6,0,.09.24.32,1,.23"/></svg>