<svg id="Layer_1" data-name="Layer 1" xmlns="http://www.w3.org/2000/svg" viewBox="0 0 130 130"><defs><style>.cls-1{fill:#1b68a8;}.cls-2{fill:#fff;}</style></defs><title>Artboard 1 copy 2</title><path class="cls-1" d="M33.24,105.88c-.35-.07-.7-.09-1-.17a4.78,4.78,0,0,1-3.63-3.31,10,10,0,0,1-.5-3.11A17.65,17.65,0,0,1,29,93.22a2.08,2.08,0,0,1,1.75-1.51.56.56,0,0,1,.73.53,4,4,0,0,1-.09,1.34,31.87,31.87,0,0,0-.55,3.78,24.29,24.29,0,0,0,0,2.56,8.88,8.88,0,0,0,.29,2.12,3.73,3.73,0,0,0,1.12,1.9,3,3,0,0,0,4.08-.39,5.18,5.18,0,0,0,1-1.91,13.88,13.88,0,0,0,.54-3.27,7.08,7.08,0,0,0-.48-2.91A5.09,5.09,0,0,1,37,93.65a2.34,2.34,0,0,1,.71-1.78,1.35,1.35,0,0,1,.59-.34.82.82,0,0,1,1,.43,4.41,4.41,0,0,1,.43,1.33,20.19,20.19,0,0,1,.17,4.18,15.31,15.31,0,0,1-.17,2.14,9,9,0,0,1-1.8,4.31,5.09,5.09,0,0,1-3.54,1.93.14.14,0,0,0-.11,0Z"/><path class="cls-1" d="M68.84,103.51a2.07,2.07,0,0,0,1.53.5,3.41,3.41,0,0,0,2.42-1.47,10.94,10.94,0,0,0,1.44-2.67c.23-.58.44-1.17.66-1.75a2,2,0,0,1,.32-.59,1.12,1.12,0,0,1,.28-.25.43.43,0,0,1,.68.17,5.05,5.05,0,0,1,.53,1.4c.33,1.13.57,2.28,1,3.39a4.13,4.13,0,0,0,.65,1.27.73.73,0,0,0,1.29,0,3.71,3.71,0,0,0,.65-1.81,3.78,3.78,0,0,0-.13-1.42,3.85,3.85,0,0,1,.21-2.69,1.77,1.77,0,0,1,.73-.8c.6-.33,1.25-.26,1.39.67a5.18,5.18,0,0,1-.08,1.71,11.4,11.4,0,0,1-1.86,4.69A4.86,4.86,0,0,1,79,105.29a2.73,2.73,0,0,1-1.28.38,1.63,1.63,0,0,1-1.41-.73,5.09,5.09,0,0,1-.69-1.54l-.27-.87-.1-.25c-.19-.41-.41-.45-.74-.14s-.71.83-1.07,1.24a6.5,6.5,0,0,1-2.94,2.06,5.86,5.86,0,0,1-1.86.27,2.51,2.51,0,0,1-1.83-.88c-.11-.12-.19-.12-.32,0a5,5,0,0,1-2,.83,2.62,2.62,0,0,1-2.26-.64c-.26-.24-.51-.49-.78-.72a.62.62,0,0,0-.88-.07c-.32.21-.62.44-.94.65a4.58,4.58,0,0,1-3,.84,2.08,2.08,0,0,1-1.45-.84,7.67,7.67,0,0,1-.7-1.08c-.11-.17-.21-.35-.33-.52s-.46-.33-.73,0a5,5,0,0,0-.45.58c-.26.39-.51.78-.79,1.14a2.89,2.89,0,0,1-.51.54.89.89,0,0,1-1.21,0,2.56,2.56,0,0,1-.65-.78,14.92,14.92,0,0,1-.82-1.71,10.6,10.6,0,0,0-.58-1.17l-.11-.16c-.51-.75-.94-.84-1.69-.33a15.88,15.88,0,0,0-2,1.72,31.76,31.76,0,0,1-2.45,2.18,2.3,2.3,0,0,1-.66.39.58.58,0,0,1-.82-.54,3.42,3.42,0,0,1,.19-1.06c.48-1.62.89-3.25,1.32-4.88a1.4,1.4,0,0,1,.39-.74,1.08,1.08,0,0,1,.36-.24c.36-.16.51-.09.6.29.14.57.24,1.14.43,1.69a2,2,0,0,0,.28.59c.12.17.23.18.4.06a3,3,0,0,0,.54-.58c.58-.73,1.09-1.5,1.7-2.2a4.13,4.13,0,0,1,.75-.7.68.68,0,0,1,1.13.22,7.07,7.07,0,0,1,.68,1.66,21.88,21.88,0,0,0,.9,2.62,3,3,0,0,0,.51.83.94.94,0,0,0,1.51,0,3.51,3.51,0,0,0,.77-1.3,4.43,4.43,0,0,0,.1-.9,6.33,6.33,0,0,1,.42-1.83,2.17,2.17,0,0,1,.54-.82.82.82,0,0,1,1.4.25,3.42,3.42,0,0,1,.29,1.7,5.66,5.66,0,0,1-.26,1.4,1.82,1.82,0,0,0,.06,1,2.19,2.19,0,0,0,2.77,1.63,3.18,3.18,0,0,0,1.91-1.44.17.17,0,0,0,0-.17,12.53,12.53,0,0,1-.73-2.94A13.16,13.16,0,0,1,60.09,93a6.44,6.44,0,0,1,1.12-2.12,2.06,2.06,0,0,1,1-.73,1.75,1.75,0,0,1,1.75.57,3.22,3.22,0,0,1,.86,1.94,13.81,13.81,0,0,1-1.45,8.18c-.23.43-.44.87-.67,1.3a.31.31,0,0,0,0,.28,3.06,3.06,0,0,0,2.52,1.79,1.86,1.86,0,0,0,.83-.24.23.23,0,0,0,.14-.31,6.38,6.38,0,0,1,2-5.93,2.64,2.64,0,0,1,1-.52,1.53,1.53,0,0,1,1.6.39,3.49,3.49,0,0,1,1,2,2.92,2.92,0,0,1-1,2.6,10,10,0,0,1-1.58,1.23Zm-7.41-6.65a17,17,0,0,0,.13,2.26,2.56,2.56,0,0,0,.23.85c.15.29.35.31.54,0a2.94,2.94,0,0,0,.25-.46,12.13,12.13,0,0,0,.91-5.68,2.15,2.15,0,0,0-.29-.95.65.65,0,0,0-1.11,0,2.66,2.66,0,0,0-.33.8A12.28,12.28,0,0,0,61.43,96.86ZM67.7,101a2.9,2.9,0,0,0,.45,1.62c.07.11.14.12.26.08a2.28,2.28,0,0,0,1.33-2.76.85.85,0,0,0-1.56-.36A2,2,0,0,0,67.7,101Z"/><path class="cls-1" d="M36.91,24.16a12.32,12.32,0,0,1,3.19.38,2,2,0,0,1,.61.27.33.33,0,0,1,.1.53,1.62,1.62,0,0,1-.49.45l-1,.64a3,3,0,0,0-.63.47c-.32.33-.26.61.16.76a4.4,4.4,0,0,0,1.14.2c.43.05.87.07,1.3.16.62.12.72.37.34.88a10.68,10.68,0,0,1-1.17,1.25,8.86,8.86,0,0,0-.9.94c-.08.11-.22.23-.12.37s.27.08.41,0a8.6,8.6,0,0,0,1.27-.59,4.72,4.72,0,0,1,1.12-.46c.36-.08.53,0,.53.42a6.81,6.81,0,0,1-.24,1.5,5.29,5.29,0,0,0-.13.78,1.23,1.23,0,0,0,0,.27.2.2,0,0,0,.33.13,1.07,1.07,0,0,0,.33-.34l.82-1.2a1.75,1.75,0,0,1,.44-.46c.26-.16.42-.11.5.19a3.23,3.23,0,0,1,.1.76c0,.53,0,1.06.07,1.58a1.22,1.22,0,0,0,.13.46c.09.17.23.18.35,0a1.26,1.26,0,0,0,.22-.45l.42-1.64A3.29,3.29,0,0,1,46.3,32c.16-.36.38-.38.63-.07a1.52,1.52,0,0,1,.22.34c.09.16.17.33.27.49a3.13,3.13,0,0,0,.22.36c.11.14.24.28.44.22s.18-.26.19-.41c0-.54,0-1.08,0-1.62s.2-.48.54-.29a7.37,7.37,0,0,1,1.32,1l1,.88a1.65,1.65,0,0,0,.27.19.15.15,0,0,0,.18,0,.2.2,0,0,0,0-.18,3.12,3.12,0,0,0-.24-.73c-.3-.72-.65-1.41-.89-2.16a2.15,2.15,0,0,1-.14-.87c0-.41.2-.56.61-.52a3.6,3.6,0,0,1,.86.21c.62.21,1.23.5,1.87.65a1.44,1.44,0,0,0,.46,0,.33.33,0,0,0,.3-.43,1.5,1.5,0,0,0-.29-.56,13.55,13.55,0,0,0-1.37-1.47,7.59,7.59,0,0,1-.85-.94c-.34-.46-.3-.69.19-1a7,7,0,0,1,1.94-.68,12.41,12.41,0,0,1,3-.33,1.65,1.65,0,0,1,.32,0c.13,0,.27.05.3.2s-.08.25-.19.33a2.25,2.25,0,0,1-.46.25l-1.47.57a4.64,4.64,0,0,0-.89.45c-.36.24-.41.44-.19.81a6.71,6.71,0,0,0,1.11,1.33,25.86,25.86,0,0,1,1.84,1.93,2.57,2.57,0,0,1,.58,1,.51.51,0,0,1-.44.68,2.34,2.34,0,0,1-1.08-.11c-.92-.22-1.8-.57-2.7-.84a4.27,4.27,0,0,0-1-.23c-.32,0-.41.07-.37.39a5,5,0,0,0,.38,1.15c.36.86.79,1.69,1.08,2.58a2.82,2.82,0,0,1,.19.86c0,.54-.26.74-.76.54a5.23,5.23,0,0,1-1.25-.83c-.6-.49-1.16-1-1.79-1.47a2.5,2.5,0,0,0-.41-.25c-.3-.15-.5-.06-.63.25a4.29,4.29,0,0,0-.2.86,4.64,4.64,0,0,1-.16.74c-.14.39-.39.45-.71.18a7.32,7.32,0,0,1-.58-.67,1.41,1.41,0,0,0-.37-.36c-.25-.17-.4-.13-.52.13A7.19,7.19,0,0,0,46.3,36a21,21,0,0,1-.62,2.19,2.1,2.1,0,0,1-.32.61.39.39,0,0,1-.69,0,2.21,2.21,0,0,1-.3-.86c-.14-.68-.18-1.37-.27-2.05a3.11,3.11,0,0,0-.19-.8c-.11-.24-.23-.29-.46-.17a2.29,2.29,0,0,0-.51.41,8,8,0,0,1-.76.68,1.32,1.32,0,0,1-.49.24.54.54,0,0,1-.73-.45,3.54,3.54,0,0,1,0-1.17,10.72,10.72,0,0,0,.13-1.5c0-.52-.18-.64-.66-.46a15.14,15.14,0,0,0-1.93,1,17.57,17.57,0,0,1-1.89,1,2.23,2.23,0,0,1-.84.22c-.37,0-.53-.2-.42-.56a2.38,2.38,0,0,1,.38-.7A17.15,17.15,0,0,1,37,32c.59-.66,1.2-1.29,1.75-2a2.65,2.65,0,0,0,.37-.57c.08-.2,0-.3-.16-.38a3,3,0,0,0-.85-.14c-.83-.05-1.65,0-2.47-.07a2.55,2.55,0,0,1-.67-.12c-.23-.08-.27-.19-.15-.41a1.35,1.35,0,0,1,.38-.41,17,17,0,0,1,1.65-1.11,6.22,6.22,0,0,0,.85-.6c.26-.23.24-.37-.09-.52a9,9,0,0,0-1.35-.38,7.23,7.23,0,0,1-1-.32c-.16-.07-.37-.13-.35-.35s.21-.29.39-.35a3.67,3.67,0,0,1,.87-.14C36.42,24.15,36.66,24.16,36.91,24.16Z"/><path class="cls-1" d="M48.59,79.88a6,6,0,0,0,2,0,2.45,2.45,0,0,0,2-1.63,3,3,0,0,0,.11-1.37c0-.05,0-.09,0-.15a.91.91,0,0,1,.3.13,4.56,4.56,0,0,1,2.08,3,.35.35,0,0,0,.23.3,3.21,3.21,0,0,0,2.14.13,1.61,1.61,0,0,0,1.17-1.35c0-.16.1-.2.25-.21A5.86,5.86,0,0,0,62,77.45,4.3,4.3,0,0,0,63.58,75c0-.15.07-.19.22-.12a5.51,5.51,0,0,1,2.09,1.48c0,.06.09.09.17.07a6,6,0,0,1,3.2.1l.12,0c.13,0,.27.12.38.09s.08-.22.13-.33a.45.45,0,0,1,.44-.28.48.48,0,0,1,.5.28A3.29,3.29,0,0,1,71,77a.7.7,0,0,0,.33.5l.21.16a.56.56,0,0,1-.46,1c-.21-.05-.28,0-.34.21-.15.37-.23.76-.35,1.14A5.61,5.61,0,0,1,70,81a1.64,1.64,0,0,1-2.08.88,3.77,3.77,0,0,1-2.22-1.77,5.68,5.68,0,0,1-.39-.78.89.89,0,0,0-1.57-.3,9.33,9.33,0,0,1-2.12,1.69,7.93,7.93,0,0,1-4.18,1l-1.1-.06s-.11,0-.14,0,0,.11.07.15a2.24,2.24,0,0,0,.87.44,6.25,6.25,0,0,0,2.28.15,6.54,6.54,0,0,0,3.15-1,12.58,12.58,0,0,0,1-.78,3.88,3.88,0,0,1,.31-.26.5.5,0,0,1,.79.2c.09.18.17.36.27.53a4.26,4.26,0,0,0,3.28,2.12,6.24,6.24,0,0,0,1.83,0h.17c.14,0,.28,0,.35.15a.38.38,0,0,1-.05.43,1.33,1.33,0,0,1-.55.42,4.21,4.21,0,0,1-1.39.37,4.57,4.57,0,0,1-1.73,0,1.82,1.82,0,0,1-1.3-1.08c0-.13-.11-.08-.18,0a8.81,8.81,0,0,1-5.74,1.22,8.62,8.62,0,0,1-3.4-1,13.08,13.08,0,0,1-1.32-.87l-.46-.32a2.91,2.91,0,0,0-1.82-.6,4.74,4.74,0,0,1-2.15-.47,6.22,6.22,0,0,1-1.8-1.43A.16.16,0,0,1,48.59,79.88ZM68,79.65a.9.9,0,1,0,0-1.8.9.9,0,1,0,0,1.8Z"/><path class="cls-1" d="M81.12,48.8a2.39,2.39,0,0,1,1.5,1.35c.11.27.21.55.3.83a4.12,4.12,0,0,0,1.48,2.09,11.91,11.91,0,0,1,2,1.83A10.38,10.38,0,0,1,88.14,58a.88.88,0,0,0,0,.15,3,3,0,0,0,0-1.36,7.86,7.86,0,0,0-1.39-2.88c-.74-1-1.61-2-2.43-2.93a5.79,5.79,0,0,1-.8-1.11c0-.05-.08-.11,0-.16s.12,0,.18,0c.32,0,.63.1.95.17a3,3,0,0,1,2.08,1.72,27,27,0,0,1,1.09,2.66,19.69,19.69,0,0,1,.86,2.41c0,.16.07.32.11.51.11-.29.21-.55.32-.81a15.27,15.27,0,0,1,1.11-2.07c.09-.14.06-.18-.07-.25a10.1,10.1,0,0,1-1.37-.75,5.27,5.27,0,0,1-.58-.48,1.66,1.66,0,0,1-.36-2.11,3.85,3.85,0,0,1,1.87-1.78c.33-.16.46-.07.47.3a11.25,11.25,0,0,1-.26,1.91,4.17,4.17,0,0,0-.1,1.22,1.59,1.59,0,0,0,.33.75c.26.3.47.32.76,0a3.56,3.56,0,0,0,.94-1.57,3.06,3.06,0,0,0-2.31-4,1.3,1.3,0,0,0-.8.11,9.56,9.56,0,0,1-1.93.66,7.31,7.31,0,0,1-3.54,0,5.28,5.28,0,0,1-3.37-3A8.44,8.44,0,0,1,79,41.77c0-.07,0-.16,0-.2s.11,0,.17.08a3.53,3.53,0,0,0,2,.48A14.24,14.24,0,0,0,82.82,42a5.09,5.09,0,0,1,3.59.73A7.3,7.3,0,0,1,88,44.21c.46.58.88,1.19,1.3,1.8a1,1,0,0,0,.33.3,10.4,10.4,0,0,1,1.73,1.15,4.09,4.09,0,0,1,1.46,3.61A4.17,4.17,0,0,1,92,53c-.44.68-1,1.3-1.41,2a6.7,6.7,0,0,0-1.06,2.1c0,.06-.07.12,0,.17s.12,0,.18,0a1.71,1.71,0,0,0,.56-.37c.29-.27.53-.58.8-.87a2.55,2.55,0,0,1,.58-.5.81.81,0,0,1,1.31.67,4.15,4.15,0,0,1-.53,2.26,4.62,4.62,0,0,1-1.08,1.39,4.57,4.57,0,0,0,0-.84c0-.1,0-.2-.09-.3a1,1,0,0,0-1.56-.49A2.44,2.44,0,0,0,89,59l-.56,1-.14.25-.31-1a12.39,12.39,0,0,0-1.47-3.15,5,5,0,0,0-2.19-2,12.63,12.63,0,0,0-1.48-.45,7.24,7.24,0,0,1-.75-.24,1.73,1.73,0,0,1-1.2-2.18c.09-.46.22-.91.31-1.37a1.55,1.55,0,0,0-.08-1Zm.25-3.38a4.09,4.09,0,0,0,.6-.07,4.58,4.58,0,0,1,1.1-.12c.16,0,.32.06.38.23s-.06.3-.17.4-.34.32-.5.48-.17.18-.1.31.2.12.32.11a.76.76,0,0,0,.33-.11c.21-.11.42-.22.62-.34a7,7,0,0,1,.94-.49.94.94,0,0,1,.7-.06c.24.08.3.22.14.43s-.28.35-.42.52a1.07,1.07,0,0,0-.23.4.26.26,0,0,0,.08.32.23.23,0,0,0,.28,0,2,2,0,0,0,.27-.22,7.46,7.46,0,0,1,.61-.53,1.11,1.11,0,0,1,.93-.22c.2,0,.41.06.61.08a.24.24,0,0,0,.28-.11.25.25,0,0,0-.1-.31l-.44-.32a1.67,1.67,0,0,1-.74-1.25,1.55,1.55,0,0,0-.08-.36c0-.12-.11-.24-.27-.23s-.17.14-.19.26a1.08,1.08,0,0,0,0,.19c0,.18,0,.36-.08.53s-.16.29-.39.24a1.05,1.05,0,0,1-.44-.24,2.18,2.18,0,0,1-.37-.49c-.18-.33-.34-.67-.52-1-.06-.12-.12-.31-.3-.26s-.16.24-.15.39,0,.44,0,.66,0,.35-.19.43a.47.47,0,0,1-.48-.1A2.61,2.61,0,0,1,83,44.1a5,5,0,0,0-.6-.7c-.17-.14-.36-.18-.46-.08s0,.28,0,.4.22.38.31.58a.28.28,0,0,1-.17.42,2.18,2.18,0,0,1-.44.11A2.28,2.28,0,0,0,81,45c-.1,0-.17.09-.16.21s.07.17.17.21A.89.89,0,0,0,81.37,45.42Z"/><path class="cls-1" d="M81.87,29.29a5.11,5.11,0,0,1-4.58,5.38,5.12,5.12,0,0,1-3.41-.77l-.57-.32a.32.32,0,0,0-.46.11l-.43.59a1.46,1.46,0,0,1-.16.19c-.16.15-.29.11-.33-.1s-.09-.55-.13-.82a1.74,1.74,0,0,0-.13-.46c-.12-.24-.25-.28-.47-.13s-.62.52-.93.78a5.2,5.2,0,0,1-.59.46.53.53,0,0,1-.21.11c-.16,0-.21,0-.19-.16a1.72,1.72,0,0,1,.19-.49c.23-.44.47-.88.7-1.33a2,2,0,0,0,.19-.46c.07-.22,0-.31-.2-.38a3,3,0,0,0-.66-.11,2.1,2.1,0,0,1-.5-.09.18.18,0,0,1-.09-.29,1,1,0,0,1,.28-.29c.27-.2.56-.39.82-.6.55-.44.51-.81-.12-1.12l-.64-.31A.72.72,0,0,1,69,28.5a.2.2,0,0,1,0-.32l.45-.26a4.46,4.46,0,0,0,.66-.4.3.3,0,0,0,.1-.45,8.18,8.18,0,0,0-.58-.94A7.22,7.22,0,0,1,69,25.07c0-.12-.16-.26,0-.38s.25,0,.37,0c.51.2,1,.49,1.45.73a3.71,3.71,0,0,0,.61.28c.21.06.28,0,.35-.19a2.63,2.63,0,0,0,.08-.74,1.34,1.34,0,0,1,.08-.53c.07-.17.15-.19.3-.09a3.59,3.59,0,0,1,.52.51.76.76,0,0,0,.9.23,10.54,10.54,0,0,1,1.73-.55,5.64,5.64,0,0,1,5.24,1.51,4.56,4.56,0,0,1,1.23,2.67C81.84,28.84,81.86,29.13,81.87,29.29Zm-2,.1a6,6,0,0,0,0-.85,3.84,3.84,0,0,0-1-2.21,3.46,3.46,0,0,0-3-1,3,3,0,0,0-1.26.38,1.08,1.08,0,0,0-.48.49.37.37,0,0,0,.34.54,1.9,1.9,0,0,0,.67-.09l1-.3c.13,0,.26-.06.34,0s0,.23,0,.33-.19.35-.28.52c-.19.38-.14.49.29.55s.71.06,1.07.08a3.49,3.49,0,0,1,.79.1c.08,0,.18.05.2.15s0,.18-.13.24a2.43,2.43,0,0,1-.35.2l-1,.43c-.44.19-.45.27-.11.61l.84.8a1.26,1.26,0,0,1,.35.5c.06.17,0,.28-.19.28a3.91,3.91,0,0,1-.48-.05,12.9,12.9,0,0,0-1.39-.19c-.27,0-.34.06-.27.33s.11.37.18.55a3.06,3.06,0,0,1,.17.59c0,.24-.06.31-.29.25a3.27,3.27,0,0,1-.66-.3,5.77,5.77,0,0,0-1-.41.36.36,0,0,0-.43.11.38.38,0,0,0,0,.48,2.06,2.06,0,0,0,.64.49,3.71,3.71,0,0,0,1.63.41,3.34,3.34,0,0,0,3.08-1.56A4.37,4.37,0,0,0,79.92,29.39Zm-8.49-1.26c-.08,0-.19-.05-.23.05s0,.16.11.22a.74.74,0,0,0,.12.13c.15.13.31.25.45.39s.23.27,0,.49l-.63.58s-.1.1-.07.17.11.05.17.06h.85c.15,0,.22.06.22.22s0,.5,0,.75,0,.25.09.29.19-.1.26-.19.25-.34.37-.51a.36.36,0,0,1,.47-.15c.24.09.5.17.75.25,0,0,.11.05.16,0s0-.11,0-.16-.21-.4-.32-.6-.15-.34.19-.4l.81-.16c.07,0,.16,0,.16-.11s-.08-.1-.14-.12c-.28-.11-.57-.21-.85-.33s-.32-.17-.14-.44.27-.38.39-.57c0,0,.07-.1,0-.15s-.09,0-.14,0l-.22.07-.5.2c-.29.1-.36.07-.49-.2s-.19-.45-.29-.68,0-.25-.18-.23-.12.16-.15.26c-.07.25-.13.5-.2.75a.28.28,0,0,1-.35.22C71.91,28.17,71.67,28.15,71.43,28.13Z"/><path class="cls-1" d="M40.67,64.65a4.7,4.7,0,0,1-1.25-.13,1.73,1.73,0,0,1-1.1-.84l-.19-.33a4.93,4.93,0,0,0-.49,1.46,2.72,2.72,0,0,0,.77,2.28c.36.4.77.75,1.16,1.11a5.71,5.71,0,0,1,.67.72,2.22,2.22,0,0,1,.42,1.91,4.12,4.12,0,0,1-.42,1c-.59-.55-1.31-.91-1.91-1.44a5.57,5.57,0,0,1-1.85-3.6,7.64,7.64,0,0,1,1.42-5.3c.44-.66.89-1.29,1.33-1.95a2.93,2.93,0,0,0,.55-1.2,1,1,0,0,0-.3-.93,7.17,7.17,0,0,1-.83-.91.71.71,0,0,0-.15-.15.52.52,0,0,0-.85.1A1.43,1.43,0,0,0,37.58,58c.07.13.15.25.23.37a.87.87,0,0,1,.11.81,4.14,4.14,0,0,1-1,1.65l-.16.14a.58.58,0,0,1-1-.15,3.53,3.53,0,0,1-.5-1.39,15.94,15.94,0,0,1-.17-4.25,11.49,11.49,0,0,1,.47-2.54,2.69,2.69,0,0,1,.27-.6,1.09,1.09,0,0,1,.21-.27.34.34,0,0,1,.38-.07c.13.06.14.19.13.31s0,.39,0,.58a10.35,10.35,0,0,0,0,1.76,1.17,1.17,0,0,0,.1.41.33.33,0,0,0,.3.24c.14,0,.21-.1.27-.21a3.63,3.63,0,0,0,.3-1c.15-.77.25-1.56.46-2.32a3.49,3.49,0,0,1,.27-.7,1.17,1.17,0,0,1,.24-.3.42.42,0,0,1,.45-.11c.16.05.21.2.24.35a3.09,3.09,0,0,1,0,.86c-.09.71-.27,1.39-.39,2.09a4.12,4.12,0,0,0-.09.86.9.9,0,0,0,.08.36.22.22,0,0,0,.39,0,2.83,2.83,0,0,0,.34-.75c.37-1,.64-2,1-3a4.29,4.29,0,0,1,.51-1c.11-.15.25-.29.47-.23a.45.45,0,0,1,.31.42,2.32,2.32,0,0,1-.12.94c-.26,1.07-.67,2.1-1,3.16a5.26,5.26,0,0,0-.23,1,.91.91,0,0,0,0,.23c0,.17.12.22.28.14a1.4,1.4,0,0,0,.42-.42,12,12,0,0,0,1.45-3.05,3,3,0,0,1,.39-.86c.11-.14.23-.27.43-.23s.28.21.33.39a2.32,2.32,0,0,1-.05,1.11,21.1,21.1,0,0,1-1.52,4.2C41.64,58,41,59.11,40.45,60.28a10.09,10.09,0,0,0-.66,1.79,2.38,2.38,0,0,0,.74,2.45A.86.86,0,0,0,40.67,64.65Z"/><path class="cls-1" d="M68.58,65.67a1.27,1.27,0,0,1,.44.19.6.6,0,0,1,0,1,3.46,3.46,0,0,1-.88.33,8.89,8.89,0,0,0-1.1.37,2.29,2.29,0,0,0-1.34,2,3.28,3.28,0,0,0,1.35,3,5.12,5.12,0,0,0,4.71.92,1.58,1.58,0,0,0,.62-.31.64.64,0,0,0,.22-.24c.16-.28.07-.47-.24-.53l-.25,0c-.19,0-.23-.14-.16-.31s.11-.22.17-.33a.41.41,0,0,0,0-.47c-.13-.15-.28-.09-.43,0a9.8,9.8,0,0,1-1.32.46,3.85,3.85,0,0,1-2.35-.1,2,2,0,0,1-1.07-.87,1.06,1.06,0,0,1-.13-.6c0-.2.13-.28.33-.24.5.11.5.11.52-.42a1.36,1.36,0,0,1,.08-.49.34.34,0,0,1,.58-.19c.33.23.63.5,1,.7a5.19,5.19,0,0,0,2.18.71,9.61,9.61,0,0,0,3.88-.36,3,3,0,0,0,.84-.43,2.82,2.82,0,0,1-.08.92,5.63,5.63,0,0,1-4.36,4.6,6.25,6.25,0,0,1-6.09-1.61,6.41,6.41,0,0,1-1.87-4,6.58,6.58,0,0,1,5.3-7.17,5.13,5.13,0,0,1,2.37,0,1.57,1.57,0,0,1,.55.27.41.41,0,0,1,.21.41c0,.17-.18.23-.32.27l-.66.14a.86.86,0,0,0-.52.28c-.06.09-.11.17.07.2a2,2,0,0,1,.76.23.61.61,0,0,1,.38.61.62.62,0,0,1-.55.54,5.57,5.57,0,0,1-1.29,0A1.77,1.77,0,0,0,68.58,65.67Z"/><path class="cls-1" d="M91.77,101.58a.55.55,0,0,0-.14.23,8,8,0,0,1-2.32,2.92,4.78,4.78,0,0,1-3.45,1,2.8,2.8,0,0,1-2.6-2.51,5.57,5.57,0,0,1,1.16-4.54,3.57,3.57,0,0,1,1.37-1.06A2.37,2.37,0,0,1,89,98.63a2.51,2.51,0,0,1-.7,3.35,7.13,7.13,0,0,1-1.88.92,3.42,3.42,0,0,0-.62.27.27.27,0,0,0-.11.42.79.79,0,0,0,.46.36,2.66,2.66,0,0,0,2.36-.18A5,5,0,0,0,90.27,102a10.61,10.61,0,0,0,1.35-3.15A2.46,2.46,0,0,1,92,98a1,1,0,0,1,.52-.42c.29-.09.41,0,.52.25a4,4,0,0,1,.22,1c.13.89.18,1.78.39,2.65a2.14,2.14,0,0,0,.25.65c.21.31.43.31.61,0s.36-.82.54-1.24A11.26,11.26,0,0,1,96.57,98a4.1,4.1,0,0,1,2.16-1.52,3.1,3.1,0,0,1,2.24.14,1.55,1.55,0,0,1,1,1.32,1.34,1.34,0,0,1-2.52.71c-.24-.47-.44-.54-.94-.36a2.73,2.73,0,0,0-1.19,1A13.93,13.93,0,0,0,95.8,102c-.41.89-.8,1.78-1.2,2.67a3.42,3.42,0,0,1-.35.62.76.76,0,0,1-1.4-.06,5.24,5.24,0,0,1-.53-1.48c-.16-.65-.31-1.3-.46-1.95A.37.37,0,0,0,91.77,101.58ZM85,101.17a4.29,4.29,0,0,0,.1.94c0,.14.09.17.23.14a3.16,3.16,0,0,0,1.39-.7,1.67,1.67,0,0,0,.64-1.59,1,1,0,0,0-.82-.93,1.18,1.18,0,0,0-1.28.75A3.47,3.47,0,0,0,85,101.17Z"/><path class="cls-1" d="M85.9,27.35a5.27,5.27,0,0,0-.76-.8,6.37,6.37,0,0,0-2.69-1.24,4.34,4.34,0,0,1-.48-.14c-.06,0-.13,0-.14-.12s.08-.11.14-.14a4.32,4.32,0,0,1,1.1-.32,10.58,10.58,0,0,1,2.86-.2,3.59,3.59,0,0,1,1.33.31,1.11,1.11,0,0,1,.65,1.46,9.38,9.38,0,0,0-.37,1.28,1.77,1.77,0,0,0,0,.76.79.79,0,0,0,.74.55.72.72,0,0,0,.77-.43,2.14,2.14,0,0,0,.18-.86A7.8,7.8,0,0,0,89.17,26a1.56,1.56,0,0,1,1.93-1.8c.37.07.72.23,1.1.27l.54,0s0,0,0,0a1.67,1.67,0,0,0-.66,2,11.26,11.26,0,0,1,.46,2,4.92,4.92,0,0,1-.42,2.88,4.42,4.42,0,0,1-2.24,2,9.93,9.93,0,0,1-3.12.73,21.08,21.08,0,0,1-5-.19.76.76,0,0,1-.16,0c-.13,0-.15-.17,0-.25a1.49,1.49,0,0,1,.3-.18,3.28,3.28,0,0,0,.71-.45A1.67,1.67,0,0,0,83,31.4c0-.24-.1-.47-.13-.71s-.05-.22.07-.29.21,0,.3.07.38.37.58.54a2.33,2.33,0,0,0,1.36.66,1.11,1.11,0,0,0,.92-1.94,3.89,3.89,0,0,0-1.49-.82c-.54-.19-1.09-.36-1.63-.54-.12,0-.31-.06-.31-.21s.19-.18.31-.23a9.6,9.6,0,0,1,2.3-.53Zm.43,4.86a9.74,9.74,0,0,0,2-.06,4.46,4.46,0,0,0,2-.74,2.06,2.06,0,0,0,1-1.9,1.38,1.38,0,0,0-.75-1.18c-.11-.06-.18-.09-.19.09a3.38,3.38,0,0,1-.16.95A3.83,3.83,0,0,1,88,31.69,7.2,7.2,0,0,1,86.33,32.21Zm5-6.65a.53.53,0,0,0-.55-.56.56.56,0,0,0-.57.56.57.57,0,0,0,.56.56A.55.55,0,0,0,91.28,25.56Z"/><path class="cls-1" d="M51.72,47.85c.44-.26.86-.56,1.31-.8a5.17,5.17,0,0,1,2.71-.72,1.94,1.94,0,0,1,1.82,1.36,2.37,2.37,0,0,1-.46,1.89,1.78,1.78,0,0,0-1.79-1.42,7.24,7.24,0,0,0-3.13.37l-.1,0c.38.08.74.13,1.08.23a5.4,5.4,0,0,1,.79.31,1.8,1.8,0,0,1,.63,2.75,3.65,3.65,0,0,1-.78.74,10.33,10.33,0,0,1-1.18.67c0-.28.08-.54.11-.8a3.28,3.28,0,0,0-1.47-3.17c-.06,0-.1-.07-.13,0a5.59,5.59,0,0,1-.65,1.32,1.84,1.84,0,0,0-.23.63.39.39,0,0,0,.24.5c.09,0,.06.11.06.16,0,.42-.09.83-.14,1.25a4,4,0,0,0,0,.77.46.46,0,0,0,.32.44c.12,0,.12.12.14.2.11.45.13.9.2,1.36a3.59,3.59,0,0,0,.08.35.31.31,0,0,0,.24.26c.17,0,.21.14.27.27a2.79,2.79,0,0,0,.79,1.26.42.42,0,0,1,.07.57,1.27,1.27,0,0,1-.75.57.36.36,0,0,1-.49-.2,3.71,3.71,0,0,0-1-1.08L50,57.67a.38.38,0,0,1-.11-.49.7.7,0,0,0-.1-.64c-.16-.28-.34-.55-.51-.83a2.35,2.35,0,0,1-.34-.89.24.24,0,0,1,.08-.24.57.57,0,0,0,.12-.56c-.1-.49-.3-1-.43-1.44a3.25,3.25,0,0,1-.13-.62c0-.08,0-.15.11-.15s.26-.13.28-.31a8.39,8.39,0,0,1,.13-1A2.9,2.9,0,0,1,49.84,49a4.45,4.45,0,0,0-2.77.46,4.56,4.56,0,0,0-2,2,3.36,3.36,0,0,1-.07-.76,3.16,3.16,0,0,1,1-2.29,2,2,0,0,1,1.33-.56,8.29,8.29,0,0,1,1.92.14l.87.14a.08.08,0,0,0,0,0,4.35,4.35,0,0,0-2.42-1.65,1.7,1.7,0,0,0-.71,0,.8.8,0,0,0-.63.47,1.76,1.76,0,0,1-.07-.49,3.22,3.22,0,0,1,.07-1,1.2,1.2,0,0,1,1.56-.95,3,3,0,0,1,1.64,1.07,8.7,8.7,0,0,1,1.23,1.88c0,.06,0,.13.12.17,0-.4,0-.79,0-1.18A6.7,6.7,0,0,1,51,44.88a.83.83,0,0,1,0-.15.8.8,0,0,1,1.32-.47A3.4,3.4,0,0,1,53.68,46c-.07,0-.13,0-.18,0a1.06,1.06,0,0,0-1,.43,5.87,5.87,0,0,0-.81,1.39v0Z"/><path class="cls-1" d="M51.55,75a3.9,3.9,0,0,1-.71,2.46,3.53,3.53,0,0,1-2.39,1.38,6.4,6.4,0,0,1-7.05-4.38,3.69,3.69,0,0,1,.79-3.71,2.07,2.07,0,0,1,.77-.57s.12,0,.15,0,0,.1,0,.16A5.77,5.77,0,0,0,43.48,74a4.38,4.38,0,0,0,3.68,2.57,4.69,4.69,0,0,0,1.54-.08,2.06,2.06,0,0,0,1.64-1.8,3.75,3.75,0,0,0-.88-3.15,2.77,2.77,0,0,0-2.65-1,1.42,1.42,0,0,0-1.22,2A2.26,2.26,0,0,0,48.35,74a.79.79,0,0,0,.65-.74c0-.22,0-.25-.26-.22a2,2,0,0,1-1.65-.45.84.84,0,0,1-.3-.48.65.65,0,0,1,.63-.81,2.31,2.31,0,0,1,2.09,1.44,2.07,2.07,0,0,1,0,1.89,1.81,1.81,0,0,1-1.58,1,3.69,3.69,0,0,1-4-3.64,2.63,2.63,0,0,1,2.25-2.68,4.21,4.21,0,0,1,4,1.55,5.8,5.8,0,0,1,1.35,3.3c0,.13,0,.26,0,.39S51.55,74.83,51.55,75Z"/><path class="cls-1" d="M84.06,66.58a3.78,3.78,0,0,1,4,3.61,5.12,5.12,0,0,1-.82,3,13,13,0,0,1-3.36,3.72c-.12.09-.25.17-.38.25a.57.57,0,0,1-.66,0,1.57,1.57,0,0,1-.69-1,.48.48,0,0,1,.21-.54,2.14,2.14,0,0,1,.43-.21,5.87,5.87,0,0,0,3-2.83,2.11,2.11,0,0,0,.25-1,.49.49,0,0,0-.06-.27.29.29,0,0,0-.51-.05,7.48,7.48,0,0,0-.56.79,12.66,12.66,0,0,1-1.49,1.94,5.11,5.11,0,0,1-.55.48,1.88,1.88,0,0,1-1.76.29,3.36,3.36,0,0,1-1.58-1c-.38-.44-.37-.69,0-1.11A12,12,0,0,1,81,71.53a10.84,10.84,0,0,0,1.51-1.29,1.75,1.75,0,0,0,.32-.48.83.83,0,0,0,.07-.56.33.33,0,0,0-.53-.22,4.08,4.08,0,0,0-.63.54,25.69,25.69,0,0,1-2.16,2,4.56,4.56,0,0,1-1.27.76c-.64.23-.94.09-1.18-.55A2.27,2.27,0,0,1,77,71.1a.53.53,0,0,1,.32-.54,2.56,2.56,0,0,1,.66-.22,5.26,5.26,0,0,0,3.1-2c.16-.21.34-.41.5-.61A3,3,0,0,1,84.06,66.58Zm1.71,3.21a2,2,0,0,0,.59-.08.66.66,0,0,0,.46-.94,1.38,1.38,0,0,0-.32-.5,2.32,2.32,0,0,0-1.42-.74.66.66,0,0,0-.8.56A1.47,1.47,0,0,0,85.77,69.79Z"/><path class="cls-1" d="M53.14,40.15a7.65,7.65,0,0,1,.87-1.1,3.21,3.21,0,0,1,1.61-1A2,2,0,0,1,58,39.46a3.89,3.89,0,0,1,.05,2.41,1.13,1.13,0,0,1-.12.28c0,.09-.11.16-.23.14s-.14-.1-.17-.19a3.23,3.23,0,0,1-.07-.69,3.68,3.68,0,0,0-.08-.58c0-.12-.09-.23-.23-.26a.33.33,0,0,0-.33.16,2.1,2.1,0,0,0-.31.91,3.34,3.34,0,0,0,0,1.22c.12.56.41.68.89.39l.09,0a2,2,0,0,1-1.61,1.86,2.21,2.21,0,0,1-2.12-.88,5.41,5.41,0,0,1-1-2.23c0-.12,0-.25-.08-.37s0-.09,0-.11-.08,0-.11.07a9.59,9.59,0,0,1-1.2,1.09,4.63,4.63,0,0,1-3.52.92,2.46,2.46,0,0,1-2.09-2.21,3.06,3.06,0,0,1,.12-1.24.79.79,0,0,1,.24-.41.26.26,0,0,1,.46.11,4.34,4.34,0,0,1,.14.7,2.19,2.19,0,0,0,.14.5.67.67,0,0,0,1,.36,1.23,1.23,0,0,0,.58-.57,3.5,3.5,0,0,0,.36-2.06c-.06-.48-.35-.66-.82-.53a2.23,2.23,0,0,0-.73.38,3.56,3.56,0,0,1,1.25-1.77,3.19,3.19,0,0,1,2.44-.62,2.5,2.5,0,0,1,2,1.76,4.12,4.12,0,0,1,.26,1.84,1.09,1.09,0,0,0,0,.36h0v0Zm-4,1.8c0,.17,0,.33.15.39s.29,0,.38-.16a2.14,2.14,0,0,0,.32-.52,15.34,15.34,0,0,0,.85-2.88,10,10,0,0,0,.19-1.22c0-.13,0-.27-.14-.33s-.26,0-.35.14a2.2,2.2,0,0,0-.32.53A13.08,13.08,0,0,0,49.53,40,12.26,12.26,0,0,0,49.16,42Zm5.51.91a2.07,2.07,0,0,0,0,.5c.08.27.24.31.45.11a1.88,1.88,0,0,0,.31-.48,7.64,7.64,0,0,0,.63-2.94,2.09,2.09,0,0,0,0-.35c0-.08,0-.17-.12-.2s-.17,0-.23.1a1.21,1.21,0,0,0-.22.32A7.2,7.2,0,0,0,54.67,42.86ZM52.44,40c0-.12,0-.24,0-.35a1.56,1.56,0,0,0-.17-.63.32.32,0,0,0-.55-.11,1.07,1.07,0,0,0-.28.36,4.37,4.37,0,0,0-.4,1.27,1.77,1.77,0,0,0,0,.76c.08.26.23.33.47.2a2.68,2.68,0,0,0,.49-.4A1.09,1.09,0,0,0,52.44,40Zm1.9.67c0-.07,0-.16,0-.24,0-.28-.18-.33-.41-.16a1.58,1.58,0,0,0-.39.47c-.08.13-.21.24-.19.41a2.2,2.2,0,0,0,.21,1,.19.19,0,0,0,.33,0,1,1,0,0,0,.17-.24A2.86,2.86,0,0,0,54.34,40.7Z"/><path class="cls-1" d="M58.73,65.33a3.22,3.22,0,0,1-.89.16,4.82,4.82,0,0,1-4.62-3,3.6,3.6,0,0,1,.9-3.74c.08-.09.13-.07.22,0a4.19,4.19,0,0,0,1.16.72,1.09,1.09,0,0,0,.51.07.42.42,0,0,0,.29-.69,1.81,1.81,0,0,0-.46-.41c-.52-.35-1.08-.64-1.59-1a3.27,3.27,0,0,1-.88-.86,1.25,1.25,0,0,1,.16-1.73A7.82,7.82,0,0,1,54.65,54a9.79,9.79,0,0,0,1.14-.87,1.82,1.82,0,0,0,.53-2.28l-.11-.27a4.21,4.21,0,0,1,1.95,2.09,2,2,0,0,1-.29,1.84,8.92,8.92,0,0,1-.7.92,3.27,3.27,0,0,0-.35.48,1,1,0,0,0,.13,1.3,5.88,5.88,0,0,0,.59.53c.14.13.28.25.41.39a1.43,1.43,0,0,1,.33,1.56,5.46,5.46,0,0,1-.57,1.1,8.85,8.85,0,0,0-.79,1.45A2.26,2.26,0,0,0,58.73,65.33Z"/><path class="cls-1" d="M68.54,61.07a2.27,2.27,0,0,0,.81-1.41,4.61,4.61,0,0,0,0-1.23,2.59,2.59,0,0,1,0-1,.73.73,0,0,1,1.06-.5,1.74,1.74,0,0,1,.5.35c.17.18.34.37.52.54A.53.53,0,0,0,72,58a.65.65,0,0,0,.4-.59,1.19,1.19,0,0,0-.35-.87,3.39,3.39,0,0,0-.8-.56c-.38-.22-.76-.41-1.12-.65a2.16,2.16,0,0,1-1-2.23,7.07,7.07,0,0,1,.8-2.16l0,.17a1.44,1.44,0,0,0,.7.93,5.8,5.8,0,0,0,.8.37,1.81,1.81,0,0,1,1.25,2.24,4.86,4.86,0,0,0,0,1.32c.06.34.32.49.6.35a.47.47,0,0,0,.25-.43,5.45,5.45,0,0,0-.06-.9,1.79,1.79,0,0,1,0-.23.92.92,0,0,1,1.29-1,5.29,5.29,0,0,1,.91.41,3.25,3.25,0,0,0,1.36.4c.13,0,.12.07.08.16a1.21,1.21,0,0,1-.62.66,5.29,5.29,0,0,1-1,.43,5,5,0,0,0-1,.46,1,1,0,0,0-.55,1,.8.8,0,0,0,.44.74,1.86,1.86,0,0,0,1.16.18c.24,0,.32-.14.33-.38s0-.3,0-.45-.09-.29,0-.39.29,0,.42.06a7,7,0,0,1,1,.66,8.69,8.69,0,0,1,1.28,1.14,2.83,2.83,0,0,1,.2.28c.13.21.11.34-.1.47a3.25,3.25,0,0,1-1,.4,10.57,10.57,0,0,1-1.94.38h-.1c-.13,0-.27,0-.35-.11s0-.25.05-.37a3.89,3.89,0,0,0,.25-.5c.09-.2,0-.32-.17-.39A3.32,3.32,0,0,0,74,58.88c-.24,0-.32.19-.28.44a1.26,1.26,0,0,0,.21.49l.45.63a1.82,1.82,0,0,1,.26.45.64.64,0,0,1-.45.9,1.71,1.71,0,0,1-1.69-.46,1,1,0,0,1-.25-1.12,4,4,0,0,1,.28-.59c.09-.16.18-.32.25-.48a.32.32,0,0,0,0-.38.38.38,0,0,0-.41-.08.62.62,0,0,0-.32.21l-.69.83a4,4,0,0,1-2.7,1.37H68.6Z"/><path class="cls-1" d="M58.83,61.17l.1.42a2.31,2.31,0,0,0,1.46,1.67c.27.11.54.22.8.35a2.73,2.73,0,0,1,1.6,2.58,4.48,4.48,0,0,1-3.95,4.64,5.19,5.19,0,0,1-3.29-.44,5.13,5.13,0,0,1-2.78-3.66,2.94,2.94,0,0,1,0-1.32,1.85,1.85,0,0,1,.12-.33.41.41,0,0,1,.67-.14,1,1,0,0,1,.17.18,4.16,4.16,0,0,0,2.88,1.47,6.56,6.56,0,0,0,2.21-.09,2.55,2.55,0,0,0,1-.45.72.72,0,0,0,0-1.24c-.24-.19-.52-.33-.78-.5A4.83,4.83,0,0,1,58.6,64a1.34,1.34,0,0,1-.48-1.36A4,4,0,0,1,58.83,61.17Zm.29,7.92c0,.3.16.43.56.34a1.31,1.31,0,0,0,.37-.15A3.29,3.29,0,0,0,61.27,68a2.14,2.14,0,0,0,.3-1.08.39.39,0,0,0-.22-.41c-.18-.09-.3,0-.42.12a2.83,2.83,0,0,1-.91.56l-.44.19a.59.59,0,0,0-.37.52C59.18,68.26,59.16,68.62,59.12,69.09Z"/><path class="cls-1" d="M82.31,57.05a15.58,15.58,0,0,0-.13-1.57.78.78,0,0,1,0-.16c0-.1,0-.23.09-.29s.24,0,.32.14l.36.47c.28.37.43.4.82.14.16-.11.31-.24.46-.35l.26-.18a.13.13,0,0,1,.16,0,.16.16,0,0,1,0,.16,1.92,1.92,0,0,1-.11.31c-.12.27-.24.55-.37.82s0,.27.15.31l.84.21c.11,0,.27,0,.27.17s-.16.18-.27.21c-.41.13-.83.17-1.24.26a3.05,3.05,0,0,0-1.06.46,1,1,0,0,0-.43.6.46.46,0,0,0,.34.61,3.19,3.19,0,0,0,1.15.06,6,6,0,0,0,1.91-.58l.45-.19c.07,0,.14,0,.19,0s0,.14,0,.19-.18.27-.27.4l-.35.51c-.15.25-.12.36.1.55a5.85,5.85,0,0,0,.63.38L87,61s.1.07.09.14-.09.07-.14.08a3.66,3.66,0,0,1-.66,0,2.44,2.44,0,0,0-.54,0c-.22,0-.29.09-.3.31s0,.55,0,.82c0,.12,0,.29-.15.32s-.19-.13-.25-.23a10.4,10.4,0,0,0-1-1.51A2.34,2.34,0,0,0,82.81,60c-.57-.12-.84.13-.75.71a2.93,2.93,0,0,0,.87,1.56,4.62,4.62,0,0,0,1.21.89l.51.28s.12.07.1.15-.1.08-.16.09l-.78.09h-.1c-.33.06-.4.13-.36.47s.1.61.14.92c0,.16.11.38-.09.47s-.27-.13-.37-.25l-.62-.76c-.23-.26-.32-.26-.59-.06s-.38.33-.58.48-.17.16-.27.09-.07-.2,0-.3a6.59,6.59,0,0,1,.32-.84,4.49,4.49,0,0,0,.48-2,3.09,3.09,0,0,0-.19-1c-.2-.47-.57-.59-1-.27a2.86,2.86,0,0,0-1,1.93c-.06.51,0,1-.12,1.53a1.27,1.27,0,0,1-.1.37c-.07.15-.18.15-.27,0a1.55,1.55,0,0,1-.13-.38c0-.15-.07-.3-.12-.44-.11-.36-.26-.42-.59-.26s-.37.21-.55.31l-.38.19a.14.14,0,0,1-.15,0,.12.12,0,0,1,0-.14,2.53,2.53,0,0,1,.26-.52c.1-.18.21-.36.3-.54s.08-.27-.12-.35a5.16,5.16,0,0,0-.52-.16l-.47-.12c-.11,0-.28,0-.28-.18s.17-.17.29-.2l.94-.2a4.69,4.69,0,0,0,2-1,1.6,1.6,0,0,0,.17-2.43,4.6,4.6,0,0,0-1-.79c-.42-.26-.85-.51-1.27-.78-.11-.07-.29-.14-.25-.3s.22-.14.35-.15l.62,0c.38,0,.48-.13.44-.51a5.41,5.41,0,0,1,0-.9c0-.07,0-.15.07-.19s.15,0,.21.07a3.94,3.94,0,0,1,.51.65c.32.46.39.47.8.07l.43-.44a.66.66,0,0,1,.17-.12c.18-.09.27,0,.28.16A3.66,3.66,0,0,1,81,55.92a8,8,0,0,0-.27,1.36,1.92,1.92,0,0,0,.13,1,.6.6,0,0,0,1.11.13A2,2,0,0,0,82.31,57.05Z"/><path class="cls-1" d="M47.38,50.7s0,.07,0,.1a5.54,5.54,0,0,0-.15,4.25,13,13,0,0,0,1.58,3c.58.85,1.17,1.69,1.74,2.55a5.73,5.73,0,0,1,.88,1.85,2,2,0,0,1-1.53,2.5,1.72,1.72,0,0,1-2.1-1.37,1.34,1.34,0,0,1,.35-1.16s.11-.13.2-.1.05.12.06.19a.78.78,0,0,0,1.55-.09,2.6,2.6,0,0,0-.29-1,19.94,19.94,0,0,0-1.13-2,18.73,18.73,0,0,1-1.86-3.65,9.45,9.45,0,0,1-.53-2.83,4.47,4.47,0,0,0-.41,1.48,7.1,7.1,0,0,0,.48,3,24.77,24.77,0,0,1,.92,2.8,3.49,3.49,0,0,1,.1,1.51,1.48,1.48,0,0,1-1.85,1.15,1.21,1.21,0,0,1-.76-1.58c0-.07,0-.16.14-.16s.08.09.1.14a.47.47,0,0,0,.46.3.63.63,0,0,0,.61-.29,1.24,1.24,0,0,0,.15-.57,6.36,6.36,0,0,0-.37-2.25,16,16,0,0,1-.62-2.15,6,6,0,0,1,0-1.74c-.1,0-.12.09-.15.15a3.24,3.24,0,0,0-.45,1.52c-.07,1.09,0,2.19,0,3.28A2.34,2.34,0,0,1,44,61a1.5,1.5,0,0,1-1.51.58,1.25,1.25,0,0,1-.91-1.62c.08-.2.15-.23.3-.06a.9.9,0,0,0,.83.35.78.78,0,0,0,.62-.43,2.54,2.54,0,0,0,.24-1c0-.47,0-1,0-1.43a7.67,7.67,0,0,1,3.82-6.65Z"/><path class="cls-1" d="M73.77,82.89a2.21,2.21,0,0,1-.88-.18,1.82,1.82,0,0,1-1.08-2,5.29,5.29,0,0,1,1.39-2.85,1.23,1.23,0,0,1,.28-.23.42.42,0,0,1,.39-.07,6.1,6.1,0,0,0,5.77-.91c.34-.24.44-.25.83,0A1.59,1.59,0,0,1,81.14,78a2.94,2.94,0,0,1-.61,1.87A6.58,6.58,0,0,1,77.91,82,9.61,9.61,0,0,1,73.77,82.89Zm5-4v-.15c0-.34-.16-.41-.45-.25a4.77,4.77,0,0,1-1.1.44,6.8,6.8,0,0,1-1.49.16c-.07,0-.18,0-.16.1a4.39,4.39,0,0,1-.23,1.9c0,.12,0,.15.12.15a4.22,4.22,0,0,0,2.53-.9A1.85,1.85,0,0,0,78.8,78.89Z"/><path class="cls-1" d="M43.89,24.31a1.57,1.57,0,0,1,1.56.7,1.14,1.14,0,0,0,1.31.5,1.23,1.23,0,0,0,.59-.39c.11-.12.21-.24.33-.35a1.32,1.32,0,0,1,.87-.41,5.13,5.13,0,0,1,1.61.11c.09,0,.24,0,.25.15s-.13.16-.22.21a4.83,4.83,0,0,0-.56.27.55.55,0,0,0-.09.94,5.18,5.18,0,0,0,.9.63,3.91,3.91,0,0,1,.65.44.56.56,0,0,1,.2.23.2.2,0,0,1-.16.3,1.31,1.31,0,0,1-.52-.07c-.33-.08-.65-.18-1-.23-.58-.08-.88.23-.77.8a5.91,5.91,0,0,0,.4,1.06,3,3,0,0,1,.23.65c0,.14,0,.27-.11.34a.29.29,0,0,1-.35-.05,2.54,2.54,0,0,1-.44-.49A7,7,0,0,0,48,28.9a2.11,2.11,0,0,0-.27-.25.57.57,0,0,0-.91.21A4.83,4.83,0,0,0,46.49,30c0,.19-.1.38-.15.58a.76.76,0,0,1-.15.28.23.23,0,0,1-.42-.07,1.84,1.84,0,0,1-.09-.57,8.93,8.93,0,0,0-.07-1,.13.13,0,0,1,0-.06c-.13-.67-.58-.88-1.18-.54a8.47,8.47,0,0,0-1,.74,1,1,0,0,1-.37.23.22.22,0,0,1-.29-.31,2.13,2.13,0,0,1,.31-.49,9.39,9.39,0,0,0,.71-.95c.11-.19.24-.38.12-.6s-.36-.19-.57-.19a9.41,9.41,0,0,0-1.4.18,2.49,2.49,0,0,1-.61,0,.25.25,0,0,1-.22-.17c0-.11,0-.18.12-.23a3.53,3.53,0,0,1,.74-.34A4.67,4.67,0,0,0,43.07,26a.54.54,0,0,0,.24-.8A.69.69,0,0,0,43,25c-.13-.06-.27-.1-.4-.15s-.21-.05-.2-.17.12-.14.21-.17a4,4,0,0,1,1-.17Z"/><path class="cls-1" d="M81.61,40.77a4.94,4.94,0,0,1-4.88-3.56,2.6,2.6,0,0,1-.1-.68.28.28,0,0,1,.25-.33q.34,0,.69-.06a5.91,5.91,0,0,0,2.4-.6,1.75,1.75,0,0,1,.32-.12.72.72,0,0,1,.88.35l.13.19a.62.62,0,0,0,.72.31,3.56,3.56,0,0,0,.56-.15c.13,0,.26-.11.4-.15.65-.25.85-.2,1.25.37a5.48,5.48,0,0,1,1,2.36,1.24,1.24,0,0,1-.49,1.19,3.83,3.83,0,0,1-1.7.72A7.5,7.5,0,0,1,81.61,40.77Zm0-1.67a3,3,0,0,0,1.36-.28,1,1,0,0,0,.39-.28c.11-.15.08-.23-.09-.29a2.22,2.22,0,0,0-.37,0,11.25,11.25,0,0,1-2.77-.42c-.32-.09-.64-.2-1-.28s-.25,0-.2.22a1.36,1.36,0,0,0,.6.75A3.66,3.66,0,0,0,81.58,39.1Z"/><path class="cls-1" d="M61,73a.92.92,0,0,0,.22-.83c0-.22-.14-.42-.19-.63-.13-.5.17-.89.63-.84a.69.69,0,0,1,.57.53l.06.23a.71.71,0,0,1,1,0,.79.79,0,0,1-.09,1.11c0,.06.1.08.14.11a.66.66,0,0,1,.14.9.59.59,0,0,1-.87.12,1.45,1.45,0,0,0-.29-.19.63.63,0,0,0-.67,0,.15.15,0,0,0-.06.2A2.27,2.27,0,0,1,61,76.35a4.93,4.93,0,0,1-2.74,1.36,4.68,4.68,0,0,1-2.62-.19,2.54,2.54,0,0,1-1.43-1.26,1.15,1.15,0,0,1-.12-.4c0-.19,0-.28.24-.28a7.35,7.35,0,0,1,.82.1,4.49,4.49,0,0,0,1,0,1.69,1.69,0,0,0,1.28-.8,7.11,7.11,0,0,0,.49-1,4.73,4.73,0,0,1,.55-1,1.62,1.62,0,0,1,2.52,0S61,73,61,73Z"/><path class="cls-1" d="M88.58,63.09a2,2,0,0,1-.28-1.64,1.46,1.46,0,0,1,2.47-.72,3.16,3.16,0,0,1,.93,1.85,6.36,6.36,0,0,1-.91,4.36,6.92,6.92,0,0,1-1.25,1.55.22.22,0,0,1-.13.09c0-.15,0-.29,0-.44a2.18,2.18,0,0,0-1-1.55,11.6,11.6,0,0,0-1.42-.69,3.25,3.25,0,0,1-.74-.45,1.52,1.52,0,0,1-.39-1.75,1.47,1.47,0,0,1,1.44-.93,2.71,2.71,0,0,1,1.33.36l0,0h0l0,0Z"/><path class="cls-1" d="M44.35,64.17a1.45,1.45,0,0,1,2.28,1.48,1.56,1.56,0,0,1-1.43,1.18,2.25,2.25,0,0,1,.12.81A1.45,1.45,0,0,1,44,68.94,1.37,1.37,0,0,1,42.46,68c0-.11-.07-.13-.19-.08A1.7,1.7,0,0,1,41,68,1.46,1.46,0,0,1,40,66.5a1.56,1.56,0,0,1,1.27-1.31c.15,0,.22,0,.16-.22a1.48,1.48,0,0,1,2.79-1Zm-.94,1a.86.86,0,1,0,.84.87A.85.85,0,0,0,43.41,65.18Z"/><path class="cls-1" d="M39.73,40.09a7,7,0,0,1,1.28.1.34.34,0,0,1,.31.29,2,2,0,0,0,.19.6,1.19,1.19,0,0,0,.44.45.49.49,0,0,1,.23.6,4.48,4.48,0,0,1-3.76,3.49,3.11,3.11,0,0,1-1.48-.16,2.7,2.7,0,0,0-1.23-.16.42.42,0,0,1-.45-.54,8.38,8.38,0,0,0,.33-1.4,4,4,0,0,1,3.84-3.25ZM37,42.81a2,2,0,0,0,1.18,1.71,1.15,1.15,0,0,0,1.06-.14c.18-.11.18-.21,0-.3a2.53,2.53,0,0,1-1.49-2c0-.08,0-.19-.13-.21a.25.25,0,0,0-.24.11A1.31,1.31,0,0,0,37,42.81Zm2.25-1.34A2.35,2.35,0,0,0,40.09,43a.77.77,0,0,0,.27.14.49.49,0,0,0,.68-.2c.21-.38.18-.54-.1-.75a1.67,1.67,0,0,1-.61-.91c0-.05,0-.09,0-.13-.12-.27-.38-.36-.76-.27S39.22,41.06,39.22,41.47Z"/><path class="cls-1" d="M92.8,40.89a23.11,23.11,0,0,1-.25,3.62,4.66,4.66,0,0,1-.23.89c-.16.4-.31.46-.7.3a3.6,3.6,0,0,1-.92-.56,9.88,9.88,0,0,1-2.76-3.2,4,4,0,0,1-.32-.87c-.05-.23-.05-.22.17-.23a5.54,5.54,0,0,0,3.62-1.37,3.23,3.23,0,0,0,.72-.92c.08-.15.15-.14.26-.06a.94.94,0,0,1,.31.52,7.23,7.23,0,0,1,.1,1.61Z"/><path class="cls-1" d="M55.25,74.4a3.75,3.75,0,0,1-2.68-1.23A2.85,2.85,0,0,1,52,71.83c-.08-.34-.14-.69-.2-1a2.9,2.9,0,0,0-1.54-2.08,7.38,7.38,0,0,0-1.74-.62,3.65,3.65,0,0,1-.9-.35.65.65,0,0,1-.16-1,1.7,1.7,0,0,1,1.09-.54A3,3,0,0,1,51.82,68a15.27,15.27,0,0,1,.63,2,.86.86,0,0,0,1.07.73,2.76,2.76,0,0,1,2.75,1.45,2.61,2.61,0,0,1,.41,1,.9.9,0,0,1-.54,1A2.07,2.07,0,0,1,55.25,74.4ZM55,73.23c.52,0,.69-.26.51-.64a.78.78,0,0,0-.11-.18,2.23,2.23,0,0,0-1.16-.79.82.82,0,0,0-.35,0,.46.46,0,0,0-.35.73A2.25,2.25,0,0,0,55,73.23Z"/><path class="cls-1" d="M72,40.8a2.8,2.8,0,0,0,2.53-.37,2.66,2.66,0,0,0,1.09-2.29,1.8,1.8,0,0,1,.31.7,3.19,3.19,0,0,1-2.71,4.06A4.27,4.27,0,0,1,71,42.65a.33.33,0,0,0-.5.19c-.07.13-.12.27-.18.4s-.2.23-.38.1a.86.86,0,0,1-.34-.39,4.13,4.13,0,0,1,0-3.85c.08-.15.14-.18.28-.05a2.28,2.28,0,0,0,2.13.63.61.61,0,0,1,.19,0c.24,0,.33.14.27.37A1.7,1.7,0,0,1,72,40.8Z"/><path class="cls-1" d="M73.1,62.54a4.27,4.27,0,0,1,3.46,2.9,2.53,2.53,0,0,1-.3,2.41,1.83,1.83,0,0,1-2,.71,1.79,1.79,0,0,1-1.43-1.5,2.64,2.64,0,0,1,.14-1.42c.14-.37.28-.74.4-1.11A2,2,0,0,0,73.1,62.54Zm2.26,2.84a1.34,1.34,0,0,0-.41-.89.77.77,0,0,0-.3-.19c-.16,0-.25,0-.25.16a5.16,5.16,0,0,1-.15,1,.53.53,0,0,0,.22.55A.52.52,0,0,0,75,66,.68.68,0,0,0,75.36,65.38Z"/><path class="cls-1" d="M45.26,46.61a2,2,0,0,1-.5,1.47,1.64,1.64,0,0,1-2.25.05,2.29,2.29,0,0,1-.75-1.74,4.16,4.16,0,0,1,.94-2.57.13.13,0,0,1,.15-.06,3.45,3.45,0,0,1,2.39,2.54A1.78,1.78,0,0,1,45.26,46.61Z"/><path class="cls-1" d="M70.09,38.09a1.9,1.9,0,0,1-.09-1.2,2.2,2.2,0,0,1,2.33-1.71,3.21,3.21,0,0,1,1.87.63.48.48,0,0,0,.58,0c.4-.21.54-.15.55.27a4,4,0,0,1-1,3s0,0,0,0c-.3.29-.3.29-.54,0a2.31,2.31,0,0,0-.87-.74.43.43,0,0,1-.21-.67.76.76,0,0,1,.28-.31c.15-.1.1-.17,0-.24a1.85,1.85,0,0,0-1.27-.28,1.77,1.77,0,0,0-1.53,1.21Z"/><path class="cls-1" d="M74.11,75.52a2.43,2.43,0,0,0,0-.27.71.71,0,0,1,.37-.72A3.36,3.36,0,0,1,76.07,74a5.11,5.11,0,0,1,2,.16,1.74,1.74,0,0,1,.48.22.75.75,0,0,1,.39.72,3.23,3.23,0,0,0,0,.44.85.85,0,0,1-.44.8,3.87,3.87,0,0,1-1.71.55,4.65,4.65,0,0,1-2-.21l-.25-.1a.69.69,0,0,1-.49-.8A2.08,2.08,0,0,0,74.11,75.52Z"/><path class="cls-1" d="M91,34.89a1.26,1.26,0,0,1,1.06.66,1.9,1.9,0,0,1,0,1.66,4.07,4.07,0,0,1-1.78,1.95,4.77,4.77,0,0,1-2.76.72,2,2,0,0,1-.71-.15.76.76,0,0,1-.52-.84.81.81,0,0,1,.75-.67A7.5,7.5,0,0,0,88.53,38a4.28,4.28,0,0,0,2.26-1.43,1.64,1.64,0,0,0,.38-1.22A1.62,1.62,0,0,0,91,34.89Z"/><path class="cls-1" d="M40.63,37.59a4.29,4.29,0,0,1-.16,1.2c0,.08,0,.13-.14.13a3.71,3.71,0,0,1-2.62-1,2,2,0,0,1-.55-2,1.57,1.57,0,0,1,2.5-.77,2.53,2.53,0,0,1,.87,1.52A3.06,3.06,0,0,1,40.63,37.59Z"/><path class="cls-1" d="M77.53,64.91a3.39,3.39,0,0,1,1.94.7,2,2,0,0,1,.81,1.44,1.56,1.56,0,0,1-2,1.74,1.34,1.34,0,0,1-.94-1.72,4.75,4.75,0,0,1,.18-.57A1.69,1.69,0,0,0,77.53,64.91Z"/><path class="cls-1" d="M58.17,35.64a2,2,0,0,1-.21.87,1,1,0,0,1-.27.37.36.36,0,0,1-.52,0,3.92,3.92,0,0,1-.7-.71,16.92,16.92,0,0,1-2.26-3.3,1.43,1.43,0,0,1-.15-.39c-.05-.23,0-.3.24-.23a1.66,1.66,0,0,1,.43.19,17.61,17.61,0,0,1,3.16,2.41A.93.93,0,0,1,58.17,35.64Z"/><path class="cls-1" d="M76,53.18a1.55,1.55,0,1,1,1.56-1.55A1.56,1.56,0,0,1,76,53.18Z"/><path class="cls-1" d="M53.83,92.4a1.77,1.77,0,0,1,.84-1.55,1.25,1.25,0,0,1,1.41,0,1.19,1.19,0,0,1,.55,1.21,2.06,2.06,0,0,1-.53,1.28,1.31,1.31,0,0,1-1.45.39,1.28,1.28,0,0,1-.82-1.2Z"/><path class="cls-1" d="M85.84,35.54a4.47,4.47,0,0,0,2.6-.32,3.06,3.06,0,0,1,1-.3.62.62,0,0,1,.68.91,1.23,1.23,0,0,1-.38.52,4.09,4.09,0,0,1-2.71,1,.85.85,0,0,1-.89-.7c0-.11,0-.21-.07-.32a1.85,1.85,0,0,0-.28-.75Z"/><path class="cls-1" d="M77.52,45a1.44,1.44,0,1,1-2.87,0,1.44,1.44,0,0,1,2.87,0Z"/><path class="cls-1" d="M73.52,45.94a1.38,1.38,0,1,1-1.37,1.38A1.37,1.37,0,0,1,73.52,45.94Z"/><path class="cls-1" d="M69.32,48.75a1.28,1.28,0,1,1,2.56,0A1.32,1.32,0,0,1,70.59,50,1.3,1.3,0,0,1,69.32,48.75Z"/><path class="cls-1" d="M36,36.42a2.94,2.94,0,0,0,.41,1.89,2.89,2.89,0,0,0,1.57,1.1,1.94,1.94,0,0,1-3-.48A1.89,1.89,0,0,1,36,36.42Z"/><path class="cls-1" d="M70.1,66.34a2.34,2.34,0,0,1,1.88.87,1.29,1.29,0,0,1,.27,1A1,1,0,0,1,71,69.1a1,1,0,0,1-.79-1.22c0-.15.06-.3.09-.45A1.12,1.12,0,0,0,70.1,66.34Z"/><path class="cls-1" d="M40.89,45.64a2.81,2.81,0,0,0,.7,3,1.68,1.68,0,0,1-1.68,0,1.3,1.3,0,0,1-.58-1.37A2.09,2.09,0,0,1,40.89,45.64Z"/><path class="cls-1" d="M34.64,48c.1.13.2.27.31.4a2.27,2.27,0,0,0,2.14.87,14.47,14.47,0,0,0,1.7-.31s0,0,0,.06a7.13,7.13,0,0,1-1.92,1.25,1.9,1.9,0,0,1-1,.16,1.16,1.16,0,0,1-.85-.64,3.09,3.09,0,0,1-.33-1.24c0-.17,0-.35,0-.53Z"/><path class="cls-1" d="M36.88,29.8c.08,0,.22,0,.36.05s.32.18.18.43l-.09.15a5.68,5.68,0,0,1-1.72,1.44,1.27,1.27,0,0,1-.32.13.27.27,0,0,1-.35-.21,1.05,1.05,0,0,1,0-.5,3.26,3.26,0,0,1,.14-.6,1.09,1.09,0,0,1,.78-.73A4.13,4.13,0,0,1,36.88,29.8Z"/><path class="cls-1" d="M78.72,50.78a1.06,1.06,0,1,1,0-2.12,1.08,1.08,0,0,1,1,1.08A1.07,1.07,0,0,1,78.72,50.78Z"/><path class="cls-1" d="M57.35,26.43a3.09,3.09,0,0,1,.55,0,.41.41,0,0,1,.34.35,1.91,1.91,0,0,1-.09,1.06.39.39,0,0,1-.47.3,2,2,0,0,1-.63-.19,3.68,3.68,0,0,1-1.18-.78c-.25-.27-.21-.42.13-.55A4.08,4.08,0,0,1,57.35,26.43Z"/><path class="cls-1" d="M79.5,46.89a.94.94,0,1,1-1.88,0,.94.94,0,0,1,.94-.93A1,1,0,0,1,79.5,46.89Z"/><path class="cls-1" d="M35.41,46a3.18,3.18,0,0,0,3,.88c0,.1-.08.15-.13.2a2.66,2.66,0,0,1-1.06.76,1.3,1.3,0,0,1-1.82-1.12A1.51,1.51,0,0,1,35.41,46Z"/><path class="cls-1" d="M71.88,45.59a.9.9,0,1,1-.89-.91A.91.91,0,0,1,71.88,45.59Z"/><path class="cls-1" d="M43.51,39.46a.9.9,0,0,1-1.8,0,.9.9,0,1,1,1.8,0Z"/><path class="cls-1" d="M72.33,50.27a.9.9,0,1,1,.9.89A.9.9,0,0,1,72.33,50.27Z"/><path class="cls-1" d="M76.19,49.36a.89.89,0,0,1-.91-.88.88.88,0,0,1,.88-.91.9.9,0,1,1,0,1.79Z"/><path class="cls-1" d="M43.79,42.36a.89.89,0,0,1-.9-.89.88.88,0,0,1,.9-.9.9.9,0,0,1,0,1.79Z"/><path class="cls-1" d="M78,52.51a.87.87,0,1,1,.84.88A.86.86,0,0,1,78,52.51Z"/><path class="cls-1" d="M77.19,41.38a.85.85,0,0,1,.86.85.86.86,0,0,1-1.72,0A.85.85,0,0,1,77.19,41.38Z"/><path class="cls-1" d="M74,44.39a.87.87,0,0,1-.86.86.88.88,0,0,1-.85-.86.86.86,0,0,1,1.71,0Z"/><path class="cls-1" d="M47.38,50.7h0Z"/><path class="cls-1" d="M81.09,48.83s0,0,0,0l0,0Z"/><path class="cls-1" d="M85.82,35.56l0,0h0Z"/><path class="cls-2" d="M51.72,47.85l0,0v0Z"/><path class="cls-2" d="M53.14,40.15l0,0v0Z"/><path class="cls-2" d="M88.61,63.14l0,0h0Z"/><path class="cls-2" d="M88.59,63.16l0,0,0,0,0,0Z"/></svg>