<?xml version="1.0" encoding="utf-8"?>
<!-- Generator: Adobe Illustrator 22.1.0, SVG Export Plug-In . SVG Version: 6.00 Build 0)  -->
<svg version="1.1" id="Layer_1" xmlns="http://www.w3.org/2000/svg" xmlns:xlink="http://www.w3.org/1999/xlink" x="0px" y="0px"
	 viewBox="0 0 200 200" style="enable-background:new 0 0 200 200;" xml:space="preserve">
<style type="text/css">
	.st0{fill:none;}
	.st1{fill:#ED1F24;}
	.st2{fill:#FFFFFF;}
	.st3{fill:#00DBFF;}
	.st4{fill-rule:evenodd;clip-rule:evenodd;}
	.st5{fill-rule:evenodd;clip-rule:evenodd;fill:#FFFFFF;}
	.st6{fill:#475E29;}
	.st7{fill:#0E0D0F;}
	.st8{fill:#0F0E10;}
	.st9{fill:#3660B0;}
	.st10{fill:#3567B4;}
	.st11{fill:#356BB7;}
	.st12{fill:#2B99D9;}
	.st13{fill:#375BAD;}
	.st14{fill:#70AA43;}
	.st15{fill:#394EA6;}
	.st16{fill:#3372BC;}
	.st17{fill:#3756AA;}
	.st18{fill:#2C93D4;}
	.st19{fill:#3853A8;}
	.st20{fill:#6BA443;}
	.st21{fill:#7AB444;}
	.st22{fill:#2E8DD0;}
	.st23{fill:#7EB845;}
	.st24{fill:#75AF44;}
	.st25{fill:#3278C1;}
	.st26{fill:#2F86CB;}
	.st27{fill:#4EB9A8;}
	.st28{fill:#82BD46;}
	.st29{fill:#3082C8;}
	.st30{fill:#317DC4;}
	.st31{fill:#54BDAC;}
	.st32{fill:#2CA1DF;}
	.st33{fill:#368E86;}
	.st34{fill:#2D7E7A;}
	.st35{fill:#31857F;}
	.st36{fill:#3A968D;}
	.st37{fill:#639D41;}
	.st38{fill:#57933F;}
	.st39{fill:#5D9840;}
	.st40{fill:#45AA9C;}
	.st41{fill:#4C8A3D;}
	.st42{fill:#3E9D92;}
	.st43{fill:#3C7C3A;}
	.st44{fill:#46853C;}
	.st45{fill:#518E3E;}
	.st46{fill:#41803B;}
	.st47{fill:#236737;}
	.st48{fill:#41A397;}
	.st49{fill:#4AB2A3;}
	.st50{fill:#36773A;}
	.st51{fill:#307238;}
	.st52{fill:#2A6C38;}
	.st53{fill:#29A4E1;}
	.st54{fill:#070707;}
	.st55{fill:#050505;}
	.st56{fill:#030303;}
	.st57{fill:#FEFEFE;}
	.st58{fill:#F9F9F9;}
	.st59{fill:#FBFBFB;}
	.st60{fill:#0D5B3C;}
	.st61{fill:#045033;}
	.st62{fill:#FCFCFC;}
	.st63{fill:#F3F5F3;}
	.st64{fill:#237851;}
	.st65{fill:#166D48;}
	.st66{fill:#29875B;}
	.st67{fill:#1C754E;}
	.st68{fill:#339866;}
	.st69{fill:#319263;}
	.st70{fill:#F9E803;}
	.st71{fill:#D93339;}
	.st72{fill:#9B9B9B;}
</style>
<g>
	<path class="st70" d="M75.8,91.3c-0.7,0-1.4,0-2.1-0.2c-0.8-0.2-1.5-0.2-2.3,0.1c-0.1,0-0.2,0.1-0.2,0c-1.1-0.3-1.5,0.6-1.7,1.3
		c-0.2,0.7-0.6,1.1-1.2,1.3c-0.7,0.3-1.4,0.8-2.2,0.9c-0.5,0.1-0.9-0.1-1.4-0.1c-1.1-0.1-2,0.1-2.8,0.9c-0.5,0.5-1.2,0.7-1.8,0.6
		c-0.6-0.1-0.9,0.1-1.1,0.6c-0.4,0.8-1,1.1-1.9,1c-0.7-0.1-1.5,0-2.2-0.1c-1-0.1-1.4-0.6-1.1-1.6c0.2-0.5,0.1-1.2,0.5-1.6
		c0.6-0.6,1.1-1.5,2-1.9c0.2-0.1,0.4-0.2,0.6-0.3c0.5-0.2,0.9-0.2,1.3,0.2c0.5,0.6,0.7,0.5,1-0.3c0.1-0.3,0.2-0.5,0.3-0.8
		c0.2-0.6,0.9-1,1.6-0.8c0.4,0.1,1.2-0.2,1.5-0.5c0.1-0.1,0.1-0.2,0-0.4c-0.4-0.7-0.6-1.5-0.7-2.3C61.4,87,61.3,87,61,87
		c-1,0-1.9,0-2.8-0.4c-1.7-0.8-2.5-2.5-2-4.3c0.3-1.3,1-2.4,2.3-3.1c0.1,0,0.2-0.1,0.2-0.2c0.1-0.1,0.3-0.2,0.3-0.3
		c0-0.2-0.2-0.1-0.4-0.1c-2-0.1-3.1-1.6-3-3.4c0-0.3,0.1-0.6,0.3-0.9c0.2-0.4,0.6-0.5,1-0.2c0.9,0.9,2,1.3,3.2,1.4
		c0.9,0.1,2,1,2.2,2c0.3,1.5-0.5,2.2-1.5,3c-0.7,0.6-1.4,1.1-1.9,1.9c-0.6,1.1,0,2.1,1.3,2.2c1,0.1,1.8-0.3,2.5-0.8
		c0.7-0.5,1.4-1,2.1-1.6c0.6-0.5,1.3-0.7,2-0.8c0.6-0.1,1.2-0.1,1.8-0.3c0.6-0.1,1.1-0.4,1.5-0.9c1-1,2.1-1.6,3.6-1.6
		c0.4,0,0.7-0.2,0.9-0.5c0.8-1.1,2-1.6,3.3-1.8c0.9-0.2,1.6-0.6,2.3-1.1c1.2-0.8,2.5-1.1,3.8-0.5c0.3,0.1,0.6,0.1,0.8-0.2
		c1.9-2.5,4.4-4.2,7.3-5.4c2.6-1,5.4-1.3,8.2-0.9c3.1,0.4,5.9,1.6,8.3,3.6c0.8,0.6,1.6,1.3,2.2,2.1c0.5,0.7,1.1,0.7,1.8,0.6
		c1-0.2,1.9,0.1,2.7,0.7c0.7,0.5,1.5,0.9,2.3,1.1c1.3,0.3,2.5,0.8,3.4,1.9c0.2,0.3,0.6,0.4,1,0.4c1.3,0.1,2.5,0.6,3.4,1.6
		c0.6,0.6,1.2,0.9,2.1,1c1.7,0.1,3.1,0.7,4.4,1.9c0.9,0.9,2,1.5,3.4,1.5c0.6,0,1.2-0.2,1.5-0.8c0.3-0.6,0.1-1.3-0.3-1.8
		c-0.6-0.8-1.4-1.4-2.2-2c-0.6-0.5-1.1-1.1-1-1.9c0.1-1,0.4-1.8,1.5-2.3c0.6-0.3,1.3-0.2,1.9-0.5c0.7-0.3,1.4-0.6,2-1.1
		c0.3-0.4,0.7-0.3,1,0.1c0.6,0.9,0.4,1.8,0,2.7c-0.5,1.1-1.4,1.5-2.6,1.7c-0.2,0-0.4-0.1-0.5,0.1c0,0.2,0.2,0.3,0.4,0.4
		c1,0.6,1.8,1.4,2.2,2.6c0.8,2-0.2,4.6-2.4,5.2c-0.8,0.2-1.5,0.2-2.3,0.2c-0.3,0-0.4,0-0.5,0.4c-0.2,0.8-0.3,1.6-0.7,2.3
		c-0.1,0.1-0.1,0.3,0,0.3c0.4,0.3,0.8,0.6,1.4,0.5c1-0.2,1.4,0.1,1.7,1.1c0,0.1,0,0.1,0.1,0.2c0.4,1.1,0.4,1.1,1.3,0.4
		c0.3-0.3,0.6-0.2,0.9-0.1c0.7,0.3,1.5,0.6,1.8,1.4c0.1,0.1,0.1,0.2,0.2,0.2c0.8,0.4,0.9,1.2,1.1,1.9c0,0.1,0,0.2,0.1,0.3
		c0.3,1.1,0,1.7-1.2,1.8c-0.9,0.1-1.8,0.1-2.7,0.1c-0.6,0-1-0.4-1.3-0.9c-0.3-0.5-0.6-0.8-1.3-0.6c-0.5,0.1-1-0.1-1.5-0.4
		c-0.6-0.5-1.2-1.1-2.1-1.1c-0.4,0-0.8,0-1.1,0.1c-1.3,0.4-2.3-0.4-3.3-0.8c-1-0.4-1.2-1.4-1.6-2.2c-0.2-0.3-0.4-0.5-0.8-0.5
		c-0.5,0.1-1-0.2-1.6-0.2c-1-0.1-1.9,0.3-2.9,0.2c-0.7,0-1.3,0-2,0c-0.2,0-0.5-0.1-0.5,0.2c0,0.3,0.3,0.2,0.5,0.3
		c0.3,0.1,0.6,0.1,0.9,0.1c0.7,0,1.4,0.1,2.2,0.2c0.7,0.1,0.9,0.8,0.7,1.2c-0.3,0.6-0.8,1.2-1.1,1.7c0,0,0,0,0,0
		c-1.1,0.1-1.4,1.2-2.1,1.7c-0.6,0.4-1.1,0.4-1.7,0.2c-1-0.4-2.1-0.7-3-1.3c-0.5-0.3-1,0.1-1.4-0.2c-0.1-0.1-0.3,0-0.3-0.1
		c-0.5-0.8-0.9-0.2-1.2,0.2c-1.7,2.2-4,3.7-6.5,4.8c-1.2,0.5-2.5,0.8-3.8,1.1c-1.2,0.2-2.3,0.2-3.5,0.2c-1.9,0-3.8-0.5-5.6-1.3
		c-2.9-1.2-5.3-3.1-7.2-5.6c-0.2-0.2-0.3-0.3-0.5,0c-0.4,0.7-1,0.9-1.9,0.8c-0.4-0.1-0.8,0.2-1.2,0.4c-0.8,0.5-1.8,0.8-2.7,1.1
		c-0.6,0.2-1.7-0.3-2-0.9c-0.3-0.5-0.5-0.8-1.1-0.9c-0.5-0.1-1.6-2-1.6-2.5c0-0.3,0.2-0.5,0.5-0.6c0.6-0.1,1.2-0.3,1.9-0.2
		c0.6,0,1.1,0,1.6-0.2c0.1,0,0.3,0,0.3-0.2c0-0.2-0.2-0.2-0.3-0.2C76.8,91.3,76.3,91.3,75.8,91.3z M96.6,93.3
		c-1.1-0.4-1.5-1.4-2.2-2.2c-0.7-0.8-1-1.7-1.4-2.7c-0.4-1-0.7-2.1-0.8-3.2c-0.1-1.1-0.4-2.1-1-3c-1.8-2.5-4-4.6-6.6-6.3
		c-1.4-0.9-2.9-1.1-4.4,0c-0.9,0.7-2,1.1-3.1,1.3c-0.9,0.2-1.7,0.7-2.3,1.4c-0.3,0.5-0.8,0.6-1.3,0.6c-1.3,0-2.4,0.5-3.2,1.5
		c-0.7,0.8-1.6,1.1-2.6,1.1c-1.3,0-2.5,0.5-3.4,1.4c-1.1,1-2.4,1.8-4,2c-1.5,0.2-2.7-0.9-2.5-2.3c0.1-0.7,0.4-1.3,0.9-1.8
		c0.6-0.7,1.4-1.3,2.1-1.9c0.5-0.4,0.7-0.9,0.6-1.6c-0.2-1-0.7-1.4-2-1.6c-1-0.2-2-0.5-2.8-1.2c-0.1-0.1-0.2-0.2-0.3-0.2
		c-0.1,0.1-0.1,0.2-0.1,0.3c-0.2,1.6,0.7,2.7,2.4,2.8c0.5,0,1.1-0.1,1.2,0.6c0.2,0.6-0.5,0.8-0.8,1.2c0,0-0.1,0-0.1,0.1
		c-1.2,0.5-1.8,1.6-2.1,2.8c-0.4,1.7,0.2,3.1,1.9,3.7c1,0.3,1.9,0.2,2.9,0.1c0.4,0,0.5,0,0.5,0.4c0,1,0.2,2,0.7,2.8
		c0.2,0.3,0.2,0.7-0.1,1c-0.6,0.4-1.2,0.9-2,0.8c-0.6-0.1-0.8,0.2-1,0.7c-0.4,1-0.9,1.9-2,2.3c-0.2,0.1-0.4,0.3-0.5,0.5
		c-0.1,0.3-0.3,0.4-0.6,0.6c-0.4,0.2-0.8,0.9-0.7,1.4c0,0.2,0.1,0.2,0.3,0.3c0.9,0.2,1.7,0.2,2.2-0.8c0.3-0.5,0.8-0.8,1.4-0.6
		c0.5,0.1,1.1,0,1.4-0.4c1-1,2.2-1.3,3.6-1c0.9,0.2,1.6-0.1,2.3-0.5c0.8-0.4,1.5-0.8,1.7-1.7c0-0.2,0.3-0.3,0.1-0.4
		c-0.2-0.1-0.5-0.1-0.7,0c-0.1,0.1-0.2,0.2-0.2,0.3c-0.9,1.1-2.1,1.6-3.5,1.4c-1.7-0.3-3,0.2-4.2,1.3c-0.2,0.2-0.3,0.4-0.7,0.3
		c0.1-0.1,0.1-0.2,0.2-0.3c1.1-1.3,2.4-1.9,4.1-1.9c1.9,0,3.3-0.8,4.3-2.3c0.2-0.3,0.2-0.6,0.2-0.9c0-0.7,0-1.5,0.3-2.2
		c0-0.1,0.1-0.4,0.3-0.3c0.2,0.1,0.1,0.2,0.1,0.4c-0.1,0.6-0.1,1.2-0.1,1.8c0,1.2,0.7,1.6,1.8,1.5c0.5-0.1,1.1-0.2,1.6-0.2
		c1.1,0,2.1,0.3,3.1,0.3c0.8,0,0.9,0,0.8-0.8c0-0.1,0-0.2,0-0.3c0-0.2,0-0.5,0.2-0.5c0.3-0.1,0.3,0.2,0.4,0.4c0.5,0.9,1,1.7,2,2.1
		c0.7,0.3,1.2,0.9,1.3,1.8c0.1,0.4-0.1,0.6-0.4,0.7c-0.5,0.2-0.9,0.4-1.4,0.6c-0.7,0.2-0.9,0.2-1.3-0.5c-1.1-1.8-1.2-1.6-2.8-1.4
		c-0.4,0-0.5,0.2-0.3,0.6c0.2,0.3,0.4,0.7,0.7,1c0.1,0.2,0.2,0.3,0.4,0.3c0.7-0.1,0.9,0.4,1.2,0.9c0.3,0.6,1,1,1.6,0.8
		c1-0.3,2-0.7,2.9-1.2c0.3-0.1,0.6-0.3,0.9-0.2c0.6,0.1,1.1-0.1,1.4-0.7c0.3-0.5,0.7-0.9,0.7-1.5c0-0.3,0-0.5-0.2-0.7
		c-0.2-0.3-0.4-0.7-0.6-1.1c-0.1-0.3-0.3-0.7-0.5-1c-0.2-0.2-0.5-0.3-0.7-0.2c-0.3,0.2,0,0.4,0,0.6c0.2,0.4,0.4,0.8,0.7,1.3
		c0.5,1,0.5,1.5-0.2,2.3c-0.1,0.1-0.3,0.4-0.4,0.3c-0.2-0.1,0-0.3,0-0.5c0.2-0.5,0.4-1,0.1-1.4c-0.5-0.7-0.8-1.5-1.3-2.2
		c-0.2-0.3-0.1-0.5,0.2-0.6c0.2-0.1,0.4-0.1,0.5-0.2c0.7-0.1,1.1-0.5,1.4-1.2c0.3-0.7,0.4-1.4,0.7-2.2c0.3,1,0.3,1.9-0.1,2.7
		c-0.1,0.3-0.5,0.5-0.3,0.7c0.2,0.3,0.6,0.2,1,0.2c0.2,0,0.3-0.1,0.5-0.1c0.6-0.1,1.2-0.2,1.9-0.4c-0.4,0.9-0.6,1.7-1.4,2.3
		c-0.1,0.1-0.2,0.2-0.2,0.4c-0.1,0.3-0.2,0.6,0.3,0.6c0.4,0,0.4,0.1,0.2,0.4c-0.1,0.2-0.2,0.3-0.3,0.5c-0.3,0.8,0.1,1.5,1,1.4
		c0.2,0,0.4-0.1,0.7-0.1c0.8-0.2,1.6-0.6,2.4-0.5c0.8,0.1,1.5,0,2.2-0.6c0.3-0.3,0.6-0.3,0.8,0.1c0.3,0.4,0.7,0.6,1.1,0.8
		c0.7,0.4,1.6,0.5,2.1,0.3c-0.2-0.1-0.5-0.2-0.7-0.4c-0.5-0.3-1-0.6-1.2-1.1c-0.3-0.7-0.5-1.4-1-2c-0.1-0.1-0.2-0.3,0-0.5
		c0.1-0.1,0.3,0,0.4,0.1c0.5,0.4,0.8,0.9,1.2,1.5C94.5,92.9,95.6,93.8,96.6,93.3z M135.5,95c-0.4,0-0.5-0.2-0.7-0.3
		c-1.2-1.1-2.5-1.6-4.2-1.3c-1.3,0.2-2.5-0.1-3.4-1.2c-0.1-0.2-0.3-0.4-0.4-0.5c-0.2-0.2-0.4-0.1-0.7-0.1c-0.1,0-0.2,0.1-0.1,0.1
		c0.3,0.5,0.3,1.2,0.9,1.6c1.1,0.6,2.3,1.2,3.6,0.9c1.3-0.3,2.4,0.1,3.3,1c0.3,0.3,0.8,0.5,1.3,0.4c0.8-0.2,1.3,0.1,1.7,0.7
		c0.6,0.8,1.2,1,2.2,0.7c0.2-0.1,0.2-0.2,0.2-0.4c-0.1-0.6-0.2-1.1-0.8-1.3c-0.2-0.1-0.3-0.2-0.4-0.3c-0.2-0.4-0.6-0.7-1-0.9
		c-0.4-0.2-0.7-0.5-0.9-0.8c-0.3-0.5-0.6-1-0.8-1.5c-0.1-0.3-0.3-0.5-0.6-0.4c-0.8,0.1-1.4-0.2-2-0.6c-0.5-0.3-0.6-0.7-0.4-1.2
		c0.5-0.9,0.7-1.9,0.7-2.8c0-0.4,0.1-0.5,0.5-0.4c0.7,0.1,1.5,0.1,2.2,0c1-0.1,1.9-0.6,2.4-1.6c0.8-1.6,0-4-1.6-4.9
		c-0.4-0.2-0.7-0.5-1-0.8c-0.4-0.4-0.3-0.8,0.3-1c0.3-0.1,0.7-0.1,1-0.2c1.5-0.1,2.4-1.3,2.2-2.9c0-0.4-0.2-0.2-0.4-0.1
		c-0.6,0.5-1.3,0.8-2,1c-0.5,0.2-1.1,0.2-1.6,0.4c-1.3,0.4-1.7,1.9-0.8,2.9c0.2,0.2,0.4,0.4,0.6,0.6c0.6,0.5,1.2,1,1.7,1.6
		c0.7,0.8,1,2.1,0.6,2.9c-0.4,0.8-1.5,1.3-2.7,1c-1.4-0.2-2.6-0.9-3.5-1.8c-1.1-1-2.3-1.5-3.7-1.5c-0.8,0-1.6-0.3-2.1-0.9
		c-1-1.1-2.1-1.7-3.6-1.7c-0.5,0-0.9-0.2-1.2-0.6c-0.4-0.6-1-1-1.7-1.2c-1-0.4-2.1-0.5-3.1-1.1c-0.5-0.3-1-0.7-1.6-0.9
		c-1.5-0.5-2.8,0-3.9,0.8c-1.8,1.4-3.6,2.9-5.1,4.7c-1.1,1.3-2,2.6-2,4.4c0,0.9-0.4,1.8-0.6,2.6c-0.4,1.1-0.7,2.2-1.6,3.2
		c-0.6,0.7-1,1.6-2,2c0,0,0,0.1-0.1,0.1c0.9,0.2,1.8-0.2,2.4-1.1c0.3-0.6,0.7-1.1,1.2-1.5c0.1-0.1,0.3-0.3,0.4-0.1
		c0.1,0.1,0,0.3-0.1,0.4c-0.3,0.4-0.6,0.9-0.7,1.3c-0.2,0.8-0.8,1.3-1.4,1.7c-0.2,0.1-0.5,0.3-0.8,0.4c1.4,0.3,2.4-0.2,3.3-1.1
		c0.3-0.4,0.6-0.4,1-0.1c0.5,0.5,1.1,0.6,1.8,0.6c0.6,0,1.1,0,1.6,0.2c0.6,0.2,1.2,0.4,1.8,0.5c0.7,0.1,1.2-0.5,1-1.2
		c-0.1-0.3-0.2-0.5-0.4-0.7c-0.1-0.1-0.2-0.2-0.1-0.3c0.1-0.1,0.2-0.1,0.4-0.1c0.5,0.1,0.5-0.1,0.4-0.5c-0.1-0.2-0.2-0.5-0.4-0.6
		c-0.8-0.5-0.8-1.4-1.3-2.1c0.5-0.1,0.9,0.1,1.2,0.1c0.6,0,1.2,0.4,1.8,0.2c0.3-0.1,0.4-0.2,0.2-0.5c-0.5-0.8-0.6-1.7-0.5-2.6
		c0-0.1,0-0.3,0.2-0.4c0.1,0.2,0.1,0.4,0.1,0.5c0.1,1.5,0.7,2.6,2.3,2.8c0.3,0,0.4,0.3,0.3,0.6c-0.4,0.7-0.7,1.3-1.1,2
		c-0.4,0.5-0.3,1.1-0.2,1.6c0,0.1,0.1,0.3,0.2,0.4c0,0.1,0,0.2,0,0.2c-0.1,0.1-0.2,0-0.3,0c-0.5-0.3-1-1.5-0.8-2
		c0.3-0.6,0.6-1.2,0.9-1.9c0.1-0.2,0.3-0.4,0.1-0.5c-0.2-0.1-0.5-0.1-0.7,0.1c-0.2,0.2-0.3,0.4-0.4,0.6c-0.2,0.6-0.4,1.1-0.8,1.6
		c-0.3,0.4-0.2,0.8,0,1.2c0.2,0.3,0.4,0.6,0.6,1c0.3,0.5,0.6,0.6,1.1,0.6c0.4,0,0.7,0,1,0.2c0.8,0.4,1.7,0.8,2.6,1.1
		c1.2,0.4,1.7,0.2,2.2-0.9c0.2-0.4,0.5-0.7,1-0.6c0.2,0,0.3-0.1,0.4-0.2c0.2-0.3,0.5-0.7,0.7-1c0.2-0.3,0.2-0.5-0.2-0.6
		c-1.6-0.2-1.8-0.3-2.6,1.1c-0.1,0.2-0.2,0.4-0.4,0.6c-0.2,0.3-0.5,0.5-0.9,0.4c-0.6-0.2-1.2-0.4-1.8-0.7c-0.3-0.1-0.4-0.3-0.3-0.6
		c0.1-0.9,0.6-1.5,1.4-1.9c0.4-0.2,0.7-0.4,0.9-0.6c0.4-0.4,0.8-0.9,0.9-1.5c0.1-0.2,0.2-0.4,0.4-0.4c0.2,0,0.2,0.3,0.2,0.5
		c0,0.2,0,0.5-0.1,0.7c-0.2,0.3-0.1,0.4,0.3,0.4c0.6,0,1.3,0,1.9-0.1c1.1-0.2,2.2-0.2,3.3,0c1.3,0.2,1.9-0.3,1.9-1.7
		c0-0.5,0-1.1-0.1-1.6c0-0.1-0.1-0.4,0.1-0.4c0.2-0.1,0.3,0.2,0.3,0.3c0.1,0.1,0.1,0.2,0.1,0.3c0.2,0.6,0.2,1.3,0.2,2
		c0,0.4,0.1,0.7,0.3,1c1,1.5,2.4,2.3,4.2,2.3c0.9,0,1.7,0.1,2.5,0.5C134.3,93.7,135,94.1,135.5,95z M54.8,97c0.2,0,0.4-0.1,0.4-0.4
		c0.1-0.4,0.2-0.8,0.3-1.1c0.1-0.5-0.2-0.6-0.5-0.8c-0.4-0.1-0.5,0.1-0.6,0.4c-0.1,0.4-0.2,0.7-0.3,1.1C54.1,96.8,54.3,97,54.8,97z
		 M140.3,97c0.6,0,0.7-0.2,0.6-0.7c-0.1-0.3-0.2-0.7-0.3-1c-0.1-0.4-0.2-0.7-0.6-0.6c-0.3,0.1-0.6,0.4-0.5,0.8
		c0.1,0.4,0.2,0.7,0.3,1.1C140,97,140.1,97,140.3,97z M56.2,94.6c0.6-0.1,0.8-0.5,1.1-0.9c0.1-0.2,0.2-0.3,0.1-0.5
		c-0.2-0.2-0.4-0.1-0.6,0c-0.3,0.2-0.6,0.4-1,0.6c-0.2,0.1-0.4,0.2-0.3,0.5C55.7,94.5,55.9,94.6,56.2,94.6z M138.9,94.6
		c0.2,0,0.4-0.1,0.6-0.3c0.1-0.1,0.1-0.3,0-0.4c-0.4-0.3-0.8-0.7-1.4-0.9c-0.2-0.1-0.5,0-0.5,0.3C137.7,93.8,138.6,94.6,138.9,94.6z
		"/>
	<path class="st71" d="M100.8,119.5c0-3.7,0-7.4,0-11.1c0-0.4,0-0.6,0.5-0.6c2.7,0,5.3,0,8,0c1.1,0,2.3,0.2,3.3,0.7
		c3.1,1.4,4.2,5.1,2.6,8.1c-0.3,0.5-0.5,1-1,1.3c-0.4,0.3-0.3,0.5,0.1,0.7c1.1,0.5,2,1.1,2.6,2.1c2.4,4,0.4,8.8-4.1,10
		c-0.9,0.2-1.8,0.3-2.7,0.3c-2.9,0-5.9,0-8.8,0c-0.5,0-0.6-0.1-0.6-0.6c0-1.9,0-3.7,0-5.6C100.8,123.2,100.8,121.4,100.8,119.5z
		 M105.6,119.5c0,2.4,0,4.8,0,7.1c0,0.4,0.1,0.5,0.5,0.5c1.2,0,2.4,0,3.5,0c1.3,0,2.8-1,3.2-2.1c0.7-2.1-0.6-4-2.7-4.1
		c-0.8,0-1.6,0-2.3,0c-0.5,0-0.7-0.2-0.6-0.7c0-0.7,0-1.3,0-2c0-1.5,0-1.5,1.4-1.5c0.6,0,1.3-0.1,1.7-0.6c0.8-0.7,0.8-1.7,0.6-2.6
		c-0.2-0.8-0.8-1.3-1.6-1.6c-1.1-0.4-2.2-0.1-3.3-0.2c-0.4,0-0.5,0.1-0.5,0.5C105.6,114.8,105.6,117.2,105.6,119.5z"/>
	<path class="st71" d="M43.5,119.3c0-3.7,0-7.5,0-11.2c0-0.5,0.1-0.7,0.6-0.7c2.4,0.1,4.8-0.1,7.2,0.1c1.6,0.1,3.2,0.4,4.6,1.2
		c1.5,0.8,2.4,2,2.8,3.6c0.5,1.7,0.5,3.4,0,5.1c-0.7,2.1-2.3,3.4-4.4,3.9c-0.8,0.2-0.8,0.2-0.3,0.8c2,2.8,3.9,5.7,5.9,8.5
		c0.1,0.1,0.3,0.3,0.2,0.4c-0.1,0.2-0.3,0.1-0.5,0.1c-1.5,0-3,0-4.6,0c-0.3,0-0.5-0.1-0.7-0.4c-1.4-2.3-2.9-4.5-4.3-6.8
		c-0.2-0.3-0.3-0.6-0.3-1c0-1.5,0-2.9,0-4.4c0-0.4,0.1-0.6,0.6-0.5c0.6,0,1.3,0,1.9-0.2c1.2-0.5,1.9-1.5,1.8-3c0-1.3-0.8-2.3-2-2.7
		c-1.2-0.4-2.3-0.2-3.5-0.2c-0.2,0-0.3,0.1-0.3,0.3c0,0.2,0,0.3,0,0.5c0,6,0,11.9,0,17.9c0,0.5-0.2,0.7-0.7,0.6c-1.2,0-2.3,0-3.5,0
		c-0.5,0-0.7-0.1-0.7-0.7C43.5,126.8,43.5,123.1,43.5,119.3C43.5,119.3,43.5,119.3,43.5,119.3z"/>
	<path class="st71" d="M88.7,129.4c-1.1,1-2.2,1.6-3.5,1.9c-4,0.7-7.3-1.7-8-5.7c-0.3-1.9-0.2-3.8,0.6-5.6c1.5-3.3,5.5-4.6,8.9-3.2
		c0.6,0.3,1.3,0.6,1.8,1c0.2-0.2,0.1-0.4,0.1-0.6c0-3.2,0-6.5,0-9.7c0-0.5,0.2-0.6,0.6-0.6c1.1,0,2.2,0,3.4,0c0.5,0,0.6,0.1,0.6,0.6
		c0,5.6,0,11.2,0,16.8c0,2.1,0,4.2,0,6.3c0,0.4-0.1,0.5-0.5,0.5c-1.2,0-2.4,0-3.5,0c-0.4,0-0.5-0.1-0.5-0.5
		C88.7,130.3,88.7,130,88.7,129.4z M81.9,123.8c0,2.2,1.2,3.6,3.1,3.7c2.2,0,3.8-1.4,3.8-3.6c0-2.6-1.9-3.7-3.6-3.7
		C83.6,120.1,81.9,121.2,81.9,123.8z"/>
	<path class="st71" d="M70.1,124.9c-1.5,0-3,0-4.6,0c-0.7,0-0.7,0.1-0.5,0.7c0.3,1.2,1.2,2,2.4,2.3c1.3,0.3,2.4-0.1,3.3-1.1
		c0.6-0.7,0.6-0.7,1.4-0.3c0.7,0.4,1.5,0.8,2.3,1.1c0.5,0.2,0.5,0.4,0.2,0.8c-1.4,1.8-3.2,2.9-5.5,3.1c-1.9,0.1-3.8-0.1-5.5-1.1
		c-2.4-1.4-3.8-4.5-3.4-7.5c0.3-1.9,0.8-3.6,2.2-4.9c1.1-1.1,2.4-1.7,3.9-1.9c2.2-0.3,4.3-0.2,6.1,1.1c1.7,1.2,2.4,2.9,2.8,4.8
		c0.1,0.7,0.1,1.5,0.1,2.2c0,0.4-0.1,0.4-0.5,0.4C73.2,124.9,71.7,124.9,70.1,124.9z M67.8,122.2c0.8,0,1.6,0,2.4,0
		c0.4,0,0.5-0.1,0.4-0.5c-0.3-1.4-1.4-2.2-2.7-2.2c-1.4,0-2.5,0.9-2.8,2.3c-0.1,0.4,0,0.4,0.4,0.4C66.2,122.2,67,122.2,67.8,122.2z"
		/>
	<path class="st71" d="M133.7,121.9c0,1.4,0,2.8,0,4.2c-0.1,2.8-1.8,4.9-4.6,5.5c-1.9,0.5-3.9,0.4-5.7-0.2c-2.5-0.8-4.1-2.7-4.1-5.4
		c-0.1-2.9,0-5.9-0.1-8.8c0-0.3,0.1-0.4,0.4-0.4c1.2,0,2.4,0,3.5,0c0.5,0,0.6,0.1,0.6,0.6c0,2.4,0,4.8,0,7.2c0,0.7,0.2,1.4,0.6,1.9
		c0.6,0.9,1.7,1.3,2.9,1c0.9-0.2,1.7-1.1,1.7-2.2c0.1-0.7,0-1.5,0-2.2c0-1.9,0-3.8,0-5.8c0-0.4,0.1-0.6,0.5-0.6c1.2,0,2.4,0,3.7,0
		c0.4,0,0.5,0.1,0.5,0.5C133.7,119,133.7,120.5,133.7,121.9C133.7,121.9,133.7,121.9,133.7,121.9z"/>
	<path class="st71" d="M136.4,119c0-3.8,0-7.6,0-11.5c0-0.5,0.1-0.7,0.6-0.6c1.1,0,2.2,0,3.3,0c0.5,0,0.6,0.1,0.6,0.6
		c0,5.5,0,11,0,16.5c0,2.2,0,4.4,0,6.7c0,0.4-0.1,0.6-0.5,0.5c-1.2,0-2.3,0-3.5,0c-0.5,0-0.6-0.2-0.6-0.6
		C136.4,126.8,136.4,122.9,136.4,119C136.4,119,136.4,119,136.4,119z"/>
	<path class="st71" d="M148.6,119.1c0,3.9,0,7.7,0,11.6c0,0.5-0.1,0.6-0.6,0.6c-1.1,0-2.3,0-3.4,0c-0.4,0-0.5-0.1-0.5-0.5
		c0-7.8,0-15.5,0-23.3c0-0.4,0.1-0.5,0.6-0.5c1.1,0,2.3,0,3.4,0c0.5,0,0.6,0.1,0.6,0.6C148.6,111.3,148.6,115.2,148.6,119.1z"/>
	<path class="st71" d="M153.7,112.3c-1.6,0-2.9-1.3-2.9-2.9c0-1.5,1.3-2.8,2.9-2.9c1.6,0,2.9,1.4,2.9,2.9
		C156.5,111,155.2,112.3,153.7,112.3z M156,109.5c0-1.4-1-2.4-2.4-2.4c-1.3,0-2.4,1.1-2.3,2.4c0,1.3,1,2.3,2.4,2.4
		C155,111.8,156,110.8,156,109.5z"/>
	<path class="st71" d="M96.6,93.3c-1,0.5-2.1-0.4-2.5-1.1c-0.3-0.6-0.7-1-1.2-1.5c-0.1-0.1-0.3-0.2-0.4-0.1c-0.2,0.1-0.1,0.3,0,0.5
		c0.5,0.6,0.7,1.3,1,2c0.2,0.5,0.7,0.8,1.2,1.1c0.2,0.1,0.5,0.3,0.7,0.4c-0.6,0.3-1.4,0.1-2.1-0.3c-0.4-0.2-0.8-0.5-1.1-0.8
		c-0.3-0.3-0.6-0.3-0.8-0.1c-0.6,0.6-1.3,0.7-2.2,0.6c-0.9-0.1-1.6,0.3-2.4,0.5c-0.2,0.1-0.4,0.1-0.7,0.1c-0.9,0.1-1.4-0.6-1-1.4
		c0.1-0.2,0.2-0.4,0.3-0.5c0.2-0.3,0.2-0.4-0.2-0.4c-0.6,0.1-0.5-0.2-0.3-0.6c0.1-0.1,0.1-0.3,0.2-0.4c0.7-0.5,0.9-1.4,1.4-2.3
		c-0.7,0.1-1.3,0.2-1.9,0.4c-0.2,0-0.3,0.1-0.5,0.1c-0.3,0-0.8,0.1-1-0.2c-0.2-0.2,0.2-0.5,0.3-0.7c0.4-0.8,0.4-1.7,0.1-2.7
		c-0.3,0.8-0.4,1.5-0.7,2.2c-0.3,0.6-0.7,1-1.4,1.2c-0.2,0-0.4,0.1-0.5,0.2c-0.3,0.1-0.5,0.3-0.2,0.6c0.5,0.7,0.8,1.5,1.3,2.2
		c0.3,0.4,0.1,1-0.1,1.4c-0.1,0.2-0.2,0.4,0,0.5c0.2,0.1,0.3-0.1,0.4-0.3c0.7-0.8,0.7-1.3,0.2-2.3c-0.2-0.4-0.5-0.8-0.7-1.3
		c-0.1-0.2-0.3-0.4,0-0.6c0.2-0.1,0.5-0.1,0.7,0.2c0.3,0.3,0.4,0.6,0.5,1c0.2,0.4,0.3,0.7,0.6,1.1c0.2,0.2,0.2,0.4,0.2,0.7
		c0,0.6-0.4,1-0.7,1.5c-0.3,0.6-0.8,0.7-1.4,0.7c-0.3,0-0.6,0.1-0.9,0.2c-0.9,0.5-1.9,0.9-2.9,1.2c-0.6,0.2-1.3-0.2-1.6-0.8
		c-0.2-0.5-0.5-1-1.2-0.9c-0.2,0-0.3-0.1-0.4-0.3c-0.2-0.3-0.4-0.7-0.7-1c-0.2-0.3-0.1-0.5,0.3-0.6c1.6-0.2,1.7-0.4,2.8,1.4
		c0.4,0.7,0.6,0.8,1.3,0.5c0.5-0.2,1-0.4,1.4-0.6c0.3-0.1,0.4-0.3,0.4-0.7c-0.1-0.9-0.6-1.5-1.3-1.8c-1-0.4-1.6-1.2-2-2.1
		c-0.1-0.2-0.1-0.5-0.4-0.4c-0.2,0.1-0.2,0.3-0.2,0.5c0,0.1,0,0.2,0,0.3c0.1,0.7,0,0.8-0.8,0.8c-1,0-2.1-0.3-3.1-0.3
		c-0.6,0-1.1,0.1-1.6,0.2c-1.1,0.1-1.8-0.3-1.8-1.5c0-0.6,0-1.2,0.1-1.8c0-0.2,0.1-0.3-0.1-0.4c-0.2-0.1-0.3,0.2-0.3,0.3
		c-0.2,0.7-0.3,1.5-0.3,2.2c0,0.3-0.1,0.6-0.2,0.9c-1,1.6-2.4,2.4-4.3,2.3c-1.7,0-3.1,0.6-4.1,1.9c-0.1,0.1-0.1,0.2-0.2,0.3
		c0.3,0,0.5-0.2,0.7-0.3c1.2-1.2,2.6-1.6,4.2-1.3c1.4,0.2,2.6-0.3,3.5-1.4c0.1-0.1,0.1-0.2,0.2-0.3c0.2-0.1,0.5-0.2,0.7,0
		c0.2,0.1-0.1,0.3-0.1,0.4c-0.2,0.9-0.8,1.3-1.7,1.7c-0.8,0.3-1.5,0.6-2.3,0.5c-1.3-0.3-2.6,0-3.6,1c-0.4,0.4-0.9,0.6-1.4,0.4
		c-0.7-0.2-1.2,0.1-1.4,0.6c-0.5,1-1.3,1-2.2,0.8c-0.2,0-0.3-0.1-0.3-0.3c-0.1-0.5,0.3-1.2,0.7-1.4c0.3-0.1,0.5-0.3,0.6-0.6
		c0.1-0.2,0.3-0.4,0.5-0.5c1.1-0.4,1.6-1.3,2-2.3c0.2-0.5,0.4-0.8,1-0.7c0.8,0.1,1.4-0.4,2-0.8c0.3-0.3,0.3-0.7,0.1-1
		c-0.5-0.9-0.7-1.9-0.7-2.8c0-0.4-0.1-0.4-0.5-0.4c-1,0.1-1.9,0.2-2.9-0.1c-1.8-0.6-2.3-2-1.9-3.7c0.3-1.2,0.9-2.3,2.1-2.8
		c0,0,0.1,0,0.1-0.1c0.3-0.4,0.9-0.6,0.8-1.2c-0.2-0.6-0.8-0.5-1.2-0.6c-1.7-0.1-2.6-1.2-2.4-2.8c0-0.1,0-0.3,0.1-0.3
		c0.1-0.1,0.2,0.1,0.3,0.2c0.8,0.6,1.8,1,2.8,1.2c1.3,0.2,1.8,0.6,2,1.6c0.1,0.7-0.1,1.2-0.6,1.6c-0.7,0.6-1.5,1.2-2.1,1.9
		c-0.5,0.5-0.8,1.1-0.9,1.8c-0.2,1.3,1.1,2.4,2.5,2.3c1.5-0.2,2.8-0.9,4-2c1-0.9,2.1-1.4,3.4-1.4c1,0,1.9-0.3,2.6-1.1
		c0.8-1,1.9-1.5,3.2-1.5c0.5,0,1-0.2,1.3-0.6c0.6-0.8,1.4-1.2,2.3-1.4c1.1-0.3,2.2-0.6,3.1-1.3c1.5-1.1,3-0.9,4.4,0
		c2.5,1.7,4.8,3.8,6.6,6.3c0.6,0.9,0.9,1.9,1,3c0.1,1.1,0.4,2.1,0.8,3.2c0.4,1,0.7,1.9,1.4,2.7C95.1,91.9,95.5,92.9,96.6,93.3z
		 M91,89c0.6-0.4,0.8-1.2,0.4-1.8c-0.3-0.5-0.7-1-1.1-1.5c-0.2-0.2-0.4-0.3-0.6-0.1c-0.4,0.6-0.7,1.2-0.9,1.9
		c0.5-0.1,0.6-0.4,0.8-0.7c0.2-0.2,0.3-0.2,0.5,0C90.6,87.5,91.1,88.1,91,89z M83.8,82.8c0.2-0.9,0.3-1.9-0.2-2.7
		c-0.1-0.2-0.2-0.5-0.5-0.4c-0.3,0.1-0.3,0.5-0.2,0.7C83.4,81.1,83.6,82,83.8,82.8z M88.9,92.7c0.6,0,1-0.3,1-0.8
		c0-0.3-0.1-0.4-0.4-0.4c-0.4,0-1,0.6-1,0.9C88.5,92.7,88.7,92.7,88.9,92.7z"/>
	<path class="st71" d="M135.5,95c-0.5-0.8-1.2-1.3-1.9-1.7c-0.8-0.4-1.6-0.5-2.5-0.5c-1.8,0-3.2-0.8-4.2-2.3c-0.2-0.3-0.3-0.6-0.3-1
		c0-0.7,0-1.3-0.2-2c0-0.1,0-0.2-0.1-0.3c-0.1-0.1-0.1-0.4-0.3-0.3c-0.2,0.1-0.1,0.3-0.1,0.4c0.1,0.5,0.1,1.1,0.1,1.6
		c0,1.3-0.6,1.9-1.9,1.7c-1.1-0.2-2.2-0.2-3.3,0c-0.6,0.1-1.3,0.1-1.9,0.1c-0.3,0-0.4-0.1-0.3-0.4c0.1-0.2,0.1-0.4,0.1-0.7
		c0-0.2,0-0.4-0.2-0.5c-0.2,0-0.3,0.2-0.4,0.4c-0.2,0.6-0.5,1-0.9,1.5c-0.3,0.3-0.6,0.5-0.9,0.6c-0.8,0.4-1.3,1-1.4,1.9
		c0,0.3,0,0.5,0.3,0.6c0.6,0.3,1.2,0.5,1.8,0.7c0.4,0.1,0.7,0,0.9-0.4c0.1-0.2,0.2-0.4,0.4-0.6c0.8-1.4,1-1.3,2.6-1.1
		c0.4,0,0.4,0.3,0.2,0.6c-0.2,0.3-0.5,0.7-0.7,1c-0.1,0.2-0.2,0.3-0.4,0.2c-0.5-0.1-0.8,0.2-1,0.6c-0.5,1.1-1.1,1.3-2.2,0.9
		c-0.9-0.3-1.7-0.7-2.6-1.1c-0.3-0.2-0.6-0.2-1-0.2c-0.5,0.1-0.9-0.1-1.1-0.6c-0.2-0.3-0.4-0.6-0.6-1c-0.2-0.4-0.3-0.9,0-1.2
		c0.4-0.5,0.6-1.1,0.8-1.6c0.1-0.2,0.2-0.4,0.4-0.6c0.2-0.2,0.5-0.2,0.7-0.1c0.2,0.1,0,0.4-0.1,0.5c-0.3,0.6-0.6,1.2-0.9,1.9
		c-0.2,0.5,0.2,1.8,0.8,2c0.1,0,0.2,0.1,0.3,0c0,0,0-0.1,0-0.2c0-0.1-0.1-0.3-0.2-0.4c-0.2-0.6-0.2-1.1,0.2-1.6
		c0.4-0.6,0.8-1.3,1.1-2c0.2-0.3,0.1-0.5-0.3-0.6c-1.7-0.2-2.2-1.4-2.3-2.8c0-0.2-0.1-0.4-0.1-0.5c-0.2,0-0.2,0.2-0.2,0.4
		c-0.1,0.9,0,1.8,0.5,2.6c0.2,0.3,0.1,0.4-0.2,0.5c-0.7,0.2-1.2-0.2-1.8-0.2c-0.4,0-0.8-0.2-1.2-0.1c0.5,0.7,0.5,1.6,1.3,2.1
		c0.2,0.1,0.3,0.3,0.4,0.6c0.1,0.3,0.1,0.6-0.4,0.5c-0.1,0-0.3-0.1-0.4,0.1c-0.1,0.1,0.1,0.2,0.1,0.3c0.2,0.2,0.3,0.4,0.4,0.7
		c0.2,0.7-0.3,1.3-1,1.2c-0.6-0.1-1.2-0.3-1.8-0.5c-0.5-0.2-1.1-0.2-1.6-0.2c-0.7,0-1.3-0.1-1.8-0.6c-0.3-0.3-0.6-0.3-1,0.1
		c-0.8,0.9-1.9,1.4-3.3,1.1c0.3-0.2,0.6-0.3,0.8-0.4c0.7-0.4,1.2-0.9,1.4-1.7c0.1-0.5,0.4-0.9,0.7-1.3c0.1-0.1,0.2-0.3,0.1-0.4
		c-0.2-0.2-0.3,0-0.4,0.1c-0.5,0.4-0.8,1-1.2,1.5c-0.6,0.9-1.5,1.3-2.4,1.1c0,0,0-0.1,0.1-0.1c0.9-0.4,1.3-1.3,2-2
		c0.8-1,1.2-2.1,1.6-3.2c0.3-0.9,0.6-1.8,0.6-2.6c0.1-1.8,1-3.1,2-4.4c1.5-1.8,3.2-3.3,5.1-4.7c1.2-0.9,2.5-1.4,3.9-0.8
		c0.6,0.2,1.1,0.6,1.6,0.9c0.9,0.6,2.1,0.7,3.1,1.1c0.7,0.3,1.3,0.7,1.7,1.2c0.3,0.4,0.7,0.6,1.2,0.6c1.5,0,2.6,0.6,3.6,1.7
		c0.5,0.6,1.3,0.9,2.1,0.9c1.5,0,2.7,0.5,3.7,1.5c1,0.9,2.2,1.6,3.5,1.8c1.2,0.2,2.3-0.2,2.7-1c0.4-0.8,0.1-2.1-0.6-2.9
		c-0.5-0.6-1.1-1.1-1.7-1.6c-0.2-0.2-0.4-0.4-0.6-0.6c-0.9-1-0.5-2.5,0.8-2.9c0.5-0.2,1.1-0.2,1.6-0.4c0.7-0.3,1.4-0.5,2-1
		c0.2-0.1,0.3-0.3,0.4,0.1c0.2,1.6-0.6,2.8-2.2,2.9c-0.3,0-0.7,0-1,0.2c-0.5,0.2-0.6,0.6-0.3,1c0.3,0.3,0.6,0.6,1,0.8
		c1.6,0.9,2.4,3.3,1.6,4.9c-0.5,1-1.4,1.4-2.4,1.6c-0.7,0.1-1.5,0.1-2.2,0c-0.4-0.1-0.5,0-0.5,0.4c0,1-0.2,2-0.7,2.8
		c-0.3,0.5-0.1,0.9,0.4,1.2c0.6,0.4,1.2,0.7,2,0.6c0.3-0.1,0.5,0.1,0.6,0.4c0.2,0.5,0.4,1,0.8,1.5c0.2,0.3,0.5,0.7,0.9,0.8
		c0.4,0.2,0.8,0.4,1,0.9c0.1,0.1,0.2,0.2,0.4,0.3c0.6,0.2,0.7,0.8,0.8,1.3c0,0.2,0,0.3-0.2,0.4c-1,0.3-1.6,0.1-2.2-0.7
		c-0.4-0.6-0.9-1-1.7-0.7c-0.4,0.1-0.9-0.1-1.3-0.4c-0.9-0.9-2-1.3-3.3-1c-1.3,0.3-2.5-0.3-3.6-0.9c-0.6-0.3-0.5-1.1-0.9-1.6
		c0-0.1,0.1-0.1,0.1-0.1c0.2,0,0.5-0.1,0.7,0.1c0.2,0.2,0.3,0.3,0.4,0.5c0.9,1,2.1,1.4,3.4,1.2c1.7-0.3,3,0.3,4.2,1.3
		C135,94.8,135.1,95,135.5,95z M106.5,87.6c-0.2-0.7-0.6-1.2-0.9-1.8c-0.1-0.2-0.4-0.3-0.6-0.1c-0.5,0.6-1.1,1.1-1.3,1.9
		c-0.2,0.7,0,1.2,0.5,1.4c-0.1-0.9,0.3-1.5,0.9-2c0.3-0.2,0.4-0.2,0.6,0C105.9,87.2,106,87.5,106.5,87.6z M111.4,82.8
		c0.2-0.8,0.4-1.6,0.8-2.3c0.2-0.3,0.1-0.6-0.2-0.7c-0.3-0.1-0.4,0.1-0.5,0.3C111,81,111.1,81.9,111.4,82.8z M106.2,92.7
		c0.2,0,0.4,0.1,0.4-0.3c0-0.4-0.5-0.9-1-0.9c-0.3,0-0.4,0.1-0.4,0.4C105.2,92.4,105.6,92.7,106.2,92.7z"/>
	<path class="st71" d="M54.8,97c-0.6,0-0.7-0.2-0.6-0.7c0.1-0.4,0.2-0.7,0.3-1.1c0.1-0.3,0.2-0.6,0.6-0.4c0.3,0.1,0.6,0.3,0.5,0.8
		c-0.1,0.4-0.3,0.8-0.3,1.1C55.2,96.9,55.1,97,54.8,97z"/>
	<path class="st71" d="M140.3,97c-0.2,0-0.4,0-0.4-0.3c-0.1-0.4-0.2-0.7-0.3-1.1c-0.2-0.5,0.1-0.7,0.5-0.8c0.4-0.1,0.5,0.2,0.6,0.6
		c0.1,0.3,0.2,0.7,0.3,1C141.1,96.8,140.9,97,140.3,97z"/>
	<path class="st71" d="M56.2,94.6c-0.3,0-0.5-0.1-0.6-0.4c-0.1-0.3,0.1-0.4,0.3-0.5c0.3-0.2,0.6-0.4,1-0.6c0.2-0.1,0.4-0.2,0.6,0
		c0.1,0.2,0,0.3-0.1,0.5C57,94.1,56.8,94.5,56.2,94.6z"/>
	<path class="st71" d="M138.9,94.6c-0.4,0-1.2-0.8-1.2-1.2c0-0.4,0.2-0.4,0.5-0.3c0.5,0.2,0.9,0.6,1.4,0.9c0.1,0.1,0.1,0.2,0,0.4
		C139.4,94.5,139.2,94.6,138.9,94.6z"/>
	<path class="st70" d="M91,89c0.1-0.9-0.3-1.6-1-2.1c-0.2-0.2-0.3-0.2-0.5,0c-0.2,0.2-0.3,0.6-0.8,0.7c0.3-0.7,0.5-1.4,0.9-1.9
		c0.2-0.3,0.5-0.1,0.6,0.1c0.4,0.5,0.8,1,1.1,1.5C91.7,87.8,91.5,88.7,91,89z"/>
	<path class="st70" d="M83.8,82.8c-0.3-0.8-0.4-1.7-0.9-2.4c-0.1-0.2-0.1-0.5,0.2-0.7c0.3-0.2,0.4,0.2,0.5,0.4
		C84.2,81,84,81.9,83.8,82.8z"/>
	<path class="st70" d="M88.9,92.7c-0.2,0-0.4,0-0.4-0.3c0-0.4,0.6-0.9,1-0.9c0.3,0,0.4,0.2,0.4,0.4C89.9,92.4,89.5,92.7,88.9,92.7z"
		/>
	<path class="st70" d="M106.5,87.6c-0.5,0-0.6-0.3-0.8-0.6c-0.2-0.3-0.3-0.3-0.6,0c-0.6,0.5-1,1.2-0.9,2c-0.5-0.2-0.7-0.8-0.5-1.4
		c0.2-0.8,0.9-1.3,1.3-1.9c0.2-0.2,0.5-0.1,0.6,0.1C105.9,86.3,106.3,86.9,106.5,87.6z"/>
	<path class="st70" d="M111.4,82.8c-0.3-0.9-0.3-1.9,0.1-2.7c0.1-0.2,0.2-0.5,0.5-0.3c0.3,0.1,0.4,0.5,0.2,0.7
		C111.8,81.2,111.6,82,111.4,82.8z"/>
	<path class="st70" d="M106.2,92.7c-0.6,0-1-0.3-1-0.8c0-0.3,0.2-0.4,0.4-0.4c0.4,0,1,0.6,1,0.9C106.6,92.8,106.4,92.7,106.2,92.7z"
		/>
	<path class="st71" d="M152.6,109.5c0-0.4,0-0.8,0-1.2c0-0.4,0.1-0.5,0.5-0.4c0.3,0,0.5,0,0.8,0c0.4,0,0.6,0.2,0.8,0.6
		c0.1,0.3,0.1,0.6-0.2,0.9c-0.2,0.2-0.2,0.3-0.1,0.6c0.2,0.3,0.3,0.6,0.4,0.9c0,0.1,0.3,0.3,0,0.4c-0.2,0.1-0.4,0-0.5-0.2
		c-0.1-0.3-0.3-0.6-0.4-0.9c-0.1-0.2-0.2-0.4-0.5-0.4c-0.3,0-0.2,0.3-0.2,0.5c0,0.2,0,0.5,0,0.7c0,0.2-0.1,0.3-0.3,0.3
		c-0.2,0-0.3-0.1-0.3-0.3C152.6,110.4,152.6,109.9,152.6,109.5z M153.2,108.8c0,0.1-0.1,0.4,0.3,0.4c0.3,0,0.7-0.1,0.7-0.5
		c0-0.4-0.3-0.4-0.6-0.4C153.1,108.2,153.1,108.4,153.2,108.8z"/>
</g>
</svg>
