<?xml version="1.0" encoding="utf-8"?>
<!-- Generator: Adobe Illustrator 22.1.0, SVG Export Plug-In . SVG Version: 6.00 Build 0)  -->
<svg version="1.1" id="Layer_1" xmlns="http://www.w3.org/2000/svg" xmlns:xlink="http://www.w3.org/1999/xlink" x="0px" y="0px"
	 viewBox="0 0 200 200" style="enable-background:new 0 0 200 200;" xml:space="preserve">
<style type="text/css">
	.st0{fill:none;}
	.st1{fill:#ED1F24;}
	.st2{fill:#FFFFFF;}
	.st3{fill:#00DBFF;}
	.st4{fill-rule:evenodd;clip-rule:evenodd;}
	.st5{fill-rule:evenodd;clip-rule:evenodd;fill:#FFFFFF;}
	.st6{fill:#475E29;}
	.st7{fill:#0E0D0F;}
	.st8{fill:#0F0E10;}
	.st9{fill:#3660B0;}
	.st10{fill:#3567B4;}
	.st11{fill:#356BB7;}
	.st12{fill:#2B99D9;}
	.st13{fill:#375BAD;}
	.st14{fill:#70AA43;}
	.st15{fill:#394EA6;}
	.st16{fill:#3372BC;}
	.st17{fill:#3756AA;}
	.st18{fill:#2C93D4;}
	.st19{fill:#3853A8;}
	.st20{fill:#6BA443;}
	.st21{fill:#7AB444;}
	.st22{fill:#2E8DD0;}
	.st23{fill:#7EB845;}
	.st24{fill:#75AF44;}
	.st25{fill:#3278C1;}
	.st26{fill:#2F86CB;}
	.st27{fill:#4EB9A8;}
	.st28{fill:#82BD46;}
	.st29{fill:#3082C8;}
	.st30{fill:#317DC4;}
	.st31{fill:#54BDAC;}
	.st32{fill:#2CA1DF;}
	.st33{fill:#368E86;}
	.st34{fill:#2D7E7A;}
	.st35{fill:#31857F;}
	.st36{fill:#3A968D;}
	.st37{fill:#639D41;}
	.st38{fill:#57933F;}
	.st39{fill:#5D9840;}
	.st40{fill:#45AA9C;}
	.st41{fill:#4C8A3D;}
	.st42{fill:#3E9D92;}
	.st43{fill:#3C7C3A;}
	.st44{fill:#46853C;}
	.st45{fill:#518E3E;}
	.st46{fill:#41803B;}
	.st47{fill:#236737;}
	.st48{fill:#41A397;}
	.st49{fill:#4AB2A3;}
	.st50{fill:#36773A;}
	.st51{fill:#307238;}
	.st52{fill:#2A6C38;}
	.st53{fill:#29A4E1;}
	.st54{fill:#070707;}
	.st55{fill:#050505;}
	.st56{fill:#030303;}
	.st57{fill:#FEFEFE;}
	.st58{fill:#F9F9F9;}
	.st59{fill:#FBFBFB;}
	.st60{fill:#0D5B3C;}
	.st61{fill:#045033;}
	.st62{fill:#FCFCFC;}
	.st63{fill:#F3F5F3;}
	.st64{fill:#237851;}
	.st65{fill:#166D48;}
	.st66{fill:#29875B;}
	.st67{fill:#1C754E;}
	.st68{fill:#339866;}
	.st69{fill:#319263;}
	.st70{fill:#F9E803;}
	.st71{fill:#D93339;}
	.st72{fill:#9B9B9B;}
</style>
<g>
	<path class="st0" d="M109.8,89.6c-0.3-0.7-0.5-1.3-0.8-2l0,0C109.3,88.3,109.5,88.9,109.8,89.6z"/>
	<path class="st0" d="M105.2,83.8C105.2,83.9,105.2,83.9,105.2,83.8C105.2,83.9,105.2,83.9,105.2,83.8z"/>
	<path class="st0" d="M100.4,88.3c0-0.1,0-0.1,0-0.2l0,0c0,0,0,0,0,0C100.4,88.1,100.4,88.2,100.4,88.3z"/>
	<path class="st0" d="M90.5,89.7c0,0.1,0,0.1,0,0.2C90.5,89.8,90.5,89.8,90.5,89.7z"/>
	<path class="st0" d="M105.1,84c0,0-0.1,0.1-0.1,0.1C105.1,84.1,105.1,84,105.1,84z"/>
	<path class="st0" d="M100.3,89.3c0,0.1,0,0.1,0,0.2C100.3,89.4,100.3,89.4,100.3,89.3c0-0.1,0-0.1,0-0.2
		C100.2,89.1,100.2,89.2,100.3,89.3z"/>
	<path class="st0" d="M111.5,83.8c-2.1,0-4.2,0-6.3,0v0C107.3,83.8,109.4,83.8,111.5,83.8z"/>
	<path class="st0" d="M119.6,89.6c0.1,0.1,0.2,0.1,0.4,0c0,0,0,0,0,0C119.8,89.7,119.6,89.7,119.6,89.6z"/>
	<path class="st0" d="M111.5,83.8C111.5,83.8,111.5,83.8,111.5,83.8C111.5,83.8,111.5,83.8,111.5,83.8c0.7,0,1.4,0,2,0
		C112.9,83.8,112.2,83.8,111.5,83.8z"/>
	<path class="st0" d="M115,90.3c-0.2,0.2-0.2,0.3-0.1,0.5c-0.2,0-0.3,0-0.5,0c0.2,0,0.3,0,0.5,0c3.3,0,6.6,0,9.9,0
		c-3.3,0-6.6,0-9.9,0C114.8,90.6,114.8,90.4,115,90.3z"/>
	<path class="st0" d="M113.6,83.8c1.7,0,3.4,0,5.1,0C117,83.8,115.3,83.8,113.6,83.8L113.6,83.8z"/>
	<path class="st0" d="M85.3,90.7C85.3,90.7,85.3,90.7,85.3,90.7c-0.8,0-1.5,0-2.3,0C83.8,90.7,84.6,90.7,85.3,90.7z"/>
	<path class="st0" d="M111.5,83.7c2.7,0,5.5,0,8.2,0C117,83.7,114.2,83.7,111.5,83.7c-0.1,0-0.2,0-0.3,0
		C111.3,83.7,111.4,83.7,111.5,83.7C111.5,83.7,111.5,83.7,111.5,83.7z"/>
	<path class="st0" d="M113.4,84c0,0.1-0.1,0.1-0.2,0.2C113.3,84.2,113.4,84.1,113.4,84z"/>
	<path class="st0" d="M96.7,89.7c0.1,0,0.1,0,0.2-0.1v0C96.9,89.7,96.8,89.7,96.7,89.7z"/>
	<path class="st0" d="M96.9,89.6C97,89.5,97,89.5,96.9,89.6c0-0.1,0.1-0.1,0.1-0.1C97,89.5,97,89.5,96.9,89.6
		C97,89.5,97,89.5,96.9,89.6z"/>
	<path class="st0" d="M96.9,85C96.9,85,96.9,85,96.9,85L96.9,85C96.9,85,96.9,85,96.9,85z"/>
	<path class="st0" d="M88.6,83.8c-0.2,0-0.4,0-0.6,0c0,0,0,0,0-0.1l0,0c0,0,0,0,0,0.1C88.2,83.8,88.4,83.8,88.6,83.8L88.6,83.8z"/>
	<path class="st0" d="M76.9,90.7c-0.6,0-1.2,0-1.8,0C75.7,90.7,76.3,90.7,76.9,90.7c0-0.1,0-0.2,0.1-0.3
		C77,90.5,76.9,90.6,76.9,90.7z"/>
	<path class="st0" d="M81.2,85c-0.2,0.1-0.4,0.3-0.5,0.5C80.8,85.3,81,85.1,81.2,85z"/>
	<path class="st0" d="M97,89.1c0-0.8,0-1.6,0-2.4c0.1,0,0.1,0,0.2-0.1c0,0-0.1,0-0.2,0.1C97,87.5,97,88.3,97,89.1z"/>
	<path class="st0" d="M97,85.7c0,0.1,0,0.1,0,0.2C97,85.8,97,85.7,97,85.7z"/>
	<path class="st0" d="M90.9,85.7C90.9,85.7,90.9,85.7,90.9,85.7C90.9,85.7,90.9,85.7,90.9,85.7z"/>
	<path class="st0" d="M93.8,90.7C93.8,90.7,93.8,90.7,93.8,90.7c-1.3,0.1-2.7,0.1-4,0.1C91.1,90.7,92.4,90.7,93.8,90.7
		c0.7,0.1,1.4,0.1,2.1,0.1C95.2,90.7,94.5,90.7,93.8,90.7C93.8,90.7,93.8,90.7,93.8,90.7z"/>
	<path class="st0" d="M90.5,89.7C90.5,89.7,90.5,89.7,90.5,89.7L90.5,89.7C90.5,89.7,90.5,89.7,90.5,89.7z"/>
	<path class="st0" d="M93.4,89.6C93.4,89.6,93.4,89.6,93.4,89.6c0,0-0.1,0-0.1,0C93.3,89.6,93.3,89.6,93.4,89.6z"/>
	<polygon class="st0" points="96.5,84.9 96.5,84.9 96.5,84.9 	"/>
	<path class="st0" d="M96.5,84.8C96.5,84.8,96.5,84.8,96.5,84.8C96.5,84.8,96.5,84.8,96.5,84.8z"/>
	<path class="st0" d="M80.1,87.4c0.2-0.1,0.3-0.3,0.4-0.5C80.4,87.1,80.3,87.3,80.1,87.4z"/>
	<path class="st54" d="M161.4,78.9c-0.1,0-0.2,0-0.3,0c-17,0-33.9,0-50.9,0c-2.3,0-4,1.2-4.6,3.5c-0.1,0.3-0.2,0.4-0.6,0.4
		c-0.2,0-0.5,0-0.7,0c-3.1,0-6.1,0-9.2,0c-0.3,0-0.6,0-0.7-0.4c-0.7-2.3-2.2-3.5-4.6-3.5c-16.8,0-33.6,0-50.4,0c-1,0-1.8,0.1-2.3,1
		c0,0.4,0,0.7,0,1.1c0.4,0.6,0.7,1.2,1.1,1.8c0.4,0.7,0.9,1.1,1.7,1.2c0.4,0,0.7,0.3,0.9,0.6c0.3,0.5,0.6,0.9,0.8,1.4
		c0.5,1,1.3,1.5,2.3,1.7c0.4,0.1,0.7,0.3,0.9,0.6c0.3,0.5,0.7,1.1,0.9,1.6c0.4,0.9,1.1,1.3,2,1.6c7,2,14,4.1,21,6.1
		c0.6,0.2,1,0.5,1.2,1.1c0.5,1.5,1.6,2.3,3,2.9c1.6,0.6,3.3,1,4.9,1.5c4.7,1.3,9.4,2.6,14.1,3.8c1.5,0.4,2.8,0.2,3.9-0.9
		c1.2-1.2,2.5-2.4,3.8-3.6c0.4-0.4,0.6-0.4,1.1,0c1.2,1.2,2.5,2.3,3.7,3.5c1.2,1.2,2.5,1.5,4.1,1c4-1.1,8-2.2,12.1-3.3
		c2.2-0.6,4.4-1.1,6.5-1.9c1.5-0.6,2.8-1.4,3.3-3.1c0.2-0.6,0.6-0.9,1.2-1c4.4-1.3,8.9-2.6,13.3-3.9c2.5-0.7,5.1-1.5,7.6-2.2
		c0.9-0.3,1.6-0.7,2-1.6c0.2-0.5,0.5-0.9,0.7-1.3c0.3-0.6,0.7-0.9,1.3-1c0.9-0.1,1.5-0.6,1.9-1.4c0.3-0.5,0.6-1,0.8-1.5
		c0.3-0.5,0.7-0.8,1.3-0.9c0.4,0,0.9-0.2,1.1-0.6c0.5-0.7,1-1.4,1.3-2.2C163.3,80,162.6,78.9,161.4,78.9z M106.5,82.5
		c0.5-1.7,1.7-2.7,3.7-2.7c7.8,0,15.5,0,23.3,0c0,0,0.1,0,0.2,0c-1,0.7-1.4,1.8-2,2.8c-0.2,0.3-0.3,0.4-0.6,0.4c-8,0-16.1,0-24.1,0
		C106.4,83,106.4,82.8,106.5,82.5z M126.4,88.5c-0.3-0.1-0.5-0.2-0.5-0.6c0-0.7,0-0.7,0.7-0.6c0.5,0.1,1,0.1,1.6,0.2
		c-0.2,0.2-0.3,0.3-0.4,0.5C127.5,88.6,127.1,88.7,126.4,88.5z M126.7,89.3c-0.2,0.3-0.5,0.5-0.7,0.8c0-0.3-0.1-0.7,0-0.8
		C126.1,89,126.4,89.2,126.7,89.3z M126.4,86.5c-0.4,0-0.5-0.2-0.5-0.6c0-0.4,0.1-0.6,0.5-0.5c0.5,0.1,1,0.1,1.5,0.1
		c0.5,0,1,0.1,1.6,0.1c-0.3,0.4-0.5,0.7-0.7,1c-0.1,0.1-0.2,0.2-0.4,0.1C127.8,86.7,127.1,86.6,126.4,86.5z M126.2,84.7
		c-0.5,0-0.3-0.4-0.3-0.6c0-0.2-0.1-0.4,0.3-0.4c1.5,0,3.1,0,4.7,0c-0.3,0.4-0.5,0.8-0.7,1.1c-0.1,0.1-0.2,0.1-0.4,0.1
		C128.6,84.9,127.4,84.8,126.2,84.7z M66.8,79.8c7.6,0,15.2,0,22.8,0c0.7,0,1.5,0.1,2.2,0.5c1,0.5,1.5,1.4,1.8,2.5
		c0,0.1,0,0.2-0.1,0.2c-0.1,0-0.2,0-0.3,0c-8,0-16.1,0-24.1,0c-0.4,0-0.5-0.1-0.7-0.4c-0.5-1-1-2-1.9-2.8
		C66.5,79.8,66.6,79.8,66.8,79.8z M74,88.1c0,0.1,0,0.3-0.2,0.3c0,0-0.1,0-0.1,0c-1.1,0.3-1.3,0.2-1.9-0.9c0.7-0.1,1.3-0.2,2-0.3
		c0,0,0.1,0,0.1,0C74.1,87.5,74,87.8,74,88.1z M74,90c-0.2-0.2-0.4-0.4-0.7-0.7C74.1,89,74.1,89.1,74,90z M73.3,86.6
		c-0.6,0.1-1.2,0.1-1.8,0.2c-0.2,0-0.3,0-0.5-0.2c-0.2-0.3-0.4-0.6-0.7-0.9c1.2-0.1,2.3-0.2,3.4-0.2c0.1,0,0.2,0,0.2,0.2
		C74.1,86.4,74,86.5,73.3,86.6z M70.2,84.9c-0.3,0-0.4,0-0.5-0.2c-0.2-0.3-0.4-0.6-0.6-1c1.6,0,3.1,0,4.7,0c0.2,0,0.3,0.1,0.3,0.3
		c0,0.7,0,0.7-0.6,0.7C72.3,84.8,71.3,84.8,70.2,84.9z M40.3,83c-0.7,0-1.2-0.2-1.5-0.9c-0.2-0.4-0.5-0.8-0.7-1.2
		c-0.3-0.6-0.1-1,0.6-1.1c0.2,0,0.3,0,0.5,0c8.2,0,16.4,0,24.6,0c1.1,0,2,0.4,2.7,1.1c0.5,0.6,0.8,1.3,1.3,2c-0.3,0-0.4,0-0.6,0
		C58.2,83,49.2,83,40.3,83z M44.1,86.6c-0.7,0-1.2-0.3-1.6-0.9c-0.3-0.7-0.7-1.3-1.1-2c8.9,0,17.7,0,26.5,0c0.2,0,0.4,0.1,0.5,0.3
		c0.2,0.3,0.4,0.6,0.6,1c-0.7,0.2-1.4,0.1-2.1,0.2c-4.1,0.3-8.3,0.6-12.4,0.8c-3,0.2-6,0.4-8.9,0.6C45.1,86.6,44.6,86.6,44.1,86.6z
		 M46.4,89.3c-0.3-0.6-0.6-1.1-0.9-1.6c-0.2-0.3-0.1-0.3,0.2-0.4c1.5-0.1,3-0.2,4.5-0.3c3.6-0.2,7.2-0.5,10.8-0.7
		c2.8-0.2,5.6-0.4,8.3-0.6c0.2,0,0.3,0,0.4,0.2c0.2,0.3,0.4,0.6,0.7,1c-1.7,0.2-3.3,0.4-4.8,0.7c-3.1,0.4-6.2,0.8-9.4,1.3
		c-2.8,0.4-5.6,0.8-8.5,1.1C47.1,90.1,46.7,89.9,46.4,89.3z M52.3,91.9c-1.3-0.4-2.6-0.8-3.9-1.2c0,0,0-0.1,0-0.1
		c0.9-0.1,1.8-0.2,2.6-0.4c3.3-0.4,6.7-0.9,10-1.3c3.2-0.4,6.3-0.8,9.5-1.3c0.3,0,0.5,0,0.7,0.3c0.2,0.3,0.4,0.5,0.7,0.8
		c-0.6,0.2-1.1,0.3-1.7,0.4c-4.6,1-9.3,1.9-13.9,2.9C55,92.3,53.6,92.3,52.3,91.9z M60.4,94.2c-1.3-0.4-2.6-0.8-4-1.2
		C56.2,93,56,93,55.9,92.8c5.4-1.1,10.9-2.2,16.3-3.3c0.2,0,0.3-0.1,0.5,0.1c0.4,0.5,0.9,0.9,1.3,1.4c-1.4,0.4-2.7,0.8-4.1,1.3
		c-2.1,0.6-4.2,1.3-6.3,1.9C62.5,94.5,61.4,94.6,60.4,94.2z M68.5,96.6c-1.7-0.5-3.5-1-5.3-1.6c1.6-0.5,3.1-1,4.6-1.4
		c2.1-0.7,4.2-1.3,6.3-2c0.3-0.1,0.5,0,0.7,0.2c0.6,0.6,1.2,1.1,1.9,1.7c0.2,0.2,0.2,0.2,0,0.4c-1.8,0.9-3.7,1.7-5.5,2.6
		C70.3,96.8,69.4,96.9,68.5,96.6z M92.8,94.9c-0.9,1.5-1.8,3-2.6,4.5c-0.2,0.3-0.3,0.4-0.7,0.3c-1.1-0.3-2.2-0.7-3.4-1.2
		c0.5-0.6,1-1.1,1.5-1.6c1.6-1.7,3.2-3.3,4.8-5c0.2-0.2,0.3-0.2,0.6-0.2c0.6,0,1.1,0,1.8,0C94,92.7,93.4,93.8,92.8,94.9z M94.8,92.8
		C94.9,92.7,94.9,92.7,94.8,92.8c0.8-1.3,0.8-1.3,2.2-1.2c0.2,0,0.3,0,0.2,0.3c-0.8,2.8-1.6,5.7-2.4,8.6c-0.1,0.3-0.2,0.3-0.5,0.3
		c-1.3-0.2-2.5-0.4-3.8-0.8C92,97.5,93.4,95.1,94.8,92.8z M89.3,93.9c-1.3,1.3-2.5,2.6-3.8,3.9c-0.1,0.1-0.2,0.2-0.4,0.1
		c-1-0.5-1.9-0.9-2.8-1.5c0-0.2,0.2-0.2,0.3-0.3c2.1-1.5,4.2-3,6.2-4.5c0.2-0.2,0.4-0.2,0.7-0.2c0.6,0,1.3,0,2.1,0
		C90.8,92.4,90.1,93.2,89.3,93.9z M87.5,91.8c-1.9,1.4-3.8,2.7-5.7,4c-0.2,0.2-0.4,0.2-0.6,0c-1-0.6-2-1.3-2.9-2
		c0.6-0.3,1.1-0.5,1.6-0.8c0.2-0.1,0.4-0.2,0.6-0.3c1.8-1.1,3.8-1.5,5.9-1.3c0.4,0,0.9,0,1.4,0C87.7,91.7,87.6,91.8,87.5,91.8z
		 M80.6,92c-0.9,0.4-1.8,0.8-2.6,1.2c-0.1,0.1-0.3,0.2-0.5,0c-0.6-0.5-1.3-1.1-2-1.7c2.1,0,4,0,5.9,0c0,0,0,0,0,0.1
		C81.1,91.8,80.9,91.9,80.6,92z M73.1,100.7c-1.1-0.5-2-1.2-2.4-2.4c-0.1-0.3-0.5-0.5-0.4-0.8c0.1-0.2,0.5-0.2,0.8-0.3
		c2-0.9,3.9-1.8,5.9-2.8c0.4-0.2,0.6-0.2,0.9,0.1c0.9,0.7,1.9,1.4,2.9,2c-1.4,1-2.8,2-4.2,3c-0.4,0.3-0.9,0.6-1.3,0.9
		C74.6,101,73.9,101,73.1,100.7z M79.4,102.5c-1.3-0.4-2.7-0.7-4-1.1c1.2-0.8,2.3-1.7,3.5-2.5c0.8-0.6,1.7-1.2,2.5-1.8
		c0.1-0.1,0.2-0.2,0.4-0.1c1,0.6,2,1.1,3,1.6c-1.1,1.1-2.1,2.2-3.2,3.3C81,102.6,80.3,102.8,79.4,102.5z M85.9,104.3
		c-1.5-0.5-2.9-0.8-4.5-1.2c1.4-1.2,2.6-2.6,3.8-3.9c0.2-0.2,0.3-0.2,0.5-0.1c1.1,0.5,2.2,0.9,3.4,1.2c0.3,0.1,0.3,0.2,0.1,0.4
		c-0.5,0.9-1.1,1.8-1.6,2.7c-0.1,0.2-0.2,0.3-0.3,0.5C87,104.3,86.6,104.5,85.9,104.3z M91.6,105.8c-1.3-0.4-2.7-0.7-4.1-1.1
		c1.1-1.2,1.7-2.6,2.5-3.9c0.1-0.2,0.2-0.3,0.4-0.2c1.3,0.4,2.7,0.6,4.1,0.8c-0.3,1.1-0.6,2.2-0.9,3.3
		C93.3,105.8,92.7,106.1,91.6,105.8z M94,105.9c0.6-1.3,0.8-2.8,1.3-4.1c0.1-0.2,0.1-0.3,0.3-0.3c1,0.1,2,0.2,3.1,0.3
		C97,103.2,95.7,104.8,94,105.9z M99.6,96.3c0,1.4,0,2.8,0,4.3c0,0.3-0.1,0.5-0.4,0.5c-1.1,0-2.3-0.1-3.4-0.2
		c-0.3,0-0.3-0.1-0.2-0.3c0.8-2.9,1.6-5.8,2.4-8.7c0-0.1,0-0.2,0.1-0.2c0.5,0,0.9,0,1.4,0c0.2,0,0.1,0.2,0.1,0.4
		C99.6,93.4,99.6,94.9,99.6,96.3z M85.8,90.8c-0.2,0-0.3,0-0.5,0c-3.4,0-6.8,0-10.2,0c-0.3,0-0.4-0.1-0.4-0.4c0-2.1,0-4.2,0-6.4
		c0-0.3,0.1-0.4,0.4-0.4c2.1,0,4.3,0,6.4,0c2.1,0,4.3,0,6.4,0c0.1,0,0.2,0,0.4,0c7.6,0,15.2,0,22.8,0c0.1,0,0.2,0,0.3,0
		c2.7,0,5.5,0,8.2,0c1.7,0,3.4,0,5.1,0c0.3,0,0.5,0.1,0.5,0.4c0,2.1,0,4.2,0,6.3c0,0.3-0.1,0.4-0.4,0.4c-3.3,0-6.6,0-9.9,0
		c-0.2,0-0.3,0-0.5,0C104.9,90.8,95.3,90.8,85.8,90.8z M105.7,92.4c-0.1-0.2-0.3-0.5-0.5-0.8c0.7,0,1.3,0,2,0c0.2,0,0.2,0.1,0.3,0.2
		c2.1,2.2,4.2,4.4,6.3,6.5c0,0,0,0.1,0,0.1c-1.2,0.5-2.4,0.9-3.6,1.3c-0.3,0.1-0.3-0.2-0.4-0.3C108.5,97,107.1,94.7,105.7,92.4z
		 M109.4,99.9c-1.3,0.3-2.6,0.6-3.9,0.8c-0.2,0-0.3-0.1-0.4-0.3c-0.8-2.9-1.6-5.7-2.4-8.6c-0.1-0.3,0-0.3,0.2-0.3c0,0,0,0,0,0
		c1-0.2,1.6,0.2,2.1,1.1c1.2,2.3,2.6,4.5,4,6.8C109.2,99.6,109.3,99.8,109.4,99.9z M108.5,91.6C108.5,91.6,108.5,91.6,108.5,91.6
		c0.8-0.1,1.5-0.1,2.3-0.1c0.1,0,0.2,0.1,0.3,0.1c2.2,1.6,4.4,3.2,6.6,4.7c0,0,0,0,0.1,0.1c-1,0.6-1.9,1-2.9,1.5
		c-0.1,0.1-0.2,0-0.3-0.1C112.5,95.8,110.5,93.7,108.5,91.6z M112.2,91.6c0.1-0.2,0.2-0.1,0.3-0.1c1.3,0,2.5,0,3.8,0
		c0.1,0,0.3,0,0.4,0c1.6,0.7,3.2,1.5,4.9,2.3c-1,0.8-2,1.5-3,2.1c-0.2,0.1-0.3,0.1-0.4,0C116.2,94.5,114.2,93.1,112.2,91.6z
		 M118.6,91.6C118.6,91.6,118.6,91.6,118.6,91.6c1.9-0.1,3.8-0.1,5.8-0.1c-0.7,0.6-1.3,1.2-2,1.7c-0.1,0.1-0.2,0.1-0.3,0
		C121,92.8,119.8,92.2,118.6,91.6z M100.4,100c0-2.7,0-5.4,0-8c0-0.4,0.1-0.5,0.5-0.5c1.1,0,1.1,0,1.4,1c0.7,2.6,1.4,5.2,2.2,7.8
		c0.1,0.3,0,0.4-0.3,0.5c-0.9,0-1.8,0.1-2.2,0.2C100.4,101.1,100.4,101.1,100.4,100z M105.2,105.4c-1.3-1.2-2.5-2.4-3.8-3.6
		c1.1-0.1,2.1-0.2,3.1-0.3c0.2,0,0.2,0.1,0.3,0.3c0.2,0.7,0.4,1.4,0.6,2.1c0.2,0.7,0.3,1.4,0.8,2
		C105.7,105.9,105.4,105.7,105.2,105.4z M107.9,105.9c-0.5,0.1-0.8-0.1-1.2-0.4c-0.2-0.3-0.4-0.6-0.5-0.9c-0.3-1-0.6-2-0.9-3.1
		c1.4-0.2,2.7-0.4,4-0.8c0.3-0.1,0.4,0,0.5,0.2c0.4,0.7,0.8,1.3,1.2,2c0.4,0.6,0.7,1.3,1.4,1.9C110.9,105.2,109.4,105.6,107.9,105.9
		z M113.7,104.4c-0.3,0.1-0.5,0-0.7-0.2c-0.3-0.2-0.5-0.5-0.7-0.8c-0.6-0.9-1.1-1.9-1.7-2.8c-0.1-0.2-0.1-0.3,0.1-0.4
		c1.2-0.3,2.3-0.7,3.4-1.2c0.3-0.1,0.4,0,0.5,0.1c0.9,0.9,1.8,1.9,2.7,2.8c0.4,0.4,0.7,0.7,1.2,1.1
		C116.9,103.5,115.3,104,113.7,104.4z M120.5,102.5c-0.8,0.2-1.5,0.1-2-0.4c-1.1-1.1-2.2-2.3-3.4-3.4c1.1-0.5,2.1-1,3.1-1.6
		c0.2-0.1,0.3,0,0.5,0.1c1.7,1.2,3.4,2.4,5.1,3.6c0.3,0.2,0.6,0.4,0.9,0.6C123.3,101.8,121.9,102.1,120.5,102.5z M129.6,97.7
		c-0.1,0.2-0.3,0.4-0.4,0.7c-0.5,1.4-1.6,2-2.9,2.5c-0.6,0.2-1.2,0-1.7-0.4c-1.8-1.3-3.7-2.6-5.5-3.9c1.1-0.7,2.1-1.4,3.1-2.2
		c0.2-0.2,0.4-0.1,0.5,0c1.8,0.8,3.6,1.7,5.4,2.6c0.4,0.2,0.8,0.4,1.3,0.5C129.7,97.5,129.7,97.5,129.6,97.7z M131,96.7
		c-0.7,0.2-1.4,0-2-0.3c-1.9-0.9-3.7-1.7-5.6-2.6c-0.2-0.1-0.3-0.2-0.1-0.3c0.7-0.6,1.4-1.2,2-1.8c0.1-0.1,0.2-0.2,0.4-0.1
		c3.6,1.1,7.3,2.3,11.1,3.4C134.8,95.6,132.9,96.2,131,96.7z M143.8,93c-1.5,0.4-2.9,0.8-4.4,1.3c-0.8,0.3-1.6,0.3-2.4,0
		c-3.6-1.1-7.2-2.2-10.9-3.3c0.5-0.5,0.9-1,1.3-1.4c0.1-0.2,0.3-0.1,0.4-0.1c4.2,0.9,8.4,1.7,12.6,2.6c1.2,0.3,2.5,0.5,3.7,0.8
		C144,93,143.9,93,143.8,93z M148,91.8c-1.6,0.6-3.1,0.5-4.7,0.2c-4.9-1-9.9-2-14.8-3.1c-0.1,0-0.2-0.1-0.3-0.1
		c0.3-0.4,0.6-0.7,0.8-1c0.1-0.2,0.3-0.1,0.4-0.1c2.5,0.3,5,0.7,7.4,1c3.1,0.4,6.3,0.8,9.4,1.3c1.7,0.2,3.4,0.4,5.1,0.7
		c0.1,0,0.2,0.1,0.4,0.1C150.4,91.1,149.1,91.4,148,91.8z M153.3,89.7c-0.2,0.3-0.7,0.3-1,0.2c-1-0.1-2-0.3-3-0.4
		c-2.9-0.4-5.8-0.8-8.6-1.2c-2.9-0.4-5.8-0.8-8.7-1.2c-0.8-0.1-1.5-0.2-2.3-0.3c0.3-0.4,0.5-0.7,0.8-1.1c0.1-0.1,0.2-0.1,0.4-0.1
		c3.4,0.2,6.7,0.5,10.1,0.7c3,0.2,6,0.4,8.9,0.6c1.6,0.1,3.3,0.2,5,0.3C154.2,88.2,153.8,89,153.3,89.7z M157.2,86.2
		c-0.3,0.4-0.8,0.5-1.3,0.5c-1.7-0.1-3.3-0.2-5-0.3c-2.5-0.2-5.1-0.3-7.6-0.5c-3.6-0.2-7.2-0.5-10.8-0.7c-0.5,0-1,0-1.5-0.1
		c0.2-0.4,0.5-0.7,0.7-1.1c0.1-0.2,0.3-0.2,0.4-0.2c1.6,0,3.3,0,4.9,0c7,0,14,0,21,0c0.2,0,0.3,0,0.6,0
		C158.1,84.6,157.8,85.4,157.2,86.2z M162,80.6c-0.3,0.8-0.8,1.4-1.2,2.1c-0.1,0.1-0.3,0.2-0.4,0.2c-0.2,0-0.4,0-0.6,0
		c-9,0-18.1,0-27.1,0c-0.1,0-0.2,0-0.5,0c0.5-0.9,0.9-1.8,1.6-2.4c0.6-0.5,1.3-0.8,2.1-0.8c8.3,0,16.7,0,25,0c0.2,0,0.4,0,0.6,0.1
		C162,80,162.1,80.3,162,80.6z"/>
	<path class="st54" d="M109.4,112.2c0-0.1,0-0.4-0.2-0.4c-0.3-0.1-0.3,0.2-0.4,0.3c-1.1,2.1-2.3,4.1-3.4,6.2
		c-0.1,0.2-0.1,0.3-0.3,0.4c-0.3-0.5-0.5-0.9-0.8-1.3c-1-1.8-1.9-3.6-2.8-5.4c-0.1-0.1-0.1-0.3-0.4-0.3c-0.3,0-0.2,0.3-0.2,0.4
		c-0.2,1.2-0.3,2.4-0.5,3.6c-0.2,1.7-0.5,3.3-0.7,5c0,0.2,0,0.3,0.2,0.3c0.2,0,0.3,0,0.5,0c0.2,0,0.3-0.1,0.3-0.3
		c0-1.6,0.2-3.1,0.4-4.7c0.1-0.6,0.1-1.2,0.2-1.9c0.1,0.3,0.2,0.4,0.3,0.5c1,1.9,2.1,3.9,3,5.9c0.1,0.1,0.1,0.3,0.2,0.3
		c0.2,0,0.2-0.2,0.2-0.3c0.9-2.1,2.1-4.1,3.2-6.1c0.1-0.1,0.1-0.3,0.3-0.2c0.2,1.9,0.4,3.8,0.5,5.7c0.1,1.1,0.1,1.1,1.2,1
		c0.2,0,0.2-0.1,0.2-0.3C110.1,117.8,109.7,115,109.4,112.2z"/>
	<path class="st54" d="M79.8,111.6c-0.2,0-0.5,0-0.7,0c-0.2,0-0.3,0-0.5,0.1c-1.9,0.4-3.2,1.5-3.6,3.4c-0.5,1.9-0.2,3.7,1.5,5
		c1.5,1.2,3.2,1.3,5,0.9c1.7-0.5,2.9-1.6,3.3-3.3c0.4-1.7,0.2-3.4-1.2-4.7C82.5,111.9,81.2,111.5,79.8,111.6z M82.8,118.9
		c-0.8,1.3-2,1.9-3.4,1.7c-1.5-0.2-2.5-1-3-2.4c-0.5-1.5-0.4-2.9,0.3-4.3c0.7-1.4,2.2-2.1,3.8-1.9c1.5,0.3,2.7,1.4,3,2.9
		c0.1,0.4,0.1,0.8,0.1,1.3C83.6,117.2,83.3,118.1,82.8,118.9z"/>
	<path class="st55" d="M125.6,115.6c0.8-0.6,1-1.4,0.8-2.4c-0.2-0.9-0.9-1.3-1.8-1.4c-1.2-0.2-2.4-0.1-3.6-0.1
		c-0.4,0-0.5,0.1-0.5,0.4c0,2.6,0,5.3,0,7.9c0,0.8,0,0.8,0.8,0.8c0.3,0,0.4-0.1,0.4-0.4c0-1.3,0-2.5,0-3.8c0-0.1-0.1-0.3,0.1-0.3
		c0.2,0,0.3-0.1,0.5,0.1c0.1,0.1,0.1,0.1,0.2,0.2c1.1,1.2,2.1,2.5,3,3.9c0.1,0.1,0.1,0.3,0.4,0.3c0.5,0,0.9,0,1.5,0
		c-1.3-1.5-2.5-3-3.7-4.6C124.5,116.2,125.1,116,125.6,115.6z M121.9,115.9c-0.2,0-0.1-0.2-0.1-0.3c0-0.3,0-0.5,0-0.8
		c0-0.3,0-0.5,0-0.8c0-0.2,0-0.5,0-0.7c0-0.2,0-0.5,0-0.7c0-0.2,0-0.4,0.3-0.4c0.6,0,1.1-0.1,1.7,0c0.6,0.1,1.1,0.4,1.3,1
		c0.2,0.7,0.1,1.4-0.4,1.9C123.9,116,122.9,116,121.9,115.9z"/>
	<path class="st54" d="M146.8,112.1c0-0.2,0-0.4-0.3-0.4c-0.3,0-0.5,0-0.5,0.4c0,2,0,4,0,6c0,0.2,0.1,0.4-0.1,0.5
		c-0.2,0.1-0.2-0.2-0.3-0.3c0,0-0.1-0.1-0.1-0.1c-1.9-2.1-3.8-4.2-5.8-6.2c-0.2-0.2-0.4-0.3-0.7-0.3c-0.3,0.1-0.1,0.4-0.1,0.6
		c0,2.7,0,5.5,0,8.2c0,0.4,0.2,0.4,0.5,0.4c0.4,0,0.3-0.2,0.3-0.4c0-2.3,0-4.5,0-6.8c0.2,0,0.2,0.1,0.3,0.2c2.1,2.3,4.1,4.5,6.2,6.8
		c0.1,0.2,0.3,0.3,0.5,0.2c0.2-0.1,0.1-0.3,0.1-0.4C146.8,117.7,146.8,114.9,146.8,112.1z"/>
	<path class="st56" d="M94.2,112.1c0-0.4-0.2-0.3-0.4-0.3c-0.3,0-0.4,0-0.4,0.3c0,1.3,0,2.6,0,3.9c0,0.9,0,1.8,0,2.6
		c0,0-0.1,0-0.1,0c-0.1-0.2-0.3-0.3-0.4-0.5c-1.9-2.1-3.8-4.2-5.8-6.2c-0.2-0.2-0.4-0.3-0.6-0.2c-0.3,0.1-0.1,0.3-0.1,0.5
		c0,2.8,0,5.5,0,8.3c0,0.3,0,0.4,0.4,0.4c0.4,0,0.4-0.2,0.4-0.4c0-2.1,0-4.2,0-6.3c0-0.2-0.1-0.3,0.1-0.5c0.1,0.1,0.1,0.1,0.2,0.2
		c2.1,2.3,4.1,4.6,6.2,6.9c0.1,0.2,0.3,0.3,0.5,0.2c0.2-0.1,0.1-0.3,0.1-0.4C94.2,117.7,94.1,114.9,94.2,112.1z"/>
	<path class="st55" d="M57.4,111.9c-0.1-0.1-0.1-0.3-0.3-0.4c-0.3,0-0.3,0.2-0.4,0.4c-0.7,1.6-1.4,3.2-2.2,4.8
		c-0.6,1.4-1.3,2.8-1.9,4.2c0.2,0,0.4,0,0.5,0c0.4,0.1,0.5-0.1,0.7-0.5c0.3-0.9,0.7-1.8,1-2.8c0.1-0.3,0.3-0.4,0.6-0.4
		c0.9,0,1.7,0,2.6,0c0.3,0,0.4,0.1,0.5,0.4c0.4,1,0.8,1.9,1.1,2.9c0.1,0.2,0.1,0.4,0.3,0.3c0.4,0,0.8,0,1.2,0
		c-0.1-0.1-0.1-0.2-0.1-0.3C59.9,117.7,58.6,114.8,57.4,111.9z M55.3,116.7c0.5-1.1,0.9-2.2,1.4-3.4c0.5,1.2,1,2.3,1.5,3.4
		C57.2,116.7,56.3,116.7,55.3,116.7z"/>
	<path class="st55" d="M115.8,111.9c-0.1-0.2-0.1-0.4-0.3-0.4c-0.2,0-0.2,0.2-0.3,0.3c-1,2.2-2,4.4-2.9,6.6
		c-0.4,0.8-0.7,1.6-1.1,2.5c0.2,0,0.4,0,0.5,0c0.4,0.1,0.5-0.1,0.6-0.4c0.3-1,0.7-1.9,1-2.9c0.1-0.2,0.2-0.3,0.5-0.3
		c0.9,0,1.8,0,2.7,0c0.3,0,0.4,0.1,0.5,0.3c0.3,0.8,0.6,1.5,0.9,2.3c0.1,0.3,0.1,0.7,0.4,0.9c0.2,0.2,0.6,0,1,0.1
		c0.4,0.1,0.4-0.1,0.3-0.4C118.3,117.6,117,114.8,115.8,111.9z M115.7,116.7c-0.6,0-1.1,0-1.7,0c-0.2,0-0.3,0-0.2-0.3
		c0.4-1,0.9-2,1.3-3.1c0.4,0.9,0.8,1.7,1.1,2.6C116.6,116.7,116.6,116.7,115.7,116.7z"/>
	<path class="st54" d="M65.7,115.9c-0.1-0.1-0.3-0.1-0.4-0.2c-0.5-0.2-0.9-0.3-1.3-0.6c-0.7-0.5-1-1.3-0.7-2c0.3-0.7,1.1-1.1,2-0.9
		c0.7,0.1,1,0.6,1.4,1.3c0.1-0.4,0.2-0.7,0.3-0.9c0.1-0.3,0-0.4-0.2-0.5c-1-0.6-2.8-0.5-3.7,0.2c-0.4,0.3-0.6,0.6-0.8,1.1
		c-0.4,1.3,0,2.4,1.2,3c0.6,0.3,1.3,0.5,1.9,0.8c0.9,0.4,1.2,1.2,0.9,2c-0.2,0.9-0.9,1.4-1.9,1.4c-0.8,0-1.4-0.4-1.9-1
		c-0.1-0.1-0.1-0.3-0.3-0.4c-0.2,0.2-0.1,0.5-0.2,0.8c-0.2,0.4,0,0.6,0.3,0.7c1.2,0.6,2.5,0.7,3.7,0c1.1-0.6,1.5-1.6,1.5-2.7
		C67.3,116.8,66.6,116.3,65.7,115.9z"/>
	<path class="st56" d="M74.9,112.4c-0.1-0.2,0.3-0.6-0.2-0.7c-2.2,0-4.3,0-6.5,0c-0.5,0-0.1,0.5-0.2,0.7c-0.1,0.2,0.2,0.1,0.3,0.1
		c0.7,0,1.5-0.1,2.2-0.1c0.4,0,0.4,0.1,0.4,0.4c0,1.3,0,2.6,0,3.9c0,1.1,0,2.3,0,3.4c0,0.3-0.1,0.6,0,0.8c0.1,0.2,0.5,0,0.7,0
		c0.4,0.1,0.4-0.1,0.4-0.4c0-2.6,0-5.2,0-7.8c0-0.3,0.1-0.4,0.4-0.4c0.7,0.1,1.4,0.1,2.1,0.1C74.8,112.5,75,112.6,74.9,112.4z"/>
	<path class="st55" d="M134.1,111.7c-0.5,0-1,0-1.5,0c-1.6,0-3.3,0-4.9,0c-0.6,0-0.2,0.4-0.3,0.6c-0.1,0.3,0.2,0.2,0.3,0.2
		c0.7,0,1.5-0.1,2.2-0.1c0.3,0,0.4,0.1,0.4,0.4c0,2.4,0,4.9,0,7.3c0,0.3-0.1,0.6,0.1,0.8c0.1,0.2,0.5,0,0.7,0c0,0,0.1,0,0.1,0
		c0.3,0.1,0.4-0.1,0.4-0.4c0-1.3,0-2.6,0-3.9c0-1.3,0-2.7,0-4c0-0.3,0.1-0.4,0.3-0.3c0.7,0.1,1.4,0.1,2.2,0.1c0.1,0,0.4,0.1,0.3-0.2
		C134.3,112.1,134.6,111.8,134.1,111.7z"/>
	<path class="st56" d="M137.1,112.6c0-0.9,0-0.8-0.9-0.9c-0.3,0-0.4,0.1-0.4,0.4c0,1.4,0,2.8,0,4.2c0,1.3,0,2.5,0,3.8
		c0,0.8,0,0.8,0.8,0.9c0.4,0,0.4-0.1,0.4-0.4C137.1,117.9,137.1,115.3,137.1,112.6z"/>
	<path class="st57" d="M161.6,79.9c-0.2-0.1-0.4-0.1-0.6-0.1c-8.3,0-16.7,0-25,0c-0.8,0-1.5,0.3-2.1,0.8c-0.7,0.6-1.1,1.5-1.6,2.4
		c0.2,0,0.3,0,0.5,0c9,0,18.1,0,27.1,0c0.2,0,0.4,0,0.6,0c0.2,0,0.4-0.1,0.4-0.2c0.4-0.7,0.9-1.3,1.2-2.1
		C162.1,80.3,162,80,161.6,79.9z"/>
	<path class="st57" d="M67.1,83c0.2,0,0.3,0,0.6,0c-0.5-0.7-0.8-1.5-1.3-2c-0.7-0.8-1.6-1.1-2.7-1.1c-8.2,0-16.4,0-24.6,0
		c-0.2,0-0.3,0-0.5,0c-0.7,0.1-0.9,0.5-0.6,1.1c0.2,0.4,0.5,0.8,0.7,1.2c0.3,0.7,0.8,0.9,1.5,0.9C49.2,83,58.2,83,67.1,83z"/>
	<path class="st57" d="M106.8,83c8,0,16.1,0,24.1,0c0.3,0,0.5-0.1,0.6-0.4c0.6-1,1-2,2-2.8c-0.1,0-0.2,0-0.2,0c-7.8,0-15.5,0-23.3,0
		c-1.9,0-3.2,1-3.7,2.7C106.4,82.8,106.4,83,106.8,83z"/>
	<path class="st57" d="M68.3,82.6c0.2,0.3,0.4,0.4,0.7,0.4c8,0,16.1,0,24.1,0c0.1,0,0.2,0,0.3,0c0.1,0,0.2-0.1,0.1-0.2
		c-0.3-1.1-0.8-2-1.8-2.5c-0.7-0.4-1.4-0.5-2.2-0.5c-7.6,0-15.2,0-22.8,0c-0.1,0-0.2,0-0.4,0C67.3,80.5,67.8,81.6,68.3,82.6z"/>
	<path class="st58" d="M54.5,86c4.1-0.3,8.3-0.5,12.4-0.8c0.7,0,1.4,0,2.1-0.2c-0.2-0.4-0.4-0.7-0.6-1c-0.1-0.2-0.3-0.3-0.5-0.3
		c-8.8,0-17.6,0-26.5,0c0.4,0.7,0.8,1.4,1.1,2c0.3,0.7,0.9,0.9,1.6,0.9c0.5,0,1,0,1.5-0.1C48.5,86.4,51.5,86.2,54.5,86z"/>
	<path class="st58" d="M137.1,83.7c-1.6,0-3.3,0-4.9,0c-0.2,0-0.3,0-0.4,0.2c-0.2,0.4-0.5,0.7-0.7,1.1c0.5,0.1,1,0.1,1.5,0.1
		c3.6,0.2,7.2,0.5,10.8,0.7c2.5,0.2,5.1,0.3,7.6,0.5c1.6,0.1,3.3,0.2,5,0.3c0.5,0,1-0.1,1.3-0.5c0.6-0.7,1-1.6,1.5-2.5
		c-0.3,0-0.4,0-0.6,0C151.1,83.7,144.1,83.7,137.1,83.7z"/>
	<path class="st59" d="M140.8,86.4c-3.4-0.2-6.7-0.5-10.1-0.7c-0.1,0-0.3,0-0.4,0.1c-0.2,0.3-0.5,0.7-0.8,1.1
		c0.8,0.1,1.6,0.2,2.3,0.3c2.9,0.4,5.8,0.8,8.7,1.2c2.9,0.4,5.8,0.8,8.6,1.2c1,0.1,2,0.3,3,0.4c0.4,0,0.8,0.1,1-0.2
		c0.5-0.8,0.9-1.6,1.4-2.4c-1.7-0.1-3.3-0.2-5-0.3C146.7,86.8,143.8,86.6,140.8,86.4z"/>
	<path class="st59" d="M65.6,87.6c1.6-0.2,3.2-0.4,4.8-0.7c-0.3-0.4-0.5-0.7-0.7-1c-0.1-0.2-0.2-0.2-0.4-0.2
		c-2.8,0.2-5.6,0.4-8.3,0.6c-3.6,0.2-7.2,0.5-10.8,0.7c-1.5,0.1-3,0.2-4.5,0.3c-0.3,0-0.4,0.1-0.2,0.4c0.3,0.5,0.7,1.1,0.9,1.6
		c0.3,0.6,0.7,0.8,1.4,0.7c2.8-0.4,5.6-0.8,8.5-1.1C59.3,88.4,62.4,88,65.6,87.6z"/>
	<path class="st60" d="M114.9,90.8c-0.1-0.2-0.1-0.4,0.1-0.5c0,0,0,0,0.1-0.1c0.2-0.1,0.4-0.2,0.4-0.5c-0.3,0-0.4-0.1-0.4-0.4
		c0-1.2,0-2.4,0-3.6c0-0.3-0.1-0.4-0.4-0.4c-0.3,0-0.6,0-0.8,0.1c-0.2,0-0.3,0-0.3-0.2c0-0.2,0-0.3,0.3-0.3c1,0,2.1,0,3.1,0
		c0.2,0,0.3,0.1,0.3,0.3c0,0.3-0.2,0.2-0.3,0.2c-1.1-0.1-1.1-0.1-1.1,1.1c0,1.1,0.1,2.2,0,3.2c0.4-0.8,1.2-1.2,1.7-1.9
		c0.1-0.2,0.2,0,0.2,0.2c0,0.4,0,0.8,0,1.2c0,0.6,0.2,0.7,0.7,0.4c-0.7,0.1-0.7,0.1-0.7-0.5c0-1.3,0-2.5,0-3.8c0-0.2,0-0.4,0.3-0.4
		c0.3,0,0.4,0.1,0.4,0.4c0,0.5,0,1,0,1.4c0.3,0,0.4-0.3,0.5-0.5c0.1-0.1,0.2-0.2,0.3-0.1c0.1,0.1,0.1,0.2,0.1,0.3c0,1,0,1.9,0,2.9
		c0,0.3,0,0.4,0.2,0.4c0.1,0,0.2,0,0.4-0.1c-0.2,0.1-0.3,0.1-0.4,0c-0.1-0.1-0.1-0.2-0.1-0.4c0-1.3,0-2.5,0-3.8
		c0-0.2-0.1-0.4,0.1-0.4c0.2-0.1,0.3,0.1,0.5,0.2c0,0,0.1,0.1,0.1,0.1c0.1-0.5,0.6-0.7,0.9-1c0-0.1,0.1-0.1,0.2-0.1
		c0.1-0.1,0.2-0.1,0.2-0.3c-0.1-0.1-0.2-0.1-0.3-0.1c-0.8,0-1.6,0-2.4,0c-1.7,0-3.4,0-5.1,0c0,0.1-0.1,0.2-0.1,0.3
		c0,0.1-0.1,0.1-0.2,0.2c-0.1,0.1-0.1,0.1-0.2,0.2c-0.1,0.1-0.1,0.1-0.2,0.2c-0.1,0.1-0.2,0.3-0.3,0.4h0c0.1,0,0.2,0.1,0.3,0.2
		c0.3,0.2,0.5,0.5,0.4,0.9c0,0.8-0.6,1.1-1.3,1.3c0.6,0.7,1.2,1.5,1.8,2.2c-0.5,0.1-0.8,0.2-1.2-0.3c-0.4-0.6-0.8-1.1-1.3-1.6
		c-0.1-0.1-0.2-0.3-0.3-0.2c-0.2,0.1-0.1,0.3-0.1,0.4c0,0.5,0,1,0,1.4c0,0.3,0,0.4-0.4,0.4c-0.3,0-0.4-0.1-0.4-0.4
		c0-0.9,0-1.8,0-2.7c-0.3,0.1-0.5,0.2-0.7,0.4c-0.1,0.1-0.2,0.2-0.3,0.3c-0.1,0.1-0.2,0.2-0.3,0.3c0.3,0.7,0.5,1.3,0.8,2
		c-0.8,0.2-0.8,0.2-1-0.6c-0.1-0.3-0.2-0.5-0.3-0.8c-0.4,0.5-0.8,1-1.3,1.5c-0.3,0.2-0.6,0.4-0.8,0.8c-0.1,0.2-0.3,0.2-0.5,0.2
		c-2.6,0-5.2,0-7.8,0c-0.7,0-1.4,0-2.1,0c-0.7,0-1.4,0-2.1,0c-1.3,0-2.7,0-4,0c-1.5,0-3,0-4.5,0c0,0,0,0,0,0h0c0,0,0,0,0,0.1h0
		c0.2,0,0.3,0,0.5,0c9.6,0,19.1,0,28.7,0C114.6,90.8,114.8,90.8,114.9,90.8z"/>
	<path class="st60" d="M85.3,90.8C85.3,90.8,85.3,90.8,85.3,90.8c0.2,0,0.3,0,0.5,0C85.6,90.8,85.5,90.8,85.3,90.8L85.3,90.8z"/>
	<path class="st61" d="M111.5,83.8C111.5,83.8,111.5,83.8,111.5,83.8c0.7,0,1.4,0,2,0c1.7,0,3.4,0,5.1,0c0.8,0,1.6,0,2.4,0
		c0.1,0,0.2-0.1,0.3,0.1c0.1,0.1-0.1,0.2-0.2,0.3c-0.1,0.1-0.1,0.1-0.2,0.1c-0.3,0.3-0.8,0.5-0.9,1c0.9,1,1.8,2,2.8,3.1
		c0.1-0.4,0.1-0.7,0.1-1c0-0.7,0-1.4,0-2c0-0.2-0.1-0.4,0.2-0.4c0.4,0,0.2,0.2,0.2,0.4c0,1.3,0,2.6,0,3.9c0,0.1,0.1,0.3-0.1,0.4
		c-0.2,0.1-0.3-0.1-0.4-0.2c-0.9-1-1.9-2.1-2.8-3.1c0-0.1-0.1-0.1-0.2-0.2c0,1.2,0,2.4,0,3.5c0,0,0,0,0,0c0,0,0,0,0,0
		c-0.2,0.1-0.3,0.1-0.4,0.1c-0.1,0-0.2-0.1-0.2-0.4c0-1,0-1.9,0-2.9c0-0.1,0-0.2-0.1-0.3c-0.1-0.1-0.2,0.1-0.3,0.1
		c-0.1,0.2-0.2,0.4-0.5,0.5c0,1,0,1.9,0,2.9c-0.5,0.3-0.7,0.2-0.7-0.4c0-0.4,0-0.8,0-1.2c0-0.2-0.1-0.3-0.2-0.2
		c-0.5,0.7-1.3,1.1-1.7,1.9c-0.1,0-0.2,0-0.3,0c0,0.3-0.3,0.4-0.4,0.5c0,0-0.1,0-0.1,0.1c-0.2,0.2-0.2,0.3-0.1,0.5
		c3.3,0,6.6,0,9.9,0c0.3,0,0.4-0.2,0.4-0.4c0-2.1,0-4.2,0-6.3c0-0.4-0.1-0.4-0.5-0.4c-1.7,0-3.4,0-5.1,0
		C117,83.7,114.2,83.7,111.5,83.8C111.5,83.7,111.5,83.7,111.5,83.8z"/>
	<path class="st61" d="M120,89.6c-0.2,0.1-0.3,0.1-0.4,0.1C119.7,89.7,119.8,89.7,120,89.6C120,89.6,120,89.6,120,89.6z"/>
	<path class="st59" d="M146.2,89.9c-3.1-0.4-6.3-0.8-9.4-1.3c-2.5-0.3-5-0.7-7.4-1c-0.2,0-0.3-0.1-0.4,0.1c-0.3,0.3-0.5,0.7-0.8,1
		c0.1,0,0.2,0.1,0.3,0.1c4.9,1,9.9,2,14.8,3.1c1.6,0.3,3.1,0.4,4.7-0.2c1.2-0.4,2.4-0.7,3.7-1.1c-0.2-0.1-0.3-0.1-0.4-0.1
		C149.5,90.3,147.9,90.1,146.2,89.9z"/>
	<path class="st59" d="M70.2,89.1c0.5-0.1,1.1-0.2,1.7-0.4c-0.2-0.3-0.5-0.6-0.7-0.8c-0.2-0.2-0.3-0.3-0.7-0.3
		c-3.2,0.4-6.3,0.9-9.5,1.3c-3.3,0.4-6.7,0.9-10,1.3c-0.9,0.1-1.8,0.2-2.6,0.4c0,0,0,0.1,0,0.1c1.3,0.4,2.6,0.7,3.9,1.2
		c1.3,0.5,2.6,0.4,4,0.1C60.9,91.1,65.6,90.1,70.2,89.1z"/>
	<path class="st59" d="M69.8,92.3c1.4-0.4,2.7-0.8,4.1-1.3c-0.5-0.5-0.9-1-1.3-1.4c-0.1-0.2-0.3-0.1-0.5-0.1
		c-5.4,1.1-10.9,2.2-16.3,3.3c0.2,0.2,0.4,0.2,0.6,0.2c1.3,0.4,2.6,0.7,4,1.2c1.1,0.4,2.1,0.3,3.1,0C65.6,93.6,67.7,92.9,69.8,92.3z
		"/>
	<path class="st59" d="M127.8,89.5c-0.2,0-0.3,0-0.4,0.1c-0.4,0.5-0.8,0.9-1.3,1.4c3.7,1.1,7.3,2.2,10.9,3.3c0.8,0.2,1.6,0.2,2.4,0
		c1.5-0.5,2.9-0.9,4.4-1.3c0.1,0,0.3,0,0.3-0.2c-1.2-0.3-2.5-0.5-3.7-0.8C136.2,91.2,132,90.4,127.8,89.5z"/>
	<path class="st62" d="M76.7,99.6c1.4-1,2.8-2,4.2-3c-1-0.6-2-1.3-2.9-2c-0.3-0.3-0.6-0.2-0.9-0.1c-2,0.9-3.9,1.8-5.9,2.8
		c-0.3,0.1-0.7,0.1-0.8,0.3c-0.1,0.2,0.3,0.5,0.4,0.8c0.4,1.2,1.3,1.9,2.4,2.4c0.8,0.4,1.6,0.3,2.3-0.2
		C75.8,100.2,76.2,99.9,76.7,99.6z"/>
	<path class="st62" d="M129.5,97.4c-0.5-0.1-0.9-0.3-1.3-0.5c-1.8-0.9-3.6-1.7-5.4-2.6c-0.2-0.1-0.3-0.2-0.5,0c-1,0.8-2,1.5-3.1,2.2
		c1.9,1.3,3.7,2.6,5.5,3.9c0.5,0.3,1.1,0.6,1.7,0.4c1.3-0.4,2.4-1,2.9-2.5c0.1-0.2,0.2-0.5,0.4-0.7
		C129.7,97.5,129.7,97.5,129.5,97.4z"/>
	<path class="st59" d="M76.6,93.9c0.3-0.1,0.2-0.2,0-0.4c-0.6-0.5-1.3-1.1-1.9-1.7c-0.2-0.2-0.4-0.3-0.7-0.2c-2.1,0.7-4.2,1.3-6.3,2
		c-1.5,0.5-3,0.9-4.6,1.4c1.8,0.5,3.5,1,5.3,1.6c0.9,0.3,1.8,0.2,2.6-0.2C73,95.6,74.8,94.7,76.6,93.9z"/>
	<path class="st59" d="M125.3,91.7c-0.6,0.6-1.3,1.2-2,1.8c-0.2,0.2-0.2,0.2,0.1,0.3c1.9,0.9,3.7,1.8,5.6,2.6c0.6,0.3,1.3,0.5,2,0.3
		c1.9-0.5,3.8-1.1,5.8-1.7c-3.8-1.2-7.4-2.3-11.1-3.4C125.5,91.6,125.4,91.6,125.3,91.7z"/>
	<path class="st62" d="M94.4,100.7c0.2,0,0.4,0,0.5-0.3c0.8-2.9,1.6-5.7,2.4-8.6c0.1-0.3,0-0.3-0.2-0.3c-1.4-0.1-1.4-0.1-2.1,1.1
		c0,0,0,0.1,0,0.1c-1.4,2.4-2.8,4.8-4.2,7.2C91.9,100.3,93.2,100.5,94.4,100.7z"/>
	<path class="st62" d="M103,91.5C103,91.6,103,91.6,103,91.5c-0.3,0-0.4,0-0.3,0.3c0.8,2.9,1.6,5.7,2.4,8.6c0.1,0.2,0.1,0.3,0.4,0.3
		c1.3-0.2,2.6-0.4,3.9-0.8c-0.1-0.2-0.2-0.3-0.2-0.4c-1.3-2.3-2.7-4.5-4-6.8C104.6,91.7,104,91.4,103,91.5z"/>
	<path class="st62" d="M99.5,91.6c-0.5,0-0.9,0-1.4,0c-0.1,0-0.1,0.1-0.1,0.2c-0.8,2.9-1.6,5.8-2.4,8.7c-0.1,0.2,0,0.3,0.2,0.3
		c1.1,0.1,2.2,0.2,3.4,0.2c0.4,0,0.4-0.1,0.4-0.5c0-1.4,0-2.8,0-4.3c0-1.5,0-2.9,0-4.4C99.6,91.8,99.7,91.6,99.5,91.6z"/>
	<path class="st62" d="M99.6,100.6c0-1.4,0-2.8,0-4.3c0-1.5,0-2.9,0-4.4c0,1.5,0,2.9,0,4.4C99.6,97.8,99.6,99.2,99.6,100.6z"/>
	<path class="st62" d="M104,100.9c0.4,0,0.4-0.1,0.3-0.5c-0.7-2.6-1.5-5.2-2.2-7.8c-0.3-1-0.3-1-1.4-1c-0.4,0-0.5,0.1-0.5,0.5
		c0,2.7,0,5.4,0,8c0,1.1,0,1.1,1.5,1C102.3,101,103.2,100.9,104,100.9z"/>
	<path class="st59" d="M84.8,98.7c-1.1-0.5-2.1-1-3-1.6c-0.2-0.1-0.3,0-0.4,0.1c-0.8,0.6-1.7,1.2-2.5,1.8c-1.2,0.8-2.3,1.6-3.5,2.5
		c1.3,0.4,2.7,0.7,4,1.1c0.9,0.3,1.6,0,2.3-0.6C82.7,100.9,83.7,99.8,84.8,98.7z"/>
	<path class="st59" d="M118.7,97.2c-0.1-0.1-0.2-0.3-0.5-0.1c-1,0.6-2,1.1-3.1,1.6c1.1,1.2,2.2,2.3,3.4,3.4c0.6,0.5,1.2,0.7,2,0.4
		c1.4-0.4,2.7-0.8,4.1-1.1c-0.3-0.2-0.6-0.4-0.9-0.6C122.1,99.6,120.4,98.4,118.7,97.2z"/>
	<path class="st59" d="M92.9,91.5c-0.2,0-0.4,0.1-0.6,0.2c-1.6,1.7-3.2,3.3-4.8,5c-0.5,0.5-1,1.1-1.5,1.6c1.2,0.5,2.3,0.9,3.4,1.2
		c0.4,0.1,0.5,0.1,0.7-0.3c0.9-1.5,1.8-3,2.6-4.5c0.6-1.1,1.3-2.2,2-3.3C94.1,91.5,93.5,91.6,92.9,91.5z"/>
	<path class="st59" d="M110.3,99.7c1.2-0.4,2.4-0.8,3.6-1.3c0-0.1,0-0.1,0-0.1c-2.1-2.2-4.2-4.4-6.3-6.5c-0.1-0.1-0.2-0.2-0.3-0.2
		c-0.6,0-1.3,0-2,0c0.2,0.3,0.3,0.6,0.5,0.8c1.4,2.3,2.8,4.7,4.2,7C110,99.5,110,99.8,110.3,99.7z"/>
	<path class="st59" d="M89.3,100.6c0.1-0.2,0.1-0.3-0.1-0.4c-1.2-0.3-2.3-0.7-3.4-1.2c-0.2-0.1-0.4-0.1-0.5,0.1
		c-1.3,1.3-2.4,2.7-3.8,3.9c1.5,0.4,3,0.8,4.5,1.2c0.7,0.2,1.1,0,1.5-0.5c0.1-0.1,0.2-0.3,0.3-0.5C88.3,102.5,88.8,101.5,89.3,100.6
		z"/>
	<path class="st59" d="M117.4,102c-0.9-0.9-1.8-1.8-2.7-2.8c-0.2-0.2-0.3-0.2-0.5-0.1c-1.1,0.5-2.2,0.9-3.4,1.2
		c-0.3,0.1-0.3,0.2-0.1,0.4c0.6,0.9,1.1,1.9,1.7,2.8c0.2,0.3,0.4,0.6,0.7,0.8c0.2,0.2,0.4,0.2,0.7,0.2c1.6-0.4,3.2-0.9,4.9-1.3
		C118.1,102.7,117.7,102.4,117.4,102z"/>
	<path class="st62" d="M111.1,102.8c-0.4-0.6-0.8-1.3-1.2-2c-0.1-0.2-0.2-0.3-0.5-0.2c-1.3,0.3-2.6,0.6-4,0.8
		c0.3,1.1,0.6,2.1,0.9,3.1c0.1,0.3,0.2,0.7,0.5,0.9c0.3,0.4,0.7,0.6,1.2,0.4c1.5-0.4,3-0.8,4.6-1.2
		C111.8,104.2,111.5,103.5,111.1,102.8z"/>
	<path class="st59" d="M90.5,100.6c-0.2-0.1-0.3,0-0.4,0.2c-0.8,1.3-1.4,2.7-2.5,3.9c1.4,0.4,2.7,0.7,4.1,1.1c1,0.3,1.7,0,2-1.1
		c0.3-1.1,0.6-2.2,0.9-3.3C93.2,101.2,91.8,101,90.5,100.6z"/>
	<path class="st59" d="M89.5,91.5c-0.3,0-0.5,0.1-0.7,0.2c-2.1,1.5-4.2,3-6.2,4.5c-0.1,0.1-0.3,0.1-0.3,0.3c0.9,0.5,1.9,1,2.8,1.5
		c0.2,0.1,0.3,0,0.4-0.1c1.3-1.3,2.5-2.6,3.8-3.9c0.7-0.8,1.5-1.5,2.3-2.4C90.8,91.5,90.2,91.6,89.5,91.5z"/>
	<path class="st59" d="M114.8,98c1-0.5,2-0.9,2.9-1.5c0-0.1,0-0.1-0.1-0.1c-2.2-1.6-4.4-3.2-6.6-4.7c-0.1-0.1-0.2-0.1-0.3-0.1
		c-0.7,0-1.5,0-2.2,0c0,0.1,0,0.1,0,0.1c2,2.1,4,4.2,6,6.3C114.6,98,114.6,98.1,114.8,98z"/>
	<path class="st59" d="M118.6,96c1-0.6,2-1.3,3-2.1c-1.7-0.8-3.3-1.6-4.9-2.3c-0.1-0.1-0.3,0-0.4,0c-1.3,0-2.5,0-3.8,0
		c-0.1,0-0.2-0.1-0.3,0.1c2,1.4,4,2.9,6,4.3C118.4,96.1,118.5,96.1,118.6,96z"/>
	<path class="st59" d="M86.4,91.5c-2.1-0.2-4.1,0.2-5.9,1.3c-0.2,0.1-0.4,0.2-0.6,0.3c-0.5,0.2-1.1,0.5-1.6,0.8c1,0.8,2,1.4,2.9,2
		c0.2,0.2,0.4,0.1,0.6,0c1.9-1.4,3.8-2.7,5.7-4c0.1-0.1,0.2-0.1,0.3-0.3C87.3,91.5,86.8,91.6,86.4,91.5z"/>
	<path class="st58" d="M104.7,101.8c0-0.1,0-0.3-0.3-0.3c-1,0.1-2,0.2-3.1,0.3c1.3,1.2,2.6,2.4,3.8,3.6c0.3,0.2,0.5,0.5,1,0.5
		c-0.5-0.6-0.6-1.3-0.8-2C105.1,103.2,104.9,102.5,104.7,101.8z"/>
	<path class="st58" d="M95.2,101.8c-0.4,1.4-0.6,2.8-1.3,4.1c1.7-1.1,3.1-2.7,4.7-4.1c-1.1-0.1-2.1-0.2-3.1-0.3
		C95.3,101.5,95.3,101.7,95.2,101.8z"/>
	<path class="st59" d="M122.4,93.3c0.7-0.5,1.3-1.1,2-1.7c-2,0-3.9,0-5.8,0c0,0,0,0,0,0.1c1.2,0.6,2.4,1.1,3.6,1.7
		C122.3,93.4,122.3,93.4,122.4,93.3z"/>
	<path class="st59" d="M75.5,91.6c0.7,0.6,1.4,1.2,2,1.7c0.2,0.2,0.3,0,0.5,0c0.9-0.4,1.8-0.8,2.6-1.2c0.3-0.1,0.5-0.3,0.8-0.4
		c0,0,0,0,0-0.1C79.5,91.6,77.6,91.6,75.5,91.6z"/>
	<path class="st63" d="M130.2,84.8c0.2-0.3,0.5-0.7,0.7-1.1c-1.6,0-3.2,0-4.7,0c-0.4,0-0.3,0.2-0.3,0.4c0,0.2-0.2,0.6,0.3,0.6
		c1.2,0.1,2.4,0.2,3.6,0.2C130,85,130.1,85,130.2,84.8z"/>
	<path class="st63" d="M74,84c0-0.2-0.1-0.3-0.3-0.3c-1.5,0-3,0-4.7,0c0.3,0.4,0.5,0.7,0.6,1c0.1,0.2,0.3,0.3,0.5,0.2
		c1.1-0.1,2.1-0.2,3.2-0.2C74,84.7,74,84.7,74,84z"/>
	<path class="st63" d="M128.9,86.7c0.2-0.3,0.5-0.6,0.7-1c-0.6,0-1.1-0.1-1.6-0.1c-0.5,0-1,0-1.5-0.1c-0.4-0.1-0.5,0.1-0.5,0.5
		c0,0.4,0.1,0.5,0.5,0.6c0.7,0.1,1.4,0.2,2.1,0.3C128.7,86.8,128.8,86.8,128.9,86.7z"/>
	<path class="st58" d="M74,85.6c0-0.2-0.1-0.2-0.2-0.2c-1.1,0.1-2.2,0.2-3.4,0.2c0.3,0.4,0.5,0.6,0.7,0.9c0.1,0.2,0.3,0.2,0.5,0.2
		c0.6-0.1,1.2-0.2,1.8-0.2C74,86.5,74.1,86.4,74,85.6z"/>
	<path class="st64" d="M85.3,90.7c-0.8,0-1.5,0-2.3,0c-0.4,0-0.8,0-1.1,0c-1.6,0-3.3,0-4.9,0c-0.6,0-1.2,0-1.8,0
		c-0.2,0-0.3-0.1-0.3-0.3c0-2.1,0-4.2,0-6.3c0-0.3,0.1-0.4,0.4-0.4c1.2,0,2.5,0,3.7,0c1.5,0,3.1,0,4.6,0c1.5,0,3,0,4.5,0
		c0,0,0,0,0-0.1c-2.1,0-4.3,0-6.4,0c-2.1,0-4.3,0-6.4,0c-0.3,0-0.4,0.1-0.4,0.4c0,2.1,0,4.2,0,6.4c0,0.3,0.1,0.4,0.4,0.4
		C78.5,90.8,81.9,90.8,85.3,90.7C85.3,90.8,85.3,90.8,85.3,90.7z"/>
	<path class="st64" d="M88,83.7c-2.1,0-4.3,0-6.4,0C83.7,83.7,85.9,83.7,88,83.7C88,83.7,88,83.7,88,83.7z"/>
	<path class="st64" d="M75.1,90.8c3.4,0,6.8,0,10.2,0c0,0,0,0,0,0C81.9,90.8,78.5,90.8,75.1,90.8z"/>
	<path class="st64" d="M85.3,90.8C85.3,90.8,85.3,90.8,85.3,90.8L85.3,90.8C85.3,90.8,85.3,90.8,85.3,90.8L85.3,90.8z"/>
	<path class="st63" d="M127.8,88c0.1-0.1,0.2-0.3,0.4-0.5c-0.6-0.1-1.1-0.1-1.6-0.2c-0.7-0.1-0.7-0.1-0.7,0.6c0,0.4,0.1,0.5,0.5,0.6
		C127.1,88.7,127.5,88.6,127.8,88z"/>
	<path class="st60" d="M88,83.7C88,83.7,88,83.7,88,83.7c0.2,0.1,0.4,0.1,0.6,0.1c0,0,0,0,0,0c2.8,0,5.7,0,8.5,0c1,0,1.9,0,2.9,0
		c1.7,0,3.5,0,5.2,0c2.1,0,4.2,0,6.3,0c0,0,0,0,0,0c0,0,0,0,0-0.1l0,0c0,0,0,0,0,0c-0.1,0-0.2,0-0.3,0c-7.6,0-15.2,0-22.8,0
		C88.3,83.7,88.1,83.7,88,83.7L88,83.7z"/>
	<path class="st60" d="M88,83.7c0.1,0,0.2,0,0.4,0C88.3,83.7,88.1,83.7,88,83.7C88,83.7,88,83.7,88,83.7L88,83.7z"/>
	<path class="st60" d="M111.5,83.7C111.5,83.7,111.5,83.7,111.5,83.7C111.5,83.7,111.5,83.7,111.5,83.7L111.5,83.7z"/>
	<path class="st58" d="M73.9,87.2c0,0-0.1,0-0.1,0c-0.6,0.1-1.3,0.2-2,0.3c0.7,1.1,0.8,1.2,1.9,0.9c0,0,0.1,0,0.1,0
		c0.2,0,0.2-0.2,0.2-0.3C74,87.8,74.1,87.5,73.9,87.2z"/>
	<path class="st63" d="M126,89.2c-0.1,0.2,0,0.5,0,0.8c0.3-0.3,0.5-0.5,0.7-0.8C126.4,89.2,126.1,89,126,89.2z"/>
	<path class="st63" d="M73.3,89.3c0.2,0.2,0.4,0.5,0.7,0.7C74.1,89.1,74.1,89,73.3,89.3z"/>
	<path class="st65" d="M111.5,83.8c-2.1,0-4.2,0-6.3,0c0,0,0,0,0,0.1c0,0,0,0,0,0.1c0,0,0,0.1,0,0.1c0,0-0.1,0.1-0.1,0.1
		c-0.1,0.1-0.2,0.1-0.3,0.2c-0.2,0.2-0.4,0.3-0.4,0.6c0.3,0,0.2,0.3,0.2,0.5c0.2,1.3,0.3,2.6,0.5,3.9c0,0.2,0.1,0.4-0.2,0.4
		c-0.2,0-0.5,0.1-0.5-0.3c-0.1-0.9-0.2-1.8-0.3-2.7c0-0.1,0-0.1,0-0.3c-0.6,1-1.1,1.9-1.5,2.9c-0.1,0.1-0.1,0.4-0.2,0.4
		c-0.2,0-0.2-0.2-0.3-0.3c-0.3-0.5-0.5-1-0.8-1.6c-0.4-0.1-0.5,0.3-0.9,0.4l0,0l0,0c0,0.1,0,0.1,0,0.2c0,0,0,0.1,0,0.1
		c0,0,0,0.1-0.1,0.1c0,0,0,0.1,0,0.1c0,0.2-0.1,0.4-0.1,0.5c0,0.1,0,0.1,0,0.2c0,0.1,0,0.1,0,0.2c0,0,0,0.1,0,0.1s0,0.1-0.1,0.1
		c-0.3,0-0.6,0.2-0.6-0.3c-0.1-0.1-0.1-0.1-0.2-0.1c-0.5,0.4-0.8,1-1.3,1.3c0,0,0,0.1,0,0.2c2.6,0,5.2,0,7.8,0
		c0.2,0,0.4,0.1,0.5-0.2c0.2-0.3,0.5-0.5,0.8-0.8c0.5-0.5,0.9-1,1.3-1.5c0-0.3-0.2-0.5-0.5-0.5c-1.3,0-1.3,0-1.8,1.4
		c-0.1,0.2-0.1,0.5-0.5,0.5c-0.2,0-0.3-0.1-0.2-0.3c0.3-0.5,0.5-1,0.7-1.6c0.4-0.9,0.8-1.8,1.2-2.7c0.1-0.1,0.1-0.3,0.3-0.3
		c0.2,0,0.2,0.2,0.2,0.3c0.4,0.8,0.7,1.7,1.1,2.5l0,0v0c0.1-0.1,0.2-0.2,0.3-0.3c0.1-0.1,0.2-0.2,0.3-0.3c0.2-0.2,0.4-0.4,0.7-0.4
		c0-0.4,0-0.9,0-1.3c0-0.2,0.1-0.3,0.3-0.3c0.3,0,0.7,0,1,0c0.3,0,0.7,0,1,0.1c0.1-0.1,0.2-0.3,0.3-0.4c0.1-0.1,0.1-0.1,0.2-0.2
		c0.1-0.1,0.1-0.1,0.2-0.2c0.1-0.1,0.1-0.1,0.2-0.2c0.1-0.1,0.1-0.2,0.1-0.3h0v0C112.9,83.8,112.2,83.8,111.5,83.8z"/>
	<path class="st65" d="M113.3,84.2c-0.1,0.1-0.1,0.1-0.2,0.2C113.1,84.3,113.2,84.3,113.3,84.2z"/>
	<path class="st65" d="M98,90.7c2.6,0,5.2,0,7.8,0C103.2,90.7,100.6,90.7,98,90.7L98,90.7z"/>
	<path class="st65" d="M109.5,87c-0.1,0.1-0.2,0.2-0.3,0.3C109.3,87.2,109.4,87.1,109.5,87z"/>
	<path class="st65" d="M113.4,84c0.1-0.1,0.1-0.2,0.1-0.3h0C113.5,83.9,113.5,84,113.4,84z"/>
	<path class="st65" d="M109,87.6c0.1-0.1,0.2-0.2,0.3-0.3C109.2,87.4,109.1,87.5,109,87.6L109,87.6z"/>
	<path class="st66" d="M90.2,90.2c0.1-0.1,0.2-0.2,0.3-0.3c0,0,0-0.1,0-0.2c0,0,0-0.1,0-0.1c-0.1,0-0.3,0-0.4,0.1
		c-0.3,0-0.5,0-0.8,0c-0.1,0-0.3,0-0.4,0c-1-0.1-1.9-1.2-1.9-1.9c-0.1-1.1,0.2-1.9,0.9-2.4c0.3-0.2,0.7-0.4,1.2-0.5
		c0.1,0,0.2,0,0.3-0.1c0.3,0,0.6,0,0.8,0.1c1.8,0.5,2.3,1.5,1.9,3.4c0.2-0.1,0.3-0.2,0.5-0.3c0.1-0.1,0.1-0.1,0.2-0.1
		c0.1,0,0.1,0.1,0.1,0.2c0,0.4,0,0.9,0,1.3c0,0.3,0.1,0.5,0.3,0.4c0.1,0,0.2-0.1,0.3-0.1c0,0-0.1,0-0.1,0c-0.3,0.1-0.4,0-0.4-0.4
		c0-1.3,0-2.6,0-3.9c0-0.1-0.1-0.3,0.1-0.4c0.2,0,0.3,0.1,0.4,0.2c0.4,0.5,0.8,0.9,1.3,1.3c0.7-0.4,1-1.3,1.8-1.6l0,0l0,0
		c0,0,0-0.1,0-0.1c0,0,0,0,0,0c0-0.1,0-0.1,0.1-0.2c0.1-0.1,0.2-0.2,0.3-0.3c0.1-0.2,0.4-0.3,0.3-0.6c-2.8,0-5.7,0-8.5,0
		c-0.2,0.3-0.4,0.5-0.6,0.8c-0.2,0.2-0.5,0.4-0.8,0.6c0,0.1,0,0.2-0.1,0.2s-0.1,0.1-0.2,0.1c-0.2,0.4-0.6,0.7-0.9,1
		c-0.2,0.2-0.2,0.3-0.2,0.6c0,0.8,0,1.5,0,2.3c0,0.2,0.1,0.3-0.1,0.5c-0.6,0-0.6,0-0.6-0.6c0-0.5,0-1,0-1.5c-0.1,0-0.2,0.1-0.3,0.2
		c-0.9,0.9-1.8,1.8-2.7,2.7c-0.1,0.1-0.1,0.2-0.1,0.3c0.4,0,0.8,0,1.1,0c0.8,0,1.5,0,2.3,0c1.5,0,3,0,4.5,0
		C89.8,90.5,90,90.4,90.2,90.2z"/>
	<path class="st66" d="M81.9,90.7c0.4,0,0.8,0,1.1,0C82.6,90.7,82.3,90.7,81.9,90.7C81.9,90.7,81.9,90.7,81.9,90.7z"/>
	<path class="st66" d="M97.1,83.8c-2.8,0-5.7,0-8.5,0c0,0,0,0,0,0l0,0C91.4,83.8,94.3,83.8,97.1,83.8z"/>
	<path class="st67" d="M98,90.7c0-0.1,0-0.2,0-0.2c0.5-0.3,0.9-0.9,1.3-1.3c0.1-0.1,0.2,0,0.2,0.1c0.3-1.3,0.4-2.7,0.6-4
		c0-0.1-0.1-0.3,0.2-0.3c0.2,0,0.2,0.2,0.3,0.3c0.5,0.9,1,1.8,1.5,2.8c0.1,0.1,0.1,0.3,0.3,0.4c0.6-1.2,1.3-2.3,1.9-3.4
		c0-0.3,0.2-0.5,0.4-0.6c0.1-0.1,0.2-0.1,0.3-0.2c0,0,0.1-0.1,0.1-0.1c0,0,0,0,0-0.1c0,0,0,0,0-0.1c0,0,0,0,0-0.1h0v0
		c-1.7,0-3.5,0-5.2,0c-0.1,0.4-0.5,0.5-0.7,0.8c-0.7,0.7-1.4,1.4-2.1,2c0,0-0.1,0-0.2,0.1c0,0.8,0,1.6,0,2.4c0,0.1,0,0.2,0,0.3
		c0,0,0,0.1-0.1,0.1c0,0,0,0,0,0c0,0,0,0.1,0,0.1c0,0,0,0,0,0v0c-0.1,0.1-0.1,0.1-0.2,0.1c0,0,0,0-0.1-0.1c-0.3-0.3-0.6-0.6-0.9-1
		c-0.2,0-0.3,0.1-0.4,0.3c-0.4,0.4-0.9,0.9-1.3,1.3c-0.1,0.1-0.1,0.1-0.2,0.2c0,0.1-0.1,0.1-0.1,0.2c0,0,0,0,0,0.1
		c0.7,0,1.4,0,2.1,0C96.6,90.7,97.3,90.7,98,90.7L98,90.7z"/>
	<path class="st67" d="M98,90.7c-0.7,0-1.4,0-2.1,0C96.6,90.7,97.3,90.7,98,90.7L98,90.7L98,90.7z"/>
	<path class="st67" d="M105.2,83.9C105.2,83.9,105.1,84,105.2,83.9C105.1,84,105.2,83.9,105.2,83.9z"/>
	<path class="st67" d="M105.2,83.8C105.2,83.8,105.2,83.8,105.2,83.8L105.2,83.8C105.2,83.8,105.2,83.8,105.2,83.8z"/>
	<path class="st64" d="M93.8,90.7c0-0.1,0-0.1,0.1-0.2c0-0.1,0.1-0.1,0.2-0.2c0.4-0.4,0.9-0.9,1.3-1.3c0.1-0.1,0.2-0.3,0.4-0.3
		C95,87.8,94.2,87,93.4,86c0,1.3,0,2.4,0,3.6c0,0,0,0,0,0c0,0,0,0,0,0c-0.1,0.1-0.2,0.1-0.3,0.1c-0.2,0.1-0.3-0.1-0.3-0.4
		c0-0.4,0-0.9,0-1.3c0-0.1,0-0.2-0.1-0.2c-0.1,0-0.2,0-0.2,0.1c-0.1,0.1-0.3,0.3-0.5,0.3c-0.3,0.7-0.8,1.1-1.5,1.4c0,0,0,0.1,0,0.1
		c0,0.1,0,0.1,0,0.2c-0.1,0.1-0.2,0.2-0.3,0.3c-0.2,0.2-0.4,0.3-0.4,0.5C91.1,90.7,92.4,90.7,93.8,90.7
		C93.8,90.7,93.8,90.7,93.8,90.7z"/>
	<path class="st64" d="M93.4,89.6C93.4,89.6,93.4,89.6,93.4,89.6c-0.1,0.1-0.2,0.1-0.3,0.1C93.2,89.7,93.3,89.7,93.4,89.6z"/>
	<path class="st64" d="M93.8,90.7c0-0.1,0-0.1,0.1-0.2C93.8,90.5,93.8,90.6,93.8,90.7z"/>
	<path class="st63" d="M111.5,84.9c-0.3,0-0.7,0-1,0c-0.3,0-0.3,0.1-0.3,0.3c0,0.4,0,0.9,0,1.3c0,0.9,0,1.8,0,2.7
		c0,0.3,0.1,0.4,0.4,0.4c0.3,0,0.4-0.1,0.4-0.4c0-0.5,0-1,0-1.4c0-0.1-0.1-0.3,0.1-0.4c0.1,0,0.2,0.1,0.3,0.2c0.4,0.5,0.9,1,1.3,1.6
		c0.3,0.5,0.7,0.4,1.2,0.3c-0.6-0.8-1.2-1.5-1.8-2.2c0.7-0.2,1.3-0.5,1.3-1.3c0-0.4-0.2-0.7-0.4-0.9c-0.1-0.1-0.2-0.1-0.3-0.2
		C112.2,85,111.9,84.9,111.5,84.9z M111.9,87c-0.8,0.3-1,0.2-1-0.9c0,0,0,0,0,0c0.1-0.2-0.3-0.7,0.3-0.8c0.8-0.1,1.2,0.1,1.4,0.6
		C112.7,86.3,112.4,86.8,111.9,87z"/>
	<path class="st63" d="M112.8,85.2c-0.1-0.1-0.2-0.1-0.3-0.2h0l0,0C112.6,85.1,112.7,85.1,112.8,85.2z"/>
	<path class="st63" d="M112.5,85L112.5,85c-0.3,0-0.7-0.1-1-0.1C111.9,84.9,112.2,85,112.5,85z"/>
	<path class="st58" d="M120,89.6c0-1.1,0-2.3,0-3.5c0.1,0.1,0.2,0.2,0.2,0.2c0.9,1,1.9,2.1,2.8,3.1c0.1,0.1,0.2,0.3,0.4,0.2
		c0.2-0.1,0.1-0.3,0.1-0.4c0-1.3,0-2.6,0-3.9c0-0.2,0.1-0.4-0.2-0.4c-0.3,0-0.2,0.2-0.2,0.4c0,0.7,0,1.4,0,2c0,0.3,0.1,0.6-0.1,1
		c-1-1.1-1.9-2.1-2.8-3.1c0,0-0.1,0-0.1-0.1c-0.1-0.1-0.2-0.3-0.5-0.2c-0.2,0.1-0.1,0.3-0.1,0.4c0,1.3,0,2.5,0,3.8
		c0,0.2,0,0.3,0.1,0.4C119.6,89.7,119.8,89.7,120,89.6z"/>
	<path class="st63" d="M107.9,85.1c0-0.1-0.1-0.3-0.2-0.3c-0.2,0-0.2,0.2-0.3,0.3c-0.4,0.9-0.8,1.8-1.2,2.7c-0.2,0.5-0.5,1-0.7,1.6
		c-0.1,0.2,0,0.3,0.2,0.3c0.4,0,0.4-0.2,0.5-0.5c0.5-1.4,0.5-1.4,1.8-1.4c0.4,0,0.5,0.1,0.5,0.5c0.1,0.3,0.2,0.5,0.3,0.8
		c0.3,0.7,0.3,0.7,1,0.6c-0.3-0.7-0.5-1.3-0.8-2C108.6,86.8,108.2,86,107.9,85.1z M107.1,87.5c-0.2,0-0.2-0.1-0.1-0.2
		c0.2-0.4,0.4-0.8,0.6-1.3c0.2,0.6,0.4,1,0.7,1.6C107.8,87.5,107.4,87.5,107.1,87.5z"/>
	<path class="st62" d="M115.8,86.5c0-1.1,0-1.1,1.1-1.1c0.1,0,0.3,0.1,0.3-0.2c0-0.2,0-0.3-0.3-0.3c-1,0-2.1,0-3.1,0
		c-0.2,0-0.3,0.1-0.3,0.3c0,0.2,0.1,0.2,0.3,0.2c0.3,0,0.6,0,0.8-0.1c0.3,0,0.4,0.1,0.4,0.4c0,1.2,0,2.4,0,3.6
		c0,0.3,0.1,0.4,0.4,0.4c0.1,0,0.2,0,0.3,0C115.9,88.6,115.8,87.6,115.8,86.5z"/>
	<path class="st63" d="M118.5,85.3c0-0.3-0.1-0.4-0.4-0.4c-0.3,0-0.3,0.2-0.3,0.4c0,1.3,0,2.5,0,3.8c0,0.6,0,0.6,0.7,0.5
		c0-1,0-1.9,0-2.9C118.5,86.3,118.5,85.8,118.5,85.3z"/>
	<path class="st68" d="M76.9,90.7c0-0.1,0-0.2,0.1-0.3c0,0,0-0.1,0.1-0.1c0.7-0.5,1.2-1.2,1.8-1.9c-0.1-0.5-0.3-0.7-0.9-0.7
		c-1,0-1,0-1.4,1c-0.1,0.2-0.2,0.4-0.2,0.6c-0.1,0.4-0.4,0.3-0.6,0.2c-0.2-0.1,0-0.3,0-0.4c0.6-1.4,1.2-2.7,1.8-4.1
		c0.1-0.1,0.1-0.4,0.3-0.4c0.2,0,0.2,0.2,0.3,0.4c0.4,0.9,0.8,1.7,1.2,2.6c0.2-0.1,0.5-0.3,0.7-0.5c0.2-0.1,0.3-0.3,0.4-0.5
		c0-0.1,0.1-0.1,0.1-0.2c-0.1-0.5,0-0.8,0.1-1.1c0.1-0.2,0.3-0.4,0.5-0.5c0.3-0.2,0.7-0.2,1.2-0.1c0.1,0,0.2,0,0.3,0
		c0.2-0.4,0.7-0.6,0.9-1.1l0,0c-1.5,0-3.1,0-4.6,0c-1.2,0-2.5,0-3.7,0c-0.3,0-0.4,0-0.4,0.4c0,2.1,0,4.2,0,6.3
		c0,0.2,0.1,0.3,0.3,0.3C75.7,90.7,76.3,90.7,76.9,90.7z"/>
	<path class="st68" d="M83.5,83.8C83.5,83.8,83.5,83.8,83.5,83.8c-1.5,0-3.1,0-4.6,0C80.5,83.8,82,83.8,83.5,83.8L83.5,83.8z"/>
	<path class="st69" d="M81.9,90.7c0-0.1,0.1-0.2,0.1-0.3c0.9-0.9,1.8-1.8,2.7-2.7c0.1-0.1,0.2-0.2,0.3-0.2c0-0.6,0-1.3,0-1.9
		c0-0.3-0.1-0.3-0.4-0.3c-0.3,0-0.6,0-0.9,0.1c-0.2,0-0.3,0-0.3-0.2c0-0.2,0-0.3,0.2-0.3c1,0,2.1,0,3.1,0c0.2,0,0.3,0,0.3,0.2v0
		c0.3-0.2,0.5-0.4,0.8-0.6c0.2-0.2,0.4-0.5,0.6-0.8c-0.2,0-0.4,0-0.6,0c-1.5,0-3,0-4.5,0c-0.1,0.5-0.6,0.7-0.9,1.1
		c0.1,0.1,0.3,0.1,0.4,0.3c0.1,0.2,0,0.5-0.1,0.6c-0.2,0.2-0.2-0.1-0.3-0.2c-0.3-0.3-0.6-0.3-0.9-0.3c-0.3,0.1-0.5,0.3-0.5,0.6
		c0,0.3,0.1,0.6,0.4,0.8c0.3,0.1,0.6,0.3,0.8,0.4c0.5,0.2,0.9,0.5,0.9,1.1c0,0.6-0.3,1.1-0.8,1.4c-0.5,0.3-1,0.3-1.6,0.1
		c-0.5-0.2-0.6-0.4-0.3-1c0.2,0.1,0.2,0.3,0.4,0.4c0.3,0.3,0.7,0.4,1.2,0.2c0.4-0.2,0.5-0.5,0.5-0.9c0-0.4-0.4-0.6-0.7-0.8
		c-0.5-0.2-1-0.4-1.3-0.9c0,0.1-0.1,0.1-0.1,0.2c-0.1,0.2-0.2,0.3-0.4,0.5c-0.2,0.2-0.4,0.3-0.7,0.5c0.2,0.6,0.5,1.1,0.7,1.7
		c-0.8,0.2-0.8,0.1-1-0.5c-0.1-0.2-0.1-0.3-0.2-0.5c-0.6,0.6-1.1,1.4-1.8,1.9c0,0-0.1,0-0.1,0.1c-0.1,0.1-0.1,0.2-0.1,0.3
		C78.6,90.7,80.2,90.7,81.9,90.7L81.9,90.7z"/>
	<path class="st69" d="M81.9,90.7c-1.6,0-3.3,0-4.9,0C78.6,90.7,80.2,90.7,81.9,90.7C81.9,90.7,81.9,90.7,81.9,90.7L81.9,90.7z"/>
	<path class="st69" d="M88,83.8c-1.5,0-3,0-4.5,0c0,0,0,0,0,0C85,83.8,86.5,83.8,88,83.8z"/>
	<path class="st69" d="M87.2,85.2L87.2,85.2c0.3-0.2,0.5-0.4,0.8-0.6C87.7,84.8,87.5,85,87.2,85.2L87.2,85.2z"/>
	<path class="st69" d="M88,84.6c0.2-0.2,0.4-0.5,0.6-0.8l0,0C88.4,84.1,88.2,84.3,88,84.6z"/>
	<path class="st69" d="M80.5,86.9c0-0.1,0.1-0.1,0.1-0.2l0,0C80.6,86.8,80.5,86.8,80.5,86.9z"/>
	<path class="st64" d="M96.8,84.3c-0.1,0.1-0.2,0.2-0.3,0.3c0,0,0,0.1-0.1,0.2c0,0,0,0,0,0c0,0,0,0.1,0,0.1l0,0
		c0.2,0,0.3-0.1,0.5,0.1c0,0,0,0,0,0c0,0,0,0,0,0c0,0,0,0,0,0c0,0,0,0,0,0.1c0,0,0,0,0,0.1c0.1,0.2,0.1,0.4,0.1,0.6
		c0,0.1,0,0.1,0,0.2c0,0.3,0,0.5,0,0.8c0.1,0,0.1,0,0.2-0.1c0.7-0.7,1.5-1.3,2.1-2c0.2-0.3,0.6-0.4,0.7-0.8c-1,0-1.9,0-2.9,0
		C97.1,84,96.9,84.2,96.8,84.3z"/>
	<path class="st64" d="M96.5,84.9L96.5,84.9C96.5,84.9,96.5,84.8,96.5,84.9C96.5,84.8,96.5,84.9,96.5,84.9z"/>
	<path class="st64" d="M96.5,84.8c0-0.1,0-0.1,0.1-0.2C96.5,84.7,96.5,84.7,96.5,84.8z"/>
	<path class="st58" d="M102.2,88c-0.5-0.9-1-1.8-1.5-2.8c-0.1-0.1-0.1-0.3-0.3-0.3c-0.2,0-0.1,0.2-0.2,0.3c-0.2,1.3-0.3,2.7-0.6,4
		c-0.1,0.6,0.3,0.4,0.6,0.3c0-0.1,0-0.2,0.1-0.3c0-0.1,0-0.1,0-0.2c0-0.2,0-0.4,0.1-0.5c0,0,0-0.1,0-0.1c0-0.1,0-0.2,0.1-0.3
		c0,0,0,0,0,0l0,0c0-0.5,0.1-1.1,0.2-1.7c0.3,0.5,0.5,0.9,0.7,1.3c0.3,0.5,0.5,1,0.8,1.6c0.1,0.1,0.1,0.4,0.3,0.3
		c0.2,0,0.2-0.2,0.2-0.4c0.5-1,1-1.9,1.5-2.9c0,0.1,0,0.2,0,0.3c0.1,0.9,0.2,1.8,0.3,2.7c0,0.4,0.3,0.3,0.5,0.3
		c0.3,0,0.2-0.2,0.2-0.4c-0.1-1.3-0.3-2.6-0.5-3.9c0-0.2,0.1-0.4-0.2-0.5c-0.6,1.1-1.3,2.3-1.9,3.4C102.3,88.3,102.2,88.1,102.2,88z
		"/>
	<path class="st58" d="M100.2,89.1c0-0.2,0-0.4,0.1-0.5C100.3,88.7,100.2,88.9,100.2,89.1z"/>
	<path class="st67" d="M100.3,88c0.3,0,0.5-0.4,0.9-0.4c-0.2-0.4-0.4-0.8-0.7-1.3C100.4,87,100.4,87.5,100.3,88z"/>
	<path class="st67" d="M100.3,88.4C100.3,88.4,100.3,88.4,100.3,88.4c0.1-0.1,0.1-0.1,0.1-0.2c0-0.1,0-0.1,0-0.2
		C100.3,88.2,100.3,88.3,100.3,88.4z"/>
	<path class="st67" d="M100.4,88.3C100.4,88.3,100.4,88.3,100.4,88.3C100.4,88.3,100.4,88.3,100.4,88.3z"/>
	<path class="st67" d="M100.2,89.6C100.2,89.6,100.2,89.6,100.2,89.6c0.1-0.1,0.1-0.1,0.1-0.2c0-0.1,0-0.1,0-0.2
		C100.2,89.4,100.2,89.5,100.2,89.6z"/>
	<path class="st67" d="M100.3,89.5C100.3,89.5,100.3,89.5,100.3,89.5C100.3,89.5,100.3,89.5,100.3,89.5z"/>
	<path class="st58" d="M90.1,84.9c-0.4,0-0.7,0-1.1,0c-0.5,0.1-0.9,0.3-1.2,0.5c-0.7,0.5-0.9,1.3-0.9,2.4c0.1,0.8,1,1.9,1.9,1.9
		c0.1,0,0.3,0,0.4,0c0.3,0,0.5,0,0.8,0c0.1,0,0.3,0,0.4-0.1l0,0h0c0.7-0.3,1.2-0.7,1.5-1.4C92.4,86.4,91.9,85.4,90.1,84.9z M91,88.6
		c0,0.1-0.1,0.1-0.1,0.2c-0.7,0.9-2.1,0.8-2.8-0.1c-0.5-0.8-0.5-2.2,0.1-2.9c0.5-0.6,1.3-0.8,2-0.6c0.1,0,0.2,0.1,0.3,0.1
		c0.2,0.1,0.3,0.2,0.4,0.3c0,0,0,0,0,0c0.3,0.4,0.5,0.9,0.5,1.5C91.4,87.8,91.3,88.2,91,88.6z"/>
	<path class="st58" d="M90.1,89.7c0.1,0,0.3,0,0.4-0.1l0,0C90.4,89.7,90.3,89.7,90.1,89.7z"/>
	<path class="st58" d="M89,84.9c-0.5,0.1-0.9,0.3-1.2,0.5C88.2,85.2,88.6,85,89,84.9L89,84.9z"/>
	<path class="st58" d="M90.1,89.7c-0.3,0-0.5,0-0.8,0C89.6,89.7,89.9,89.7,90.1,89.7z"/>
	<path class="st58" d="M97,85.1C97,85.1,96.9,85,97,85.1c0-0.1,0-0.1,0-0.1c-0.2,0-0.3,0-0.5,0c0,1.1,0,2.2,0,3.4
		c-0.7-0.6-1.2-1.3-1.8-1.9c-0.4-0.4-0.9-0.9-1.3-1.3C93.3,85,93.2,84.9,93,85c-0.2,0.1-0.1,0.3-0.1,0.4c0,1.3,0,2.6,0,3.9
		c0,0.4,0.1,0.5,0.4,0.4c0,0,0.1,0,0.1,0c0-1.2,0-2.3,0-3.6c0.8,1,1.6,1.8,2.4,2.7c0.3,0.3,0.6,0.6,0.9,1c0.1,0,0.2,0,0.3,0
		c0,0,0-0.1,0-0.1c0,0,0,0,0,0C97,88,97,86.6,97,85.1z"/>
	<path class="st58" d="M96.9,89.6C96.9,89.6,96.9,89.6,96.9,89.6C96.9,89.6,96.9,89.6,96.9,89.6L96.9,89.6z"/>
	<path class="st58" d="M97,85.1C97,85.1,96.9,85,97,85.1C96.9,85,97,85.1,97,85.1C97,85.1,97,85.1,97,85.1z"/>
	<polygon class="st58" points="96.9,85 96.9,85 96.9,85 	"/>
	<path class="st62" d="M86.9,84.9c-1,0-2.1,0-3.1,0c-0.2,0-0.2,0.1-0.2,0.3c0,0.2,0.1,0.2,0.3,0.2c0.3,0,0.6,0,0.9-0.1
		c0.2,0,0.4,0,0.4,0.3c0,0.6,0,1.3,0,1.9c0,0.5,0,1,0,1.5c0,0.6,0,0.6,0.6,0.6c0.1-0.6,0-1.3,0.1-1.9c0-0.7,0-1.4,0-2.1
		c0-0.3,0.1-0.4,0.4-0.4c0.3,0,0.5,0.1,0.8,0.1c0.1,0,0.2,0,0.2-0.1s0.1-0.1,0.1-0.2C87.2,85,87.1,84.9,86.9,84.9z"/>
	<path class="st62" d="M87.1,85.4c0-0.1,0.1-0.1,0.1-0.2l0,0C87.2,85.3,87.2,85.3,87.1,85.4z"/>
	<path class="st64" d="M96.5,88.4c0-1.2,0-2.3,0-3.4c0,0,0-0.1,0-0.1c0,0,0,0,0,0c-0.8,0.3-1.1,1.2-1.8,1.6
		C95.2,87.1,95.8,87.7,96.5,88.4z"/>
	<path class="st69" d="M85.7,85.7c0,0.7,0,1.4,0,2.1c0,0.6,0.1,1.3-0.1,1.9c0.2-0.1,0.1-0.3,0.1-0.5c0-0.8,0-1.5,0-2.3
		c0-0.2,0.1-0.4,0.2-0.6c0.3-0.3,0.7-0.5,0.9-1c-0.3,0-0.5-0.1-0.8-0.1C85.8,85.3,85.7,85.4,85.7,85.7z"/>
	<path class="st69" d="M89,84.9c0.4,0,0.7,0,1.1,0c-0.3-0.1-0.6-0.1-0.8-0.1C89.2,84.8,89.1,84.8,89,84.9L89,84.9z"/>
	<path class="st69" d="M89,84.9c0.1,0,0.2,0,0.3-0.1C89.2,84.8,89.1,84.8,89,84.9L89,84.9L89,84.9z"/>
	<path class="st68" d="M97,85.9c0-0.1,0-0.1,0-0.2c0-0.2,0-0.4-0.1-0.6l0,0c0,1.5,0,3,0,4.4c0,0,0-0.1,0.1-0.1c0-0.1,0-0.2,0-0.3
		c0-0.8,0-1.6,0-2.4C97,86.4,97,86.1,97,85.9z"/>
	<path class="st68" d="M97,85.1c0.1,0.2,0.1,0.4,0.1,0.6C97,85.5,97,85.3,97,85.1C97,85.1,97,85.1,97,85.1L97,85.1z"/>
	<path class="st68" d="M96.7,89.7C96.7,89.7,96.7,89.7,96.7,89.7c0.1,0.1,0.2,0.1,0.3,0c0,0,0,0,0,0C96.8,89.7,96.7,89.7,96.7,89.7z
		"/>
	<polygon class="st68" points="96.9,89.6 96.9,89.6 96.9,89.6 	"/>
	<path class="st65" d="M111.2,85.3c-0.5,0.1-0.1,0.5-0.3,0.8c0,0,0,0,0,0c0,1,0.2,1.2,1,0.9c0.5-0.2,0.7-0.6,0.6-1.1
		C112.4,85.4,112,85.2,111.2,85.3z"/>
	<path class="st67" d="M106.9,87.3c-0.1,0.2,0,0.2,0.1,0.2c0.3,0,0.7,0,1.1,0c-0.2-0.5-0.4-1-0.7-1.6
		C107.3,86.4,107.1,86.8,106.9,87.3z"/>
	<path class="st58" d="M78,84.9c-0.2,0-0.2,0.2-0.3,0.4c-0.6,1.4-1.2,2.7-1.8,4.1c-0.1,0.1-0.2,0.3,0,0.4c0.2,0.1,0.5,0.1,0.6-0.2
		c0-0.2,0.1-0.4,0.2-0.6c0.4-1,0.4-0.9,1.4-1c0.5,0,0.8,0.2,0.9,0.7c0.1,0.2,0.2,0.3,0.2,0.5c0.2,0.7,0.3,0.7,1,0.5
		c-0.2-0.6-0.5-1.1-0.7-1.7c-0.4-0.9-0.8-1.7-1.2-2.6C78.2,85.1,78.2,84.9,78,84.9z M77.5,87.5c-0.2,0-0.3-0.1-0.2-0.3
		c0.2-0.4,0.3-0.8,0.6-1.3c0.2,0.5,0.4,1,0.7,1.5C78.1,87.5,77.8,87.5,77.5,87.5z"/>
	<path class="st58" d="M81.2,85c-0.2,0.1-0.4,0.3-0.5,0.5c-0.1,0.3-0.2,0.7-0.1,1.1c0,0,0,0,0,0c0.3,0.5,0.8,0.7,1.3,0.9
		c0.4,0.1,0.7,0.3,0.7,0.8c0,0.4-0.1,0.7-0.5,0.9c-0.4,0.2-0.8,0.1-1.2-0.2c-0.1-0.1-0.2-0.3-0.4-0.4c-0.3,0.6-0.3,0.8,0.3,1
		c0.5,0.2,1.1,0.2,1.6-0.1c0.6-0.3,0.8-0.8,0.8-1.4c0-0.6-0.4-0.9-0.9-1.1c-0.3-0.1-0.6-0.2-0.8-0.4c-0.3-0.2-0.5-0.4-0.4-0.8
		c0-0.3,0.2-0.5,0.5-0.6c0.3-0.1,0.6,0,0.9,0.3c0.1,0.1,0.1,0.4,0.3,0.2c0.1-0.1,0.3-0.4,0.1-0.6C83,85,82.8,85,82.7,84.9
		c-0.1,0-0.2,0-0.3,0C81.9,84.8,81.5,84.9,81.2,85z"/>
	<path class="st58" d="M80.7,85.6c-0.1,0.3-0.2,0.7-0.1,1.1l0,0c0,0,0,0,0,0C80.5,86.2,80.6,85.9,80.7,85.6z"/>
	<path class="st68" d="M96.9,85c-0.1-0.1-0.3-0.1-0.5-0.1c0,0,0,0.1,0,0.1C96.6,85,96.8,85,96.9,85z"/>
	<path class="st68" d="M96.9,85L96.9,85C96.9,85,96.9,85,96.9,85c-0.2,0-0.3,0-0.5,0C96.6,85,96.8,85,96.9,85z"/>
	<path class="st66" d="M90.9,85.7C90.9,85.7,90.9,85.7,90.9,85.7c-0.1-0.1-0.3-0.3-0.5-0.4c-0.1,0-0.2-0.1-0.3-0.1
		c-0.7-0.3-1.5,0-2,0.6c-0.6,0.7-0.6,2.1-0.1,2.9c0.6,0.9,2.1,1,2.8,0.1c0-0.1,0.1-0.1,0.1-0.2c0.3-0.4,0.4-0.9,0.4-1.4
		C91.4,86.6,91.2,86.1,90.9,85.7z"/>
	<path class="st66" d="M90.9,85.7c0.3,0.4,0.5,0.9,0.5,1.5c0,0.5-0.1,1-0.4,1.4c0.3-0.4,0.4-0.9,0.4-1.4
		C91.4,86.6,91.2,86.1,90.9,85.7z"/>
	<path class="st66" d="M90.5,85.4c0.2,0.1,0.3,0.2,0.4,0.3C90.8,85.6,90.6,85.5,90.5,85.4z"/>
	<path class="st68" d="M77.3,87.2c-0.1,0.2,0,0.3,0.2,0.3c0.3,0,0.6,0,1,0c-0.2-0.5-0.4-1-0.7-1.5C77.6,86.4,77.5,86.8,77.3,87.2z"
		/>
</g>
</svg>
