<?xml version="1.0" encoding="utf-8"?>
<!-- Generator: Adobe Illustrator 22.1.0, SVG Export Plug-In . SVG Version: 6.00 Build 0)  -->
<svg version="1.1" id="Layer_1" xmlns="http://www.w3.org/2000/svg" xmlns:xlink="http://www.w3.org/1999/xlink" x="0px" y="0px"
	 viewBox="0 0 200 200" style="enable-background:new 0 0 200 200;" xml:space="preserve">
<style type="text/css">
	.st0{fill:none;}
	.st1{fill:#ED1F24;}
	.st2{fill:#FFFFFF;}
	.st3{fill:#00DBFF;}
	.st4{fill-rule:evenodd;clip-rule:evenodd;}
	.st5{fill-rule:evenodd;clip-rule:evenodd;fill:#FFFFFF;}
	.st6{fill:#475E29;}
	.st7{fill:#0E0D0F;}
	.st8{fill:#0F0E10;}
	.st9{fill:#3660B0;}
	.st10{fill:#3567B4;}
	.st11{fill:#356BB7;}
	.st12{fill:#2B99D9;}
	.st13{fill:#375BAD;}
	.st14{fill:#70AA43;}
	.st15{fill:#394EA6;}
	.st16{fill:#3372BC;}
	.st17{fill:#3756AA;}
	.st18{fill:#2C93D4;}
	.st19{fill:#3853A8;}
	.st20{fill:#6BA443;}
	.st21{fill:#7AB444;}
	.st22{fill:#2E8DD0;}
	.st23{fill:#7EB845;}
	.st24{fill:#75AF44;}
	.st25{fill:#3278C1;}
	.st26{fill:#2F86CB;}
	.st27{fill:#4EB9A8;}
	.st28{fill:#82BD46;}
	.st29{fill:#3082C8;}
	.st30{fill:#317DC4;}
	.st31{fill:#54BDAC;}
	.st32{fill:#2CA1DF;}
	.st33{fill:#368E86;}
	.st34{fill:#2D7E7A;}
	.st35{fill:#31857F;}
	.st36{fill:#3A968D;}
	.st37{fill:#639D41;}
	.st38{fill:#57933F;}
	.st39{fill:#5D9840;}
	.st40{fill:#45AA9C;}
	.st41{fill:#4C8A3D;}
	.st42{fill:#3E9D92;}
	.st43{fill:#3C7C3A;}
	.st44{fill:#46853C;}
	.st45{fill:#518E3E;}
	.st46{fill:#41803B;}
	.st47{fill:#236737;}
	.st48{fill:#41A397;}
	.st49{fill:#4AB2A3;}
	.st50{fill:#36773A;}
	.st51{fill:#307238;}
	.st52{fill:#2A6C38;}
	.st53{fill:#29A4E1;}
	.st54{fill:#070707;}
	.st55{fill:#050505;}
	.st56{fill:#030303;}
	.st57{fill:#FEFEFE;}
	.st58{fill:#F9F9F9;}
	.st59{fill:#FBFBFB;}
	.st60{fill:#0D5B3C;}
	.st61{fill:#045033;}
	.st62{fill:#FCFCFC;}
	.st63{fill:#F3F5F3;}
	.st64{fill:#237851;}
	.st65{fill:#166D48;}
	.st66{fill:#29875B;}
	.st67{fill:#1C754E;}
	.st68{fill:#339866;}
	.st69{fill:#319263;}
	.st70{fill:#F9E803;}
	.st71{fill:#D93339;}
	.st72{fill:#9B9B9B;}
</style>
<g>
	<path class="st0" d="M19.7,106.8C19.7,106.7,19.7,106.7,19.7,106.8C19.7,106.7,19.7,106.7,19.7,106.8
		C19.7,106.7,19.7,106.7,19.7,106.8z"/>
	<path class="st7" d="M129.2,90.8c-2.3-0.4-4.7-0.1-7.1-0.2c-0.6,0-0.8,0.2-0.8,0.8c0,2.4,0,4.9,0,7.3c0,2.5,0,4.9,0,7.4
		c0,0.5,0,0.7,0.6,0.7c2.1,0,4.2,0,6.3-0.1c4.1-0.2,7.4-3.5,7.6-7.4C136.1,95.1,133.4,91.5,129.2,90.8z M128.6,104.1
		c-1.3,0.2-2.6,0.1-3.9,0.1c-0.6,0-0.5-0.3-0.5-0.7c0-1.6,0-3.2,0-4.9c0-1.6,0-3.2,0-4.8c0-0.5,0.1-0.7,0.7-0.7
		c1.3,0.1,2.7-0.1,4,0.2c2.5,0.6,4.2,2.7,4.1,5.4C133,101.5,131.1,103.7,128.6,104.1z"/>
	<path class="st7" d="M110,90.4c-4.7,0-8.4,3.7-8.4,8.3c0,4.6,3.8,8.4,8.4,8.3c4.6,0,8.3-3.8,8.3-8.3
		C118.4,94.1,114.7,90.4,110,90.4z M110,104.5c-3.1,0-5.5-2.5-5.5-5.7c0-3.3,2.4-5.8,5.6-5.8c3.1,0,5.5,2.5,5.5,5.8
		C115.5,102,113.1,104.5,110,104.5z"/>
	<path class="st7" d="M63.2,92.1c-0.5-1.2-1.1-1.7-2.4-1.6c-0.7,0.1-1,0.3-1.3,0.9c-2.1,4.9-4.2,9.7-6.4,14.6
		c-0.1,0.2-0.3,0.5-0.2,0.8c0.7,0,1.3,0,2,0c0.6,0,0.9-0.2,1.1-0.7c0.3-0.9,0.7-1.7,1.1-2.6c0.2-0.4,0.4-0.6,0.9-0.6
		c2.1,0,4.3,0,6.5,0c0.4,0,0.7,0.1,0.8,0.6c0.4,0.9,0.8,1.8,1.2,2.8c0.1,0.3,0.2,0.6,0.6,0.6c0.8,0,1.7,0,2.5,0c0-0.4-0.2-0.7-0.3-1
		C67.2,101.2,65.1,96.6,63.2,92.1z M63.3,100.4c-1.6,0-3.2,0-4.9,0c0.9-2.2,1.8-4.2,2.8-6.5c1,2.2,1.9,4.3,2.8,6.4
		C63.6,100.4,63.4,100.4,63.3,100.4z"/>
	<path class="st7" d="M84.7,92.5c0-1.8,0-1.8-1.8-1.9c-0.8,0-1.1,0.2-1.1,1c0,3,0,6,0,9c-0.1,1.9-1.2,3.2-2.8,3.7
		c-2.8,0.8-5.2-1-5.3-3.9c-0.1-1.5,0-3,0-4.5c0,0,0,0,0,0c0-1,0-2.1,0-3.1c0-2.3,0-2.3-2.3-2.2c-0.5,0-0.5,0.2-0.5,0.6
		c0,3,0,6,0,9.1c0.1,4,2.4,6.4,6.4,6.7c3.9,0.3,6.8-2,7.3-5.9C84.9,98.3,84.7,95.4,84.7,92.5z"/>
	<path class="st7" d="M149.6,104.2c-2.4,0-4.8,0-7.2,0c-0.6,0-0.8-0.1-0.7-0.7c0-1,0-2,0-3c0-0.5,0.2-0.6,0.6-0.6c1.4,0,2.9,0,4.3,0
		c0.5,0,0.6-0.1,0.7-0.6c0.1-1.9,0.1-1.9-1.9-1.9c-0.1,0-0.2,0-0.4,0c-1.1,0-2.2,0-3.3-0.1c-0.2-1.1,0-2.2-0.1-3.3
		c-0.1-0.7,0.2-0.7,0.8-0.7c2,0,4,0,6,0c1.9,0,1.9,0,1.9-2c0-0.5-0.2-0.7-0.7-0.7c-3.4,0-6.8,0-10.2,0c-0.6,0-0.7,0.2-0.7,0.7
		c0,2.5,0,4.9,0,7.4c0,2.4,0,4.9,0,7.3c0,0.7,0.2,0.8,0.8,0.8c3,0,5.9,0,8.9,0c1.8,0,1.8,0,1.8-1.9
		C150.3,104.3,150.1,104.2,149.6,104.2z"/>
	<path class="st7" d="M162.9,98.6c-0.7-0.4-1.5-0.7-2.3-1c-1.2-0.4-2.4-0.7-3.6-1.4c-0.6-0.4-1.1-0.9-1-1.7c0.1-0.8,0.6-1.1,1.3-1.3
		c1.5-0.4,3-0.3,4.5,0.2c0.5,0.1,1.1,0.7,1.5,0.5c0.4-0.3,0.5-1,0.8-1.5c0.3-0.5,0.1-0.7-0.4-0.9c-1.5-0.7-3-1-4.6-1
		c-1.3-0.1-2.6,0.1-3.8,0.8c-2.7,1.5-2.9,5.1-0.4,6.9c0.9,0.6,2,1,3,1.4c0.9,0.3,1.9,0.6,2.8,1.1c0.8,0.4,1.5,1,1.4,2
		c-0.1,1-0.9,1.5-1.8,1.8c-1.8,0.4-3.4-0.1-5-0.9c-0.5-0.3-1-1.2-1.6-0.8c-0.5,0.3-0.6,1.2-0.9,1.8c-0.1,0.3-0.1,0.5,0.2,0.7
		c2.2,2.1,6.9,2.6,9.6,1.1C165.7,104.6,165.8,100.3,162.9,98.6z"/>
	<path class="st7" d="M100.2,90.6c-3.5,0-7,0-10.5,0c-2,0-1.9,0-1.9,2c0,0.5,0.2,0.6,0.6,0.6c1.2,0,2.4,0,3.6,0
		c0.7,0,0.9,0.1,0.9,0.9c0,3.6,0,7.2,0,10.7c0,2,0,1.9,2,2c0.7,0,0.9-0.2,0.9-0.9c0-4,0-7.9,0-11.9c0-0.7,0.2-0.9,0.8-0.8
		c1,0.1,1.9,0,2.9,0c0.3,0,0.6,0,0.7-0.4c0.3-0.7,0.6-1.4,0.9-2.2C100.8,90.6,100.5,90.6,100.2,90.6z"/>
	<path class="st7" d="M174.9,99.3c-0.8-0.7-0.7-1.1,0-1.8c2.1-2.2,4.2-4.5,6.4-6.9c-1.2,0-2.2,0-3.2,0c-0.2,0-0.3,0.1-0.5,0.2
		c-2.3,2.5-4.5,5-6.8,7.4c0,0.1,0,0.2,0,0.2c2.5,2.6,5,5.3,7.5,7.9c0.1,0.1,0.3,0.2,0.5,0.2c1,0,2,0,3.2,0c-0.3-0.3-0.5-0.5-0.7-0.7
		C179.2,103.8,177.1,101.5,174.9,99.3z"/>
	<path class="st8" d="M170.8,98.3c-0.4-0.2-0.2-0.6-0.2-0.8c0-1.7,0-3.4,0-5c0-1.8,0-1.8-1.8-1.8c-0.8,0-1,0.1-1,1
		c0,4.4,0,8.8,0,13.2c0,2,0,2,2.1,2c0.5,0,0.7-0.2,0.7-0.7c0-2.2,0-4.4,0-6.6c0-0.3-0.1-0.6,0.2-0.9
		C170.7,98.5,170.7,98.4,170.8,98.3z"/>
	<path class="st8" d="M170.8,98.6c0-0.1,0-0.2,0-0.2C170.7,98.4,170.7,98.5,170.8,98.6z"/>
	<path class="st9" d="M38.7,107.7c1.5-0.6,3-1.2,4.4-1.9c0.2-0.1,0.4-0.2,0.7-0.1c-0.3-0.9-0.7-1.8-1.1-2.6c-1.4,0.3-2.6,1-3.9,1.5
		c-0.9,0.3-1.8,0.8-2.7,1.2c0,0,0,0,0,0c0.3,0.7,0.5,1.5,0.8,2.2c0.1,0.2,0.2,0.4,0.4,0.6C37.5,107.9,38.2,107.9,38.7,107.7z"/>
	<path class="st10" d="M36.7,105.3c1.6-0.7,3.2-1.4,4.9-2.1c0.4-0.1,0.7-0.4,1.1-0.1c-0.2-0.8-0.6-1.5-1-2.2
		c-1.5,0.4-2.9,1.1-4.3,1.7c-0.8,0.3-1.5,0.6-2.3,0.9c0,0,0,0,0,0c0,0,0,0,0,0c0.2,0.8,0.6,1.5,1,2.2c0,0,0,0,0,0
		C36.2,105.5,36.5,105.4,36.7,105.3z"/>
	<path class="st10" d="M42.7,103.2c-0.4-0.3-0.8-0.1-1.1,0.1c-1.6,0.7-3.2,1.4-4.9,2.1c-0.3,0.1-0.5,0.2-0.6,0.5
		c0.9-0.4,1.8-0.8,2.7-1.2C40.1,104.2,41.3,103.4,42.7,103.2z"/>
	<path class="st11" d="M36.6,102.7c1.4-0.6,2.8-1.2,4.2-1.8c0.3-0.1,0.6-0.3,1,0c-0.2-0.8-0.5-1.5-0.9-2.2c-2.2,0.9-4.4,1.9-6.5,2.8
		c0,0,0,0,0,0c0.2,0.7,0.5,1.4,0.9,2.1C35.5,103.1,36.1,102.9,36.6,102.7z"/>
	<path class="st11" d="M37.5,102.6c1.4-0.5,2.8-1.3,4.3-1.7c-0.3-0.3-0.6-0.1-1,0c-1.4,0.6-2.8,1.2-4.2,1.8
		c-0.5,0.2-1.1,0.4-1.4,0.8c0,0,0,0,0,0C35.9,103.2,36.7,102.9,37.5,102.6z"/>
	<path class="st12" d="M29.1,89.1c0.1,0.2,0.1,0.5,0.2,0.7c0.2,0.3,0.3,0.6,0.4,0.9c0.1,0.1,0.1,0.1,0.2,0.2c0,0,0,0,0,0
		c0,0,0,0,0,0c0.8,0.2,1.4-0.5,2-0.7c1.3-0.4,2.5-1,3.8-1.6c0.3-0.1,0.6-0.2,0.9-0.2c-0.2-0.7-0.5-1.4-1-2c-1.8,0.8-3.7,1.5-5.5,2.3
		C29.8,88.9,29.4,89,29.1,89.1z"/>
	<path class="st13" d="M43.8,105.8L43.8,105.8c-1.7,0.8-3.5,1.4-5.3,2.2c-0.4,0.2-0.8,0.4-1.3,0.6c0.2,0.6,0.4,1.2,0.7,1.7
		c2.2-0.9,4.4-1.9,6.5-2.8C44.4,106.9,44.1,106.3,43.8,105.8z"/>
	<path class="st13" d="M43.8,105.8L43.8,105.8c-0.2-0.2-0.5,0-0.7,0.1c-1.5,0.6-3,1.2-4.4,1.9c-0.5,0.2-1.2,0.2-1.4,0.9
		c0.4-0.2,0.8-0.4,1.3-0.6C40.3,107.2,42.1,106.6,43.8,105.8z"/>
	<path class="st14" d="M21.4,97L21.4,97c-0.4,0.7-0.7,1.4-0.9,2.2c0,0,0,0,0,0l0,0c1.7,0.9,3.5,1.6,5.2,2.3c0.4,0.2,0.8,0.6,1.4,0.4
		c0,0,0,0,0,0c0.3-0.5,0.6-1.1,0.7-1.7c-1.9-0.8-3.9-1.6-5.8-2.4C21.6,97.6,21.3,97.4,21.4,97z"/>
	<path class="st15" d="M46,111c-0.1,0-0.3-0.2-0.4-0.1c-1.9,0.8-3.9,1.7-5.8,2.5c-0.2,0.1-0.3,0.2-0.3,0.4c0,0,0,0,0,0c0,0,0,0,0,0
		c0,0,0.1,0.1,0.1,0.1c2.4,0,4.8,0,7.2,0c0.5,0,0.4-0.3,0.3-0.6C46.7,112.6,46.4,111.8,46,111z"/>
	<path class="st16" d="M34.8,101c1.7-0.7,3.5-1.5,5.2-2.2c0.3-0.1,0.5-0.3,0.8,0c-0.2-0.6-0.4-1.2-0.7-1.7c-2.2,0.9-4.4,1.8-6.6,2.6
		c0,0,0,0,0,0c0.2,0.7,0.4,1.3,0.8,1.9C34.2,101.1,34.6,101.1,34.8,101z"/>
	<path class="st16" d="M40,98.7c-1.8,0.7-3.5,1.5-5.2,2.2c-0.2,0.1-0.6,0.1-0.5,0.5c2.2-0.9,4.4-1.9,6.5-2.8
		C40.6,98.5,40.3,98.6,40,98.7z"/>
	<path class="st17" d="M41,111c1.4-0.6,2.8-1.4,4.3-1.6c-0.1-0.7-0.5-1.2-0.8-1.9v0c-0.6,0.7-1.6,0.9-2.3,1.2
		c-1.2,0.6-2.5,1-3.7,1.6c-0.2,0.1-0.4,0.1-0.5,0c0.2,0.6,0.4,1.3,0.8,1.8C39.3,111.4,40.2,111.3,41,111z"/>
	<path class="st17" d="M38.5,110.3c1.2-0.6,2.5-1,3.7-1.6c0.8-0.4,1.7-0.5,2.3-1.2v0c-2.2,0.9-4.4,1.9-6.5,2.8
		C38.2,110.4,38.4,110.3,38.5,110.3z"/>
	<path class="st18" d="M30.4,91.2c-0.2,0.1-0.4,0.1-0.5,0c0.1,0.3,0.2,0.6,0.3,0.9c0.1,0.2,0.2,0.4,0.4,0.6c1.4-0.3,2.7-1,4-1.6
		c0.9-0.3,1.7-0.9,2.7-0.9c-0.1-0.6-0.4-1.2-0.7-1.7v0C34.6,89.6,32.5,90.3,30.4,91.2z"/>
	<path class="st18" d="M31.9,90.3c-0.7,0.2-1.2,0.9-2,0.7c0,0,0,0,0,0c0,0.1,0,0.1,0.1,0.2c0.2,0.1,0.4,0.1,0.5,0
		c2-0.9,4.1-1.6,6.1-2.6v0v0c-0.3,0-0.6,0-0.9,0.2C34.4,89.3,33.2,89.9,31.9,90.3z"/>
	<path class="st19" d="M39.9,113.1c1.8-0.9,3.6-1.6,5.5-2.3c0.3-0.1,0.5-0.1,0.7,0.2h0c-0.2-0.6-0.4-1.1-0.7-1.7
		c-2.2,1-4.4,1.9-6.5,2.8c0.2,0.6,0.4,1.2,0.7,1.7C39.3,113.4,39.6,113.2,39.9,113.1z"/>
	<path class="st19" d="M39.8,113.4c1.9-0.8,3.9-1.7,5.8-2.5c0.1,0,0.3,0.1,0.4,0.1c-0.1-0.3-0.4-0.4-0.7-0.2
		c-1.8,0.7-3.7,1.5-5.5,2.3c-0.3,0.1-0.6,0.3-0.4,0.7c0,0,0,0,0,0C39.5,113.6,39.6,113.5,39.8,113.4z"/>
	<path class="st19" d="M41,111c-0.8,0.3-1.7,0.4-2.2,1.2c2.2-0.9,4.4-1.8,6.5-2.8C43.8,109.6,42.4,110.4,41,111z"/>
	<path class="st20" d="M25.6,97.3c-1.3-0.5-2.6-0.9-3.7-1.7c0,0,0,0,0,0c-0.3,0.4-0.5,0.8-0.5,1.3v0c1.1,1,2.6,1.3,3.9,1.9
		c0.8,0.4,1.8,0.6,2.4,1.3c0.1-0.7,0.7-1.2,0.8-1.9C27.4,98.4,26.6,97.7,25.6,97.3z"/>
	<path class="st20" d="M21.4,97c0,0.4,0.2,0.6,0.5,0.8c1.9,0.8,3.9,1.6,5.8,2.4c-0.7-0.7-1.6-0.9-2.4-1.3C24,98.2,22.5,98,21.4,97z"
		/>
	<path class="st21" d="M19.9,100.5c-0.3,0.6-0.6,1.2-0.8,1.8c1.3,0.8,2.9,1.3,4.3,1.9c0.7,0.3,1.4,0.8,2.2,0.7v0
		c0.3-0.5,0.5-0.9,0.6-1.5c-2-0.6-3.9-1.6-5.8-2.3C20.1,101.1,19.9,100.9,19.9,100.5z"/>
	<path class="st22" d="M37.8,91.6c0-0.5-0.4-0.9-0.6-1.3v0c-1.9,0.8-3.8,1.6-5.7,2.4c-0.3,0.1-0.6,0.2-1,0.1c0,0.1,0.2,0.3,0,0.4
		c0,0,0,0,0,0c0,0,0,0.1,0,0.1c0,0,0,0,0,0c0.5,0.2,0.3,0.7,0.7,1C33.5,93.5,35.7,92.5,37.8,91.6L37.8,91.6z"/>
	<path class="st22" d="M30.5,92.7c0,0,0,0.1,0,0.1c0.3,0.1,0.7,0,1-0.1c1.9-0.8,3.8-1.6,5.7-2.4v0c-1,0-1.8,0.6-2.7,0.9
		C33.2,91.7,32,92.4,30.5,92.7z"/>
	<path class="st23" d="M25,105.2c-1.9-0.7-3.8-1.6-5.6-2.4c-0.2-0.1-0.4-0.2-0.3-0.5c-0.3,0.4-0.4,0.8-0.6,1.3
		c0.5,0.7,1.4,0.8,2.2,1.1c1.2,0.6,2.5,1,3.7,1.9c-1.6,0-3.1,0-4.7,0c0,0,0,0,0,0c0.4,0.3,0.9,0.1,1.3,0.2v0c0.3,0,0.6,0,0.9,0l0,0
		c0.4,0,0.7,0,1.1,0c0,0,0,0,0,0c0.4,0,0.7,0,1.1,0c0,0,0,0,0,0c0.3,0,0.5,0,0.8-0.1c0,0,0,0,0,0c0.2-0.6,0.5-1.2,0.7-1.8
		C25.5,105.3,25.3,105.3,25,105.2z"/>
	<path class="st23" d="M23.4,104.3c-1.4-0.6-3-1.1-4.3-1.9c-0.1,0.3,0.1,0.4,0.3,0.5c1.9,0.8,3.7,1.6,5.6,2.4
		c0.2,0.1,0.5,0.1,0.6-0.2C24.8,105.1,24.2,104.6,23.4,104.3z"/>
	<path class="st24" d="M26.2,102c-1.8-0.7-3.5-1.5-5.3-2.2c-0.2-0.1-0.6-0.2-0.5-0.6c-0.3,0.4-0.4,0.8-0.6,1.3
		c1.7,1.1,3.7,1.6,5.5,2.5c0.3,0.1,0.6,0.2,0.9,0.5c0.1-0.6,0.7-1,0.8-1.7C26.8,102.2,26.5,102.1,26.2,102z"/>
	<path class="st24" d="M25.6,101.5c-1.8-0.7-3.6-1.3-5.2-2.3l0,0c-0.1,0.4,0.2,0.5,0.5,0.6c1.8,0.7,3.5,1.5,5.3,2.2
		c0.3,0.1,0.6,0.2,0.8-0.1c0,0,0,0,0,0C26.4,102.1,26.1,101.6,25.6,101.5z"/>
	<path class="st24" d="M25.4,103c-1.8-0.9-3.8-1.4-5.5-2.5c0,0.4,0.3,0.5,0.6,0.7c1.9,0.8,3.8,1.7,5.8,2.3
		C26,103.3,25.7,103.2,25.4,103z"/>
	<path class="st25" d="M34.1,99.2c1.7-0.6,3.4-1.4,5.1-2.1c0.3-0.1,0.6-0.3,1-0.1c-0.1-0.5-0.3-1-0.6-1.5v0c-1.6,0.4-3,1.2-4.5,1.8
		c-0.7,0.3-1.5,0.3-2,1c0,0,0,0,0,0c0,0,0,0,0,0c0.1,0.5,0.3,0.9,0.5,1.3c0,0,0,0,0,0C33.6,99.4,33.8,99.3,34.1,99.2z"/>
	<path class="st25" d="M39.1,97.1c-1.7,0.7-3.4,1.5-5.1,2.1c-0.2,0.1-0.5,0.2-0.5,0.5c2.2-0.9,4.4-1.8,6.6-2.6
		C39.8,96.7,39.4,97,39.1,97.1z"/>
	<path class="st26" d="M33.1,95.3c1.8-0.8,3.5-1.5,5.3-2.2c-0.1-0.5-0.3-1-0.6-1.5c0,0,0,0,0,0c-0.1,0.3-0.4,0.5-0.7,0.6
		c-1.7,0.7-3.4,1.4-5,2.1c-0.3,0.1-0.5,0.2-0.8,0.1c0.2,0.6,0.4,1.2,0.7,1.7C32.1,95.5,32.7,95.4,33.1,95.3z"/>
	<path class="st26" d="M32.1,94.3c1.7-0.7,3.4-1.4,5-2.1c0.3-0.1,0.6-0.3,0.7-0.6c0,0,0,0,0,0l0,0c-2.2,0.9-4.4,1.9-6.5,2.8
		C31.6,94.5,31.8,94.4,32.1,94.3z"/>
	<path class="st27" d="M28.7,111.5c0.9-0.4,1.8-1.1,2.6-1.7c-0.3-1-0.6-1.9-0.6-3c-0.9,0-1.9,0-2.8,0c0.2,1.2,0.4,2.5,0.6,3.7
		C28.6,110.9,28.6,111.2,28.7,111.5z"/>
	<path class="st28" d="M19.7,106.7C19.7,106.7,19.7,106.7,19.7,106.7C19.7,106.7,19.7,106.7,19.7,106.7c0.3-0.3,0.6-0.2,1-0.3
		c1,0,2.1,0,3.3,0c-1.6-0.7-3.1-1.3-4.6-1.9c-0.4-0.2-0.9-0.2-0.8-0.8c-0.5,0.8-0.9,1.7-0.2,2.6C18.8,106.5,19.2,106.8,19.7,106.7z"
		/>
	<path class="st28" d="M19.4,104.5c1.5,0.7,2.9,1.2,4.6,1.9c-1.2,0-2.3,0-3.3,0c-0.3,0-0.7-0.1-0.9,0.3c1.6,0,3.1,0,4.7,0
		c-1.1-0.9-2.5-1.3-3.7-1.9c-0.7-0.4-1.6-0.4-2.2-1.1C18.5,104.3,19,104.4,19.4,104.5z"/>
	<path class="st29" d="M38.4,93.1c-0.5,0.7-1.4,0.8-2.1,1.2c-1.4,0.7-3,1.1-4.3,1.9c0,0.3,0.2,0.6,0.4,0.9c2.2-0.9,4.4-1.9,6.5-2.8
		C38.8,93.8,38.7,93.4,38.4,93.1z"/>
	<path class="st29" d="M38.4,93.1C38.4,93.1,38.4,93.1,38.4,93.1c-1.8,0.7-3.5,1.4-5.3,2.2c-0.4,0.2-1,0.2-1.1,0.9
		c1.4-0.8,2.9-1.2,4.3-1.9C37.1,93.9,37.9,93.7,38.4,93.1z"/>
	<path class="st30" d="M33.5,97.7c1.7-0.7,3.5-1.5,5.2-2.2c0.3-0.1,0.5-0.2,0.8,0c-0.2-0.4-0.4-0.9-0.6-1.3c0,0,0,0,0,0
		c-0.1,0.3-0.4,0.5-0.7,0.6c-1.7,0.7-3.4,1.5-5.1,2.1C33,97,32.7,97.1,32.4,97c0.1,0.5,0.3,0.9,0.6,1.3
		C32.9,97.9,33.2,97.8,33.5,97.7z"/>
	<path class="st30" d="M35,97.3c1.5-0.7,2.9-1.4,4.5-1.8c-0.3-0.2-0.5-0.1-0.8,0c-1.8,0.7-3.5,1.5-5.2,2.2c-0.3,0.1-0.6,0.2-0.5,0.7
		c0,0,0,0,0,0C33.5,97.7,34.3,97.6,35,97.3z"/>
	<path class="st30" d="M33.2,96.9c1.7-0.7,3.4-1.4,5.1-2.1c0.3-0.1,0.6-0.3,0.7-0.6c0,0,0,0,0,0c-2.2,0.9-4.4,1.9-6.5,2.8
		C32.7,97.1,33,97,33.2,96.9z"/>
	<path class="st31" d="M31.3,109.9c1.3-0.5,2.3-1.5,3.5-2c0.4-0.3,0.8-0.6,1.3-0.9c-1.9,0-3.6,0-5.4,0v0
		C31.1,107.9,31.4,108.8,31.3,109.9z"/>
	<path class="st31" d="M30.7,106.9c0,1,0.3,2,0.6,3C31.4,108.8,31.1,107.9,30.7,106.9z"/>
	<path class="st32" d="M27.7,86.4C27.7,86.4,27.7,86.4,27.7,86.4c0.1-0.2,0.4-0.2,0.6-0.2c1.5,0,3,0,4.5,0.1
		c-1.4,0.9-2.8,1.5-4.3,1.9c0.1,0.1,0.1,0.2,0.2,0.4c0,0,0,0,0,0c0.1,0.2,0.2,0.3,0.3,0.5c0,0,0,0,0,0c1.9-1,3.9-1.8,5.9-2.6
		c0.2-0.1,0.4-0.1,0.6,0c-0.2-0.6-0.8-0.4-1.2-0.5c-0.8-0.1-1.5,0-2.3,0c-1.8,0.1-3.6-0.1-5.5,0.1c0,0,0,0,0,0
		C27,86.1,27.4,86.2,27.7,86.4C27.7,86.4,27.7,86.4,27.7,86.4z"/>
	<path class="st32" d="M35,86.5c-2,0.8-4,1.6-5.9,2.6c0,0,0,0,0,0c0,0,0,0,0,0c0.4-0.1,0.7-0.2,1.1-0.3c1.8-0.7,3.7-1.5,5.5-2.3
		C35.4,86.4,35.2,86.4,35,86.5z"/>
	<path class="st33" d="M23.7,110.5c-0.2-1.1-0.4-2.2-0.6-3.3c0,0,0,0,0,0c-0.4,0-0.7,0-1.1,0c0.4,2,0.8,4,1.2,6
		c0.1,0.3,0.2,0.6-0.3,0.7c0.4,0.3,0.9,0.2,1.3,0C24.4,112.7,23.9,111.6,23.7,110.5z"/>
	<path class="st33" d="M22,107.2c0.4,0,0.7,0,1.1,0c0,0,0,0,0,0c0-0.1,0-0.2-0.1-0.3c0,0,0,0,0,0c0,0,0,0,0,0c-0.4,0-0.7,0-1.1,0
		l0,0c0,0,0,0,0,0C22,107,22,107.1,22,107.2z"/>
	<path class="st34" d="M21.3,109.2c-0.2-0.7-0.2-1.4-0.3-2c0,0,0,0,0,0c-0.5,0-1,0.1-1.3-0.3c0,0,0-0.1,0-0.1c0,0,0,0,0,0
		c0,0,0,0,0,0c-0.6,0.4-1,0-1.3-0.4c1,2,2.1,4,3.2,6C22.1,111.2,21.5,110.2,21.3,109.2z"/>
	<path class="st34" d="M21,107.2C21,107.2,21,107.2,21,107.2c0-0.1,0-0.2,0-0.3v0c-0.4-0.1-0.9,0.1-1.3-0.2c0,0,0,0,0,0.1
		C20,107.3,20.5,107.1,21,107.2z"/>
	<path class="st34" d="M19.7,106.7C19.7,106.7,19.7,106.7,19.7,106.7C19.7,106.7,19.7,106.7,19.7,106.7c-0.5,0.1-0.9-0.2-1.3-0.4
		C18.7,106.7,19.1,107.1,19.7,106.7z"/>
	<path class="st35" d="M21.8,107.2c-0.2,0-0.5,0-0.7,0c0.4,1.5,0.8,2.9,0.9,4.4c0,0.3,0,0.7-0.4,0.7c0.3,0.6,0.5,1.3,1.3,1.5
		c-0.1-1.9-0.7-3.8-1-5.7C21.9,107.8,21.7,107.5,21.8,107.2z"/>
	<path class="st35" d="M21.8,107.2c0-0.1,0.1-0.2,0.1-0.3c-0.3,0-0.6,0-0.9,0c0,0.1,0.1,0.2,0.1,0.3
		C21.3,107.2,21.6,107.2,21.8,107.2z"/>
	<path class="st35" d="M23.2,113.1c-0.4-2-0.8-4-1.2-6c0,0,0,0,0,0c0,0-0.1,0-0.1,0c-0.1,0.3,0.1,0.7,0.1,1c0.3,1.9,0.8,3.7,1,5.7
		C23.3,113.7,23.3,113.4,23.2,113.1z"/>
	<path class="st35" d="M22,107.2C22,107.2,22,107.2,22,107.2c0-0.1,0-0.2,0-0.3c0,0,0,0,0,0c-0.1,0.1-0.1,0.2-0.1,0.3
		C21.9,107.2,21.9,107.2,22,107.2z"/>
	<path class="st35" d="M22,111.6c-0.1-1.5-0.5-3-0.9-4.4c0,0,0,0-0.1,0c0,0.7,0.1,1.4,0.3,2c0.2,1,0.8,2,0.3,3.1
		C22,112.3,22,111.9,22,111.6z"/>
	<path class="st35" d="M21.1,107.2c0-0.1,0-0.2-0.1-0.3C21,107,21,107.1,21.1,107.2C21,107.2,21.1,107.2,21.1,107.2z"/>
	<path class="st36" d="M24.2,107.2c-0.3,0-0.6,0-1,0c0.2,0.3,0.2,0.6,0.3,0.9c0.3,1.6,0.6,3.2,0.9,4.8c0.1,0.3,0.1,0.7-0.3,0.9
		c0.4,0,0.8-0.2,1.1-0.4c-0.1-1.5-0.6-3-0.8-4.4C24.4,108.4,24.3,107.8,24.2,107.2z"/>
	<path class="st36" d="M24.2,107.2c0-0.1,0-0.2,0-0.3h0c0,0,0,0,0,0c-0.4,0-0.7,0-1.1,0c0.1,0.1,0.1,0.2,0.2,0.3
		C23.6,107.2,23.9,107.2,24.2,107.2z"/>
	<path class="st36" d="M24.5,112.9c-0.3-1.6-0.6-3.2-0.9-4.8c-0.1-0.3-0.1-0.6-0.3-0.9c0,0-0.1,0-0.1,0c0.2,1.1,0.5,2.2,0.6,3.3
		c0.2,1.1,0.7,2.2,0.5,3.3C24.6,113.6,24.5,113.3,24.5,112.9z"/>
	<path class="st36" d="M23.1,107.2c0,0,0.1,0,0.1,0c-0.1-0.1-0.1-0.2-0.2-0.3c0,0,0,0,0,0C23.1,107,23.1,107.1,23.1,107.2z"/>
	<path class="st37" d="M23.7,95.5c-0.5-0.2-1-0.5-1.4-0.8v0c-0.2,0.3-0.3,0.6-0.4,0.9c1.8,0.5,3.4,1.4,5.1,2.1
		c0.5,0.2,1,0.2,1.4,0.6c0.2-0.2,0.2-0.3,0.2-0.6c0,0,0,0,0,0C27,97,25.4,96.2,23.7,95.5z"/>
	<path class="st37" d="M21.9,95.6C21.9,95.6,21.9,95.6,21.9,95.6c1.1,0.8,2.4,1.2,3.7,1.7c0.9,0.4,1.8,1,2.9,1
		c-0.4-0.4-1-0.4-1.4-0.6C25.3,97.1,23.7,96.2,21.9,95.6z"/>
	<path class="st38" d="M23.1,92.9c-0.2,0.3-0.3,0.6-0.4,0.9c0.8,1,2,1.1,3.1,1.7c1.1,0.5,2.3,0.8,3.3,1.5c0,0,0,0,0,0
		c0.2-0.3,0.4-0.6,0.4-0.9c-1.9-0.8-3.9-1.6-5.8-2.4C23.3,93.5,23,93.3,23.1,92.9z"/>
	<path class="st39" d="M23.2,94.5c-0.3-0.2-0.7-0.3-0.5-0.7c-0.2,0.3-0.3,0.6-0.4,0.9c0.8,0.1,1.5,0.6,2.2,0.9
		c1.2,0.5,2.3,1.1,3.5,1.5c0.3,0.1,0.5,0.3,0.6,0.6c0.1-0.2,0.4-0.4,0.4-0.7c0,0,0,0,0,0c-1.4-0.3-2.6-1-3.9-1.5
		C24.5,95.2,23.8,94.9,23.2,94.5z"/>
	<path class="st39" d="M28.1,97.1c-1.2-0.4-2.3-1.1-3.5-1.5c-0.7-0.3-1.4-0.7-2.2-0.9v0c0.4,0.3,0.9,0.6,1.4,0.8
		c1.7,0.7,3.3,1.5,5,2.2c0,0,0,0,0,0C28.6,97.4,28.4,97.2,28.1,97.1z"/>
	<path class="st39" d="M22.7,93.8c-0.2,0.5,0.2,0.6,0.5,0.7c0.6,0.4,1.3,0.7,2,0.9c1.3,0.5,2.5,1.2,3.9,1.5c-1-0.7-2.2-1-3.3-1.5
		C24.7,95,23.5,94.8,22.7,93.8z"/>
	<path class="st40" d="M27,112.6C27,112.6,27,112.6,27,112.6c0.2-0.1,0.5-0.3,0.7-0.4c0.1-1.4-0.5-2.6-0.6-3.9
		c0-0.4-0.1-0.8-0.1-1.3c0,0,0,0,0,0c-0.4,0-0.7,0-1.1,0C26,108.8,26.6,110.7,27,112.6C27,112.6,27,112.6,27,112.6z"/>
	<path class="st41" d="M29,94.2c-1.5-0.6-2.9-1.2-4.3-1.8c-0.4-0.2-0.9-0.2-1-0.9c-0.2,0.3-0.4,0.6-0.4,0.9c0.8,0.7,1.8,0.9,2.8,1.3
		c1.2,0.5,2.5,1.1,3.8,1.5v0c0.2-0.3,0.3-0.6,0.4-0.9C29.7,94.7,29.3,94.4,29,94.2z"/>
	<path class="st42" d="M24.4,107.2c0.1,0.2,0.1,0.4,0.2,0.6c0.2,1.5,0.6,3,0.9,4.5c0.1,0.4,0.2,0.9-0.1,1.2c0.3,0,0.5-0.2,0.8-0.4
		c0-0.8-0.1-1.7-0.4-2.5c-0.4-1.2-0.5-2.5-0.6-3.7c0,0,0,0,0,0c0,0-0.1-0.1-0.1-0.1c0,0,0,0,0,0C24.8,107.1,24.6,107.1,24.4,107.2z"
		/>
	<path class="st42" d="M24.4,107.2c0.2,0,0.5-0.1,0.6-0.3c-0.3,0-0.5,0-0.8,0.1C24.3,107,24.3,107.1,24.4,107.2z"/>
	<path class="st42" d="M25.4,112.2c-0.3-1.5-0.7-3-0.9-4.5c0-0.2-0.1-0.4-0.2-0.6c0,0-0.1,0-0.1,0c0,0,0,0,0,0
		c0.1,0.6,0.2,1.2,0.3,1.8c0.2,1.5,0.8,2.9,0.8,4.4C25.7,113.1,25.5,112.6,25.4,112.2z"/>
	<path class="st42" d="M24.2,107.2C24.2,107.2,24.2,107.2,24.2,107.2c0.1,0,0.1,0,0.1,0c0-0.1-0.1-0.2-0.2-0.3h0
		C24.2,107,24.2,107.1,24.2,107.2z"/>
	<path class="st43" d="M25,90.9c1.8,0.8,3.7,1.5,5.5,2.3c0-0.1-0.1-0.3,0-0.4c-0.2-0.1-0.3-0.4-0.5-0.6c0,0,0-0.1,0-0.1
		c-1.5-0.4-3-1.2-4.4-1.8c-0.4-0.2-0.8-0.4-1.2-0.4c0,0,0,0,0,0c-0.1,0.1-0.1,0.2-0.1,0.4c0,0,0,0,0,0c0,0,0,0,0,0
		C24.2,90.7,24.7,90.8,25,90.9z"/>
	<path class="st43" d="M30.2,92.1c-0.1,0-0.1,0-0.2-0.1c0,0,0,0.1,0,0.1c0.1,0.2,0.2,0.5,0.5,0.6c0,0,0-0.1,0.1-0.1
		C30.4,92.5,30.3,92.3,30.2,92.1z"/>
	<path class="st43" d="M30.5,92.8c-0.1,0.1,0,0.3,0,0.4c0,0,0.1,0,0.1,0.1c0,0,0,0,0,0c0,0,0,0,0,0C30.7,93.1,30.6,93,30.5,92.8
		C30.5,92.8,30.5,92.8,30.5,92.8C30.5,92.8,30.5,92.8,30.5,92.8z"/>
	<path class="st43" d="M30.5,92.7c0,0-0.1,0.1-0.1,0.1c0,0,0,0,0.1,0c0,0,0,0,0,0C30.5,92.8,30.5,92.7,30.5,92.7z"/>
	<path class="st44" d="M23.8,91.2c-0.1,0.1-0.2,0.2-0.2,0.4v0c2.1,1.2,4.3,2,6.5,2.8c0.1-0.1,0.1-0.3,0.2-0.4
		C28.2,93.1,26,92.1,23.8,91.2C23.8,91.2,23.8,91.2,23.8,91.2z"/>
	<path class="st44" d="M24.6,92.4c1.4,0.6,2.9,1.2,4.3,1.8c0.4,0.2,0.8,0.4,1.2,0.2c-2.2-0.8-4.5-1.6-6.5-2.8
		C23.7,92.2,24.2,92.2,24.6,92.4z"/>
	<path class="st45" d="M28.8,95.2c-1.7-0.7-3.3-1.4-5-2.1c-0.3-0.1-0.7-0.2-0.6-0.7c-0.1,0.1-0.2,0.2-0.2,0.4c0.8,0.8,2,1,2.9,1.5
		c1.1,0.5,2.4,0.8,3.4,1.6v0h0c-0.1-0.3,0.4-0.4,0.4-0.7C29.4,95.6,29.1,95.4,28.8,95.2z"/>
	<path class="st45" d="M26,94.4c-1-0.5-2.1-0.7-2.9-1.5c-0.1,0.4,0.2,0.6,0.6,0.7c1.9,0.8,3.9,1.6,5.8,2.4v0
		C28.4,95.2,27.2,94.9,26,94.4z"/>
	<path class="st45" d="M23.2,92.5c-0.1,0.5,0.3,0.6,0.6,0.7c1.6,0.7,3.3,1.4,5,2.1c0.3,0.1,0.6,0.3,1,0.1c-1.3-0.4-2.5-1-3.8-1.5
		C25.1,93.4,24,93.2,23.2,92.5z"/>
	<path class="st46" d="M30.5,93.3c-0.9,0.1-1.6-0.5-2.4-0.8c-1.1-0.4-2.2-0.9-3.3-1.4c-0.3-0.2-0.8-0.3-0.6-0.8
		c-0.2,0.3-0.3,0.6-0.4,0.9c0.2-0.1,0.4,0,0.6,0c1.8,0.7,3.6,1.4,5.3,2.2c0.3,0.1,0.5,0.3,0.6,0.5c0.1-0.2,0.2-0.4,0.3-0.6
		c0,0,0,0,0,0C30.5,93.4,30.5,93.4,30.5,93.3z"/>
	<path class="st46" d="M30.5,93.3c0,0.1,0.1,0.1,0.1,0.1c0,0,0-0.1,0-0.1C30.6,93.3,30.5,93.3,30.5,93.3z"/>
	<path class="st46" d="M24.8,91.1c1.1,0.5,2.1,1,3.3,1.4c0.8,0.3,1.5,0.9,2.4,0.8c0,0,0,0,0,0c0,0,0,0,0,0c-1.8-0.8-3.7-1.5-5.5-2.3
		c-0.3-0.1-0.7-0.2-0.8-0.7c0,0,0,0,0,0C24,90.8,24.5,90.9,24.8,91.1z"/>
	<path class="st46" d="M30.5,93.2C30.5,93.2,30.5,93.2,30.5,93.2C30.5,93.3,30.5,93.3,30.5,93.2c0.1,0.1,0.1,0.1,0.1,0.1
		c0,0,0,0,0,0C30.5,93.3,30.5,93.2,30.5,93.2z"/>
	<path class="st46" d="M29.7,93.5c-1.7-0.8-3.5-1.5-5.3-2.2c-0.2-0.1-0.4-0.2-0.6,0c0,0,0,0,0,0c2.2,0.9,4.4,1.9,6.6,2.8
		C30.2,93.7,30,93.6,29.7,93.5z"/>
	<path class="st47" d="M27.5,88.3c0.3,0.1,0.7,0.5,1.1,0.3c0,0,0,0,0,0c-0.1-0.2-0.1-0.3,0-0.5c-0.2-0.6-0.4-1.1-0.7-1.7
		c0,0-0.1,0-0.1,0c-0.4,0-0.8,0-1.1-0.4c0,0,0,0,0,0c-0.6,0-1,0.3-1.1,1C25.7,88.2,26.8,88,27.5,88.3z"/>
	<path class="st47" d="M28.7,88.6C28.7,88.6,28.7,88.6,28.7,88.6c-0.1-0.1-0.1-0.2-0.2-0.4c0,0,0,0,0-0.1c-0.1,0.2-0.1,0.3,0,0.5
		c0,0,0,0,0,0C28.6,88.6,28.6,88.6,28.7,88.6C28.7,88.6,28.7,88.6,28.7,88.6z"/>
	<path class="st47" d="M27.7,86.5C27.7,86.5,27.8,86.5,27.7,86.5c0.1,0,0-0.1,0-0.1c0,0,0,0,0,0c-0.3-0.2-0.7-0.2-1.1-0.3
		C26.9,86.5,27.3,86.5,27.7,86.5z"/>
	<path class="st48" d="M26.1,113.1c0.4-0.1,0.7-0.3,0.9-0.5c-0.1-0.1-0.2-0.1-0.2-0.2c-0.6-1.7-1-3.4-1.1-5.1c0-0.1,0.1-0.2,0.2-0.3
		c-0.2,0-0.5,0-0.7,0c0,0,0,0,0,0c0.5,1.8,0.8,3.7,1.2,5.5C26.3,112.6,26.2,112.9,26.1,113.1z"/>
	<path class="st48" d="M26.8,112.4c0,0.1,0.1,0.1,0.2,0.2c0,0,0,0,0,0c-0.4-1.9-1-3.7-1.1-5.7c-0.1,0.1-0.2,0.2-0.2,0.3
		C25.8,109,26.2,110.7,26.8,112.4z"/>
	<path class="st48" d="M26.1,113.1c0.2-0.2,0.3-0.4,0.2-0.7c-0.4-1.8-0.6-3.7-1.2-5.5c0.1,1.3,0.1,2.5,0.6,3.7
		C26,111.4,26.1,112.2,26.1,113.1z"/>
	<path class="st49" d="M27.7,112.1c0.3-0.2,0.6-0.4,0.9-0.6v0c-0.6-1.5-1-3-0.7-4.6c-0.3,0-0.6,0-0.9,0c0,0,0,0,0,0
		c0.6,1.5,0.7,3,1,4.5C28,111.7,27.9,111.9,27.7,112.1z"/>
	<path class="st49" d="M28.7,111.5c0-0.3,0-0.6-0.1-0.9c-0.2-1.2-0.4-2.5-0.6-3.7h0c0,0,0,0,0,0C27.7,108.5,28.1,110,28.7,111.5z"/>
	<path class="st49" d="M27.7,112.1c0.2-0.2,0.3-0.4,0.2-0.7c-0.3-1.5-0.4-3.1-1-4.5c0,0.4,0.1,0.9,0.1,1.3
		C27.2,109.5,27.9,110.8,27.7,112.1z"/>
	<path class="st50" d="M24.9,89.8c1.6,0.8,3.4,1.3,5,2.2c-0.1-0.3-0.3-0.5-0.2-0.9c-0.1-0.1-0.2-0.1-0.2-0.2c-0.1,0.1-0.3,0.1-0.4,0
		c-1.4-0.6-2.7-1.1-4.1-1.7c-0.1-0.1-0.2-0.2-0.3-0.3c-0.2,0.3-0.4,0.6-0.4,0.9c0,0,0,0,0,0C24.5,89.7,24.7,89.7,24.9,89.8z"/>
	<path class="st50" d="M29.8,91c-0.1-0.1-0.1-0.1-0.2-0.2c0,0-0.1,0.1-0.1,0.1c0.1,0.1,0.1,0.2,0.2,0.2C29.8,91.1,29.8,91,29.8,91
		C29.8,91,29.8,91,29.8,91z"/>
	<path class="st50" d="M29.9,91.2C29.9,91.2,29.8,91.2,29.9,91.2c-0.1-0.1-0.1-0.1-0.1-0.1c-0.1,0.3,0.1,0.6,0.2,0.9
		c0.1,0,0.2,0.1,0.2,0.1C30.1,91.8,30,91.5,29.9,91.2z"/>
	<path class="st50" d="M29.9,91.2c0-0.1,0-0.1-0.1-0.2c0,0-0.1,0.1-0.1,0.1C29.8,91.1,29.8,91.2,29.9,91.2
		C29.8,91.2,29.9,91.2,29.9,91.2z"/>
	<path class="st50" d="M25.5,90.3c1.5,0.6,2.9,1.3,4.4,1.8c0,0,0-0.1,0-0.1c-1.6-0.9-3.4-1.4-5-2.2c-0.2-0.1-0.4,0-0.6,0.1
		c0,0,0,0,0,0c0,0,0,0,0,0C24.8,89.8,25.2,90.1,25.5,90.3z"/>
	<path class="st50" d="M29.9,92C30,92,30,92,29.9,92c0.1,0.1,0.2,0.1,0.2,0.1C30.1,92.1,30,92,29.9,92z"/>
	<path class="st51" d="M29.1,89.9C29.1,89.9,29.1,89.9,29.1,89.9c-1.3-0.2-2.3-1-3.6-1.3c-0.3-0.1-0.4-0.3-0.4-0.6
		c-0.2,0.3-0.3,0.6-0.4,0.9c1.6,0.5,3.1,1.3,4.7,1.9C29.3,90.5,29.2,90.2,29.1,89.9z"/>
	<path class="st51" d="M29.2,89.9c-0.1,0-0.1,0-0.2,0c0,0,0,0,0,0c0.1,0.3,0.2,0.6,0.4,0.9c0.1,0,0.1,0,0.2,0.1
		C29.6,90.5,29.5,90.2,29.2,89.9z"/>
	<path class="st51" d="M25,89.3c1.4,0.6,2.7,1.1,4.1,1.7c0.2,0.1,0.3,0.1,0.4,0c0,0,0,0,0,0c0,0,0-0.1-0.1-0.1
		c-1.6-0.5-3.1-1.3-4.7-1.9C24.8,89,24.9,89.2,25,89.3z"/>
	<path class="st51" d="M29.6,90.8c-0.1,0-0.1,0-0.2-0.1c0,0,0,0.1,0.1,0.1C29.5,90.9,29.5,90.9,29.6,90.8
		C29.6,90.9,29.6,90.9,29.6,90.8z"/>
	<path class="st52" d="M29,89.7c-0.1-0.2-0.1-0.4,0-0.6c-0.2,0-0.3-0.2-0.4-0.3c-0.1,0.1-0.2,0.1-0.4,0c-0.8-0.2-1.6-0.5-2.3-0.9
		c-0.3-0.2-0.6-0.4-0.4-0.9v0c-0.2,0.3-0.3,0.6-0.4,0.9v0c1,0.6,2.2,1,3.3,1.5C28.6,89.6,28.8,89.6,29,89.7z"/>
	<path class="st52" d="M29.1,89.1L29.1,89.1C29,89.1,29,89.1,29.1,89.1c-0.2,0.2-0.1,0.4,0,0.6c0.1,0,0.2,0.1,0.2,0.2
		C29.2,89.6,29.1,89.4,29.1,89.1z"/>
	<path class="st52" d="M28.7,88.6c0,0.1,0,0.2-0.1,0.3c0.1,0.2,0.1,0.3,0.4,0.3c0,0,0,0,0,0C28.9,88.9,28.8,88.7,28.7,88.6z"/>
	<path class="st52" d="M29.1,89.1C29,89.1,29,89.1,29.1,89.1C29,89.1,29,89.1,29.1,89.1C29,89.1,29,89.1,29.1,89.1L29.1,89.1z"/>
	<path class="st52" d="M25.9,88c0.7,0.4,1.5,0.7,2.3,0.9c0.1,0,0.3,0.1,0.4,0c0-0.1-0.1-0.1-0.1-0.2c-0.4,0.2-0.8-0.2-1.1-0.3
		c-0.7-0.4-1.7-0.2-2-1.2v0v0C25.3,87.5,25.6,87.8,25.9,88z"/>
	<path class="st52" d="M28.7,88.6C28.7,88.6,28.7,88.6,28.7,88.6c0,0-0.1,0.1-0.1,0.1c0,0.1,0.1,0.1,0.1,0.2
		C28.7,88.8,28.7,88.7,28.7,88.6z"/>
	<path class="st52" d="M25.5,88.6c1.2,0.3,2.3,1.1,3.6,1.3c0-0.1,0-0.1-0.1-0.2c-0.2-0.1-0.4-0.2-0.6-0.2c-1.1-0.5-2.3-0.8-3.3-1.5
		C25.1,88.3,25.2,88.5,25.5,88.6z"/>
	<path class="st52" d="M29,89.7c0,0.1,0,0.1,0.1,0.2c0.1,0,0.1,0,0.2,0C29.2,89.8,29.1,89.8,29,89.7z"/>
	<path class="st53" d="M32.3,86.4c-1.5,0-3-0.1-4.4,0.1c0.6,0.4,0.8,0.9,0.7,1.6c0,0,0,0,0,0C29.7,87.5,31,87.1,32.3,86.4z"/>
	<path class="st53" d="M32.3,86.4c-1.3,0.7-2.6,1.1-3.7,1.7c0,0,0,0,0,0c0,0,0,0.1,0,0.1c1.5-0.4,3-1.1,4.3-1.9
		c-1.5-0.1-3-0.1-4.5-0.1c-0.2,0-0.4,0-0.6,0.2c0,0,0,0,0,0c0.1,0,0.1,0.1,0.1,0.1C29.3,86.3,30.7,86.4,32.3,86.4z"/>
	<path class="st53" d="M27.9,86.5C27.8,86.5,27.8,86.5,27.9,86.5c0.2,0.5,0.5,1.1,0.6,1.7c0,0,0,0,0,0
		C28.6,87.4,28.4,86.9,27.9,86.5z"/>
	<path class="st53" d="M27.7,86.4c0,0,0,0.1,0.1,0.1c0,0,0.1,0,0.1,0C27.8,86.4,27.8,86.4,27.7,86.4z"/>
	<path class="st53" d="M28.5,88.1C28.5,88.1,28.5,88.1,28.5,88.1c0,0.1,0,0.1,0,0.1C28.5,88.2,28.5,88.1,28.5,88.1z"/>
</g>
</svg>
