<?xml version="1.0" encoding="utf-8"?>
<!-- Generator: Adobe Illustrator 22.1.0, SVG Export Plug-In . SVG Version: 6.00 Build 0)  -->
<svg version="1.1" id="Layer_1" xmlns="http://www.w3.org/2000/svg" xmlns:xlink="http://www.w3.org/1999/xlink" x="0px" y="0px"
	 viewBox="0 0 200 200" style="enable-background:new 0 0 200 200;" xml:space="preserve">
<style type="text/css">
	.st0{fill:none;}
	.st1{fill:#ED1F24;}
	.st2{fill:#FFFFFF;}
	.st3{fill:#00DBFF;}
	.st4{fill-rule:evenodd;clip-rule:evenodd;}
	.st5{fill-rule:evenodd;clip-rule:evenodd;fill:#FFFFFF;}
	.st6{fill:#475E29;}
	.st7{fill:#0E0D0F;}
	.st8{fill:#0F0E10;}
	.st9{fill:#3660B0;}
	.st10{fill:#3567B4;}
	.st11{fill:#356BB7;}
	.st12{fill:#2B99D9;}
	.st13{fill:#375BAD;}
	.st14{fill:#70AA43;}
	.st15{fill:#394EA6;}
	.st16{fill:#3372BC;}
	.st17{fill:#3756AA;}
	.st18{fill:#2C93D4;}
	.st19{fill:#3853A8;}
	.st20{fill:#6BA443;}
	.st21{fill:#7AB444;}
	.st22{fill:#2E8DD0;}
	.st23{fill:#7EB845;}
	.st24{fill:#75AF44;}
	.st25{fill:#3278C1;}
	.st26{fill:#2F86CB;}
	.st27{fill:#4EB9A8;}
	.st28{fill:#82BD46;}
	.st29{fill:#3082C8;}
	.st30{fill:#317DC4;}
	.st31{fill:#54BDAC;}
	.st32{fill:#2CA1DF;}
	.st33{fill:#368E86;}
	.st34{fill:#2D7E7A;}
	.st35{fill:#31857F;}
	.st36{fill:#3A968D;}
	.st37{fill:#639D41;}
	.st38{fill:#57933F;}
	.st39{fill:#5D9840;}
	.st40{fill:#45AA9C;}
	.st41{fill:#4C8A3D;}
	.st42{fill:#3E9D92;}
	.st43{fill:#3C7C3A;}
	.st44{fill:#46853C;}
	.st45{fill:#518E3E;}
	.st46{fill:#41803B;}
	.st47{fill:#236737;}
	.st48{fill:#41A397;}
	.st49{fill:#4AB2A3;}
	.st50{fill:#36773A;}
	.st51{fill:#307238;}
	.st52{fill:#2A6C38;}
	.st53{fill:#29A4E1;}
	.st54{fill:#070707;}
	.st55{fill:#050505;}
	.st56{fill:#030303;}
	.st57{fill:#FEFEFE;}
	.st58{fill:#F9F9F9;}
	.st59{fill:#FBFBFB;}
	.st60{fill:#0D5B3C;}
	.st61{fill:#045033;}
	.st62{fill:#FCFCFC;}
	.st63{fill:#F3F5F3;}
	.st64{fill:#237851;}
	.st65{fill:#166D48;}
	.st66{fill:#29875B;}
	.st67{fill:#1C754E;}
	.st68{fill:#339866;}
	.st69{fill:#319263;}
	.st70{fill:#F9E803;}
	.st71{fill:#D93339;}
	.st72{fill:#9B9B9B;}
</style>
<g>
	<path class="st6" d="M148.6,96.5c-0.5-1.7-1.3-3.3-2.6-4.6c-2.4-2.3-5.2-3.1-8.4-2.4c-1.4,0.3-2.6,0.9-3.5,2.1
		c-0.1,0.1-0.2,0.2-0.2,0.3c-0.2,0.1-0.3,0.3-0.5,0.2c-0.2-0.1-0.2-0.3-0.2-0.5c0-0.4,0-0.9,0-1.3c0-0.1,0-0.2,0-0.3
		c-2.5,0-4.9,0-7.4,0c-0.1,0.5,0,29.6,0,29.9c2.5,0,5,0,7.5,0c0-0.1,0-0.3,0-0.4c0-2.5,0-5,0-7.6c0-0.1,0-0.2,0-0.3
		c0-0.3,0.2-0.4,0.5-0.3c0.2,0.1,0.3,0.2,0.5,0.3c0.5,0.5,1.1,0.9,1.7,1.1c1.6,0.7,3.3,0.9,5,0.7c2.3-0.2,4.2-1.2,5.7-3
		c1.1-1.4,1.8-3,2.3-4.7c0.4-1.7,0.6-3.3,0.5-5C149.2,99.2,149,97.8,148.6,96.5z M141.4,103.9c-0.1,0.8-0.4,1.6-0.8,2.4
		c-0.6,1-1.4,1.7-2.6,1.8c-1,0.1-1.9,0-2.8-0.3c-0.9-0.4-1.4-1-1.8-1.9c-0.3-0.7-0.4-1.5-0.5-2.3c0-0.6-0.1-1.1-0.1-1.7
		c0-1.2,0.1-2.3,0.4-3.5c0.2-0.9,0.6-1.7,1.3-2.4c0.6-0.6,1.4-0.9,2.2-0.9c0.5,0,1,0,1.5,0.1c1.3,0.3,2.2,1.1,2.7,2.4
		c0.2,0.6,0.4,1.3,0.4,1.9C141.7,101,141.6,102.4,141.4,103.9z"/>
	<path class="st6" d="M75.9,80.2c-2.7,0-5.3,0-8,0c0,0.2,0,0.3,0,0.5c0,6.8,0,13.7,0,20.5c0,0.3,0,0.5,0,0.8c-0.2,1.7-1,2.9-2.6,3.5
		c-0.9,0.4-1.9,0.4-2.9,0.3c-1.4-0.2-2.5-0.9-3.2-2.2c-0.4-0.7-0.6-1.5-0.6-2.3c0-1.1,0-2.3,0-3.4c0-0.1,0-0.2,0-0.3
		c-0.6-0.1-7.5,0-7.8,0c0,0.1,0,0.2,0,0.3c0,1.3,0,2.7,0,4c0,1.1,0.1,2.2,0.4,3.2c0.8,2.9,2.5,5,5.3,6.3c1.6,0.7,3.3,1,5,1.1
		c1.3,0.1,2.6,0.1,4-0.1c1.5-0.2,3-0.5,4.4-1.1c2-0.9,3.5-2.2,4.6-4.1c1-1.8,1.5-3.7,1.5-5.7c0-2.3,0-4.6,0-7c0-4.7,0-9.3,0-14
		C75.9,80.5,75.9,80.4,75.9,80.2z"/>
	<path class="st6" d="M123.9,102.2c0-1.1-0.1-2.2-0.2-3.3c-0.2-1.3-0.5-2.6-1-3.8c-1.2-2.9-3.3-4.8-6.4-5.6
		c-1.6-0.4-3.2-0.5-4.8-0.5c-1.4,0.1-2.7,0.4-3.9,1c-2,1-3.4,2.5-4.4,4.4c-1,1.9-1.5,3.9-1.7,6c-0.2,1.9,0.1,3.8,0.7,5.6
		c1.2,3.2,3.4,5.4,6.6,6.4c1.6,0.5,3.2,0.6,4.9,0.6c1.7-0.1,3.4-0.5,4.9-1.2c1.5-0.7,2.8-1.6,3.9-3c0.6-0.8,1.1-1.7,1.3-2.7
		c0-0.2,0.1-0.4,0-0.6c-0.1,0-0.2,0-0.2,0c-2.3,0-4.5,0-6.8,0c-0.2,0-0.3,0.1-0.4,0.2c-0.5,0.9-1.3,1.5-2.4,1.8
		c-0.8,0.2-1.6,0.1-2.4-0.1c-0.9-0.3-1.6-0.8-2-1.7c-0.2-0.4-0.3-0.8-0.4-1.2c-0.1-0.6-0.2-1.2-0.2-1.9c5,0,10,0,15,0
		C123.9,102.5,123.9,102.4,123.9,102.2z M109.2,98.1c0-0.2,0-0.5,0-0.7c0.1-0.5,0.1-0.9,0.3-1.4c0.4-1.2,1.3-1.9,2.5-2.1
		c0.6-0.1,1.3-0.1,1.9,0.1c1.4,0.4,2.3,1.3,2.7,2.7c0.1,0.4,0.2,0.9,0.2,1.4C114.2,98.1,111.7,98.1,109.2,98.1z"/>
	<path class="st6" d="M99.7,99.3c-0.2-1.4-0.5-2.8-1-4.2c-1.1-2.8-3.1-4.6-6-5.5c-1.3-0.4-2.6-0.5-3.9-0.6c-1.1,0-2.2,0-3.2,0.3
		c-2.5,0.6-4.4,2-5.8,4c-1.8,2.7-2.5,5.6-2.4,8.8c0,1.4,0.3,2.7,0.8,4c1.1,2.8,3,4.9,5.8,6c1.3,0.5,2.6,0.8,4,0.8
		c1.6,0.1,3.1,0,4.6-0.5c2.1-0.6,3.9-1.6,5.4-3.1c0.8-0.8,1.4-1.7,1.6-2.8c0.1-0.3,0.2-0.7,0.1-1c-0.1,0-0.2,0-0.3,0
		c-2.3,0-4.5,0-6.8,0c-0.2,0-0.3,0.1-0.4,0.3c-0.5,0.9-1.3,1.5-2.3,1.7c-0.6,0.2-1.2,0.2-1.8,0.1c-1.5-0.2-2.5-0.9-3-2.3
		c-0.3-0.8-0.4-1.6-0.4-2.4c0-0.1,0-0.1,0-0.2c5,0,9.9,0,15,0c0-0.2,0-0.3,0-0.5C99.8,101.2,99.8,100.2,99.7,99.3z M85.2,98.1
		c-0.1-0.5,0-0.9,0.1-1.4c0.1-0.7,0.4-1.3,0.9-1.8c0.5-0.5,1.1-0.8,1.8-0.9c0.7-0.1,1.4-0.1,2.1,0.1c1.3,0.4,2.1,1.3,2.4,2.6
		c0.1,0.5,0.2,0.9,0.2,1.4C90.2,98.1,87.7,98.1,85.2,98.1z"/>
</g>
</svg>
