<?xml version="1.0" encoding="UTF-8"?>
<svg id="Layer_1" data-name="Layer 1" xmlns="http://www.w3.org/2000/svg" viewBox="0 0 300 313.2">
  <defs>
    <style>
      .cls-1 {
        fill: #00338d;
      }
    </style>
  </defs>
  <path class="cls-1" d="m255.67,179.15h-11.16l1.84-7.4h-22.35l-1.84,7.4h-10.8v-1.52c.16-.83.31-1.7.52-2.63,1.97-7.95,7.19-15.82,16.22-15.82,3.57,0,7.13,1.36,6.64,6.31h13.3c.52-2.31,1.4-6.24-1.11-9.85-2.83-3.93-8.54-5.5-15.95-5.5-5.27,0-12.97.84-19.62,5.19v-40.13h44.3v63.96Zm-26.14,10.81c-2.46.47-4.95.73-7.45.76-6.39,0-10.83-2.96-10.92-9.89h20.64l-2.26,9.13Zm-25.53-36.54l-.02,9.16c-2.76,3.81-4.76,8.11-5.9,12.68-.33,1.27-.57,2.57-.71,3.88h-6.51l5.58-26.4-18.73-.02-16.77,26.44h-1.22v-63.94h44.28v38.2Zm-24.72,25.74h-6.67l10.1-15.87-3.43,15.87Zm-26.89-26.48h-11.09l-7.6,26.48h-11.75c5.99-2.22,9.63-6.45,10.77-12.72.93-4.88.49-8.08-1.5-10.49-2.98-3.57-8.96-3.27-14.28-3.27l-8.79.02v-37.5h44.24v37.48Zm-7.1,26.48l4.66-16.56.16,16.56h-4.83Zm-32.23-6.3h0c-.43.02-.86.06-1.35.06-.65,0-1.15.02-1.63.02l-2.83-.02,1.31-4.85.62-2.41,1.49-5.63c.67,0,1.31-.02,1.92-.02h2.19c3.75,0,6.11.21,6.98,1.42.67.9.58,2.47-.21,4.84-1.35,4.1-3.03,6.18-8.47,6.59m-12.31-17.84l-.69,2.3-6.33,21.08-.25.74h-20.85l-1.63-3.44,22.47-22.97h-14.44l-17.57,18.93,5.69-18.93h-10.64v-37.55h44.25v39.83Zm108.92-41.53v43.03c-1.44,1.15-2.77,2.43-3.97,3.83v-46.86h-47.67v39.18h-3.95v-39.18h-47.68v39.25h-3.94v-39.25h-47.67v44.73l-12.16,40.55h10.7l5.38-17.96h1.55l8.87,17.96h12.93l-8.61-17.96h19.52l-5.42,17.96h11.69l5.35-17.91h2.56v-.05h26.03l-5.16,17.91h11.78l5-17.91h5.3l.14,17.91h9.89l11.35-17.91h7.44l-3.84,17.91h11.6l3.77-17.91h6.71c-.27,5.55,1.15,10.59,4.84,13.99,4.5,4.13,11.4,4.92,16.51,4.92,6.99,0,14.25-1.01,21.55-2.65l4.02-16.26h13.25v-67.33h-47.67Z"/>
</svg>